<svg width="19" height="19" viewBox="0 0 19 19" fill="none" xmlns="http://www.w3.org/2000/svg">
<path d="M13.6959 6.21772C13.841 6.36285 13.9136 6.54758 13.9136 6.77188C13.9136 6.99619 13.841 7.18091 13.6959 7.32605L10.0542 10.9677C9.97503 11.0469 9.88927 11.1028 9.79691 11.1356C9.70455 11.1683 9.60559 11.1849 9.50003 11.1854C9.39448 11.1854 9.29209 11.1656 9.19287 11.1261C9.09364 11.0865 9.01131 11.0337 8.94587 10.9677L5.3042 7.32605C5.15906 7.18091 5.08649 6.99619 5.08649 6.77188C5.08649 6.54758 5.15906 6.36286 5.3042 6.21772C5.44934 6.07258 5.63406 6.00001 5.85837 6.00001C6.08267 6.00001 6.26739 6.07258 6.41253 6.21772L9.50003 9.30522L12.5875 6.21772C12.7327 6.07258 12.9174 6.00001 13.1417 6.00001C13.366 6.00001 13.5507 6.07258 13.6959 6.21772Z" fill="white"/>
</svg>
