<svg width="1440" height="356" viewBox="0 0 1440 356" fill="none" xmlns="http://www.w3.org/2000/svg">
<path fill-rule="evenodd" clip-rule="evenodd" d="M357.195 240.915C357.195 267.038 357.144 291.568 357.144 317.691C308.075 328.152 299.972 240.915 357.195 240.915ZM1147 240.915C1147 267.038 1146.95 291.568 1146.95 317.691C1097.88 328.152 1089.78 240.915 1147 240.915ZM1219.46 308.271C1219.41 267.587 1219.41 226.966 1219.46 186.283C1219.56 98.617 1121.31 93.4171 1071.38 125.168C1016.15 160.284 1055.73 225.865 1094.16 202.74C1120.76 186.712 1122.03 143.949 1093.6 125.902C1139.2 119.784 1147.56 155.695 1147.15 188.608C1146.95 202.679 1147.15 215.588 1147 225.315C1021.85 196.684 1002.8 337.39 1079.84 354.703C1114.29 360.27 1134.21 346.995 1146.95 332.374V352.93H1210.33H1219.46H1246.37L1219.46 327.48V327.174V308.271ZM1251.36 143.153L1278.21 168.603L1278.26 327.419L1251.36 352.868H1350.56H1377.47L1350.56 327.419V327.297V308.271V291.936V149.271L1369.32 144.071C1354.58 177.475 1376.65 206.594 1401.42 206.228C1447.23 205.493 1455.64 116.175 1408.14 107.916C1383.84 104.307 1365.04 122.232 1350.62 133.672V110.057L1251.36 143.153ZM461.602 143.153L488.456 168.603L488.507 327.419L461.602 352.868H560.812H587.716L560.812 327.419V327.297V312.124V308.271V291.936V149.271L579.563 144.071C564.837 177.475 586.901 206.594 611.664 206.228C657.473 205.493 665.881 116.175 618.391 107.916C594.085 104.307 575.283 122.232 560.812 133.672V110.057L461.602 143.153ZM99.1587 337.329V188.18C176.508 188.18 183.54 335.31 99.1587 337.329ZM99.1587 36.7673C163.158 36.7673 161.223 174.232 99.1587 174.232V36.7673ZM26.9043 46.5556V327.357L0 352.991H71.3371H124.687H142.013C270.469 346.138 260.584 178.514 158.42 180.778C241.17 177.781 243.464 19.6989 124.279 21.2284L0.0510048 21.1673L26.9043 46.5556ZM887.536 0V121.436C899.102 115.441 939.149 95.2523 975.892 118.377C1006.67 137.77 1020.58 175.945 1022.01 215.342C1024.35 280.373 998.868 351.89 937.365 355.683C919.379 356.784 901.447 350.299 887.536 333.352V352.93H788.326L815.23 327.48L815.18 58.791L788.326 33.3414L887.536 0ZM887.536 317.019C961.112 338.798 968.248 127.615 887.536 137.22V317.019ZM720.555 0C740.276 0 756.275 19.2095 756.275 42.8849C756.275 66.5604 740.276 85.77 720.555 85.77C700.836 85.77 684.836 66.5604 684.836 42.8849C684.785 19.2095 700.786 0 720.555 0ZM756.734 308.331V316.407V327.48L783.638 352.93H756.734H657.524L684.429 327.48L684.378 168.174L657.524 142.727L756.785 109.384L756.734 308.331ZM429.653 308.271C429.603 267.587 429.603 226.966 429.653 186.283C429.756 98.617 331.513 93.4171 281.577 125.168C226.342 160.284 265.935 225.865 304.355 202.74C330.953 186.712 332.227 143.949 303.794 125.902C349.399 119.784 357.756 155.695 357.347 188.608C357.144 202.679 357.347 215.588 357.195 225.315C232.05 196.684 212.992 337.39 290.036 354.703C324.482 360.27 344.405 346.995 357.144 332.374V352.93H420.531H429.653H456.558L429.653 327.48V327.174V308.271Z" fill="url(#paint0_linear_58_173)"/>
<defs>
<linearGradient id="paint0_linear_58_173" x1="712.625" y1="126.289" x2="720.813" y2="355.971" gradientUnits="userSpaceOnUse">
<stop stop-color="#312050"/>
<stop offset="1" stop-color="#312050" stop-opacity="0"/>
</linearGradient>
</defs>
</svg>
