<svg width="95" height="72" viewBox="0 0 95 72" fill="none" xmlns="http://www.w3.org/2000/svg">
<path d="M94.2289 69.0611L80.5228 36.8203L60.8203 26.099L70.5288 59.3728L94.2289 69.0611Z" fill="#ECAE43"/>
<path d="M60.8214 26.099L47.1152 36.8203V71.4244L70.5299 59.3728L60.8214 26.099Z" fill="#BD7F15"/>
<path d="M0 69.0611L13.7061 36.8203L33.4086 26.099L23.7002 59.3728L0 69.0611Z" fill="#9C722D"/>
<path d="M33.4077 26.099L47.1139 36.8203V71.4244L23.6992 59.3728L33.4077 26.099Z" fill="#BD7F15"/>
<path d="M88.8394 63.3513L78.9881 39.3642L62.0762 30.4027L69.1118 54.516L88.8394 63.3513Z" fill="#E9DADA"/>
<path d="M62.0771 30.4027L47.1152 39.9522V66.7118L69.1127 54.516L62.0771 30.4027Z" fill="#C8A7A7"/>
<path d="M5.5332 62.6561L15.5987 39.3642L32.1537 30.4027L24.9383 55.132L5.5332 62.6561Z" fill="white"/>
<path d="M32.1529 30.4027L47.1148 39.9522V66.7118L24.9375 55.132L32.1529 30.4027Z" fill="#DDBFBF"/>
<path d="M63.4578 35.7498C63.835 35.6917 64.1906 35.4338 64.561 35.3386C65.2346 35.1654 66.0239 35.2495 66.6812 35.4544C67.2627 35.6358 67.912 35.6905 68.4471 35.9687C68.7366 36.1193 68.9461 36.3214 69.245 36.4496C69.4509 36.538 69.6737 36.594 69.8825 36.6776C70.5487 36.9442 71.4792 37.2932 71.9654 37.8818C72.2599 38.2383 72.6193 38.6179 72.891 38.9944C73.1505 39.354 73.2457 39.7773 73.5658 40.0896C74.2843 40.7905 75.0936 41.3917 75.8362 42.07C76.1238 42.3326 77.0245 43.2376 76.9754 43.635C76.8639 44.5328 73.6671 44.0517 73.1425 43.9302C72.4584 43.7718 71.8317 43.3579 71.1522 43.2131C70.7364 43.1244 70.3092 43.176 69.8833 43.1669C69.3224 43.1548 69.3912 43.1233 69.1882 43.6197C68.9949 44.0923 69.0142 44.5115 69.0266 45.0255C69.0406 45.6037 69.167 45.8107 69.4016 46.3418C69.6002 46.7912 70.2266 47.9444 69.6939 48.2924C69.3801 48.4975 68.6934 47.9825 68.4165 48.3514C68.2296 48.6004 68.3817 49.5586 68.3834 49.8871C68.3884 50.8521 68.0843 51.3148 67.0977 50.9988C65.9681 50.6371 65.22 49.5018 64.7366 48.4384C64.2355 47.336 63.8671 46.5014 62.9818 45.7162C62.7725 45.5305 62.3083 45.06 62.0013 45.2808C61.8246 45.4079 61.8726 45.773 61.7018 45.9129C61.5598 46.0292 61.2668 45.9495 61.1062 45.9463C60.2667 45.9297 59.1638 45.7558 58.3496 45.9814C58.2863 46.5914 58.2566 46.4521 57.8828 46.8622C57.7628 47.0014 57.6778 47.162 57.6279 47.344C57.4307 47.6243 57.2849 47.6625 57.033 47.8528C56.1253 48.5385 56.3052 49.3748 56.0149 50.3505C55.7838 51.1269 55.6965 51.8871 55.5277 52.6682C55.3184 53.6376 54.8572 54.3954 54.3065 55.2175C53.5634 56.327 52.1699 57.0127 51.2412 58.0106C50.9057 58.371 50.718 58.8195 50.4052 59.1686C50.0753 59.5368 49.522 59.6126 49.1043 59.795C48.2599 60.1635 47.6951 60.1216 46.801 59.7884C46.4255 59.6484 46.0308 59.5706 45.6876 59.3421C45.0322 58.906 44.6708 58.3639 44.1843 57.7549C43.8679 57.3588 43.4791 57.0995 43.264 56.6135C43.0295 56.0836 43.1543 55.5486 43.0651 54.9796C42.8827 53.8167 42.6236 52.6634 42.2023 51.5572C42.0035 51.0353 41.9255 50.971 41.409 51.0982C40.7224 51.2674 40.3977 51.2467 39.6862 51.1028C39.415 51.0678 39.1439 51.0316 38.873 50.9943C38.5664 50.9145 38.2666 50.6848 37.9633 50.624C37.1535 50.4617 37.3145 51.2834 37.3305 51.9333C37.3424 52.4209 37.413 52.7641 36.9174 52.9165C36.4854 53.0493 35.9636 52.9079 35.613 52.6728C35.2137 52.4049 35.1332 52.2032 34.9789 51.7457C34.8515 51.3678 34.7781 51.2042 34.5023 50.8875C34.1006 50.4268 33.9016 50.0493 33.6269 49.4813C33.4612 49.1387 33.1905 47.8434 32.8385 47.7748C32.3826 47.6859 32.2477 48.1793 31.7132 47.998C31.2291 47.8338 30.8461 47.062 30.2411 47.3167C29.8216 47.4932 29.8132 48.0455 29.229 48.0779C29.2658 49.1364 27.5676 48.4836 27.1096 49.0071C26.9305 49.2116 26.8529 49.4964 26.6325 49.6726C26.2941 49.9433 26.2009 49.8014 25.8143 49.8804C25.2346 49.9991 24.9256 50.4468 24.4753 50.8207C24.0276 51.1924 24.0013 51.5073 23.6823 51.9849C23.4324 52.359 22.9151 52.8241 22.5535 53.0847C22.1864 53.3493 21.6772 53.428 21.2686 53.5437C20.7355 53.6946 20.2059 53.5721 19.8179 53.1374C19.646 52.945 19.6342 52.7565 19.3938 52.6001C19.2084 52.4795 19.0848 52.5299 18.9067 52.4422C18.4948 52.2392 18.3095 51.9517 18.11 51.5086C17.6072 50.3917 17.4405 49.382 17.1519 48.2012C17.0028 47.5907 16.7632 47.2403 16.772 46.5963C16.7816 45.9039 16.6584 45.4312 16.5461 44.7892C16.4531 44.2578 16.6407 43.6965 16.825 43.2176C16.9888 42.7921 17.1232 42.1197 17.4572 41.8279C17.7574 41.5655 18.2439 41.6101 18.5372 41.3293C18.8932 40.9884 19.0818 40.3721 19.2882 39.9214C19.525 39.4043 19.6673 38.9506 20.1832 38.6945C20.9694 38.3044 22.1002 38.5308 22.9495 38.5308C24.1783 38.5308 25.4094 38.5562 26.6378 38.5362C27.6751 38.5194 28.6525 38.052 29.6643 37.7787C30.7573 37.4833 32.0009 37.8736 33.037 37.4355C34.2185 36.9361 35.5787 37.0097 36.7406 37.5403C37.8475 38.0459 38.6291 38.6536 39.1024 39.869C39.3094 40.4003 39.5044 40.5426 39.8943 40.8947C40.3586 41.3139 40.5135 42.0044 40.9601 42.4237C41.2634 42.7087 42.0378 42.898 42.4177 42.9463C42.8553 43.0019 43.7696 43.0924 44.1946 42.9516C44.7439 42.7698 44.6963 42.2189 45.4166 42.2291C46.1155 42.2389 46.6306 42.7819 47.2287 43.1145C47.6586 43.3537 48.1763 43.5183 48.6332 43.6865C49.0646 43.8453 49.4518 43.8616 49.9608 43.8613C50.6256 43.861 51.0832 43.8947 51.679 43.5706C52.3298 43.2167 52.5516 42.771 53.0117 42.2278C53.3512 41.827 53.7755 41.7672 54.249 41.7763C54.8517 41.7879 55.0898 41.707 55.5815 41.3694C56.1306 40.9924 56.5507 40.8074 56.8768 40.1532C57.1111 39.6833 57.2662 39.3096 57.6225 38.937C58.2875 38.2415 58.5772 37.3167 59.6029 37.1284C60.0801 37.0407 60.5817 37.2145 61.0544 37.0879C61.041 37.0916 61.5534 36.8515 61.5304 36.8689C61.7963 36.6678 63.1553 35.7964 63.4578 35.7498V35.7498Z" fill="#117579"/>
<path d="M47.1152 43.042C47.1537 43.0652 47.1905 43.0928 47.2294 43.1145C47.6594 43.3539 48.1773 43.5183 48.6341 43.6866C49.0657 43.8455 49.4527 43.8618 49.9618 43.8613C50.6265 43.8609 51.084 43.8948 51.68 43.5707C52.3308 43.2167 52.5524 42.7709 53.0126 42.2277C53.3522 41.8271 53.7763 41.7669 54.2498 41.7765C54.8526 41.7878 55.0906 41.7071 55.5824 41.3695C56.1317 40.9924 56.5516 40.8073 56.8779 40.1532C57.1121 39.6834 57.2673 39.3099 57.6234 38.9369C58.2885 38.2417 58.5782 37.3169 59.6038 37.1281C60.081 37.0408 60.5825 37.2145 61.0552 37.0878C61.0418 37.0915 61.5544 36.8515 61.5312 36.8692C61.7972 36.6678 63.1562 35.7964 63.4586 35.7497C63.5138 35.7412 63.5665 35.7095 63.621 35.6936L68.0701 50.9418C67.8693 51.1116 67.5651 51.1482 67.0987 50.9989C65.9692 50.6372 65.221 49.5019 64.7377 48.4381C64.2365 47.3359 63.8681 46.5017 62.9826 45.7163C62.7735 45.5308 62.3092 45.06 62.0022 45.2809C61.8257 45.4081 61.8735 45.7729 61.7027 45.9132C61.5609 46.0291 61.2676 45.9494 61.107 45.9463C60.2676 45.9296 59.1648 45.7557 58.3506 45.9812C58.2873 46.5913 58.2578 46.4519 57.8838 46.862C57.7638 47.0014 57.6788 47.1621 57.6287 47.3436C57.4317 47.6243 57.2859 47.6623 57.0338 47.8529C56.1262 48.5386 56.306 49.3751 56.0158 50.3506C55.7847 51.127 55.6975 51.8869 55.5289 52.6682C55.3193 53.6373 54.858 54.3955 54.3075 55.2176C53.5642 56.327 52.1709 57.0128 51.2422 58.0109C50.9067 58.3712 50.7189 58.8194 50.4062 59.1688C50.0762 59.5368 49.5228 59.6124 49.1052 59.7953C48.368 60.1166 47.8318 60.1112 47.1152 59.8862V43.042V43.042Z" fill="#074446"/>
<path d="M23.6822 51.9851C23.4321 52.359 22.9151 52.8244 22.5533 53.0846C22.1863 53.3495 21.6771 53.4283 21.2683 53.5436C20.7355 53.6944 20.2057 53.5722 19.8178 53.1376C19.6459 52.9447 19.6341 52.7565 19.3936 52.5999C19.2083 52.4795 19.0845 52.5301 18.9068 52.4423C18.4948 52.2391 18.3095 51.9517 18.11 51.5085C17.6072 50.3918 17.4403 49.382 17.1517 48.201C17.0028 47.5908 16.7631 47.2404 16.7719 46.5963C16.7816 45.9037 16.6581 45.4312 16.546 44.7892C16.4532 44.2579 16.6405 43.6966 16.825 43.2177C16.9886 42.7922 17.1232 42.12 17.4571 41.8281C17.7573 41.5655 18.2438 41.6103 18.537 41.3292C18.8932 40.9883 19.0816 40.3723 19.2881 39.9214C19.5248 39.4041 19.6672 38.9505 20.1832 38.6944C20.9693 38.3041 22.1001 38.5309 22.9494 38.5309C24.1783 38.5309 25.4093 38.5562 26.6378 38.5363C27.6749 38.5196 28.6525 38.052 29.664 37.7786C29.7778 37.7482 29.8979 37.7478 30.0146 37.7302L26.5069 49.7513C26.2689 49.8917 26.1447 49.8128 25.8142 49.8803C25.2345 49.9989 24.9254 50.4471 24.475 50.821C24.0273 51.1926 24.0012 51.5071 23.6822 51.9851V51.9851Z" fill="#159399"/>
<path d="M31.5312 16.8635C31.5312 26.1768 47.114 47.58 47.114 47.58C47.114 47.58 62.6968 26.1768 62.6968 16.8635C62.6968 7.55007 55.7201 0 47.114 0C38.5079 0 31.5312 7.55007 31.5312 16.8635Z" fill="#9271F7"/>
<path d="M38.1699 18.8922C38.1699 24.2376 42.1742 28.571 47.1138 28.571C52.0533 28.571 56.0576 24.2376 56.0576 18.8922C56.0576 13.5467 52.0533 9.21332 47.1138 9.21332C42.1742 9.21332 38.1699 13.5467 38.1699 18.8922V18.8922Z" fill="#FFC1EB"/>
<path d="M38.1699 16.4202C38.1699 21.7657 42.1742 26.099 47.1138 26.099C52.0533 26.099 56.0576 21.7657 56.0576 16.4202C56.0576 11.0747 52.0533 6.74133 47.1138 6.74133C42.1742 6.74133 38.1699 11.0747 38.1699 16.4202Z" fill="white"/>
</svg>
