<svg width="128" height="146" viewBox="0 0 128 146" fill="none" xmlns="http://www.w3.org/2000/svg">
<path d="M79.2616 144.278C74.1362 145.045 68.9934 145.051 63.8336 144.868C60.3417 144.744 56.8361 144.85 53.3616 144.442C47.1643 143.718 41.1643 142.199 35.3801 139.864C30.7657 138.002 26.3082 135.844 22.1907 133.031C14.1573 127.54 8.61617 120.287 6.14701 110.839C3.57882 101.011 3.56143 91.1748 5.91079 81.3018C6.89498 77.1653 8.09083 73.1008 9.4507 69.0716C11.147 64.0505 13.4774 59.3729 16.6707 55.1243C23.0774 46.5952 30.1977 38.7538 38.7337 32.2326C42.0484 29.6998 45.2323 26.9918 48.3882 24.2644C50.2069 22.6945 51.5751 20.7327 52.5351 18.5156C53.7736 15.6479 54.5934 12.6584 55.1667 9.60024C55.4457 8.11616 55.8282 6.66252 56.2817 5.22344C56.5308 4.42704 56.9068 3.69808 57.4987 3.1004C58.5404 2.04866 59.7815 2.10418 60.703 3.24592C61.4389 4.15706 61.7737 5.24701 62.0723 6.35688C63.1548 10.3689 63.9681 14.4496 65.1923 18.4245C65.7694 20.3026 66.5242 22.1163 67.2922 23.9258C68.66 27.1482 71.1201 29.4759 73.7121 31.6877C75.3868 33.1174 77.0884 34.5198 78.8349 35.8584C83.5895 39.5026 87.7787 43.7339 91.8576 48.0819C97.8323 54.4483 103.231 61.2489 107.691 68.7592C109.73 72.1961 111.305 75.8387 112.765 79.5399C114.241 83.2846 115.509 87.0967 116.616 90.9618C116.679 91.1815 116.752 91.3997 116.792 91.6247C117.544 95.8545 118.029 100.109 118.026 104.412C118.024 111.08 116.143 117.275 113.342 123.261C111.51 127.18 108.952 130.541 105.68 133.364C102.992 135.683 99.9817 137.536 96.7495 139.01C93.1563 140.65 89.5283 142.22 85.6203 143.009C83.5015 143.436 81.38 143.855 79.2616 144.278V144.278Z" fill="#FDD89F"/>
<path d="M88.6854 44.8635C84.1881 40.3119 80.4869 37.3161 74.2083 32.3292C72.3817 30.9576 70.7175 29.3977 69.219 27.6755C67.6467 25.8701 66.4482 23.8567 65.811 21.5379C65.3041 19.6954 64.8188 17.845 64.2708 16.013C63.479 13.374 61.7321 6.77072 61.6414 6.10142C61.4868 4.97431 60.6587 4.23372 59.9708 3.42269C59.7467 3.15835 59.399 3.18464 59.0883 3.22701C58.1056 3.36612 57.3202 3.7707 56.892 4.73921C56.6214 5.35413 56.4015 5.97582 56.2216 6.61999C55.528 9.10032 54.116 16.4757 53.6586 17.6028C52.5081 20.4337 50.6641 22.7524 48.4176 24.7813C43.8776 28.8807 39.2428 32.8739 34.4723 36.7112C25.8296 43.6625 18.7921 51.9551 13.6882 61.7763C9.78135 69.2911 7.58167 77.3136 6.93613 85.7617C6.16132 103.661 9.82406 114.373 11.1015 116.859C14.3629 123.207 19.508 127.74 25.6576 131.237C34.5868 136.603 44.0722 139.086 50.3376 139.885C56.0707 140.618 61.8255 141.123 67.6202 141.064C71.5177 141.024 80.8361 140.917 87.9428 138.568C94.1283 136.711 99.6483 133.7 104.298 129.183C108.544 125.056 115.163 116.861 116.658 99.7858C116.634 94.9432 115.607 90.2514 114.18 85.647C112.621 79.5806 107.996 69.8385 106.309 67.152C104.676 63.8479 95.4133 50.4905 88.6854 44.8635V44.8635ZM0.654931 103.025C0.00145107 97.3557 -0.293361 91.6733 0.390734 85.9934C1.38399 77.7459 3.86563 69.9379 7.63873 62.5265C13.5227 50.9719 21.92 41.595 32.536 34.1214C36.3374 31.4454 40.0667 28.6718 43.7189 25.7974C45.3709 24.4982 46.908 23.0726 48.3707 21.563C50.6774 19.1795 51.9907 16.2961 52.7708 13.1359C53.1975 11.4096 53.6163 9.68072 54.0215 7.94918C54.3375 6.60271 54.8322 5.31587 55.3243 4.02753C55.5628 3.3991 55.8935 2.82243 56.3429 2.31174C57.88 0.572323 60.2773 0.498076 61.9108 2.15575C62.5787 2.83292 63.0133 3.65817 63.4068 4.5127C64.5456 6.99303 65.1949 9.63202 65.9629 12.2312C66.5427 14.193 67.1213 16.1543 67.7775 18.0936C68.6203 20.5856 70.0973 22.5683 72.3253 24.0194C76.0055 26.4165 79.9041 28.4217 83.7815 30.4705C93.9616 35.8504 102.754 42.9242 109.983 51.8478C115.443 58.5857 119.616 66.0923 122.9 74.0766C125.237 79.7564 126.551 85.7051 127.033 91.8176C127.437 96.938 127.188 102.048 126.213 107.089C125.332 111.65 123.778 116.004 121.658 120.156C119.253 124.867 116.363 129.24 112.649 133.042C108.212 137.586 102.788 140.549 96.8137 142.557C91.5496 144.327 86.0734 144.971 80.5523 145.282C76.659 145.502 72.7589 145.626 68.8629 145.544C62.279 145.404 55.7226 144.913 49.1882 144.008C43.9895 143.287 38.844 142.356 33.7734 141.029C26.5496 139.139 20.0042 135.916 14.4763 130.883C9.37354 126.237 5.69492 120.607 3.24428 114.172C1.8708 110.565 1.12284 106.829 0.654931 103.025V103.025Z" fill="#623175"/>
<path d="M119.989 119.807C121.556 115.175 122.457 110.446 122.694 105.616C122.949 100.442 122.785 95.2768 121.862 90.1511C121.225 86.6127 120.682 83.0611 119.594 79.6164C118.853 77.2714 118.022 74.9591 117.021 72.7157C115.213 68.6696 113.389 64.6204 111.137 60.7989C108.972 57.1232 106.417 53.6999 103.565 50.5094C97.9879 44.2698 91.6334 38.927 84.5763 34.4021C84.0974 34.095 83.6401 33.7553 83.0762 33.3649C83.456 33.2074 83.6321 33.4219 83.8162 33.5172C90.7668 37.1295 97.068 41.6548 102.413 47.3373C108.044 53.3242 112.805 59.9511 116.206 67.4828C118.086 71.6471 119.905 75.8177 121.105 80.238C122.813 86.5279 123.961 92.8906 124.025 99.4275C124.053 102.237 124.018 105.041 123.629 107.823C123.121 111.44 122.154 114.945 120.842 118.355C120.638 118.884 120.42 119.415 119.989 119.807V119.807Z" fill="#A95C9F"/>
<path d="M118.067 115.877C118.283 114.82 118.487 113.759 118.718 112.704C119.54 108.946 119.548 105.142 119.319 101.332C119.198 99.3202 118.989 97.3149 118.816 95.307C118.478 91.352 117.282 87.5874 116.234 83.7873C114.695 78.2128 112.087 73.0951 109.462 67.9841C109.205 67.4843 108.942 66.9882 108.761 66.4325C109.725 66.8993 110.319 67.7223 110.894 68.5461C113.034 71.6218 114.807 74.8967 116.192 78.3718C119.116 85.7063 120.596 93.3532 120.627 101.212C120.643 105.621 120.268 110.057 118.874 114.318C118.698 114.853 118.58 115.418 118.067 115.877V115.877Z" fill="#A95C9F"/>
<path d="M97.9313 50.8543C96.438 49.3691 94.9901 47.8374 93.4461 46.4073C87.0448 40.4826 80.5833 34.6255 73.6554 29.3015C72.5023 28.414 71.3809 27.4878 70.4073 26.4004C69.9382 25.8755 69.5262 25.3251 69.2314 24.3318C69.8554 25.0686 70.2659 25.591 70.7168 26.0765C71.8594 27.312 73.2287 28.279 74.578 29.2749C80.858 33.9127 87.0115 38.7009 92.5262 44.2446C94.5407 46.2697 96.4259 48.402 97.9313 50.8543V50.8543Z" fill="#A95C9F"/>
<path d="M115.441 119.797C114.886 126.172 105.968 135.1 100.049 136.717C103.284 134.537 106.381 132.191 109.065 129.357C111.742 126.531 113.915 123.365 115.441 119.797V119.797Z" fill="#A95C9F"/>
<path d="M108.032 64.9495C105.462 60.9615 102.872 57.0091 100.106 53.1707C102.875 54.6083 107.647 61.6863 108.032 64.9495Z" fill="#A95C9F"/>
<path d="M72.4148 134.921C70.4668 135.164 68.5215 135.43 66.5694 135.641C65.7307 135.732 64.9521 135.908 64.2215 136.352C63.4426 136.826 62.6213 137.233 61.8158 137.664C60.8906 138.16 59.9306 138.55 58.8825 138.729C57.0506 139.044 55.416 138.65 53.9986 137.45C53.4015 136.945 52.7495 136.473 52.2707 135.869C50.5241 133.676 48.1026 132.653 45.5095 131.938C42.1922 131.023 38.8053 130.325 35.6067 129.032C32.1772 127.646 28.7321 126.293 25.7614 123.986C20.5253 119.918 16.94 114.709 14.7014 108.545C12.9012 103.589 12.4095 98.438 12.4813 93.2093C12.5667 87.0109 12.9798 80.8455 14.6186 74.8267C17.5455 64.0793 23.0402 54.8401 31.2625 47.2435C36.4987 42.4047 41.9374 37.7961 47.4933 33.324C49.9028 31.3848 52.5413 29.7698 55.1321 28.0912C57.8534 26.3277 60.4374 26.2157 63.2067 28.2775C67.2999 31.3278 71.1573 34.6296 74.8412 38.1362C79.5335 42.6004 84.1358 47.1561 88.3893 52.041C92.2225 56.443 95.4506 61.2699 98.3934 66.2939C101.619 71.8042 104.543 77.4656 106.589 83.5133C109.36 91.7026 110.149 100.068 108.304 108.588C107.504 112.278 105.989 115.662 103.737 118.701C99.1481 124.897 93.2615 129.425 85.9572 132.051C83.4559 132.949 77.3361 134.403 72.4148 134.921V134.921Z" fill="#E74034"/>
<path d="M45.756 79.126C42.6043 79.979 39.8921 79.7315 37.3628 78.0982C36.7868 77.7262 36.3095 77.2501 36.0574 76.6048C35.571 75.352 36.2509 74.3389 37.5987 74.3018C38.1909 74.2845 38.7522 74.4447 39.3082 74.6351C41.8026 75.4897 43.6909 77.1841 45.756 79.126Z" fill="#FDD89F"/>
<path d="M52.5503 64.4194C49.6582 63.2698 47.2328 61.6534 46.1969 58.5477C45.7781 57.2938 46.0423 56.3797 46.8477 55.9233C47.6047 55.4948 48.6717 55.7617 49.5236 56.6162C49.9688 57.0635 50.3476 57.5686 50.5755 58.1599C51.2354 59.8678 51.8877 61.578 52.5249 63.2949C52.6436 63.6151 52.7797 63.9605 52.5503 64.4194Z" fill="#FDD89F"/>
<path d="M94.4141 98.5781C96.5661 97.9302 98.5421 97.8162 100.527 98.4023C101.586 98.7158 102.486 99.2605 103.042 100.27C103.85 101.74 102.999 103.235 101.318 103.267C100.295 103.287 99.3875 102.911 98.5262 102.417C96.9116 101.49 95.6156 100.22 94.4141 98.5781Z" fill="#FDD89F"/>
<path d="M80.6348 92.6007C80.7228 92.3971 80.8642 92.2992 81.0524 92.2726C82.9577 91.9989 84.8523 91.5969 86.7988 91.7806C87.7497 91.8691 88.6776 92.0307 89.395 92.7252C90.0416 93.3521 90.403 94.0757 90.0696 95.0041C89.751 95.8931 89.0416 96.1762 88.1844 96.2489C87.5441 96.3044 86.9322 96.1669 86.343 95.9445C84.3591 95.1972 82.5563 94.1218 80.8298 92.9115C80.7338 92.844 80.6922 92.6959 80.6348 92.6007V92.6007Z" fill="#FDD89F"/>
<path d="M47.66 71.3519C47.4733 71.4817 47.4348 71.5304 47.4 71.5293C44.904 71.3624 42.5535 70.7633 40.5507 69.1904C40.0946 68.8334 39.7359 68.3651 39.4641 67.8454C39.0775 67.1086 38.7853 66.3253 39.4135 65.6084C40.0333 64.8993 40.8694 65.0411 41.6585 65.3002C42.4348 65.5556 43.1106 65.9998 43.7082 66.5461C44.1027 66.9061 44.4879 67.2856 44.8212 67.701C45.7827 68.9046 46.7148 70.1311 47.66 71.3519V71.3519Z" fill="#FDD89F"/>
<path d="M77.3628 99.4645C77.8095 99.463 78.1682 99.8335 78.5643 100.084C80.3188 101.193 81.5388 102.757 82.4096 104.614C82.6402 105.107 82.7694 105.619 82.8163 106.154C82.8975 107.058 82.6254 107.603 81.947 107.931C81.2243 108.282 80.6415 107.986 80.1056 107.527C79.4162 106.937 78.8587 106.224 78.4989 105.408C77.7389 103.688 77.2176 101.896 77.1349 100.001C77.1281 99.8361 77.0763 99.6389 77.3628 99.4645V99.4645Z" fill="#FDD89F"/>
<path d="M42.8953 88.1469C40.4382 89.0899 38.2208 89.1286 35.9822 88.889C35.45 88.832 34.9447 88.6363 34.4968 88.3138C33.9114 87.8905 33.558 87.3652 33.6672 86.6164C33.7795 85.8534 34.174 85.3029 34.9126 85.016C35.4689 84.8004 36.0608 84.7236 36.63 84.8376C38.9619 85.3044 40.8967 86.5095 42.8953 88.1469Z" fill="#FDD89F"/>
<path d="M72.4375 78.7618C73.108 77.0701 74.0547 75.9643 75.0695 74.9156C75.816 74.1428 76.652 73.4682 77.6668 73.061C78.3827 72.7738 79.1201 72.6125 79.8881 72.8611C81.2079 73.2886 81.5507 74.3745 80.7052 75.4577C80.3412 75.9234 79.8696 76.2605 79.34 76.5106C77.2322 77.508 74.9721 78.0254 72.4375 78.7618Z" fill="#FDD89F"/>
<path d="M69.5902 100.104C69.9141 100.083 70.0544 100.257 70.1836 100.442C71.457 102.257 72.3648 104.213 72.513 106.457C72.5674 107.269 72.4581 108.061 72.0235 108.769C71.2755 109.989 70.125 109.992 69.3982 108.771C69.1261 108.314 68.9114 107.82 68.837 107.283C68.4983 104.819 68.8275 102.43 69.5902 100.104Z" fill="#FDD89F"/>
<path d="M59.2399 60.4732C57.0425 58.4721 55.8156 56.3078 55.8372 53.55C55.8425 52.8714 56.0518 52.234 56.5077 51.6996C57.3599 50.7008 58.4783 50.8226 59.1144 51.9719C59.3359 52.3716 59.4451 52.7975 59.5158 53.2377C59.8919 55.5909 59.413 57.8954 59.2399 60.4732Z" fill="#FDD89F"/>
<path d="M61.67 101.658C62.3178 102.952 63.0911 104.197 63.3991 105.641C63.5847 106.51 63.6554 107.402 63.7778 108.285C63.8394 108.734 63.7915 109.171 63.6338 109.598C63.2635 110.603 62.5472 111.151 61.65 111.106C60.874 111.068 60.2538 110.432 60.0475 109.378C59.7912 108.08 60.0645 106.802 60.346 105.545C60.6367 104.248 61.0339 102.974 61.3847 101.691C61.4791 101.68 61.5751 101.668 61.67 101.658Z" fill="#FDD89F"/>
<path d="M63.7294 62.9128C63.5945 61.9578 63.8693 61.1745 64.2 60.4126C64.9521 58.6852 66.1295 57.3398 67.8548 56.5026C68.3053 56.2843 68.78 56.1483 69.2759 56.1546C70.2053 56.164 70.8535 57.0159 70.5666 57.8862C70.4321 58.3001 70.2253 58.7328 69.9305 59.0436C68.2278 60.84 66.2402 62.2023 63.7294 62.9128V62.9128Z" fill="#FDD89F"/>
<path d="M53.2489 102.204C54.1878 103.109 54.4263 104.112 54.757 105.052C55.1716 106.224 55.5318 107.421 55.3383 108.696C55.1799 109.753 54.5476 110.433 53.5664 110.603C52.3838 110.808 51.5572 110.255 51.3252 109.081C51.2571 108.734 51.2159 108.375 51.2223 108.022C51.265 105.902 52.3849 104.183 53.2489 102.204V102.204Z" fill="#FDD89F"/>
<path d="M46.4915 101.67C46.1514 103.725 45.3834 105.421 44.2461 106.943C43.5246 107.909 42.6701 108.152 41.6409 107.839C40.2353 107.41 39.7436 106.109 40.538 104.889C40.9594 104.242 41.5048 103.703 42.1874 103.339C43.4914 102.647 44.8542 102.091 46.4915 101.67V101.67Z" fill="#FDD89F"/>
<path d="M78.7773 85.8678C79.4093 83.8982 80.2906 82.4314 81.5454 81.185C82.0266 80.7077 82.5841 80.3331 83.2107 80.0782C84.2066 79.6721 85.0695 79.8202 85.5427 80.4456C86.0681 81.1401 85.9841 82.0808 85.3201 82.8993C85.2082 83.0384 85.0986 83.1892 84.9588 83.2923C83.1748 84.6099 81.1936 85.4524 78.7773 85.8678V85.8678Z" fill="#FDD89F"/>
<path d="M68.2148 71.2196C68.9734 68.8293 70.0895 67.0689 71.9694 65.8439C72.5817 65.4457 73.2722 65.2289 74.0096 65.2777C75.3257 65.365 75.9508 66.5517 75.2682 67.668C74.9401 68.2038 74.5043 68.6639 73.9522 68.9815C72.2404 69.9643 70.3748 70.5555 68.2148 71.2196Z" fill="#FDD89F"/>
<path d="M73.9837 117.818C75.6251 119.266 76.6448 120.856 77.2677 122.705C77.3236 122.873 77.3505 123.052 77.3743 123.228C77.5315 124.344 77.1729 125.171 76.3958 125.498C75.5745 125.844 74.4062 125.422 73.8317 124.524C73.2875 123.675 73.0875 122.721 73.097 121.72C73.1076 120.42 73.413 119.191 73.9837 117.818V117.818Z" fill="#FDD89F"/>
<path d="M33.7371 61.8876C31.1077 61.7882 29.0237 61.1838 27.2677 59.648C26.8599 59.2911 26.5466 58.8557 26.381 58.3372C25.9759 57.0672 26.9332 55.9787 28.2572 56.222C28.981 56.3555 29.5691 56.7616 30.1039 57.2513C31.4932 58.525 32.4997 60.0844 33.7371 61.8876V61.8876Z" fill="#FDD89F"/>
<path d="M42.9648 94.3676C41.6219 95.7977 40.3871 96.9458 38.9381 97.8517C38.3568 98.2158 37.6938 98.3572 37.0112 98.3692C36.286 98.3797 35.7088 98.1375 35.3728 97.4341C35.0274 96.7115 35.1102 96.0542 35.5675 95.4247C35.8967 94.971 36.3778 94.7115 36.8899 94.545C38.8073 93.9181 40.7488 93.8637 42.9648 94.3676V94.3676Z" fill="#FDD89F"/>
<path d="M26.8958 73.0489C25.3946 73.2803 24.2105 73.1347 23.077 72.6229C22.4504 72.3387 21.9265 71.9285 21.5864 71.3226C21.2077 70.6481 21.1638 69.9589 21.6196 69.3069C22.0717 68.6574 22.7183 68.4205 23.4999 68.578C24.3012 68.7396 25.0386 69.0395 25.6743 69.5674C26.544 70.287 27.264 71.1348 27.897 72.0568C28.2958 72.6361 28.2266 72.7842 27.5546 72.9552C27.4677 72.9777 27.3785 72.9882 27.2893 72.9998C27.0678 73.029 26.8452 73.0557 26.8958 73.0489Z" fill="#FDD89F"/>
<path d="M52.3049 117.806C53.1727 119.651 53.8583 121.32 53.3023 123.212C52.8983 124.59 51.8624 125.359 50.7863 125.11C49.6903 124.856 49.098 123.745 49.3875 122.315C49.7568 120.491 50.9583 119.197 52.3049 117.806Z" fill="#FDD89F"/>
<path d="M52.4953 43.2644C50.5435 42.0739 48.9833 40.5993 48.2168 38.4365C48.0419 37.9457 48.0513 37.468 48.1647 36.9892C48.3208 36.3293 48.7607 35.8834 49.4101 35.7061C50.0446 35.5344 50.5514 35.84 50.9608 36.2974C51.1365 36.4947 51.3032 36.7207 51.4049 36.9641C52.2326 38.9615 52.5153 41.0593 52.4953 43.2644Z" fill="#FDD89F"/>
<path d="M92.4258 78.5912C93.1896 76.2448 94.7415 74.7079 96.9684 73.8308C97.4416 73.6445 97.9537 73.7555 98.4269 73.8878C99.6349 74.2238 99.9777 75.4881 99.1016 76.3981C98.8283 76.6827 98.4881 76.9246 98.1363 77.1098C96.3735 78.0397 94.4391 78.3678 92.4258 78.5912Z" fill="#FDD89F"/>
<path d="M84.5068 112.336C86.8282 112.565 88.388 113.658 89.9308 114.778C90.3375 115.074 90.5843 115.512 90.7763 115.961C90.8961 116.24 90.9483 116.557 90.9789 116.861C91.0643 117.693 90.5654 118.177 89.9028 118.544C89.3042 118.876 88.7656 118.675 88.2988 118.281C87.9617 117.996 87.6457 117.671 87.3857 117.317C86.307 115.841 85.604 114.158 84.5068 112.336V112.336Z" fill="#FDD89F"/>
<path d="M86.756 54.8265C88.1749 54.6533 89.0657 55.7433 88.6216 57.0938C88.3563 57.9007 87.7387 58.4272 87.1004 58.8993C86.0375 59.6878 84.771 59.996 83.483 60.1996C82.9228 60.2885 82.7456 60.0253 82.936 59.5041C83.303 58.5041 83.6228 57.4894 84.1708 56.5633C84.7589 55.57 85.6789 55.0886 86.756 54.8265V54.8265Z" fill="#FDD89F"/>
<path d="M63.6093 120.798C64.8773 122.555 65.7039 124.192 65.7587 126.142C65.7708 126.597 65.6653 127.028 65.5092 127.445C65.2776 128.072 64.8547 128.535 64.1573 128.591C63.4695 128.648 62.9705 128.295 62.6134 127.713C62.3496 127.283 62.2109 126.819 62.1629 126.328C61.972 124.392 62.5321 122.65 63.6093 120.798V120.798Z" fill="#FDD89F"/>
<path d="M27.4983 97.5755C26.2197 99.3138 24.8103 100.265 23.0906 100.754C22.0293 101.056 20.9971 100.676 20.4877 99.8744C19.8916 98.9367 20.169 97.8995 21.1786 97.4222C21.4945 97.2726 21.8664 97.1323 22.2024 97.1522C23.8839 97.2568 25.5624 97.4154 27.4983 97.5755Z" fill="#FDD89F"/>
<path d="M25.157 85.2645C25.0009 85.8491 24.5462 86.0013 24.1664 86.2076C22.9622 86.8611 21.6583 87.1839 20.2916 87.1614C18.9994 87.1401 18.1063 86.1877 18.2302 85.0569C18.3636 83.8334 18.9661 83.3174 20.202 83.422C21.0554 83.4932 21.8809 83.7062 22.6583 84.0714C23.4981 84.4644 24.3315 84.869 25.157 85.2645V85.2645Z" fill="#FDD89F"/>
<path d="M95.5908 109.007C97.0493 109.503 98.3185 109.749 99.5053 110.273C100.464 110.695 101.075 111.451 101.488 112.363C101.753 112.949 101.869 113.589 101.316 114.099C100.761 114.613 100.108 114.642 99.4414 114.32C99.1613 114.187 98.876 114.039 98.6387 113.841C97.1533 112.607 96.2908 110.996 95.5908 109.007Z" fill="#FDD89F"/>
<path d="M36.2995 110.709C35.581 112.095 34.9037 113.327 34.0234 114.437C33.7154 114.823 33.2981 115.095 32.8196 115.253C31.9076 115.552 31.109 115.33 30.6691 114.659C30.1955 113.937 30.2515 112.971 30.8275 112.306C31.3411 111.714 32.0354 111.414 32.7569 111.149C33.8609 110.743 34.9823 110.59 36.2995 110.709V110.709Z" fill="#FDD89F"/>
<path d="M98.293 90.9552C99.6438 89.1494 101.261 88.3504 103.082 87.8903C103.609 87.7565 104.154 87.7779 104.684 87.9327C105.3 88.1123 105.701 88.5236 105.809 89.1427C105.926 89.8082 105.533 90.2525 104.98 90.5304C104.582 90.7302 104.153 90.9008 103.718 90.9803C101.989 91.299 100.265 91.1232 98.293 90.9552Z" fill="#FDD89F"/>
<path d="M42.2332 51.132C40.1665 50.4323 38.437 49.4826 37.6157 47.3862C37.4105 46.8624 37.4252 46.3371 37.6463 45.829C38.0719 44.8568 38.9597 44.6202 39.8411 45.2314C40.1745 45.4627 40.4292 45.7698 40.6598 46.1016C41.3798 47.144 42.1466 49.5077 42.2332 51.132Z" fill="#FDD89F"/>
<path d="M88.7119 67.2158C88.9357 65.4628 89.7384 64.266 90.7971 63.2221C91.073 62.9495 91.457 62.7631 91.8214 62.6083C92.8426 62.176 93.7893 62.3848 94.2157 63.0965C94.6307 63.7871 94.4613 64.5607 93.6053 65.3226C92.2639 66.5183 90.6346 67.0317 88.7119 67.2158V67.2158Z" fill="#FDD89F"/>
<path d="M41.916 120.75C41.9655 122.455 41.7799 123.854 41.264 125.183C40.8014 126.372 39.756 126.909 38.8602 126.535C37.8348 126.106 37.5306 124.877 38.1349 123.672C38.8893 122.168 40.2333 121.443 41.916 120.75Z" fill="#FDD89F"/>
<path d="M26.4442 107.678C25.5481 109.376 24.492 110.897 22.6242 111.59C21.4575 112.023 20.4721 111.38 20.547 110.308C20.5814 109.808 20.7643 109.344 21.1827 109.028C21.5028 108.787 21.8335 108.549 22.1907 108.371C23.4977 107.718 24.8949 107.51 26.4442 107.678Z" fill="#FDD89F"/>
<path d="M74.6199 51.2776C74.4944 49.0646 74.9665 47.3425 76.4465 45.9814C77.0743 45.4032 77.9436 45.3994 78.5279 45.8809C79.0982 46.353 79.1652 46.972 78.6545 47.7924C77.7346 49.2697 76.2878 50.1561 74.6199 51.2776Z" fill="#FDD89F"/>
<path d="M64.9034 43.1902C63.9793 41.39 64.4593 38.7709 65.7568 37.706C66.3887 37.189 67.2433 37.0713 67.746 37.4323C68.2819 37.8185 68.4354 38.5872 68.0434 39.3768C67.3181 40.8399 66.1034 41.9018 64.9034 43.1902V43.1902Z" fill="#FDD89F"/>
<path d="M35.0787 80.5068C32.8481 81.7052 30.6469 81.8877 28.3693 81.2353C27.7306 81.0531 27.2279 80.6006 26.9199 79.9778C26.3253 78.7764 27.0359 77.5053 28.3799 77.4258C29.0825 77.3849 29.784 77.4656 30.4639 77.6707C31.9372 78.1165 33.7015 79.1798 35.0787 80.5068V80.5068Z" fill="#C22B28"/>
<path d="M52.0201 53.849C49.8348 53.1797 48.2867 52.0924 47.0999 50.5277C46.3988 49.603 46.2386 48.5292 46.6362 47.4283C46.9639 46.5172 47.7693 46.2048 48.6533 46.615C49.1375 46.84 49.5532 47.176 49.8185 47.6428C50.8802 49.5131 51.556 51.5157 52.0201 53.849Z" fill="#C22B28"/>
<path d="M38.1625 70.9353C36.3332 71.3095 34.5957 71.3111 32.8772 70.7963C32.1035 70.5649 31.4077 70.2049 30.8597 69.6099C30.1782 68.8678 30.1144 68.0039 30.6518 67.2143C31.1182 66.5292 31.7758 66.3477 32.757 66.6706C33.5571 66.9338 34.2824 67.3504 34.9491 67.8559C36.1291 68.7501 37.2078 69.7501 38.1625 70.9353V70.9353Z" fill="#C22B28"/>
<path d="M42.6756 60.5398C42.3037 60.8349 42.0316 60.8281 41.7757 60.7872C39.7412 60.4565 37.9115 59.656 36.3596 58.3028C35.4745 57.5304 35.2462 56.5581 35.6491 55.7381C36.0584 54.9061 36.7115 54.6324 37.5997 54.9312C38.1092 55.1033 38.5329 55.4168 38.8983 55.7962C39.3515 56.2672 39.8009 56.7475 40.2023 57.2619C41.0304 58.3216 41.8248 59.4074 42.6756 60.5398V60.5398Z" fill="#C22B28"/>
<path d="M47.0172 108.783C48.1824 110.643 48.0052 113.699 46.7224 115.182C46.5504 115.38 46.3596 115.572 46.1449 115.718C45.5746 116.109 44.9475 116.314 44.2812 115.988C43.6119 115.662 43.3851 115.051 43.3771 114.356C43.3745 114.056 43.3983 113.733 43.5049 113.457C44.2332 111.581 45.5598 110.162 47.0172 108.783Z" fill="#C22B28"/>
<path d="M58.7358 47.2938C57.2719 45.5795 56.2307 43.972 56.5414 41.8307C56.6291 41.2143 56.8426 40.6455 57.2614 40.176C57.6518 39.7407 58.1118 39.3823 58.7463 39.5225C59.3692 39.6601 59.6837 40.1374 59.8345 40.7141C59.912 41.0066 59.9679 41.3163 59.9611 41.6162C59.9146 43.4974 59.5143 45.3043 58.7358 47.2938V47.2938Z" fill="#C22B28"/>
<path d="M87.8916 86.4248C89.2451 84.8335 90.8464 83.7105 92.8772 83.2448C93.4343 83.1177 94.0035 83.1087 94.5598 83.3149C95.1317 83.5279 95.5678 83.877 95.6491 84.4987C95.7371 85.1683 95.4223 85.6775 94.8479 86.0213C94.2409 86.385 93.5745 86.61 92.873 86.6775C91.345 86.8267 89.8131 86.7619 88.2851 86.6681C88.1758 86.6602 88.073 86.541 87.8916 86.4248V86.4248Z" fill="#C22B28"/>
<path d="M59.6994 115.013C59.778 115.537 59.7754 116.057 59.6325 116.568C59.394 117.417 58.7659 117.893 57.906 117.892C57.09 117.891 56.6032 117.484 56.3432 116.586C56.1459 115.901 56.1992 115.204 56.2782 114.515C56.4101 113.345 56.686 112.202 57.07 111.091C57.2767 110.493 57.666 110.435 57.9926 110.956C58.7821 112.213 59.498 113.51 59.6994 115.013V115.013Z" fill="#C22B28"/>
<path d="M84.6641 100.479C86.2775 100.562 87.5867 100.631 88.8415 101.056C89.7535 101.365 90.4641 101.897 90.7695 102.864C91.0401 103.72 90.8096 104.601 90.1497 105.09C89.5294 105.55 88.6749 105.544 87.9776 104.896C86.6683 103.678 85.6029 102.262 84.6641 100.479V100.479Z" fill="#C22B28"/>
<path d="M37.7731 101.628C37.1582 103.601 36.1464 104.967 34.3636 105.703C33.997 105.853 33.6141 105.942 33.2116 105.93C32.4394 105.908 31.8275 105.562 31.6261 104.982C31.397 104.318 31.7009 103.795 32.1488 103.34C32.6821 102.802 33.3582 102.5 34.0635 102.24C35.1837 101.827 36.3384 101.643 37.7731 101.628V101.628Z" fill="#C22B28"/>
<path d="M64.8481 52.4959C64.6678 50.7223 64.8118 48.9777 65.6425 47.3279C65.9917 46.6349 66.5398 46.1467 67.2972 45.9326C68.3094 45.6454 69.1454 46.3545 69.0585 47.3995C69.0067 48.0343 68.6881 48.5622 68.332 49.0567C67.4654 50.2645 66.4226 51.3252 65.3972 52.3995C65.2638 52.5397 65.1077 52.578 64.8481 52.4959V52.4959Z" fill="#C22B28"/>
<path d="M34.1318 91.5436C32.7387 92.9062 31.152 93.6085 29.3171 93.7844C29.0654 93.8084 28.7864 93.7435 28.5438 93.6561C27.8344 93.3955 27.3665 92.8957 27.272 92.1364C27.196 91.5278 27.7187 90.8706 28.492 90.6164C29.2037 90.3824 29.9452 90.3321 30.6985 90.4367C31.8652 90.5995 33.0104 90.8162 34.1318 91.5436Z" fill="#C22B28"/>
<path d="M73.6787 61.4351C74.1402 59.5858 74.912 58.1891 76.0028 56.9604C76.448 56.4602 76.996 56.0949 77.6521 55.9243C78.2962 55.7563 78.9092 55.8584 79.3189 56.4073C79.7414 56.9761 79.5748 57.558 79.1828 58.0991C78.7641 58.6772 78.2149 59.1122 77.6332 59.5078C76.4786 60.2922 75.2574 60.9442 73.6787 61.4351Z" fill="#C22B28"/>
<path d="M75.3179 107.355C77.1366 108.728 78.1593 110.208 78.3113 112.216C78.3445 112.666 78.3154 113.086 78.0338 113.458C77.6525 113.962 77.202 114.397 76.5099 114.301C75.8648 114.211 75.5858 113.721 75.3953 113.146C74.7808 111.302 75.0605 109.463 75.3179 107.355V107.355Z" fill="#C22B28"/>
<path d="M65.5356 113.836C65.4607 112.581 65.4554 111.401 65.8262 110.262C66.0023 109.717 66.2888 109.633 66.6902 110.017C67.7542 111.04 68.5528 112.23 68.7969 113.713C68.905 114.373 68.8049 115.028 68.4182 115.595C67.7942 116.51 66.7862 116.511 66.138 115.61C65.7408 115.059 65.6421 114.408 65.5356 113.836Z" fill="#C22B28"/>
<path d="M79.3418 68.5686C80.0297 66.5753 80.863 65.0263 82.243 63.8092C82.5003 63.5831 82.8084 63.3889 83.1255 63.254C83.7215 62.9986 84.4177 63.1876 84.7737 63.6851C85.1335 64.1917 85.1948 64.7301 84.8176 65.2633C84.6921 65.4403 84.5628 65.6282 84.395 65.7605C82.9509 66.894 81.4202 67.8757 79.3418 68.5686V68.5686Z" fill="#C22B28"/>
<path d="M84.4883 75.9495C85.039 74.0279 85.8867 72.5951 87.2122 71.4549C87.7217 71.0169 88.312 70.7395 89.0014 70.7433C90.1107 70.75 90.5922 71.5329 90.0774 72.4905C89.9762 72.6799 89.8548 72.8756 89.6961 73.0158C88.2455 74.2963 86.6135 75.2592 84.4883 75.9495V75.9495Z" fill="#C22B28"/>
<path d="M62.2915 73.4341C62.6128 77.799 64.3835 81.0611 67.4048 83.6959C69.1169 85.1878 70.7675 86.7476 72.6327 88.0622C74.0954 89.0915 75.2353 90.4406 76.2179 91.9209C76.642 92.5583 76.9273 93.2448 77.0222 94.012C77.2887 96.1774 75.7568 97.7818 73.5636 97.5914C71.8235 97.4395 70.1783 96.9131 68.5754 96.2449C67.5647 95.8242 66.5541 95.3997 65.5393 94.9831C63.8513 94.2899 62.3221 94.597 60.9275 95.7199C59.5487 96.8294 58.1008 97.8377 56.5436 98.6881C54.7767 99.651 52.8967 100.229 50.8781 100.303C47.8035 100.417 46.1593 98.3046 47.0422 95.384C47.4463 94.0466 48.0888 92.8242 48.9634 91.7289C49.9846 90.4485 51.0274 89.1852 52.0543 87.9078C52.6076 87.2197 53.1167 86.5017 53.5687 85.7424C54.1648 84.7409 54.4701 83.6787 54.3953 82.5081C54.2702 80.5452 54.1341 78.5808 54.0582 76.6153C53.9796 74.5995 54.1183 72.5995 54.7567 70.6602C55.1834 69.3651 55.7941 68.1866 56.8634 67.2897C58.306 66.0809 59.8435 66.3479 60.7582 67.9936C61.7567 69.7926 61.9993 71.8016 62.2915 73.4341V73.4341Z" fill="#51201C"/>
</svg>
