<svg width="85" height="93" viewBox="0 0 85 93" fill="none" xmlns="http://www.w3.org/2000/svg">
<path d="M43.4043 86.9105C40.5262 86.7975 37.7189 86.2671 34.9221 85.6322C33.0295 85.202 31.1052 84.8961 29.2519 84.3135C25.9461 83.2751 22.8316 81.8239 19.9209 79.9497C17.5989 78.4546 15.3935 76.8148 13.4429 74.8523C9.63737 71.0223 7.37765 66.4893 7.02591 61.0767C6.66013 55.4466 7.68732 50.0766 10.0101 44.9321C10.9831 42.7767 12.0642 40.6825 13.231 38.6246C14.6859 36.0603 16.4508 33.7492 18.6413 31.7617C23.0367 27.7715 27.7491 24.2306 33.095 21.557C35.1709 20.5186 37.1939 19.371 39.2038 18.2098C40.3618 17.5417 41.3153 16.613 42.0729 15.5025C43.051 14.066 43.8135 12.5194 44.4487 10.9099C44.7574 10.1289 45.1193 9.37524 45.5185 8.6369C45.7384 8.2281 46.0205 7.86928 46.4065 7.60449C47.0858 7.13854 47.7573 7.29759 48.1399 8.01628C48.4455 8.58987 48.5133 9.21945 48.5593 9.85614C48.7272 12.158 48.741 14.4694 48.9902 16.7657C49.1072 17.8506 49.328 18.9187 49.5564 19.9859C49.9633 21.8864 51.0606 23.412 52.2421 24.888C53.0054 25.842 53.7862 26.7838 54.5983 27.6955C56.8091 30.1776 58.6494 32.9214 60.4172 35.7174C63.0069 39.8116 65.2366 44.0831 66.879 48.6445C67.6294 50.7317 68.1054 52.8831 68.5121 55.0545C68.9229 57.2513 69.2132 59.4633 69.4098 61.6875C69.4209 61.8139 69.4379 61.9406 69.4361 62.0675C69.4005 64.454 69.2172 66.8262 68.762 69.1742C68.0578 72.813 66.3782 75.9992 64.2191 78.9753C62.8063 80.9243 61.0558 82.4933 58.9726 83.6946C57.2612 84.6812 55.423 85.3802 53.5036 85.8491C51.3697 86.3717 49.2243 86.8522 47.0084 86.8771C45.807 86.8904 44.605 86.8992 43.4043 86.9105V86.9105Z" fill="#FDD89F"/>
<path d="M59.0251 33.6319C57.0504 30.6814 55.3462 28.6624 52.4452 25.2895C51.5929 24.3515 50.8491 23.3276 50.2127 22.2323C49.5449 21.0839 49.103 19.8607 48.9997 18.5291C48.9172 17.471 48.8474 16.4108 48.7414 15.3541C48.5874 13.8317 48.33 10.0467 48.351 9.67205C48.3854 9.04089 48.0116 8.55081 47.7216 8.03683C47.6272 7.86932 47.4346 7.8476 47.2606 7.8385C46.7096 7.81248 46.2384 7.95182 45.9026 8.43597C45.6901 8.74349 45.5045 9.05997 45.3385 9.39287C44.6985 10.6746 43.1506 14.5533 42.7822 15.1209C41.856 16.5466 40.6052 17.6207 39.1653 18.495C36.2555 20.2613 33.3052 21.9599 30.2972 23.5593C24.8478 26.4565 20.1331 30.2522 16.3125 35.0827C13.3883 38.7787 11.3422 42.9289 10.0995 47.4725C7.79015 57.161 8.66015 63.3869 9.09538 64.8759C10.2062 68.6786 12.5364 71.6864 15.524 74.2329C19.8316 78.0878 24.7466 80.4269 28.0817 81.5128C31.1334 82.5074 34.2208 83.3802 37.3896 83.9487C39.5209 84.3313 44.6178 85.2394 48.7438 84.6945C52.3154 84.3226 55.6452 83.2522 58.6587 81.269C61.4113 79.4573 65.8869 75.6715 68.503 66.5077C69.0002 63.8623 68.9338 61.1952 68.6405 58.5343C68.4292 55.0618 66.9318 49.2653 66.2944 47.6241C65.7513 45.6515 62.1039 37.4008 59.0251 33.6319V33.6319ZM4.85203 56.2427C5.09295 53.0807 5.53096 49.9489 6.50293 46.92C7.91425 42.5219 10.0915 38.5181 12.9319 34.8647C17.3609 29.169 22.932 24.9226 29.5134 21.945C31.8701 20.8789 34.1977 19.752 36.4938 18.5621C37.5324 18.0244 38.5215 17.4059 39.4789 16.7338C40.989 15.6722 42.0097 14.2348 42.7685 12.591C43.1833 11.6932 43.5941 10.793 43.9977 9.89006C44.312 9.188 44.7177 8.53702 45.122 7.88494C45.3184 7.56671 45.5597 7.2863 45.8587 7.0542C46.881 6.26435 48.1971 6.47251 48.9139 7.54663C49.207 7.98548 49.3573 8.48095 49.4819 8.98812C49.842 10.4599 49.9182 11.9675 50.0634 13.4657C50.1731 14.5965 50.2822 15.7269 50.4359 16.8533C50.6332 18.3008 51.2304 19.5361 52.2934 20.5591C54.0492 22.2491 55.9655 23.7479 57.8657 25.2682C62.8546 29.2603 66.9073 34.0328 69.9121 39.6528C72.1817 43.8964 73.6682 48.4261 74.6188 53.1242C75.2959 56.4664 75.3857 59.8492 75.0049 63.2352C74.6858 66.0716 74.0111 68.8343 72.9478 71.4845C71.9861 73.8822 70.6794 76.0975 69.0848 78.1437C67.2757 80.4648 65.2372 82.5516 62.8098 84.2418C59.9093 86.2613 56.6368 87.3159 53.1647 87.792C50.1053 88.2118 47.0487 87.9953 44.0028 87.5923C41.8548 87.3083 39.7133 86.9715 37.5957 86.5226C34.0172 85.7631 30.4908 84.8153 27.0199 83.6437C24.2587 82.711 21.5487 81.6689 18.9212 80.419C15.178 78.6381 11.9455 76.1999 9.45909 72.8797C7.16387 69.815 5.74958 66.361 5.09038 62.5947C4.72096 60.4836 4.70648 58.3673 4.85203 56.2427V56.2427Z" fill="#623175"/>
<path d="M68.2105 77.7799C69.5537 75.4144 70.5441 72.927 71.1826 70.3159C71.867 67.5184 72.3219 64.6824 72.3586 61.7893C72.3837 59.7921 72.4618 57.7975 72.231 55.8047C72.0737 54.448 71.864 53.0999 71.5541 51.7717C70.9937 49.3759 70.425 46.9769 69.5986 44.6576C68.8045 42.4271 67.7711 40.2938 66.5509 38.2567C64.1646 34.2728 61.2597 30.6979 57.8851 27.4963C57.6561 27.279 57.4423 27.0462 57.1757 26.7747C57.3996 26.7281 57.4731 26.8635 57.5636 26.9345C60.9761 29.6269 63.9381 32.7503 66.2565 36.406C68.6985 40.2575 70.5985 44.368 71.6609 48.8313C72.248 51.299 72.801 53.7638 72.99 56.3007C73.2592 59.9106 73.2153 63.5021 72.5612 67.0763C72.2803 68.6125 71.9658 70.1394 71.4601 71.6172C70.8017 73.5382 69.9047 75.3508 68.8293 77.0759C68.6622 77.3434 68.487 77.6103 68.2105 77.7799V77.7799Z" fill="#A95C9F"/>
<path d="M67.5758 75.4357C67.8049 74.8814 68.0281 74.3235 68.2652 73.7714C69.1103 71.8059 69.5156 69.7305 69.7919 67.6276C69.9378 66.5169 70.035 65.4009 70.1526 64.2872C70.3846 62.0936 70.1287 59.915 69.9573 57.7323C69.7051 54.5305 68.8212 51.4669 67.9273 48.4053C67.8395 48.1058 67.7485 47.8078 67.708 47.4857C68.185 47.8405 68.4227 48.3513 68.6494 48.8605C69.493 50.761 70.1156 52.7323 70.5056 54.7726C71.3282 59.0787 71.33 63.4055 70.5185 67.6976C70.0625 70.1053 69.3905 72.4877 68.1803 74.6683C68.0277 74.9424 67.9043 75.2385 67.5758 75.4357V75.4357Z" fill="#A95C9F"/>
<path d="M63.44 37.8605C62.7816 36.895 62.1528 35.9089 61.4609 34.9683C58.5918 31.0709 55.6827 27.204 52.4629 23.5798C51.9271 22.9758 51.4127 22.3541 50.996 21.6596C50.7953 21.3245 50.6285 20.9813 50.5723 20.4087C50.8352 20.8755 51.0041 21.2032 51.199 21.515C51.6924 22.3077 52.3378 22.9775 52.9692 23.661C55.9078 26.8435 58.7614 30.095 61.1868 33.6925C62.0728 35.0067 62.8769 36.366 63.44 37.8605V37.8605Z" fill="#A95C9F"/>
<path d="M65.7302 77.3023C64.7556 80.7244 58.9474 84.6714 55.5467 84.9404C57.5419 84.0862 59.4796 83.1267 61.243 81.8589C63.0019 80.5938 64.5216 79.0918 65.7302 77.3023V77.3023Z" fill="#A95C9F"/>
<path d="M67.4666 46.6008C66.4847 44.1578 65.4875 41.732 64.3828 39.3503C65.742 40.422 67.6004 44.7799 67.4666 46.6008Z" fill="#A95C9F"/>
<path d="M40.6537 81.0936C39.565 81.0244 38.4753 80.9676 37.3877 80.88C36.9204 80.8427 36.4769 80.8581 36.0314 81.0248C35.5564 81.2025 35.0652 81.3395 34.5802 81.4913C34.023 81.6661 33.458 81.7789 32.8671 81.7682C31.8341 81.7501 30.9835 81.3654 30.3365 80.5636C30.0639 80.2258 29.7578 79.9005 29.56 79.5216C28.838 78.1435 27.6243 77.3337 26.2844 76.6749C24.5705 75.831 22.7957 75.0987 21.1862 74.0615C19.4606 72.9493 17.7231 71.8534 16.3449 70.2863C13.916 67.5233 12.5083 64.3085 11.9362 60.7123C11.4762 57.8205 11.7507 54.9584 12.3409 52.1123C13.0408 48.7383 13.9161 45.4163 15.4448 42.3016C18.1749 36.7397 22.1474 32.2674 27.4355 28.9744C30.8031 26.8767 34.257 24.9257 37.7605 23.0614C39.2799 22.2529 40.8901 21.6453 42.481 20.9979C44.152 20.3177 45.5741 20.5246 46.8681 21.9371C48.7805 24.0264 50.5377 26.2286 52.1786 28.5244C54.269 31.4475 56.3006 34.4112 58.1071 37.5184C59.7351 40.3184 60.9881 43.2875 62.0647 46.3347C63.2442 49.6765 64.2432 53.0696 64.7228 56.5824C65.3718 61.3392 64.9209 65.9863 63.0159 70.4448C62.1903 72.3758 61.0072 74.0653 59.4576 75.4906C56.3001 78.396 52.6102 80.2565 48.3471 80.9319C46.8874 81.1625 43.3942 81.3211 40.6537 81.0936V81.0936Z" fill="#E74034"/>
<path d="M31.9854 47.8778C30.1754 48.0164 28.7213 47.6 27.5131 46.4462C27.238 46.1835 27.0276 45.8741 26.9581 45.4958C26.8246 44.7616 27.3025 44.2792 28.0419 44.3988C28.367 44.4508 28.6564 44.5964 28.9398 44.758C30.2111 45.4832 31.063 46.6037 31.9854 47.8778Z" fill="#FDD89F"/>
<path d="M37.2431 40.5564C35.7859 39.629 34.6327 38.4952 34.3946 36.6928C34.2982 35.9651 34.5387 35.4936 35.0264 35.3281C35.4847 35.1727 36.0389 35.429 36.4138 35.9838C36.6096 36.2741 36.763 36.589 36.8251 36.9354C37.0052 37.9359 37.181 38.9369 37.3478 39.9401C37.3789 40.1271 37.4167 40.3297 37.2431 40.5564Z" fill="#FDD89F"/>
<path d="M56.4911 63.5412C57.7339 63.4108 58.8243 63.5536 59.846 64.0794C60.3908 64.3603 60.8245 64.7509 61.0215 65.3595C61.3076 66.2454 60.6857 66.9735 59.7648 66.8165C59.2045 66.7213 58.7487 66.422 58.3307 66.0628C57.5473 65.3892 56.9738 64.5617 56.4911 63.5412Z" fill="#FDD89F"/>
<path d="M49.6011 58.8496C49.6706 58.7476 49.758 58.7089 49.8636 58.7139C50.9322 58.7621 52.0086 58.7393 53.0515 59.0415C53.5612 59.1884 54.0505 59.3729 54.3689 59.8263C54.6557 60.2355 54.7766 60.6679 54.4969 61.14C54.2293 61.5921 53.8123 61.673 53.3368 61.6238C52.9815 61.5877 52.6621 61.4491 52.3639 61.2667C51.36 60.653 50.4894 59.8791 49.6747 59.0395C49.6295 58.9927 49.6224 58.9076 49.6011 58.8496V58.8496Z" fill="#FDD89F"/>
<path d="M33.8437 43.8326C33.7282 43.884 33.702 43.9066 33.6831 43.9024C32.3385 43.5524 31.1188 42.9816 30.1916 41.9154C29.9803 41.6733 29.8339 41.3805 29.7403 41.0687C29.607 40.6265 29.5301 40.1687 29.9485 39.8426C30.3615 39.5199 30.8028 39.684 31.2062 39.9073C31.603 40.1272 31.9249 40.4397 32.1935 40.7999C32.3709 41.0372 32.5411 41.2843 32.6792 41.5456C33.0771 42.3022 33.4565 43.0682 33.8437 43.8326V43.8326Z" fill="#FDD89F"/>
<path d="M47.0916 62.2562C47.3356 62.3018 47.4923 62.5411 47.6821 62.7187C48.5226 63.5064 49.0237 64.4861 49.3032 65.5899C49.377 65.8832 49.3936 66.1759 49.3629 66.4726C49.3119 66.9748 49.1059 67.2439 48.7011 67.3526C48.2697 67.4689 47.9829 67.2468 47.7388 66.9408C47.4247 66.5472 47.1956 66.1004 47.0853 65.6175C46.8517 64.6003 46.7562 63.568 46.9106 62.5256C46.9243 62.4347 46.9169 62.3217 47.0916 62.2562V62.2562Z" fill="#FDD89F"/>
<path d="M29.473 52.5043C28.0327 52.7641 26.8184 52.5551 25.6219 52.1922C25.3375 52.1059 25.0823 51.9466 24.8719 51.7242C24.597 51.4324 24.4595 51.1091 24.598 50.7118C24.7397 50.307 25.0131 50.0475 25.4464 49.9675C25.7727 49.9076 26.1038 49.927 26.4025 50.0483C27.6259 50.5449 28.5548 51.4033 29.473 52.5043Z" fill="#FDD89F"/>
<path d="M46.5859 50.4467C47.1301 49.593 47.7633 49.0877 48.4277 48.6206C48.9165 48.2763 49.4439 47.9949 50.0407 47.8779C50.4616 47.7954 50.881 47.7839 51.274 47.9992C51.9492 48.3694 52.0219 48.9976 51.4463 49.5011C51.1985 49.7175 50.9056 49.8525 50.5902 49.9341C49.3348 50.2598 48.0467 50.3078 46.5859 50.4467Z" fill="#FDD89F"/>
<path d="M42.7823 61.7993C42.9612 61.8214 43.0195 61.9305 43.0705 62.045C43.5742 63.1675 43.8635 64.3292 43.7079 65.5691C43.652 66.018 43.5089 66.4391 43.1971 66.7801C42.6602 67.3688 42.032 67.2509 41.764 66.5093C41.6637 66.2314 41.5986 65.9398 41.6146 65.6389C41.6895 64.2589 42.1209 62.9893 42.7823 61.7993Z" fill="#FDD89F"/>
<path d="M41.3104 39.0967C40.3221 37.7766 39.8807 36.4682 40.1831 34.9653C40.2575 34.5955 40.4389 34.2693 40.744 34.025C41.3144 33.5683 41.9119 33.7508 42.138 34.444C42.2167 34.6851 42.2314 34.9289 42.2236 35.1764C42.1808 36.4997 41.6766 37.7078 41.3104 39.0967Z" fill="#FDD89F"/>
<path d="M38.2958 61.8254C38.5128 62.5992 38.8037 63.3588 38.8197 64.1784C38.8293 64.6719 38.7738 65.1665 38.7477 65.6607C38.7339 65.9124 38.6617 66.1459 38.5306 66.3626C38.2226 66.8728 37.7739 67.0975 37.289 66.9798C36.8696 66.8783 36.5981 66.4669 36.5965 65.8707C36.5936 65.1352 36.8774 64.4662 37.1635 63.8097C37.4588 63.1316 37.8099 62.4777 38.1365 61.8138C38.1892 61.8179 38.2429 61.8212 38.2958 61.8254Z" fill="#FDD89F"/>
<path d="M43.5031 40.8938C43.5302 40.3586 43.7627 39.9596 44.0235 39.5781C44.616 38.7133 45.4003 38.1012 46.4302 37.8233C46.6991 37.7509 46.9725 37.7259 47.2424 37.7808C47.7487 37.8823 48.0126 38.4145 47.7644 38.8597C47.6473 39.0716 47.4889 39.2863 47.2952 39.4254C46.1766 40.2291 44.9483 40.7664 43.5031 40.8938V40.8938Z" fill="#FDD89F"/>
<path d="M33.6425 61.2499C34.0595 61.8411 34.0839 62.4137 34.1654 62.9606C34.2681 63.6433 34.3386 64.3338 34.0986 65.0097C33.9007 65.5701 33.484 65.8755 32.9305 65.8669C32.2635 65.8561 31.8707 65.4686 31.8678 64.8036C31.8672 64.6072 31.8826 64.4067 31.9232 64.2152C32.17 63.0624 32.9624 62.2402 33.6425 61.2499V61.2499Z" fill="#FDD89F"/>
<path d="M30.0111 60.2574C29.6089 61.3439 29.011 62.1896 28.2299 62.9027C27.7343 63.3547 27.2423 63.3989 26.7137 63.1211C25.9917 62.7414 25.8605 61.9801 26.4227 61.3968C26.7208 61.0876 27.0754 60.8496 27.4862 60.7219C28.2707 60.4797 29.0731 60.3178 30.0111 60.2574V60.2574Z" fill="#FDD89F"/>
<path d="M49.2965 54.9825C49.849 53.9731 50.4846 53.264 51.3008 52.714C51.6137 52.5034 51.9574 52.3568 52.3263 52.2826C52.9126 52.1643 53.3679 52.3347 53.5602 52.7251C53.7738 53.1586 53.6288 53.6633 53.1801 54.0411C53.1044 54.1054 53.0287 54.1763 52.9415 54.2181C51.8291 54.7521 50.659 55.0064 49.2965 54.9825V54.9825Z" fill="#FDD89F"/>
<path d="M45.0762 45.8925C45.7421 44.6666 46.5367 43.8217 47.6918 43.3481C48.0679 43.1943 48.4676 43.1476 48.8649 43.2507C49.574 43.4349 49.7901 44.1474 49.2999 44.6858C49.0644 44.9442 48.778 45.1501 48.4432 45.2662C47.4054 45.6249 46.325 45.7541 45.0762 45.8925Z" fill="#FDD89F"/>
<path d="M43.3132 71.9221C44.0564 72.8829 44.4453 73.8563 44.5903 74.9302C44.6032 75.0276 44.599 75.1279 44.5935 75.2263C44.5616 75.852 44.2787 76.266 43.8202 76.3636C43.3354 76.4675 42.7423 76.1161 42.5235 75.5662C42.3159 75.0465 42.3073 74.5052 42.418 73.9598C42.5608 73.2512 42.857 72.6121 43.3132 71.9221V71.9221Z" fill="#FDD89F"/>
<path d="M27.2425 37.2231C25.818 36.8962 24.7443 36.3501 23.9478 35.3298C23.7629 35.0927 23.6378 34.8226 23.6021 34.5224C23.5148 33.7873 24.152 33.2926 24.8489 33.5627C25.2299 33.7106 25.508 33.9933 25.7483 34.316C26.3723 35.1553 26.7572 36.1107 27.2425 37.2231V37.2231Z" fill="#FDD89F"/>
<path d="M28.8554 55.9065C27.9718 56.5477 27.1769 57.0462 26.2906 57.3902C25.935 57.5286 25.5583 57.537 25.1845 57.4728C24.7876 57.4033 24.4981 57.2112 24.3889 56.7925C24.2765 56.3623 24.391 56.0122 24.7069 55.7161C24.9344 55.5026 25.2243 55.4109 25.5214 55.3731C26.6338 55.2299 27.6992 55.4016 28.8554 55.9065V55.9065Z" fill="#FDD89F"/>
<path d="M22.3332 42.6049C21.4895 42.5754 20.8586 42.3731 20.294 41.9762C19.9819 41.7561 19.7393 41.4779 19.6175 41.1119C19.4819 40.7045 19.5306 40.3239 19.8481 40.0153C20.1632 39.7078 20.5411 39.6455 20.9511 39.8125C21.3714 39.9839 21.7422 40.224 22.0335 40.5781C22.4323 41.061 22.7359 41.5984 22.9842 42.1672C23.1408 42.5247 23.0874 42.5984 22.7026 42.622C22.6528 42.6253 22.603 42.6218 22.5531 42.6188C22.4292 42.6118 22.3049 42.6033 22.3332 42.6049Z" fill="#FDD89F"/>
<path d="M31.4827 69.6669C31.7618 70.7639 31.96 71.7461 31.4572 72.7208C31.0914 73.4311 30.4451 73.7431 29.884 73.4956C29.3126 73.2434 29.1065 72.5756 29.4152 71.8252C29.809 70.868 30.6011 70.2866 31.4827 69.6669Z" fill="#FDD89F"/>
<path d="M39.4428 29.0052C38.5031 28.1531 37.807 27.1864 37.6166 25.9266C37.5729 25.6405 37.6284 25.3808 37.7407 25.1313C37.8955 24.7873 38.1825 24.5896 38.5556 24.5602C38.92 24.5323 39.1644 24.7517 39.3396 25.0438C39.4147 25.1696 39.4819 25.3103 39.5117 25.4537C39.7529 26.6296 39.6861 27.8038 39.4428 29.0052Z" fill="#FDD89F"/>
<path d="M57.5123 52.427C58.1765 51.2256 59.1854 50.5478 60.4932 50.3002C60.7711 50.2476 61.0389 50.3612 61.2832 50.4826C61.907 50.7912 61.9608 51.5168 61.3868 51.9225C61.2076 52.0495 60.9965 52.1462 60.7849 52.2108C59.7249 52.5355 58.6346 52.5139 57.5123 52.427Z" fill="#FDD89F"/>
<path d="M49.6338 70.0222C50.8766 70.3878 51.6127 71.1459 52.3366 71.9173C52.5273 72.1212 52.6159 72.3858 52.6734 72.6505C52.7094 72.8152 52.7044 72.9939 52.689 73.163C52.648 73.626 52.3247 73.8384 51.9245 73.9696C51.5627 74.0888 51.29 73.9232 51.0768 73.6595C50.9228 73.4695 50.7846 73.2591 50.6801 73.0387C50.2468 72.1218 50.0406 71.1299 49.6338 70.0222V70.0222Z" fill="#FDD89F"/>
<path d="M56.9229 38.8692C57.7155 38.9218 58.0868 39.609 57.7021 40.3001C57.4723 40.7129 57.0797 40.9362 56.6816 41.1276C56.0184 41.4477 55.2948 41.4845 54.5703 41.462C54.2553 41.4524 54.1863 41.2904 54.3451 41.0257C54.6508 40.518 54.9323 39.9974 55.329 39.5488C55.7546 39.0677 56.3074 38.9005 56.9229 38.8692V38.8692Z" fill="#FDD89F"/>
<path d="M37.3369 72.4724C37.8438 73.5626 38.1223 74.542 37.9467 75.6118C37.9053 75.8614 37.8023 76.0858 37.6732 76.297C37.4807 76.6151 37.2011 76.824 36.8146 76.7825C36.4332 76.7423 36.1981 76.4978 36.0645 76.1431C35.9659 75.881 35.9391 75.6133 35.9646 75.3405C36.0645 74.264 36.5538 73.3713 37.3369 72.4724V72.4724Z" fill="#FDD89F"/>
<path d="M20.0769 56.0529C19.1959 56.8689 18.3265 57.2417 17.3364 57.3303C16.7254 57.385 16.2021 57.0706 16.0085 56.5803C15.7821 56.0067 16.0428 55.4694 16.6441 55.3136C16.8323 55.2648 17.05 55.2268 17.2313 55.2725C18.138 55.504 19.0373 55.7647 20.0769 56.0529Z" fill="#FDD89F"/>
<path d="M20.0968 49.0912C19.95 49.3941 19.6859 49.43 19.4568 49.5031C18.7308 49.7349 17.9851 49.7758 17.2416 49.6218C16.5386 49.4761 16.1516 48.8637 16.3384 48.2594C16.5402 47.6055 16.9234 47.3864 17.5868 47.5717C18.0451 47.6991 18.4731 47.9009 18.8589 48.1809C19.2759 48.4825 19.688 48.7897 20.0968 49.0912V49.0912Z" fill="#FDD89F"/>
<path d="M56.0342 69.3547C56.7779 69.7767 57.4446 70.0427 58.0371 70.4516C58.5159 70.7815 58.7693 71.2575 58.8989 71.7979C58.982 72.1453 58.9778 72.5066 58.622 72.7279C58.2651 72.9505 57.9056 72.8985 57.5756 72.654C57.4369 72.5521 57.2967 72.4417 57.188 72.3094C56.5074 71.4819 56.2065 70.5131 56.0342 69.3547Z" fill="#FDD89F"/>
<path d="M23.4954 64.1336C22.9572 64.8156 22.4577 65.4175 21.8604 65.9319C21.6516 66.1108 21.3951 66.216 21.1174 66.2523C20.5881 66.321 20.1757 66.1169 20.0063 65.7051C19.824 65.2619 19.9563 64.7408 20.3408 64.4373C20.6834 64.1679 21.094 64.0762 21.5157 64.0059C22.1611 63.8988 22.7891 63.9321 23.4954 64.1336V64.1336Z" fill="#FDD89F"/>
<path d="M59.4108 59.7833C60.3384 58.9379 61.3052 58.6696 62.3477 58.6074C62.6493 58.589 62.9445 58.6572 63.2172 58.7967C63.5345 58.9586 63.7102 59.2247 63.7037 59.5737C63.6977 59.9491 63.4362 60.1508 63.1049 60.2451C62.8671 60.3129 62.6148 60.3615 62.3692 60.3598C61.3917 60.3543 60.4694 60.0795 59.4108 59.7833Z" fill="#FDD89F"/>
<path d="M33.0131 32.2345C31.959 31.6383 31.1152 30.9405 30.8879 29.7112C30.8311 29.4041 30.8945 29.1189 31.0687 28.8646C31.4035 28.3781 31.9129 28.3411 32.3295 28.7661C32.4871 28.9269 32.5938 29.1209 32.6846 29.3259C32.9677 29.9695 33.1371 31.339 33.0131 32.2345Z" fill="#FDD89F"/>
<path d="M56.6841 45.8335C56.991 44.9001 57.5552 44.3302 58.243 43.8703C58.4223 43.7501 58.6516 43.6882 58.8667 43.6415C59.4696 43.5115 59.9643 43.7237 60.122 44.1563C60.2757 44.5763 60.1017 44.9809 59.5542 45.3079C58.6961 45.8214 57.7528 45.9325 56.6841 45.8335V45.8335Z" fill="#FDD89F"/>
<path d="M25.5025 70.1962C25.3499 71.1318 25.1012 71.8757 24.6796 72.5476C24.3018 73.1487 23.6746 73.3333 23.2252 73.0361C22.7108 72.6959 22.6743 71.9935 23.131 71.3987C23.7013 70.6562 24.5112 70.3999 25.5025 70.1962Z" fill="#FDD89F"/>
<path d="M18.4365 61.4568C17.7684 62.2906 17.0318 63.0112 15.9393 63.1959C15.257 63.3108 14.787 62.8578 14.9408 62.2807C15.0122 62.0115 15.161 61.7772 15.4226 61.6481C15.6227 61.5499 15.8283 61.4543 16.0421 61.3937C16.8241 61.1734 17.6087 61.2044 18.4365 61.4568Z" fill="#FDD89F"/>
<path d="M50.6736 35.6735C50.8384 34.4527 51.2775 33.5618 52.2287 32.9725C52.6323 32.7221 53.1071 32.8102 53.3752 33.1335C53.6367 33.4503 53.608 33.7951 53.2429 34.1899C52.5851 34.9007 51.7021 35.2344 50.6736 35.6735Z" fill="#FDD89F"/>
<path d="M46.2227 30.2518C45.9081 29.1735 46.4461 27.7939 47.2665 27.3473C47.6659 27.1307 48.1446 27.1551 48.3809 27.4043C48.6327 27.6706 48.6354 28.106 48.3383 28.4964C47.7883 29.2196 47.0134 29.6731 46.2227 30.2518V30.2518Z" fill="#FDD89F"/>
<path d="M26.0131 47.5238C24.6694 47.9465 23.4488 47.8178 22.2746 47.2255C21.9452 47.0598 21.7185 46.7606 21.6161 46.3888C21.4182 45.6715 21.94 45.0515 22.6819 45.1475C23.0696 45.1981 23.444 45.3149 23.7934 45.4973C24.5505 45.8934 25.4013 46.6568 26.0131 47.5238V47.5238Z" fill="#C22B28"/>
<path d="M38.0685 34.7325C36.9464 34.1406 36.2161 33.3866 35.7333 32.4095C35.4482 31.8322 35.4739 31.2295 35.8069 30.6699C36.0818 30.2067 36.5543 30.1197 36.9935 30.4353C37.234 30.6083 37.4255 30.8348 37.5211 31.1171C37.9034 32.2479 38.0611 33.411 38.0685 34.7325Z" fill="#C22B28"/>
<path d="M28.705 42.62C27.6672 42.6345 26.7188 42.4551 25.8352 41.9959C25.4373 41.7894 25.0955 41.5207 24.8591 41.1391C24.5654 40.6635 24.6216 40.1854 24.9982 39.8101C25.3249 39.4847 25.7029 39.4538 26.2044 39.7318C26.6133 39.9584 26.9653 40.2611 27.2758 40.6061C27.8256 41.2165 28.3089 41.8741 28.705 42.62V42.62Z" fill="#C22B28"/>
<path d="M32.2629 37.4148C32.0288 37.5372 31.881 37.5053 31.7457 37.4565C30.6702 37.0649 29.756 36.4383 29.0517 35.5388C28.65 35.0254 28.6279 34.4711 28.9342 34.0653C29.2453 33.6537 29.6305 33.5721 30.0838 33.8273C30.3437 33.9741 30.5419 34.1891 30.7013 34.4341C30.899 34.7381 31.0937 35.0469 31.2585 35.3693C31.5988 36.0335 31.9179 36.7085 32.2629 37.4148V37.4148Z" fill="#C22B28"/>
<path d="M29.5482 64.1943C29.9881 65.3301 29.5694 66.9793 28.713 67.6556C28.5982 67.746 28.4739 67.8307 28.3412 67.8887C27.9888 68.0425 27.625 68.0895 27.2956 67.8427C26.9648 67.5949 26.9054 67.238 26.9743 66.858C27.0045 66.694 27.0515 66.5203 27.1388 66.3805C27.734 65.4323 28.6076 64.7953 29.5482 64.1943Z" fill="#C22B28"/>
<path d="M42.4239 31.8516C41.8057 30.7642 41.4068 29.7789 41.8021 28.6425C41.9149 28.3151 42.0914 28.0269 42.3694 27.8141C42.6284 27.617 42.9172 27.4691 43.2487 27.6115C43.5741 27.7512 43.6955 28.0443 43.717 28.3747C43.7284 28.5423 43.7263 28.7171 43.691 28.8802C43.4674 29.902 43.0585 30.8466 42.4239 31.8516V31.8516Z" fill="#C22B28"/>
<path d="M54.2119 56.2319C55.1183 55.5038 56.1106 55.057 57.268 55.0135C57.5854 55.002 57.897 55.0561 58.1789 55.2263C58.4685 55.4019 58.6698 55.6376 58.6486 55.9854C58.6261 56.36 58.4006 56.6052 58.0508 56.7332C57.6812 56.8688 57.2939 56.9224 56.9039 56.8865C56.0542 56.8094 55.225 56.6151 54.401 56.4055C54.3422 56.3899 54.2987 56.3141 54.2119 56.2319V56.2319Z" fill="#C22B28"/>
<path d="M35.813 68.9099C35.8007 69.204 35.7445 69.4873 35.6127 69.7512C35.393 70.1899 35 70.3847 34.5309 70.2947C34.0857 70.2094 33.8628 69.9373 33.8156 69.42C33.7801 69.0257 33.8827 68.6508 33.9984 68.2829C34.1937 67.6583 34.4647 67.0632 34.7914 66.4967C34.9672 66.1918 35.1858 66.2004 35.3091 66.5187C35.6076 67.2863 35.8616 68.0682 35.813 68.9099V68.9099Z" fill="#C22B28"/>
<path d="M50.9697 63.5673C51.8415 63.7801 52.5488 63.9534 53.1888 64.3154C53.654 64.5788 53.9857 64.9427 54.0505 65.5021C54.1079 65.9973 53.8893 66.4541 53.4776 66.6527C53.0905 66.8397 52.6249 66.7474 52.3126 66.3214C51.7265 65.5208 51.2942 64.6377 50.9697 63.5673V63.5673Z" fill="#C22B28"/>
<path d="M25.2568 59.3306C24.7134 60.3431 24.0172 60.9839 22.9667 61.2004C22.7507 61.2447 22.5324 61.2533 22.314 61.2052C21.8949 61.1128 21.5974 60.8608 21.5487 60.523C21.4936 60.1368 21.7145 59.8833 22.0069 59.6813C22.3547 59.4428 22.7555 59.3484 23.1679 59.2793C23.8228 59.1702 24.4723 59.1897 25.2568 59.3306V59.3306Z" fill="#C22B28"/>
<path d="M45.2121 35.3247C45.3006 34.3381 45.5631 33.4008 46.1903 32.5866C46.454 32.2447 46.8045 32.0351 47.2404 31.9968C47.8231 31.945 48.2046 32.4187 48.047 32.98C47.9519 33.3211 47.7224 33.5762 47.4759 33.8092C46.8757 34.3784 46.1948 34.8491 45.5219 35.329C45.4343 35.3917 45.3451 35.3964 45.2121 35.3247V35.3247Z" fill="#C22B28"/>
<path d="M24.3327 53.449C23.4288 54.0482 22.4888 54.2668 21.4689 54.1725C21.3289 54.1595 21.1836 54.0951 21.0603 54.0223C20.7006 53.8065 20.498 53.4851 20.5264 53.061C20.5491 52.721 20.9036 52.4165 21.3525 52.3579C21.7655 52.3041 22.1755 52.3536 22.5756 52.4888C23.1952 52.6986 23.7973 52.9357 24.3327 53.449Z" fill="#C22B28"/>
<path d="M49.0892 41.1193C49.5359 40.1579 50.1043 39.4757 50.8291 38.9183C51.1248 38.6915 51.4624 38.549 51.8385 38.5239C52.2077 38.4991 52.5315 38.6183 52.6972 38.9604C52.8679 39.3147 52.7156 39.615 52.4447 39.8696C52.1552 40.1417 51.8096 40.3221 51.4505 40.4777C50.7377 40.786 50.0025 41.0152 49.0892 41.1193Z" fill="#C22B28"/>
<path d="M45.144 66.3503C45.9918 67.2883 46.394 68.2021 46.2653 69.3138C46.2361 69.5626 46.1758 69.7892 45.983 69.9628C45.7218 70.1983 45.43 70.3892 45.0625 70.2646C44.7199 70.1485 44.6193 69.8525 44.5759 69.5189C44.4349 68.4487 44.7813 67.4742 45.144 66.3503V66.3503Z" fill="#C22B28"/>
<path d="M39.1219 68.8728C39.2134 68.1799 39.3349 67.5354 39.6572 66.9524C39.8108 66.6733 39.9761 66.6568 40.1546 66.9084C40.6275 67.5768 40.9378 68.3093 40.9148 69.144C40.9042 69.5153 40.7805 69.8624 40.5097 70.1319C40.0728 70.5661 39.5226 70.4622 39.2638 69.9034C39.1051 69.5612 39.1199 69.1957 39.1219 68.8728Z" fill="#C22B28"/>
<path d="M51.4279 45.5999C52.0134 44.5834 52.6315 43.8245 53.5128 43.3034C53.6771 43.2067 53.8657 43.1327 54.053 43.0919C54.4052 43.0143 54.7652 43.1897 54.9071 43.4982C55.0501 43.812 55.0267 44.1122 54.7647 44.364C54.6776 44.4476 54.5872 44.5367 54.4817 44.5915C53.5741 45.0603 52.6352 45.4373 51.4279 45.5999V45.5999Z" fill="#C22B28"/>
<path d="M53.4591 50.1619C53.9622 49.1703 54.5758 48.4763 55.4194 47.9915C55.7436 47.8053 56.095 47.7152 56.4709 47.7887C57.0756 47.9075 57.2558 48.3847 56.874 48.8539C56.7987 48.9468 56.7119 49.041 56.6105 49.1011C55.6839 49.6494 54.6917 50.0056 53.4591 50.1619V50.1619Z" fill="#C22B28"/>
<path d="M41.6102 46.4867C41.3255 48.9021 41.9481 50.8661 43.3193 52.6175C44.0964 53.6093 44.8328 54.6318 45.7122 55.5427C46.402 56.2561 46.8819 57.1107 47.2622 58.0205C47.4265 58.4124 47.5098 58.8166 47.4808 59.2451C47.398 60.4545 46.3928 61.1713 45.2159 60.8398C44.2823 60.5765 43.4399 60.1185 42.6355 59.5876C42.1283 59.2531 41.6215 58.9167 41.1115 58.584C40.2634 58.0306 39.3965 58.0396 38.517 58.5078C37.6476 58.9703 36.7511 59.3703 35.8116 59.6729C34.7458 60.0151 33.6589 60.1357 32.5494 59.9666C30.8594 59.7099 30.1848 58.3864 30.9744 56.8841C31.3359 56.1961 31.8154 55.5956 32.4081 55.0886C33.1004 54.4957 33.8027 53.9145 34.4977 53.3238C34.8722 53.0057 35.2257 52.6666 35.5525 52.2992C35.9833 51.8144 36.2619 51.2664 36.3445 50.6197C36.4831 49.5355 36.6159 48.4493 36.7815 47.3687C36.9511 46.2605 37.2376 45.1833 37.7904 44.1912C38.1597 43.5286 38.6173 42.9488 39.2954 42.5702C40.2101 42.0602 41.0211 42.3654 41.3468 43.3584C41.7021 44.4438 41.6228 45.5654 41.6102 46.4867V46.4867Z" fill="#51201C"/>
</svg>
