<svg width="137" height="128" viewBox="0 0 137 128" fill="none" xmlns="http://www.w3.org/2000/svg">
<path fill-rule="evenodd" clip-rule="evenodd" d="M110.11 55.9075C123.15 66.8819 124.51 86.4894 113.176 99.7936C101.765 113.188 81.6113 115.369 68.2119 104.478C54.686 93.4849 53.2319 73.4289 65.0062 59.9502C76.7009 46.5641 96.9485 44.829 110.11 55.9075V55.9075ZM56.9508 117.533C77.4578 134.045 108.179 130.469 125.451 110.065C142.541 89.8751 140.412 60.2944 120.737 43.5884C102.865 28.4123 76.1574 28.9068 57.8884 43.8227L28.8082 19.6647L35.7555 18.4819L36.0586 18.4298L41.7489 17.4582L40.9657 12.921L40.924 12.681L40.3259 9.22818L40.3041 9.10093L38.8977 0.966309L31.942 2.09701L31.8299 2.11435L27.0615 2.88935L26.7592 2.93564L11.7472 5.36472L0.854806 7.12294L0.85359 7.14608L0.87502 7.18077L0.55889 18.6583L0.663962 18.7306L0.314028 32.403L0.30919 32.7038L0.176963 37.747L0.174227 37.8135L0.137396 37.8974L0.172125 37.909L0 44.4358L8.33136 44.5167H8.46845L12.5207 44.5572L12.7762 44.5601L17.5936 44.6064L17.7452 38.9818L17.7548 38.684L17.91 32.912L46.7191 56.6275C34.6259 76.5751 38.4297 102.621 56.9508 117.533Z" fill="#72BDCA"/>
</svg>
