<svg width="147" height="181" viewBox="0 0 147 181" fill="none" xmlns="http://www.w3.org/2000/svg">
<path d="M107.214 125.111C104.04 130.865 101.21 134.94 97.8805 138.754C96.2865 140.581 94.7865 142.466 92.9743 144.162C89.6802 147.247 86.0987 150.127 82.2815 152.85C79.0888 155.127 75.058 156.539 70.8828 157.833C67.1322 158.996 63.2117 159.944 59.1674 160.722C54.9653 161.531 50.4308 161.71 45.6442 161.282C42.7206 161.021 39.8033 160.421 36.983 158.864C34.5368 157.513 32.4348 155.918 30.5512 154.176C26.769 150.679 23.7171 146.995 21.2082 143.079C18.2394 138.445 16.9969 134.001 16.8773 129.55C16.8122 127.117 16.8526 124.712 17.0219 122.335C17.0457 122.003 17.0656 121.648 16.9368 121.302C16.1971 119.311 16.6824 117.601 16.9808 115.85C17.103 115.135 17.3668 114.462 17.5017 113.75C18.0645 110.774 18.4919 107.754 19.2535 104.841C19.7512 102.939 20.3409 101.07 21.0215 99.2314C21.6097 97.6426 22.0133 95.9799 22.4328 94.3275C22.8871 92.5357 23.7626 90.9248 24.6208 89.3059C25.3573 87.917 26.0508 86.512 26.5688 85.0286C28.2285 80.2722 31.064 76.1142 34.8085 72.3977C37.6752 69.5523 40.7508 66.8585 43.96 64.2413C47.8179 61.0955 51.578 57.8788 55.0856 54.4929C56.3725 53.2506 57.4411 51.8869 58.6207 50.585C59.1445 50.0066 59.5045 49.3476 59.8251 48.6642C60.3802 47.4815 61.0194 46.3381 61.7833 45.2512C63.3092 43.0794 64.3914 40.704 65.238 38.2348C65.9603 36.1292 66.7454 34.0618 68.0499 32.2078C68.506 31.5597 68.7636 30.8079 69.2009 30.1489C70.3498 28.4181 71.5436 26.703 73.3037 25.3316C75.17 23.8774 77.1941 22.5299 79.5809 21.5104C81.8067 20.5595 84.4878 20.1504 87.2692 19.9777C93.6143 19.5836 100.16 20.5137 106.876 23.1156C113.424 25.6529 118.524 29.3625 122.359 34.0726C125.581 38.0304 126.851 41.9446 126.744 45.8506C126.629 50.0733 125.543 53.9692 124.106 57.7608C123.506 59.3451 123.142 61.0225 122.645 62.6479C121.927 64.9929 121.11 67.3033 120.47 69.675C119.342 73.8502 118.274 78.047 117.162 82.2273C116.147 86.0407 115.612 89.9778 115.223 93.973C114.902 97.2644 114.161 100.433 113.39 103.591C112.517 107.162 111.914 110.824 110.99 114.376C109.892 118.597 108.618 122.76 107.214 125.111V125.111Z" fill="#FFC1EB"/>
<path d="M88.1485 106.148C87.6714 107.114 87.2263 108.096 86.7117 109.045C84.2947 113.503 81.9942 118.012 79.0744 122.236C76.9671 125.285 74.9461 128.379 72.4718 131.225C70.3445 133.674 67.7191 135.803 64.4412 137.417C62.4776 138.385 60.2654 139.128 57.9531 139.741C57.0325 139.985 56.0087 140.059 54.9647 140.108C51.142 140.286 46.0192 136.969 45.0743 134.262C44.502 132.623 44.0827 130.995 44.0524 129.407C43.9697 125.089 44.372 120.898 45.334 116.869C46.081 113.738 46.5628 110.524 47.3492 107.407C48.3043 103.621 49.3634 99.8685 50.8385 96.2761C52.3754 92.532 54.1838 88.8977 56.4067 85.4635C59.8314 80.1727 63.6201 75.0817 68.9071 70.8617C70.8572 69.3051 72.8363 67.7672 74.4916 66.0093C77.9811 62.3031 81.2773 58.4868 84.4249 54.58C86.8153 51.6125 89.4122 48.7603 91.8973 45.8457C93.3796 44.1074 94.728 42.2919 96.355 40.6377C97.1039 39.8765 98.1417 39.44 99.6841 39.5632C101.152 39.6803 101.993 40.1561 102.537 41.2667C103.204 42.6279 103.14 43.8719 102.88 45.0727C102.427 47.1649 101.709 49.1631 101.095 51.1978C99.9992 54.8325 99.2386 58.5763 98.5643 62.349C97.8846 66.1535 97.4764 70.0342 97.0643 73.9144C96.5534 78.7285 95.4888 83.3735 94.458 88.0285C93.567 92.0488 92.1824 95.8829 90.8153 99.7275C90.0365 101.917 88.9875 103.984 88.1485 106.148V106.148Z" fill="#F7AB05"/>
<path d="M108.981 24.2434C107.269 23.4965 105.347 22.8851 103.447 22.2667C98.6092 20.6916 93.9356 20.2162 89.3997 20.4687C87.6333 20.567 86.0052 20.8712 84.3844 21.1892C81.6316 21.7294 79.0173 22.4417 76.8488 23.6347C73.8061 25.3077 71.7683 27.6341 70.1116 30.1971C68.1912 33.1688 66.9369 36.4289 65.6064 39.6579C63.1572 45.6004 59.8373 51.1045 54.748 55.6855C50.7622 59.2738 46.7411 62.8413 42.4064 66.1911C37.4024 70.058 33.3024 74.4591 30.2918 79.5132C29.8719 80.2183 29.2163 80.8735 29.1603 81.6772C29.0611 83.1023 28.1237 84.1234 27.5511 85.319C27.4102 85.6123 27.1514 85.8622 27.1713 86.2138C27.2129 86.9558 26.874 87.5561 26.6044 88.1855C26.1672 89.2055 25.7003 90.215 25.3451 91.2658C23.7963 95.8446 22.248 100.424 20.7682 105.028C19.7063 108.332 18.9879 111.743 19.2271 115.432C19.2534 115.842 19.1652 116.235 19.0773 116.618C18.5483 118.927 18.2781 121.311 18.0986 123.721C17.8395 127.208 18.0955 130.801 18.3812 134.399C18.566 136.728 19.3823 139.05 21.4826 141.339C21.8147 141.701 22.0833 142.092 22.3296 142.476C24.3655 145.662 27.0468 148.665 29.9685 151.585C32.4396 154.055 35.302 156.318 38.366 158.428C40.5226 159.913 42.8782 160.891 45.5174 161.007C47.1558 161.079 48.8154 161.215 50.4335 161.221C54.3391 161.236 57.9052 160.682 61.4455 160.043C67.0587 159.028 72.3503 157.699 76.8096 155.326C80.5134 153.356 84.274 151.449 87.1567 148.825C88.9962 147.151 90.7521 145.42 92.6502 143.785C97.7109 139.426 101.723 134.481 104.908 129.049C107.186 125.162 109.183 121.168 110.57 116.899C111.784 113.167 112.711 109.339 113.619 105.502C114.293 102.659 115.175 99.8812 115.264 96.8573C115.343 94.1514 115.423 91.4454 115.487 88.7359C115.509 87.7865 115.56 86.8486 115.801 85.9577C116.933 81.7842 118.003 77.5902 119.049 73.3865C119.599 71.1711 119.763 68.7911 121.388 66.985C121.54 66.8149 121.559 66.5636 121.626 66.345C122.706 62.8109 123.802 59.2824 124.858 55.7401C125.783 52.6374 126.779 49.5562 127.187 46.2817C127.484 43.9115 127.221 41.4358 125.841 38.8628C124.246 35.8896 121.994 33.1193 118.932 30.4955C116.019 27.9995 112.718 26.0464 108.981 24.2434V24.2434ZM108.814 127.175C105.326 133.944 101.175 139.432 96.168 144.45C92.9304 147.695 88.9997 150.463 85.0197 153.184C77.3136 158.453 67.5712 161.423 56.1893 162.538C52.9169 162.859 49.5634 162.972 46.0188 162.622C42.3044 162.254 38.8183 161.053 35.6025 158.912C29.8417 155.077 25.4365 150.617 21.9764 145.775C18.1631 140.439 16.0829 135.071 15.8095 129.777C15.6088 125.891 15.8302 122.094 16.2177 118.341C16.8583 112.128 18.2402 106.144 19.6162 100.159C20.0492 98.2746 20.8632 96.5157 21.422 94.67C22.3609 91.5701 23.5011 88.5497 24.6969 85.5494C25.6173 83.2396 26.915 81.1013 28.2318 78.9783C30.5237 75.2844 33.203 71.7897 36.605 68.7272C39.7392 65.9059 42.8991 63.0984 46.3084 60.4617C48.4026 58.8424 50.5011 57.2195 52.4033 55.4702C54.1521 53.8622 55.6934 52.1167 57.0757 50.2797C59.0416 47.6669 60.6681 44.896 61.8845 41.9316C62.6147 40.1513 63.1901 38.3075 63.9609 36.5448C65.4794 33.0722 67.2172 29.6856 69.8217 26.7506C73.7435 22.3302 79.0841 19.1587 87.0991 18.5486C91.5121 18.2128 96.1761 18.6876 100.935 19.6203C103.245 20.073 105.559 20.6721 107.873 21.0499C110.031 21.402 112.016 22.2502 113.626 23.6536C115.192 25.0184 116.897 26.2774 118.645 27.5109C122.547 30.2649 125.152 33.4576 127.151 36.8685C129.522 40.9151 130.082 44.7448 129.516 48.4555C128.653 54.1096 126.651 59.3561 124.834 64.6703C123.777 67.7606 122.941 70.9289 122.161 74.1194C121.328 77.5307 120.196 80.8432 119.568 84.3228C118.675 89.2612 117.897 94.2346 117.031 99.1815C115.621 107.229 113.684 115.097 110.916 122.679C110.255 124.49 109.309 126.181 108.814 127.175V127.175Z" fill="#1A0F7F"/>
<path d="M104.06 124.981C105.694 121.793 107.196 118.706 108.117 115.385C109.427 110.654 110.843 105.961 111.517 101.01C112.149 96.3714 113.156 91.8406 113.89 87.23C114.599 82.7782 115.678 78.4539 116.912 74.1766C117.62 71.725 118.472 69.3232 118.939 66.7861C119.429 64.1219 120.129 61.531 121.051 59.0136C121.612 57.4843 122.098 55.9258 122.393 54.2934C122.968 51.1084 123.737 47.9771 123.826 44.6571C123.912 41.4733 122.9 38.2304 120.087 34.9961C119.386 34.1904 118.667 33.3898 117.935 32.5951C114.187 28.5256 109.352 25.7178 103.419 24.2123C101.108 23.6254 98.7948 22.962 96.4808 22.6923C92.5405 22.2335 88.9721 22.5591 85.5658 23.1938C83.9381 23.497 82.3362 23.8745 81.1059 24.6306C79.078 25.8764 77.1867 27.2279 75.7367 28.8853C74.8504 29.8982 73.7393 30.8221 73.3772 32.0835C72.8802 33.8146 72.2394 35.4899 71.7208 37.2112C71.0607 39.4015 70.6064 41.6719 69.3522 43.631C68.8548 44.4082 68.3921 45.2029 67.8882 45.9768C65.725 49.2966 63.139 52.3777 60.3649 55.3596C58.0037 57.8979 54.8991 59.9301 52.4457 62.4004C51.2398 63.6146 49.6633 64.5701 48.3845 65.7317C46.5429 67.404 44.8479 69.1769 42.9077 70.7802C39.3461 73.7227 36.5488 77.1066 34.4803 80.8745C31.1358 86.9656 28.2713 93.2635 26.4791 100.001C25.8979 102.185 25.0439 104.274 24.3617 106.424C23.2442 109.945 22.3309 113.537 21.6059 117.193C20.6983 121.768 20.3223 126.471 21.1406 131.448C21.5508 133.942 22.1918 136.473 23.5796 139.01C24.8797 141.385 26.315 143.75 27.7709 146.109C29.5861 149.052 32.1885 151.716 35.5142 154.059C37.1517 155.212 38.9523 156.204 40.9493 156.866C44.2397 157.957 47.3943 158.282 50.4423 158.058C53.5644 157.829 56.6325 157.5 59.6425 157.076C62.7009 156.645 65.5924 155.989 68.2825 155.064C72.6283 153.57 76.5672 151.674 80.634 149.903C81.9539 149.328 83.0508 148.587 84.0636 147.768C86.7377 145.605 89.2002 143.295 91.9953 141.215C92.8501 140.579 93.6559 139.909 94.3198 139.142C96.2132 136.957 98.0301 134.741 99.554 132.341C101.126 129.866 102.591 127.342 104.06 124.981V124.981ZM99.4902 137.219C96.3936 140.892 93.0753 144.425 89.4046 147.739C77.2766 157.47 64.1121 159.401 60.9922 160.141C56.7341 161.15 51.9719 161.161 47.1515 161.128C42.117 161.094 37.295 159.321 33.2999 156.087C25.2421 149.565 17.0259 139.019 17.1824 128.866C16.9013 122.168 18.2556 114.484 19.5094 108.214C20.7254 102.132 26.3601 82.8665 30.0265 78.3065C31.5053 76.7525 34.1542 71.7589 39.3078 67.9958C41.738 65.9516 47.1764 61.0597 51.6588 57.8905C58.2287 51.9931 62.3592 44.389 63.2411 43.0366C64.7615 40.7031 65.4683 38.0304 66.5381 35.509C67.227 33.8852 69.7951 28.0571 73.8831 24.9685C75.4109 23.5988 77.3268 22.5267 79.3283 21.5383C86.8481 18.0069 96.8711 20.0898 101.453 21.2378C104.633 22.0356 107.829 22.9331 110.773 24.5597C114.324 26.5222 126.743 33.7364 127.158 44.2429C127.266 46.9705 126.346 50.9833 124.374 57.6905C123.614 59.5027 121.169 68.0431 118.152 79.5962C116.856 83.6932 116.633 88.1099 115.896 92.3733C115.384 95.3348 113.005 107.769 112.195 110.978C109.195 122.724 102.636 133.487 99.4902 137.219V137.219Z" fill="#5C42AA"/>
<path d="M68.5876 113.688C70.3699 114.49 71.2118 115.784 70.6433 116.847C70.0519 117.953 68.0719 118.243 66.3401 117.479C64.7827 116.792 63.9815 115.358 64.5328 114.246C65.1089 113.083 66.7454 112.858 68.5876 113.688Z" fill="#34302E"/>
<path d="M62.0103 125.892C61.5092 126.929 59.8664 127.216 58.3488 126.531C56.7928 125.829 55.8004 124.202 56.3156 123.197C56.8268 122.2 58.7597 121.847 60.2138 122.486C61.7758 123.171 62.5841 124.704 62.0103 125.892Z" fill="#34302E"/>
<path d="M63.8114 108.409C64.264 107.411 66.1964 107.149 67.9041 107.854C69.3752 108.462 70.1124 109.873 69.5634 111.029C69.1091 111.986 67.1475 112.33 65.7226 111.703C64.283 111.069 63.3411 109.446 63.8114 108.409V108.409Z" fill="#34302E"/>
<path d="M56.572 115.006C56.3591 115.446 55.9337 115.73 55.3762 115.909C54.0971 116.319 52.4931 115.767 51.6086 114.626C51.1059 113.977 50.9011 113.338 50.9796 112.719C51.1292 111.544 52.4459 110.967 53.9862 111.381C55.6582 111.831 56.8812 113.129 56.7491 114.329C56.7234 114.564 56.6327 114.781 56.572 115.006V115.006Z" fill="#34302E"/>
<path d="M79.9024 94.655C80.5112 93.4903 82.1327 93.2303 83.8329 94.0257C85.405 94.7604 86.2019 96.1974 85.6354 97.2759C85.1506 98.1992 83.3709 98.3956 81.7809 97.7012C80.1737 96.9997 79.3637 95.6856 79.9024 94.655V94.655Z" fill="#34302E"/>
<path d="M62.5327 107.686C61.9362 108.742 60.1586 109.017 58.6382 108.289C56.997 107.502 56.3475 106.237 56.9905 105.079C57.5301 104.108 59.4856 103.86 60.9762 104.573C62.3945 105.252 63.1049 106.673 62.5327 107.686Z" fill="#34302E"/>
<path d="M68.6004 96.3717C66.9871 95.6091 66.3295 94.4088 66.9373 93.3361C67.4883 92.3629 69.0697 92.1839 70.6269 92.9186C72.0379 93.5843 72.8844 95.1225 72.339 96.0297C71.7735 96.97 70.1753 97.1165 68.6004 96.3717V96.3717Z" fill="#34302E"/>
<path d="M59.0753 120.552C58.6354 121.441 56.8934 121.673 55.4601 121.035C53.7994 120.295 53.0566 119.1 53.5737 117.999C54.027 117.034 55.5458 116.761 56.9607 117.392C58.5109 118.082 59.5381 119.617 59.0753 120.552Z" fill="#34302E"/>
<path d="M69.7933 100.457C69.2763 101.504 67.7454 101.715 66.0702 100.972C64.658 100.344 64.0065 99.137 64.5321 98.1217C65.0438 97.1331 66.7217 96.8652 68.2722 97.5246C69.6745 98.1211 70.3264 99.3778 69.7933 100.457Z" fill="#34302E"/>
<path d="M74.1606 85.5327C73.623 86.5402 71.9505 86.9405 70.6626 86.3695C69.2618 85.7478 68.2158 84.1801 68.6419 83.341C69.1343 82.3708 70.9032 82.1154 72.4119 82.796C73.9253 83.4786 74.651 84.6141 74.1606 85.5327V85.5327Z" fill="#34302E"/>
<path d="M76.6992 98.6324C77.182 97.6378 78.6126 97.4172 80.2065 98.0916C81.7395 98.7405 82.4863 99.8949 82.0123 100.885C81.4881 101.98 80.1065 102.244 78.514 101.552C76.8301 100.82 76.1603 99.7427 76.6992 98.6324Z" fill="#34302E"/>
<path d="M58.0019 111.128C58.5081 110.098 59.9004 109.881 61.4818 110.585C62.9204 111.225 63.6873 112.422 63.245 113.335C62.767 114.32 61.1016 114.664 59.6997 114.067C58.0936 113.382 57.4457 112.261 58.0019 111.128V111.128Z" fill="#34302E"/>
<path d="M71.1487 105.516C70.6491 106.504 68.9121 106.799 67.4381 106.145C66.1508 105.574 65.4963 104.433 65.9271 103.509C66.3996 102.497 68.1535 102.157 69.58 102.801C70.8854 103.391 71.5991 104.625 71.1487 105.516V105.516Z" fill="#34302E"/>
<path d="M75.9066 109.733C75.2505 110.916 74.0676 111.152 72.4589 110.42C71.0624 109.785 70.3827 108.51 70.9364 107.566C71.5149 106.58 72.9722 106.391 74.5101 107.104C75.8189 107.71 76.4109 108.824 75.9066 109.733V109.733Z" fill="#34302E"/>
<path d="M64.1263 118.443C63.6738 119.531 62.0977 119.411 60.6194 118.809C59.3124 118.276 58.7186 117.118 59.1806 116.179C59.614 115.299 61.3489 114.946 62.5921 115.485C63.9252 116.063 64.6306 117.424 64.1263 118.443V118.443Z" fill="#34302E"/>
<path d="M52.7856 127.133C53.2544 126.19 54.5793 125.961 55.9945 126.579C57.4802 127.229 58.2981 128.495 57.82 129.406C57.3378 130.323 55.7556 130.664 54.5178 130.041C52.9576 129.256 52.2919 128.316 52.7856 127.133V127.133Z" fill="#34302E"/>
<path d="M74.0267 105.804C72.6155 105.19 71.824 103.94 72.2776 103.043C72.7678 102.073 74.0582 101.896 75.6192 102.583C77.0979 103.234 77.8426 104.333 77.4225 105.243C76.9636 106.237 75.5553 106.47 74.0267 105.804Z" fill="#34302E"/>
<path d="M68.4249 122.115C66.9635 121.486 66.136 120.229 66.5744 119.304C67.0156 118.374 68.2898 118.187 69.8103 118.83C71.3575 119.484 72.0648 120.497 71.6328 121.44C71.1732 122.444 69.84 122.724 68.4249 122.115V122.115Z" fill="#34302E"/>
<path d="M75.258 91.0121C74.7084 92.0361 73.4817 92.2493 72.0001 91.5786C70.5866 90.9386 69.8998 89.7532 70.4038 88.8241C70.9215 87.8685 72.1976 87.6798 73.6312 88.3462C75.068 89.0144 75.7397 90.1151 75.258 91.0121V91.0121Z" fill="#34302E"/>
<path d="M76.3356 119.605C75.8697 120.459 74.1802 120.647 72.7897 120.001C71.6897 119.489 71.1883 118.52 71.6282 117.755C72.1869 116.785 73.7017 116.498 75.0076 117.115C76.1911 117.674 76.7836 118.785 76.3356 119.605Z" fill="#34302E"/>
<path d="M72.6116 100.952C71.2361 100.353 70.5597 99.356 70.9641 98.5224C71.4146 97.5949 72.7688 97.3684 74.2045 97.9808C75.4686 98.52 76.1776 99.6142 75.8044 100.451C75.4347 101.28 73.9127 101.518 72.6116 100.952Z" fill="#34302E"/>
<path d="M78.5844 95.9015C78.1067 96.9378 76.8372 97.2205 75.4195 96.6063C74.0685 96.0204 73.4425 95.0012 73.8823 94.1027C74.3004 93.2472 75.608 93.0252 76.9255 93.5859C78.3059 94.1726 78.96 95.086 78.5844 95.9015V95.9015Z" fill="#34302E"/>
<path d="M76.9675 85.8101C75.6637 85.2448 74.947 84.173 75.3264 83.3553C75.6935 82.563 77.2603 82.3273 78.5565 82.8693C79.7151 83.3536 80.5022 84.4661 80.1136 85.1786C79.532 86.2459 78.3482 86.3888 76.9675 85.8101V85.8101Z" fill="#34302E"/>
<path d="M68.0973 127.331C67.7063 128.15 66.55 128.379 65.3588 127.872C64.1225 127.346 63.4092 126.157 63.8179 125.307C64.2164 124.477 65.4652 124.204 66.6289 124.692C67.8851 125.218 68.5421 126.399 68.0973 127.331V127.331Z" fill="#34302E"/>
<path d="M72.36 112.843C72.7845 112.027 74.0752 111.881 75.3962 112.499C76.6951 113.108 77.1466 113.994 76.6472 114.955C76.2564 115.705 74.7445 115.899 73.5822 115.346C72.4174 114.792 71.8982 113.729 72.36 112.843V112.843Z" fill="#34302E"/>
<path d="M57.0187 109.711C56.5483 110.674 55.3817 110.887 53.9443 110.27C52.7711 109.766 52.2291 108.81 52.6366 107.961C53.0174 107.167 54.5459 106.876 55.7043 107.375C56.8063 107.85 57.4062 108.916 57.0187 109.711Z" fill="#34302E"/>
<path d="M77.9647 113.487C76.7809 112.936 76.1415 111.916 76.5161 111.178C76.9335 110.354 78.4111 110.085 79.577 110.621C80.7369 111.154 81.3419 112.314 80.8796 113.118C80.4257 113.907 79.2001 114.062 77.9647 113.487Z" fill="#34302E"/>
<path d="M64.3938 89.0581C64.7941 88.2514 66.0858 88.006 67.2378 88.5171C68.3849 89.0259 69.1272 90.2946 68.7521 91.1055C68.4161 91.8325 66.9601 92.0043 65.7736 91.4574C64.5566 90.8961 63.9796 89.8931 64.3938 89.0581Z" fill="#34302E"/>
<path d="M53.36 121.506C54.4754 121.994 55.2272 123.366 54.8354 124.198C54.5137 124.883 53.2564 125.056 52.1663 124.567C50.9442 124.019 50.1402 122.747 50.538 121.99C50.9259 121.253 52.2582 121.024 53.36 121.506V121.506Z" fill="#34302E"/>
<path d="M53.9068 99.9796C54.3935 99.1372 55.3815 99.0276 56.6952 99.6697C57.9118 100.265 58.6384 101.454 58.216 102.158C57.8087 102.836 56.3657 102.933 55.145 102.365C53.9276 101.798 53.4202 100.821 53.9068 99.9796V99.9796Z" fill="#34302E"/>
<path d="M63.0683 91.3484C62.6207 92.1792 61.2576 92.4162 60.1036 91.8642C59.0378 91.3547 58.4302 90.2959 58.7944 89.5846C59.2143 88.7648 60.4507 88.5636 61.6669 89.1177C62.8513 89.6571 63.4586 90.6239 63.0683 91.3484Z" fill="#34302E"/>
<path d="M79.9122 90.2528C80.9966 90.7471 81.5712 91.7735 81.1762 92.5117C80.7555 93.2977 79.4603 93.4589 78.2292 92.8787C77.1389 92.365 76.6314 91.399 77.0359 90.6082C77.4041 89.888 78.7466 89.7221 79.9122 90.2528Z" fill="#34302E"/>
<path d="M75.6711 76.0283C75.8148 75.3283 77.3446 75.1059 78.6338 75.6677C79.6774 76.1225 80.2171 76.9808 79.9126 77.6861C79.5414 78.5469 78.2213 78.7281 76.8307 78.1089C75.7336 77.6206 75.2923 76.8283 75.6711 76.0283Z" fill="#34302E"/>
<path d="M81.1316 88.815C79.9341 88.2729 79.3927 87.4063 79.7997 86.6822C80.216 85.9429 81.6839 85.767 82.8854 86.3129C83.9056 86.7768 84.3606 87.6762 83.9462 88.4105C83.5048 89.1926 82.3367 89.3602 81.1316 88.815Z" fill="#34302E"/>
<path d="M68.7708 87.2363C68.344 88.0217 67.2418 88.2011 66.0918 87.6715C64.9746 87.1572 64.2893 86.0403 64.6598 85.3371C65.0327 84.6281 66.3266 84.4594 67.4163 84.977C68.4979 85.491 69.1386 86.5593 68.7708 87.2363Z" fill="#34302E"/>
<path d="M65.046 103.234C64.6404 104.096 63.6299 104.268 62.3363 103.693C61.234 103.203 60.7066 102.365 61.0303 101.618C61.3812 100.808 62.5811 100.549 63.7173 101.037C64.9304 101.559 65.4382 102.399 65.046 103.234Z" fill="#34302E"/>
<path d="M78.1476 81.3361C77.7911 82.1148 76.6134 82.412 75.5692 81.9863C74.3792 81.5014 73.7355 80.5897 74.0773 79.8732C74.5026 78.9813 75.7347 78.7064 76.9272 79.2376C77.9664 79.6999 78.4867 80.595 78.1476 81.3361V81.3361Z" fill="#34302E"/>
<path d="M81.4827 109.115C81.0685 109.859 79.9704 110.037 78.869 109.538C77.6966 109.006 77.1507 108.072 77.5621 107.299C77.9697 106.535 79.082 106.396 80.3004 106.956C81.4496 107.484 81.9167 108.337 81.4827 109.115V109.115Z" fill="#34302E"/>
<path d="M61.0531 130.24C60.0238 129.774 59.4706 128.731 59.8478 127.969C60.1903 127.278 61.4441 127.166 62.6506 127.719C63.6318 128.168 64.22 129.113 63.9156 129.749C63.5367 130.541 62.2159 130.767 61.0531 130.24Z" fill="#34302E"/>
<path d="M66.0519 122.941C65.6765 123.633 64.2699 123.767 63.1233 123.221C62.2152 122.788 61.7855 121.906 62.1633 121.251C62.5546 120.572 63.8122 120.402 64.8428 120.888C65.8083 121.343 66.3863 122.324 66.0519 122.941Z" fill="#34302E"/>
<path d="M72.959 80.7376C72.6193 81.4163 71.3509 81.6099 70.3207 81.1399C69.3428 80.6942 68.7687 79.6938 69.1111 79.0313C69.4733 78.3293 70.5183 78.174 71.6355 78.6556C72.6627 79.0982 73.2871 80.0811 72.959 80.7376V80.7376Z" fill="#34302E"/>
<path d="M63.0566 96.2205C61.8853 95.7056 61.226 94.7537 61.5814 94.0904C61.932 93.4365 63.2273 93.2731 64.2727 93.7514C65.2645 94.205 65.8383 95.1886 65.509 95.8706C65.1932 96.5242 64.1023 96.68 63.0566 96.2205V96.2205Z" fill="#34302E"/>
<path d="M62.5343 99.1039C62.1901 99.8425 61.0469 100.049 59.9429 99.573C58.9434 99.1416 58.3855 98.1737 58.7238 97.4573C59.0338 96.7998 60.1244 96.6367 61.1904 97.0878C62.2201 97.5242 62.8386 98.4517 62.5343 99.1039Z" fill="#34302E"/>
<path d="M85.1955 82.0372C85.5171 81.3964 86.5923 81.2785 87.695 81.7626C88.6807 82.1955 89.2502 83.0753 88.9492 83.6998C88.6179 84.387 87.3349 84.585 86.3122 84.1062C85.4449 83.7001 84.8832 82.6589 85.1955 82.0372Z" fill="#34302E"/>
<path d="M86.7902 79.8457C86.4484 80.5123 85.3654 80.6996 84.373 80.2636C83.3166 79.7992 82.711 78.9025 83.0265 78.2704C83.3836 77.5557 84.5219 77.4001 85.6579 77.9111C86.6395 78.3529 87.1273 79.1869 86.7902 79.8457V79.8457Z" fill="#34302E"/>
<path d="M86.3898 66.8697C86.0055 67.5573 84.8342 67.7441 83.8473 67.2753C82.9668 66.857 82.4839 65.8498 82.8517 65.1994C83.2201 64.5487 84.3241 64.4229 85.3581 64.914C86.338 65.3794 86.7675 66.1938 86.3898 66.8697Z" fill="#34302E"/>
<path d="M53.3087 105.965C52.2686 105.497 51.7334 104.63 52.0617 103.946C52.3878 103.267 53.5337 103.11 54.6097 103.595C55.6048 104.044 56.0944 104.877 55.7519 105.537C55.425 106.166 54.2247 106.377 53.3087 105.965V105.965Z" fill="#34302E"/>
<path d="M84.0605 92.9134C83.0767 92.4716 82.6078 91.6867 82.9497 91.0537C83.3478 90.317 84.3056 90.1881 85.4823 90.7128C86.4617 91.15 86.9494 92.003 86.591 92.6528C86.2462 93.2782 85.1288 93.3933 84.0605 92.9134V92.9134Z" fill="#34302E"/>
<path d="M77.4405 86.9868C78.5656 87.4788 79.1164 88.3476 78.7475 89.0492C78.4476 89.6206 77.266 89.7346 76.2913 89.2861C75.3476 88.8521 74.8343 88.0239 75.1269 87.4075C75.4402 86.7469 76.4653 86.5603 77.4405 86.9868V86.9868Z" fill="#34302E"/>
<path d="M82.3398 105.11C81.9935 105.78 80.7911 105.946 79.7762 105.465C78.8894 105.044 78.4777 104.162 78.855 103.489C79.1969 102.878 80.2108 102.697 81.1097 103.086C82.0928 103.511 82.6734 104.466 82.3398 105.11V105.11Z" fill="#34302E"/>
<path d="M88.0111 87.1627C87.6502 87.8542 86.5909 88.0465 85.6055 87.5984C84.7642 87.2157 84.2179 86.194 84.5377 85.6004C84.8665 84.9885 86.0144 84.8266 86.9309 85.2628C87.8337 85.6928 88.3255 86.5577 88.0111 87.1627Z" fill="#34302E"/>
<path d="M85.0573 77.2014C84.1489 76.7876 83.7184 76.0325 84.0332 75.4056C84.3792 74.7174 85.33 74.5564 86.3449 75.0145C87.3166 75.4526 87.7684 76.2923 87.3933 76.9612C87.0644 77.5474 86.0462 77.6519 85.0573 77.2014V77.2014Z" fill="#34302E"/>
<path d="M68.0171 83.4278C67.7216 84.0136 66.6498 84.0774 65.5309 83.5761C64.6564 83.184 64.2507 82.4566 64.5711 81.8563C64.9113 81.2195 65.9095 81.0351 66.8087 81.4427C67.7022 81.8482 68.3101 82.8468 68.0171 83.4278Z" fill="#34302E"/>
<path d="M77.8037 74.7103C76.7967 74.2545 76.235 73.4053 76.5271 72.7806C76.8266 72.1401 77.8729 72.0065 78.8839 72.4795C79.7616 72.8905 80.2223 73.6966 79.9142 74.2819C79.5916 74.8948 78.6384 75.0881 77.8037 74.7103V74.7103Z" fill="#34302E"/>
<path d="M89.2277 73.1235C90.2251 73.5582 90.6514 74.2181 90.3546 74.8687C90.0443 75.5499 88.9624 75.7256 87.9454 75.2602C87.1173 74.8817 86.7306 74.1442 87.04 73.5347C87.3812 72.8634 88.2534 72.6996 89.2277 73.1235V73.1235Z" fill="#34302E"/>
<path d="M83.2732 82.3172C84.1282 82.7149 84.6019 83.5035 84.3141 84.0489C83.9649 84.7101 82.9568 84.8695 81.973 84.4191C81.0738 84.0075 80.5905 83.1357 80.9277 82.5337C81.2552 81.9498 82.2797 81.8551 83.2732 82.3172Z" fill="#34302E"/>
<path d="M80.9774 71.3947C80.7294 71.9353 79.6447 72.1588 78.8258 71.8382C77.9357 71.4896 77.2946 70.4987 77.5603 69.8818C77.7938 69.3405 78.8425 69.1883 79.7653 69.5627C80.7717 69.9703 81.2788 70.737 80.9774 71.3947V71.3947Z" fill="#34302E"/>
<path d="M75.1784 77.7072C74.8505 78.3435 73.7613 78.5603 72.8791 78.1642C72.0118 77.7747 71.5338 76.9417 71.8454 76.3622C72.1788 75.742 73.1684 75.5572 74.0715 75.9463C75.0317 76.3598 75.4939 77.0954 75.1784 77.7072Z" fill="#34302E"/>
<path d="M84.0556 69.3556C83.7722 69.9102 82.728 70.0374 81.827 69.6262C80.9881 69.244 80.5165 68.43 80.8244 67.8953C81.1357 67.3543 82.2355 67.169 83.0361 67.5227C83.8477 67.8809 84.3489 68.7822 84.0556 69.3556V69.3556Z" fill="#34302E"/>
<path d="M60.0303 95.2271C59.736 95.8356 58.8525 96.0088 58.02 95.6216C57.1347 95.2101 56.5952 94.3159 56.8783 93.7293C57.134 93.2002 58.1693 93.0395 58.9745 93.4044C59.7805 93.77 60.3011 94.6682 60.0303 95.2271Z" fill="#34302E"/>
<path d="M84.9638 72.1982C84.2836 71.8474 84.0047 71.125 84.3531 70.6145C84.7356 70.0533 85.6212 69.9592 86.4716 70.3891C87.3066 70.8112 87.6527 71.5633 87.2634 72.1089C86.8877 72.6363 85.888 72.6751 84.9638 72.1982V72.1982Z" fill="#34302E"/>
<path d="M69.7084 123.175C70.4596 123.504 70.7867 124.151 70.5117 124.761C70.255 125.332 69.2626 125.517 68.4567 125.145C67.7089 124.8 67.3132 124.097 67.5571 123.546C67.8266 122.939 68.7908 122.772 69.7084 123.175Z" fill="#34302E"/>
<path d="M82.2385 80.4074C81.9508 80.9431 80.9673 81.09 80.1384 80.7212C79.3618 80.3756 78.9183 79.5885 79.2108 79.0748C79.5308 78.5122 80.4784 78.36 81.2832 78.7414C82.0455 79.1025 82.5074 79.9074 82.2385 80.4074Z" fill="#34302E"/>
<path d="M63.1388 86.0219C63.9044 86.3591 64.3327 87.1357 64.0545 87.6818C63.7662 88.247 62.8128 88.4092 61.9868 88.0335C61.2327 87.6904 60.8703 87.0165 61.1348 86.4511C61.4172 85.847 62.3091 85.6563 63.1388 86.0219V86.0219Z" fill="#34302E"/>
<path d="M89.7726 64.9626C90.6441 65.3399 91.063 66.0121 90.7772 66.5763C90.5251 67.0759 89.6609 67.2374 88.8989 66.9274C88.0634 66.5872 87.5292 65.7729 87.7756 65.2147C88.0172 64.6685 88.8497 64.5631 89.7726 64.9626V64.9626Z" fill="#34302E"/>
<path d="M81.3331 76.866C80.4688 76.496 80.0251 75.8708 80.247 75.3368C80.5008 74.7275 81.3758 74.5148 82.2066 74.8604C83.0346 75.2049 83.4825 75.9099 83.2388 76.4866C82.9899 77.0761 82.1948 77.2344 81.3331 76.866Z" fill="#34302E"/>
<path d="M83.8855 62.1872C84.095 61.6833 84.981 61.5188 85.7635 61.8383C86.5472 62.1581 86.9789 62.8338 86.7589 63.3968C86.5295 63.9837 85.7806 64.2068 85.026 63.9134C84.2332 63.6051 83.6579 62.7342 83.8855 62.1872V62.1872Z" fill="#34302E"/>
<path d="M89.9314 69.932C89.6584 70.4374 88.7876 70.5379 87.9985 70.1556C87.3065 69.8204 86.8726 69.0858 87.0988 68.6314C87.3429 68.1397 88.3815 67.9881 89.1369 68.334C89.8536 68.6622 90.2197 69.3985 89.9314 69.932V69.932Z" fill="#34302E"/>
<path d="M90.4532 62.7547C90.215 63.2984 89.2342 63.4366 88.3518 63.0507C87.6257 62.733 87.1941 62.0906 87.4047 61.6401C87.666 61.0803 88.6311 60.9085 89.4636 61.2735C90.2392 61.6136 90.6703 62.2588 90.4532 62.7547V62.7547Z" fill="#34302E"/>
<path d="M50.749 119.368C49.9743 119.038 49.5624 118.377 49.8212 117.879C50.0568 117.425 50.8354 117.314 51.5677 117.629C52.2855 117.938 52.7441 118.601 52.5515 119.051C52.3443 119.535 51.4939 119.685 50.749 119.368Z" fill="#34302E"/>
<path d="M82.1371 73.7089C81.4555 73.3903 81.1061 72.735 81.3718 72.272C81.6425 71.7993 82.4866 71.7063 83.228 72.067C83.9476 72.4173 84.2995 73.0503 84.0201 73.4913C83.7422 73.9298 82.8341 74.0347 82.1371 73.7089V73.7089Z" fill="#34302E"/>
<path d="M75.9652 74.8364C75.7247 75.3007 74.9593 75.4051 74.2347 75.072C73.6333 74.7951 73.3694 74.2477 73.6204 73.7977C73.8673 73.3554 74.5997 73.2435 75.2559 73.5483C75.8561 73.8269 76.1819 74.4182 75.9652 74.8364Z" fill="#34302E"/>
<path d="M87.8394 79.5495C88.0479 79.1201 88.8008 78.9896 89.4538 79.2705C90.0195 79.5141 90.3739 80.1508 90.1646 80.5494C89.961 80.9374 89.2545 81.0475 88.6185 80.7906C87.9674 80.5275 87.6273 79.9861 87.8394 79.5495Z" fill="#34302E"/>
<path d="M88.0128 58.502C88.642 58.8017 89.0128 59.473 88.7641 59.8616C88.5573 60.1847 87.9854 60.2566 87.4673 60.0248C86.8257 59.7371 86.455 59.0668 86.7225 58.6775C86.9496 58.3469 87.5239 58.2689 88.0128 58.502V58.502Z" fill="#34302E"/>
<path d="M90.9882 57.6531C91.5524 57.8941 91.943 58.4866 91.7804 58.8564C91.6243 59.2126 90.9722 59.3616 90.4619 59.1571C89.8636 58.9168 89.4552 58.2839 89.6422 57.887C89.8138 57.5234 90.433 57.4156 90.9882 57.6531V57.6531Z" fill="#34302E"/>
<path d="M93.5242 61.495C93.3407 61.854 92.812 61.9643 92.3001 61.7506C91.7349 61.5137 91.4003 60.9344 91.6109 60.5575C91.8122 60.1971 92.4526 60.1014 92.9697 60.3548C93.4686 60.5988 93.7187 61.113 93.5242 61.495Z" fill="#34302E"/>
<path d="M90.1088 56.6822C89.6373 56.4962 89.3524 56.0619 89.481 55.7241C89.6023 55.4045 90.1304 55.2407 90.5611 55.3888C91.036 55.5519 91.3503 56.0515 91.2121 56.424C91.0852 56.7668 90.6062 56.8786 90.1088 56.6822V56.6822Z" fill="#34302E"/>
<path d="M92.7487 55.5206C92.2119 55.2975 91.9462 54.8654 92.1137 54.4886C92.2603 54.1598 92.6687 54.0514 93.125 54.2196C93.6319 54.4075 93.9859 54.9781 93.8202 55.3415C93.6857 55.6379 93.2181 55.7162 92.7487 55.5206V55.5206Z" fill="#34302E"/>
<path d="M94.3347 57.7231C94.1514 58.0438 93.6488 58.1295 93.1829 57.9193C92.7376 57.7185 92.5583 57.3679 92.7327 57.0396C92.9101 56.7067 93.4024 56.6191 93.8675 56.8374C94.3069 57.0443 94.5064 57.4223 94.3347 57.7231V57.7231Z" fill="#34302E"/>
</svg>
