<svg width="85" height="93" viewBox="0 0 85 93" fill="none" xmlns="http://www.w3.org/2000/svg">
<path d="M43.3935 86.5986C40.5154 86.4856 37.7081 85.9552 34.9114 85.3203C33.0188 84.8902 31.0945 84.5843 29.2412 84.0016C25.9353 82.9632 22.8209 81.5121 19.9102 79.6378C17.5881 78.1428 15.3828 76.5029 13.4322 74.5404C9.62663 70.7105 7.36691 66.1775 7.01517 60.7648C6.64938 55.1347 7.67658 49.7648 9.99931 44.6203C10.9724 42.4648 12.0534 40.3707 13.2202 38.3127C14.6752 35.7484 16.44 33.4373 18.6306 31.4499C23.026 27.4596 27.7384 23.9187 33.0843 21.2452C35.1602 20.2067 37.1832 19.0591 39.193 17.898C40.351 17.2298 41.3045 16.3011 42.0621 15.1907C43.0403 13.7541 43.8028 12.2076 44.438 10.598C44.7466 9.81704 45.1086 9.06338 45.5078 8.32505C45.7277 7.91624 46.0097 7.55742 46.3957 7.29263C47.0751 6.82668 47.7466 6.98573 48.1291 7.70442C48.4347 8.27801 48.5026 8.90759 48.5486 9.54428C48.7165 11.8461 48.7303 14.1576 48.9795 16.4539C49.0965 17.5388 49.3173 18.6068 49.5457 19.6741C49.9526 21.5746 51.0498 23.1001 52.2313 24.5761C52.9946 25.5301 53.7754 26.4719 54.5875 27.3837C56.7983 29.8657 58.6387 32.6095 60.4065 35.4056C62.9962 39.4998 65.2258 43.7713 66.8682 48.3327C67.6186 50.4198 68.0947 52.5713 68.5014 54.7427C68.9122 56.9394 69.2025 59.1515 69.3991 61.3756C69.4101 61.5021 69.4272 61.6288 69.4253 61.7557C69.3898 64.1421 69.2065 66.5143 68.7513 68.8624C68.0471 72.5011 66.3675 75.6873 64.2084 78.6634C62.7955 80.6124 61.045 82.1814 58.9618 83.3827C57.2505 84.3693 55.4122 85.0683 53.4929 85.5373C51.359 86.0598 49.2136 86.5403 46.9976 86.5653C45.7963 86.5786 44.5943 86.5873 43.3935 86.5986V86.5986Z" fill="#FDD89F"/>
<path d="M59.0144 33.32C57.0397 30.3695 55.3354 28.3505 52.4345 24.9776C51.5821 24.0396 50.8383 23.0157 50.202 21.9203C49.5342 20.7719 49.0923 19.5488 48.9889 18.2172C48.9065 17.1591 48.8367 16.0989 48.7307 15.0422C48.5767 13.5198 48.3192 9.73481 48.3403 9.36013C48.3747 8.72897 48.0008 8.23889 47.7109 7.72491C47.6164 7.5574 47.4239 7.53568 47.2499 7.52658C46.6989 7.50056 46.2276 7.6399 45.8918 8.12405C45.6794 8.43157 45.4938 8.74805 45.3277 9.08095C44.6878 10.3627 43.1398 14.2413 42.7715 14.809C41.8452 16.2347 40.5944 17.3088 39.1545 18.1831C36.2448 19.9494 33.2944 21.648 30.2865 23.2474C24.8371 26.1446 20.1223 29.9403 16.3017 34.7708C13.3775 38.4668 11.3315 42.617 10.0888 47.1606C7.77941 56.849 8.64941 63.0749 9.08464 64.564C10.1955 68.3667 12.5257 71.3745 15.5133 73.921C19.8208 77.7759 24.7359 80.1149 28.071 81.2009C31.1227 82.1955 34.2101 83.0682 37.3789 83.6368C39.5101 84.0194 44.607 84.9274 48.7331 84.3826C52.3046 84.0107 55.6345 82.9402 58.6479 80.9571C61.4005 79.1454 65.8762 75.3596 68.4923 66.1958C68.9895 63.5504 68.9231 60.8832 68.6297 58.2223C68.4184 54.7499 66.9211 48.9534 66.2836 47.3122C65.7406 45.3395 62.0931 37.0888 59.0144 33.32V33.32ZM4.84129 55.9308C5.08221 52.7688 5.52022 49.6369 6.49219 46.6081C7.90351 42.21 10.0808 38.2062 12.9211 34.5528C17.3501 28.8571 22.9213 24.6107 29.5027 21.6331C31.8594 20.5669 34.187 19.4401 36.4831 18.2502C37.5216 17.7125 38.5108 17.094 39.4682 16.4218C40.9782 15.3602 41.9989 13.9228 42.7577 12.2791C43.1725 11.3812 43.5833 10.4811 43.9869 9.57814C44.3013 8.87608 44.7069 8.2251 45.1113 7.57302C45.3076 7.25479 45.5489 6.97438 45.848 6.74228C46.8702 5.95243 48.1864 6.16058 48.9032 7.23471C49.1963 7.67356 49.3465 8.16903 49.4712 8.6762C49.8313 10.148 49.9075 11.6556 50.0527 13.1538C50.1624 14.2845 50.2715 15.415 50.4252 16.5414C50.6225 17.9889 51.2196 19.2241 52.2826 20.2472C54.0384 21.9372 55.9548 23.436 57.855 24.9563C62.8438 28.9483 66.8965 33.7209 69.9014 39.3409C72.171 43.5845 73.6575 48.1142 74.608 52.8123C75.2852 56.1545 75.375 59.5373 74.9942 62.9233C74.675 65.7597 74.0004 68.5224 72.9371 71.1726C71.9753 73.5703 70.6686 75.7856 69.0741 77.8318C67.2649 80.1529 65.2265 82.2397 62.7991 83.9299C59.8986 85.9494 56.6261 87.004 53.154 87.4801C50.0945 87.8999 47.038 87.6834 43.992 87.2804C41.8441 86.9964 39.7025 86.6596 37.5849 86.2107C34.0065 85.4512 30.48 84.5034 27.0092 83.3318C24.2479 82.399 21.538 81.357 18.9105 80.107C15.1672 78.3262 11.9348 75.888 9.44835 72.5678C7.15313 69.5031 5.73883 66.0491 5.07963 62.2828C4.71022 60.1717 4.69574 58.0553 4.84129 55.9308V55.9308Z" fill="#623175"/>
<path d="M68.1998 77.468C69.543 75.1025 70.5333 72.6151 71.1719 70.0041C71.8562 67.2065 72.3111 64.3705 72.3478 61.4775C72.373 59.4802 72.4511 57.4856 72.2203 55.4928C72.063 54.1361 71.8533 52.788 71.5433 51.4598C70.983 49.064 70.4143 46.665 69.5879 44.3458C68.7938 42.1152 67.7604 39.9819 66.5401 37.9448C64.1538 33.9609 61.2489 30.386 57.8744 27.1844C57.6454 26.9671 57.4316 26.7343 57.165 26.4628C57.3889 26.4162 57.4624 26.5516 57.5528 26.6226C60.9654 29.3151 63.9274 32.4384 66.2458 36.0941C68.6878 39.9456 70.5877 44.0561 71.6501 48.5194C72.2372 50.9871 72.7902 53.4519 72.9793 55.9888C73.2485 59.5987 73.2045 63.1902 72.5504 66.7644C72.2696 68.3007 71.955 69.8275 71.4494 71.3053C70.791 73.2263 69.894 75.0389 68.8186 76.764C68.6514 77.0315 68.4763 77.2984 68.1998 77.468V77.468Z" fill="#A95C9F"/>
<path d="M67.565 75.1238C67.7942 74.5695 68.0174 74.0116 68.2545 73.4595C69.0996 71.494 69.5049 69.4186 69.7812 67.3157C69.927 66.2051 70.0243 65.089 70.1419 63.9753C70.3739 61.7817 70.118 59.6031 69.9465 57.4205C69.6943 54.2186 68.8105 51.155 67.9166 48.0934C67.8288 47.7939 67.7377 47.4959 67.6973 47.1738C68.1743 47.5286 68.412 48.0394 68.6387 48.5486C69.4822 50.4492 70.1049 52.4204 70.4948 54.4607C71.3175 58.7668 71.3193 63.0936 70.5077 67.3857C70.0517 69.7935 69.3798 72.1758 68.1696 74.3564C68.017 74.6306 67.8935 74.9266 67.565 75.1238V75.1238Z" fill="#A95C9F"/>
<path d="M63.4293 37.5486C62.7709 36.5831 62.1421 35.597 61.4502 34.6564C58.581 30.759 55.6719 26.8922 52.4521 23.2679C51.9164 22.664 51.402 22.0422 50.9852 21.3477C50.7846 21.0126 50.6177 20.6695 50.5615 20.0968C50.8244 20.5636 50.9934 20.8913 51.1883 21.2031C51.6816 21.9959 52.327 22.6656 52.9584 23.3491C55.897 26.5316 58.7506 29.7831 61.176 33.3807C62.062 34.6948 62.8662 36.0541 63.4293 37.5486V37.5486Z" fill="#A95C9F"/>
<path d="M65.7195 76.9904C64.7449 80.4125 58.9367 84.3595 55.536 84.6286C57.5312 83.7744 59.4689 82.8148 61.2322 81.547C62.9912 80.282 64.5108 78.7799 65.7195 76.9904V76.9904Z" fill="#A95C9F"/>
<path d="M67.4559 46.2889C66.474 43.8459 65.4768 41.4202 64.3721 39.0385C65.7313 40.1102 67.5896 44.468 67.4559 46.2889Z" fill="#A95C9F"/>
<path d="M40.643 80.7818C39.5542 80.7125 38.4646 80.6558 37.377 80.5681C36.9097 80.5308 36.4662 80.5463 36.0206 80.713C35.5456 80.8906 35.0545 81.0277 34.5695 81.1794C34.0122 81.3542 33.4473 81.467 32.8564 81.4563C31.8234 81.4382 30.9728 81.0535 30.3257 80.2517C30.0531 79.9139 29.7471 79.5886 29.5493 79.2097C28.8273 77.8316 27.6136 77.0218 26.2736 76.363C24.5597 75.5192 22.7849 74.7868 21.1755 73.7497C19.4499 72.6374 17.7124 71.5415 16.3342 69.9745C13.9052 67.2115 12.4976 63.9966 11.9255 60.4004C11.4654 57.5086 11.7399 54.6466 12.3302 51.8004C13.0301 48.4265 13.9054 45.1045 15.4341 41.9897C18.1642 36.4279 22.1367 31.9555 27.4247 28.6625C30.7924 26.5649 34.2463 24.6139 37.7498 22.7495C39.2692 21.9411 40.8793 21.3334 42.4702 20.686C44.1412 20.0059 45.5633 20.2128 46.8573 21.6253C48.7698 23.7146 50.527 25.9167 52.1679 28.2126C54.2582 31.1357 56.2898 34.0994 58.0963 37.2065C59.7244 40.0066 60.9774 42.9757 62.0539 46.0228C63.2335 49.3647 64.2325 52.7577 64.712 56.2705C65.3611 61.0274 64.9101 65.6744 63.0052 70.1329C62.1796 72.0639 60.9964 73.7534 59.4469 75.1788C56.2893 78.0841 52.5995 79.9446 48.3364 80.62C46.8766 80.8507 43.3835 81.0092 40.643 80.7818V80.7818Z" fill="#E74034"/>
<path d="M31.9747 47.5659C30.1647 47.7045 28.7106 47.2881 27.5024 46.1343C27.2272 45.8716 27.0169 45.5622 26.9473 45.1839C26.8139 44.4497 27.2917 43.9673 28.0312 44.0869C28.3562 44.1389 28.6457 44.2845 28.929 44.4461C30.2003 45.1713 31.0523 46.2919 31.9747 47.5659Z" fill="#FDD89F"/>
<path d="M37.2324 40.2445C35.7752 39.3171 34.6219 38.1833 34.3839 36.3809C34.2875 35.6532 34.528 35.1817 35.0156 35.0162C35.474 34.8608 36.0281 35.1172 36.403 35.6719C36.5988 35.9622 36.7523 36.2771 36.8144 36.6235C36.9945 37.624 37.1703 38.6251 37.3371 39.6282C37.3681 39.8152 37.406 40.0178 37.2324 40.2445Z" fill="#FDD89F"/>
<path d="M56.4804 63.2293C57.7231 63.0989 58.8135 63.2417 59.8353 63.7675C60.38 64.0483 60.8137 64.439 61.0108 65.0475C61.2969 65.9335 60.6749 66.6616 59.7541 66.5046C59.1938 66.4094 58.7379 66.1101 58.32 65.7508C57.5365 65.0773 56.9631 64.2498 56.4804 63.2293Z" fill="#FDD89F"/>
<path d="M49.5903 58.5377C49.6598 58.4358 49.7473 58.397 49.8528 58.402C50.9215 58.4503 51.9979 58.4274 53.0408 58.7296C53.5504 58.8765 54.0398 59.061 54.3581 59.5144C54.645 59.9236 54.7659 60.356 54.4861 60.8281C54.2185 61.2802 53.8015 61.3611 53.326 61.3119C52.9708 61.2758 52.6513 61.1372 52.3532 60.9548C51.3492 60.3411 50.4787 59.5672 49.664 58.7276C49.6187 58.6808 49.6116 58.5957 49.5903 58.5377V58.5377Z" fill="#FDD89F"/>
<path d="M33.833 43.5207C33.7174 43.5721 33.6912 43.5947 33.6724 43.5905C32.3278 43.2405 31.1081 42.6697 30.1809 41.6036C29.9695 41.3614 29.8231 41.0686 29.7296 40.7568C29.5962 40.3146 29.5193 39.8568 29.9377 39.5307C30.3507 39.208 30.7921 39.3721 31.1954 39.5954C31.5922 39.8153 31.9142 40.1278 32.1827 40.488C32.3601 40.7253 32.5303 40.9724 32.6685 41.2337C33.0664 41.9903 33.4458 42.7563 33.833 43.5207V43.5207Z" fill="#FDD89F"/>
<path d="M47.0809 61.9443C47.3248 61.9898 47.4815 62.2292 47.6713 62.4068C48.5119 63.1945 49.013 64.1741 49.2925 65.278C49.3663 65.5712 49.3829 65.864 49.3521 66.1606C49.3011 66.6629 49.0952 66.932 48.6903 67.0406C48.259 67.157 47.9722 66.9349 47.728 66.6289C47.414 66.2353 47.1849 65.7884 47.0745 65.3056C46.841 64.2883 46.7454 63.2561 46.8999 62.2137C46.9136 62.1227 46.9061 62.0098 47.0809 61.9443V61.9443Z" fill="#FDD89F"/>
<path d="M29.4623 52.1924C28.0219 52.4522 26.8077 52.2433 25.6112 51.8803C25.3267 51.794 25.0716 51.6348 24.8612 51.4123C24.5863 51.1206 24.4488 50.7972 24.5873 50.3999C24.729 49.9951 25.0023 49.7356 25.4356 49.6557C25.762 49.5957 26.0931 49.6152 26.3917 49.7364C27.6152 50.2331 28.5441 51.0915 29.4623 52.1924Z" fill="#FDD89F"/>
<path d="M46.5751 50.1349C47.1194 49.2811 47.7526 48.7758 48.417 48.3087C48.9058 47.9644 49.4332 47.683 50.0299 47.566C50.4509 47.4835 50.8703 47.472 51.2632 47.6874C51.9385 48.0575 52.0111 48.6857 51.4355 49.1892C51.1878 49.4056 50.8948 49.5406 50.5795 49.6222C49.324 49.9479 48.036 49.9959 46.5751 50.1349Z" fill="#FDD89F"/>
<path d="M42.7715 61.4873C42.9505 61.5095 43.0088 61.6186 43.0598 61.7331C43.5635 62.8556 43.8527 64.0173 43.6971 65.2572C43.6412 65.7061 43.4981 66.1272 43.1863 66.4682C42.6494 67.0569 42.0213 66.939 41.7533 66.1973C41.653 65.9195 41.5879 65.6279 41.6038 65.3269C41.6787 63.947 42.1102 62.6774 42.7715 61.4873Z" fill="#FDD89F"/>
<path d="M41.2997 38.7847C40.3114 37.4647 39.8699 36.1563 40.1723 34.6534C40.2468 34.2836 40.4282 33.9574 40.7333 33.7131C41.3037 33.2564 41.9012 33.4389 42.1272 34.1321C42.206 34.3732 42.2207 34.617 42.2129 34.8645C42.1701 36.1878 41.6659 37.3958 41.2997 38.7847Z" fill="#FDD89F"/>
<path d="M38.285 61.5135C38.5021 62.2873 38.7929 63.0469 38.8089 63.8665C38.8186 64.3601 38.7631 64.8546 38.7369 65.3488C38.7232 65.6006 38.6509 65.834 38.5199 66.0508C38.2118 66.561 37.7632 66.7856 37.2782 66.668C36.8588 66.5664 36.5874 66.155 36.5858 65.5588C36.5828 64.8234 36.8666 64.1544 37.1527 63.4978C37.4481 62.8197 37.7992 62.1658 38.1258 61.5019C38.1785 61.506 38.2321 61.5094 38.285 61.5135Z" fill="#FDD89F"/>
<path d="M43.4924 40.5819C43.5194 40.0467 43.7519 39.6476 44.0127 39.2661C44.6053 38.4014 45.3896 37.7893 46.4195 37.5113C46.6883 37.439 46.9617 37.4139 47.2317 37.4689C47.7379 37.5704 48.0019 38.1025 47.7536 38.5477C47.6366 38.7597 47.4781 38.9744 47.2845 39.1134C46.1659 39.9172 44.9375 40.4545 43.4924 40.5819V40.5819Z" fill="#FDD89F"/>
<path d="M33.6318 60.938C34.0488 61.5292 34.0732 62.1017 34.1546 62.6487C34.2574 63.3313 34.3278 64.0219 34.0878 64.6978C33.89 65.2582 33.4733 65.5636 32.9198 65.5549C32.2528 65.5442 31.8599 65.1566 31.8571 64.4916C31.8565 64.2953 31.8719 64.0948 31.9125 63.9033C32.1593 62.7505 32.9517 61.9282 33.6318 60.938V60.938Z" fill="#FDD89F"/>
<path d="M30.0004 59.9455C29.5981 61.032 29.0003 61.8777 28.2191 62.5907C27.7236 63.0428 27.2316 63.087 26.7029 62.8092C25.981 62.4295 25.8498 61.6682 26.4119 61.0849C26.7101 60.7756 27.0646 60.5377 27.4755 60.41C28.26 60.1677 29.0624 60.0058 30.0004 59.9455V59.9455Z" fill="#FDD89F"/>
<path d="M49.2858 54.6706C49.8383 53.6613 50.4739 52.9521 51.29 52.4021C51.6029 52.1915 51.9467 52.0449 52.3155 51.9708C52.9018 51.8525 53.3572 52.0228 53.5495 52.4132C53.763 52.8467 53.6181 53.3514 53.1694 53.7292C53.0937 53.7936 53.018 53.8645 52.9308 53.9062C51.8183 54.4403 50.6483 54.6946 49.2858 54.6706V54.6706Z" fill="#FDD89F"/>
<path d="M45.0654 45.5806C45.7313 44.3547 46.526 43.5098 47.6811 43.0362C48.0572 42.8824 48.4569 42.8357 48.8542 42.9388C49.5632 43.123 49.7793 43.8355 49.2891 44.3739C49.0536 44.6323 48.7673 44.8382 48.4325 44.9543C47.3947 45.3131 46.3142 45.4422 45.0654 45.5806Z" fill="#FDD89F"/>
<path d="M43.3024 71.6103C44.0456 72.571 44.4346 73.5444 44.5796 74.6183C44.5924 74.7158 44.5882 74.816 44.5827 74.9144C44.5508 75.5402 44.268 75.9541 43.8094 76.0518C43.3247 76.1557 42.7316 75.8043 42.5127 75.2544C42.3052 74.7346 42.2966 74.1933 42.4073 73.6479C42.5501 72.9393 42.8463 72.3002 43.3024 71.6103V71.6103Z" fill="#FDD89F"/>
<path d="M27.2318 36.9112C25.8072 36.5842 24.7335 36.0382 23.9371 35.0179C23.7521 34.7808 23.627 34.5107 23.5913 34.2105C23.5041 33.4754 24.1413 32.9806 24.8382 33.2508C25.2191 33.3987 25.4973 33.6813 25.7375 34.0041C26.3615 34.8433 26.7465 35.7988 27.2318 36.9112V36.9112Z" fill="#FDD89F"/>
<path d="M28.8447 55.5946C27.9611 56.2358 27.1662 56.7343 26.2799 57.0784C25.9243 57.2168 25.5476 57.2252 25.1738 57.1609C24.7768 57.0914 24.4874 56.8993 24.3782 56.4806C24.2658 56.0504 24.3802 55.7003 24.6962 55.4042C24.9236 55.1907 25.2136 55.099 25.5106 55.0612C26.6231 54.918 27.6884 55.0897 28.8447 55.5946V55.5946Z" fill="#FDD89F"/>
<path d="M22.3225 42.293C21.4788 42.2635 20.8479 42.0613 20.2832 41.6644C19.9712 41.4443 19.7285 41.1661 19.6068 40.8001C19.4712 40.3927 19.5199 40.012 19.8374 39.7034C20.1525 39.3959 20.5304 39.3337 20.9404 39.5007C21.3606 39.672 21.7315 39.9122 22.0228 40.2662C22.4215 40.7491 22.7251 41.2865 22.9735 41.8554C23.13 42.2129 23.0767 42.2866 22.6919 42.3102C22.6421 42.3134 22.5923 42.3099 22.5424 42.307C22.4184 42.3 22.2941 42.2914 22.3225 42.293Z" fill="#FDD89F"/>
<path d="M31.4719 69.3549C31.751 70.452 31.9493 71.4341 31.4465 72.4088C31.0807 73.1192 30.4343 73.4312 29.8733 73.1837C29.3019 72.9315 29.0957 72.2637 29.4045 71.5133C29.7982 70.556 30.5903 69.9746 31.4719 69.3549Z" fill="#FDD89F"/>
<path d="M39.432 28.6933C38.4923 27.8412 37.7963 26.8745 37.6059 25.6147C37.5621 25.3287 37.6176 25.0689 37.73 24.8194C37.8847 24.4754 38.1718 24.2777 38.5449 24.2483C38.9093 24.2204 39.1537 24.4398 39.3289 24.7319C39.404 24.8578 39.4711 24.9984 39.501 25.1418C39.7422 26.3177 39.6754 27.492 39.432 28.6933Z" fill="#FDD89F"/>
<path d="M57.5015 52.1151C58.1657 50.9138 59.1747 50.236 60.4824 49.9883C60.7603 49.9357 61.0281 50.0494 61.2724 50.1707C61.8962 50.4794 61.9501 51.2049 61.376 51.6107C61.1969 51.7377 60.9858 51.8344 60.7742 51.899C59.7142 52.2236 58.6239 52.202 57.5015 52.1151Z" fill="#FDD89F"/>
<path d="M49.623 69.7103C50.8658 70.0759 51.602 70.834 52.3259 71.6055C52.5166 71.8093 52.6051 72.0739 52.6627 72.3386C52.6986 72.5033 52.6936 72.682 52.6783 72.8511C52.6372 73.3141 52.3139 73.5265 51.9137 73.6577C51.552 73.7769 51.2792 73.6113 51.0661 73.3477C50.912 73.1576 50.7739 72.9472 50.6693 72.7268C50.2361 71.8099 50.0299 70.818 49.623 69.7103V69.7103Z" fill="#FDD89F"/>
<path d="M56.9122 38.5573C57.7048 38.6099 58.0761 39.2972 57.6914 39.9882C57.4615 40.4011 57.069 40.6243 56.6708 40.8157C56.0077 41.1358 55.284 41.1727 54.5596 41.1502C54.2445 41.1406 54.1755 40.9785 54.3344 40.7139C54.6401 40.2062 54.9215 39.6856 55.3182 39.237C55.7439 38.7559 56.2967 38.5886 56.9122 38.5573V38.5573Z" fill="#FDD89F"/>
<path d="M37.3261 72.1605C37.833 73.2508 38.1116 74.2301 37.936 75.2999C37.8946 75.5496 37.7916 75.774 37.6625 75.9851C37.47 76.3032 37.1904 76.5121 36.8038 76.4707C36.4224 76.4304 36.1874 76.1859 36.0538 75.8313C35.9551 75.5692 35.9283 75.3015 35.9539 75.0286C36.0538 73.9521 36.5431 73.0595 37.3261 72.1605V72.1605Z" fill="#FDD89F"/>
<path d="M20.0662 55.741C19.1852 56.557 18.3158 56.9298 17.3257 57.0185C16.7147 57.0731 16.1914 56.7588 15.9978 56.2684C15.7714 55.6948 16.0321 55.1575 16.6333 55.0018C16.8215 54.9529 17.0393 54.9149 17.2206 54.9606C18.1272 55.1921 19.0265 55.4528 20.0662 55.741Z" fill="#FDD89F"/>
<path d="M20.0861 48.7793C19.9393 49.0822 19.6751 49.1181 19.4461 49.1913C18.72 49.423 17.9744 49.4639 17.2309 49.3099C16.5279 49.1642 16.1408 48.5518 16.3277 47.9475C16.5294 47.2936 16.9126 47.0745 17.5761 47.2598C18.0343 47.3872 18.4624 47.5891 18.8482 47.869C19.2651 48.1706 19.6773 48.4778 20.0861 48.7793V48.7793Z" fill="#FDD89F"/>
<path d="M56.0234 69.0428C56.7671 69.4648 57.4339 69.7307 58.0264 70.1397C58.5052 70.4696 58.7586 70.9456 58.8882 71.486C58.9712 71.8333 58.9671 72.1947 58.6113 72.416C58.2544 72.6386 57.8949 72.5866 57.5649 72.3421C57.4261 72.2402 57.286 72.1298 57.1773 71.9975C56.4967 71.17 56.1958 70.2012 56.0234 69.0428Z" fill="#FDD89F"/>
<path d="M23.4847 63.8217C22.9465 64.5037 22.447 65.1056 21.8496 65.62C21.6408 65.7989 21.3844 65.9041 21.1067 65.9405C20.5774 66.0092 20.165 65.805 19.9956 65.3932C19.8132 64.95 19.9455 64.4289 20.33 64.1254C20.6727 63.856 21.0832 63.7643 21.505 63.694C22.1503 63.5869 22.7784 63.6202 23.4847 63.8217V63.8217Z" fill="#FDD89F"/>
<path d="M59.4001 59.4714C60.3276 58.626 61.2944 58.3577 62.337 58.2955C62.6386 58.2771 62.9338 58.3453 63.2064 58.4848C63.5237 58.6467 63.6995 58.9128 63.693 59.2618C63.687 59.6373 63.4254 59.8389 63.0942 59.9332C62.8563 60.001 62.604 60.0496 62.3584 60.0479C61.381 60.0424 60.4587 59.7677 59.4001 59.4714Z" fill="#FDD89F"/>
<path d="M33.0024 31.9226C31.9482 31.3264 31.1045 30.6286 30.8772 29.3993C30.8204 29.0922 30.8838 28.807 31.058 28.5527C31.3927 28.0662 31.9022 28.0292 32.3188 28.4542C32.4763 28.615 32.583 28.809 32.6739 29.014C32.9569 29.6576 33.1263 31.0272 33.0024 31.9226Z" fill="#FDD89F"/>
<path d="M56.6734 45.5216C56.9802 44.5882 57.5445 44.0183 58.2323 43.5584C58.4116 43.4382 58.6408 43.3763 58.856 43.3296C59.4589 43.1996 59.9536 43.4118 60.1112 43.8444C60.2649 44.2644 60.091 44.669 59.5435 44.996C58.6854 45.5095 57.7421 45.6206 56.6734 45.5216V45.5216Z" fill="#FDD89F"/>
<path d="M25.4918 69.8844C25.3391 70.82 25.0905 71.5638 24.6688 72.2357C24.291 72.8368 23.6639 73.0214 23.2145 72.7243C22.7 72.384 22.6635 71.6817 23.1203 71.0869C23.6905 70.3443 24.5005 70.088 25.4918 69.8844Z" fill="#FDD89F"/>
<path d="M18.4257 61.1449C17.7577 61.9787 17.021 62.6994 15.9286 62.884C15.2462 62.9989 14.7762 62.546 14.93 61.9689C15.0015 61.6997 15.1502 61.4653 15.4119 61.3362C15.612 61.238 15.8175 61.1424 16.0313 61.0819C16.8133 60.8616 17.5979 60.8925 18.4257 61.1449Z" fill="#FDD89F"/>
<path d="M50.6629 35.3616C50.8276 34.1408 51.2668 33.2499 52.218 32.6606C52.6215 32.4102 53.0963 32.4983 53.3645 32.8217C53.626 33.1384 53.5973 33.4832 53.2321 33.878C52.5744 34.5888 51.6913 34.9225 50.6629 35.3616Z" fill="#FDD89F"/>
<path d="M46.212 29.9399C45.8974 28.8616 46.4354 27.482 47.2557 27.0354C47.6551 26.8187 48.1339 26.8432 48.3702 27.0924C48.622 27.3587 48.6247 27.7941 48.3276 28.1844C47.7775 28.9077 47.0027 29.3612 46.212 29.9399V29.9399Z" fill="#FDD89F"/>
<path d="M26.0023 47.2119C24.6586 47.6346 23.4381 47.5059 22.2638 46.9136C21.9345 46.7479 21.7078 46.4487 21.6053 46.0769C21.4075 45.3596 21.9292 44.7396 22.6711 44.8356C23.0589 44.8862 23.4332 45.003 23.7827 45.1854C24.5397 45.5816 25.3905 46.3449 26.0023 47.2119V47.2119Z" fill="#C22B28"/>
<path d="M38.0578 34.4206C36.9357 33.8287 36.2054 33.0747 35.7226 32.0976C35.4374 31.5203 35.4631 30.9176 35.7962 30.358C36.071 29.8947 36.5435 29.8078 36.9827 30.1234C37.2233 30.2964 37.4148 30.5229 37.5104 30.8052C37.8926 31.936 38.0504 33.099 38.0578 34.4206Z" fill="#C22B28"/>
<path d="M28.6942 42.3081C27.6565 42.3226 26.7081 42.1432 25.8244 41.684C25.4266 41.4775 25.0848 41.2088 24.8484 40.8272C24.5547 40.3516 24.6109 39.8735 24.9874 39.4983C25.3142 39.1728 25.6922 39.1419 26.1937 39.4199C26.6026 39.6466 26.9545 39.9492 27.2651 40.2942C27.8148 40.9046 28.2981 41.5622 28.6942 42.3081V42.3081Z" fill="#C22B28"/>
<path d="M32.2521 37.1029C32.018 37.2253 31.8703 37.1934 31.7349 37.1446C30.6594 36.753 29.7452 36.1264 29.0409 35.2269C28.6392 34.7135 28.6171 34.1592 28.9234 33.7535C29.2345 33.3418 29.6198 33.2602 30.073 33.5154C30.3329 33.6622 30.5311 33.8772 30.6906 34.1222C30.8883 34.4263 31.0829 34.735 31.2478 35.0574C31.588 35.7216 31.9071 36.3966 32.2521 37.1029V37.1029Z" fill="#C22B28"/>
<path d="M29.5375 63.8824C29.9774 65.0183 29.5586 66.6675 28.7022 67.3437C28.5875 67.4341 28.4631 67.5189 28.3305 67.5768C27.9781 67.7307 27.6142 67.7776 27.2849 67.5309C26.9541 67.283 26.8947 66.9261 26.9636 66.5461C26.9937 66.3821 27.0408 66.2084 27.1281 66.0687C27.7232 65.1204 28.5968 64.4835 29.5375 63.8824Z" fill="#C22B28"/>
<path d="M42.4131 31.5397C41.7949 30.4523 41.3961 29.467 41.7913 28.3305C41.9042 28.0032 42.0806 27.715 42.3587 27.5022C42.6176 27.3051 42.9064 27.1572 43.238 27.2996C43.5634 27.4393 43.6847 27.7324 43.7062 28.0627C43.7177 28.2304 43.7156 28.4052 43.6802 28.5682C43.4566 29.5901 43.0477 30.5347 42.4131 31.5397V31.5397Z" fill="#C22B28"/>
<path d="M54.2012 55.92C55.1075 55.1919 56.0998 54.7452 57.2572 54.7017C57.5747 54.6901 57.8863 54.7442 58.1681 54.9144C58.4578 55.09 58.659 55.3258 58.6378 55.6735C58.6153 56.0481 58.3899 56.2933 58.0401 56.4214C57.6705 56.5569 57.2831 56.6106 56.8932 56.5746C56.0435 56.4976 55.2143 56.3033 54.3902 56.0936C54.3315 56.078 54.2879 56.0022 54.2012 55.92V55.92Z" fill="#C22B28"/>
<path d="M35.8023 68.598C35.79 68.8921 35.7338 69.1754 35.602 69.4393C35.3823 69.878 34.9893 70.0728 34.5202 69.9828C34.075 69.8975 33.8521 69.6254 33.8049 69.1081C33.7694 68.7138 33.8719 68.3389 33.9877 67.971C34.1829 67.3464 34.454 66.7513 34.7806 66.1848C34.9565 65.8799 35.1751 65.8885 35.2984 66.2068C35.5968 66.9745 35.8508 67.7564 35.8023 68.598V68.598Z" fill="#C22B28"/>
<path d="M50.959 63.2554C51.8308 63.4682 52.538 63.6415 53.1781 64.0035C53.6432 64.2669 53.975 64.6308 54.0397 65.1902C54.0972 65.6855 53.8785 66.1423 53.4668 66.3408C53.0798 66.5278 52.6141 66.4355 52.3019 66.0095C51.7157 65.2089 51.2834 64.3259 50.959 63.2554V63.2554Z" fill="#C22B28"/>
<path d="M25.2461 59.0187C24.7026 60.0313 24.0064 60.672 22.9559 60.8886C22.74 60.9328 22.5217 60.9414 22.3032 60.8933C21.8842 60.8009 21.5866 60.5489 21.5379 60.2111C21.4829 59.8249 21.7038 59.5714 21.9962 59.3694C22.344 59.1309 22.7448 59.0365 23.1571 58.9674C23.812 58.8583 24.4616 58.8778 25.2461 59.0187V59.0187Z" fill="#C22B28"/>
<path d="M45.2013 35.0128C45.2899 34.0262 45.5523 33.0889 46.1796 32.2747C46.4432 31.9328 46.7938 31.7232 47.2297 31.6849C47.8124 31.6332 48.1939 32.1069 48.0363 32.6682C47.9411 33.0092 47.7116 33.2643 47.4652 33.4973C46.8649 34.0665 46.184 34.5372 45.5112 35.0172C45.4236 35.0799 45.3344 35.0845 45.2013 35.0128V35.0128Z" fill="#C22B28"/>
<path d="M24.3219 53.1371C23.418 53.7363 22.4781 53.955 21.4581 53.8606C21.3182 53.8476 21.1728 53.7832 21.0496 53.7104C20.6899 53.4946 20.4872 53.1732 20.5157 52.7491C20.5384 52.4091 20.8929 52.1046 21.3417 52.0461C21.7548 51.9922 22.1648 52.0417 22.5648 52.1769C23.1844 52.3867 23.7866 52.6238 24.3219 53.1371Z" fill="#C22B28"/>
<path d="M49.0784 40.8074C49.5252 39.846 50.0936 39.1638 50.8184 38.6064C51.1141 38.3796 51.4517 38.2371 51.8277 38.212C52.1969 38.1872 52.5207 38.3064 52.6865 38.6485C52.8571 39.0028 52.7048 39.3031 52.4339 39.5577C52.1444 39.8298 51.7989 40.0102 51.4397 40.1658C50.7269 40.4741 49.9917 40.7033 49.0784 40.8074Z" fill="#C22B28"/>
<path d="M45.1333 66.0384C45.9811 66.9764 46.3833 67.8902 46.2546 69.0019C46.2253 69.2507 46.1651 69.4774 45.9723 69.6509C45.711 69.8864 45.4193 70.0773 45.0518 69.9527C44.7092 69.8367 44.6085 69.5407 44.5652 69.207C44.4241 68.1368 44.7706 67.1624 45.1333 66.0384V66.0384Z" fill="#C22B28"/>
<path d="M39.1112 68.5609C39.2027 67.868 39.3241 67.2235 39.6465 66.6405C39.8 66.3614 39.9653 66.3449 40.1438 66.5965C40.6167 67.2649 40.9271 67.9975 40.904 68.8321C40.8935 69.2035 40.7698 69.5506 40.499 69.8201C40.0621 70.2542 39.5119 70.1503 39.253 69.5915C39.0944 69.2493 39.1091 68.8838 39.1112 68.5609Z" fill="#C22B28"/>
<path d="M51.4172 45.288C52.0027 44.2715 52.6207 43.5126 53.5021 42.9915C53.6664 42.8948 53.855 42.8208 54.0422 42.78C54.3944 42.7025 54.7545 42.8778 54.8964 43.1863C55.0393 43.5001 55.016 43.8003 54.7539 44.0521C54.6668 44.1357 54.5765 44.2248 54.4709 44.2796C53.5633 44.7485 52.6245 45.1254 51.4172 45.288V45.288Z" fill="#C22B28"/>
<path d="M53.4484 49.85C53.9514 48.8584 54.5651 48.1644 55.4087 47.6796C55.7329 47.4934 56.0843 47.4033 56.4601 47.4768C57.0648 47.5956 57.2451 48.0728 56.8632 48.542C56.788 48.6349 56.7012 48.7291 56.5997 48.7892C55.6731 49.3375 54.681 49.6937 53.4484 49.85V49.85Z" fill="#C22B28"/>
<path d="M41.5995 46.1748C41.3147 48.5902 41.9373 50.5542 43.3085 52.3056C44.0857 53.2974 44.8221 54.3199 45.7015 55.2308C46.3913 55.9443 46.8712 56.7988 47.2515 57.7086C47.4157 58.1005 47.4991 58.5047 47.47 58.9333C47.3872 60.1427 46.3821 60.8594 45.2052 60.5279C44.2715 60.2646 43.4291 59.8066 42.6248 59.2757C42.1175 58.9412 41.6107 58.6048 41.1008 58.2721C40.2527 57.7187 39.3857 57.7277 38.5062 58.1959C37.6368 58.6584 36.7403 59.0584 35.8009 59.361C34.7351 59.7032 33.6482 59.8238 32.5387 59.6547C30.8487 59.398 30.174 58.0745 30.9637 56.5722C31.3252 55.8842 31.8046 55.2838 32.3974 54.7767C33.0897 54.1838 33.7919 53.6026 34.487 53.0119C34.8615 52.6938 35.215 52.3548 35.5417 51.9873C35.9726 51.5025 36.2512 50.9545 36.3337 50.3078C36.4723 49.2236 36.6051 48.1374 36.7708 47.0568C36.9404 45.9486 37.2269 44.8714 37.7796 43.8793C38.149 43.2167 38.6066 42.6369 39.2846 42.2584C40.1994 41.7483 41.0103 42.0535 41.336 43.0465C41.6914 44.1319 41.6121 45.2535 41.5995 46.1748V46.1748Z" fill="#51201C"/>
</svg>
