<svg width="121" height="171" viewBox="0 0 121 171" fill="none" xmlns="http://www.w3.org/2000/svg">
<path d="M107.543 96.1369C107.983 102.682 107.804 107.627 107.062 112.619C106.707 115.009 106.463 117.398 105.854 119.795C104.747 124.153 103.286 128.49 101.542 132.822C100.083 136.444 97.4488 139.785 94.6288 143.102C92.0956 146.082 89.3026 148.971 86.3135 151.784C83.2078 154.706 79.4809 157.275 75.2122 159.465C72.6052 160.804 69.8199 161.853 66.598 162.044C63.8033 162.209 61.1668 161.984 58.6347 161.52C53.5509 160.587 48.9816 159.107 44.7443 157.142C39.7305 154.817 36.2753 151.731 33.7636 148.042C32.3909 146.025 31.1219 143.975 29.9772 141.88C29.8173 141.587 29.642 141.278 29.3455 141.054C27.6437 139.77 27.1264 138.068 26.4295 136.433C26.1451 135.764 26.0032 135.056 25.7312 134.384C24.5937 131.574 23.3183 128.799 22.383 125.937C21.7721 124.067 21.2569 122.177 20.8351 120.264C20.4705 118.61 19.9102 116.993 19.3688 115.376C18.7814 113.622 18.6471 111.797 18.4939 109.974C18.3628 108.41 18.1865 106.856 17.8198 105.328C16.643 100.432 16.7819 95.4141 17.9265 90.2836C18.8028 86.3556 19.9374 82.4441 21.2261 78.5261C22.7756 73.8163 24.2041 69.099 25.3281 64.3735C25.7404 62.6397 25.9029 60.9201 26.1925 59.1932C26.3209 58.4261 26.2676 57.6784 26.1677 56.9312C25.9952 55.6379 25.9149 54.3328 25.9704 53.009C26.0807 50.3639 25.7067 47.7837 25.0831 45.25C24.5516 43.0891 24.0939 40.9271 24.1897 38.6681C24.2233 37.8784 24.0333 37.1071 24.0451 36.3182C24.0764 34.246 24.1542 32.1631 24.8956 30.0682C25.6818 27.8469 26.6589 25.6313 28.1195 23.4991C29.4815 21.5105 31.5209 19.7362 33.773 18.1077C38.9106 14.3925 44.9349 11.6871 52.0078 10.301C58.904 8.9501 65.2148 9.35924 71.0006 11.2869C75.8616 12.9069 79.0525 15.531 81.0785 18.8819C83.2687 22.5045 84.4633 26.3689 85.3054 30.3325C85.6574 31.9886 86.2591 33.5972 86.7202 35.2331C87.3849 37.5935 87.9482 39.9771 88.6926 42.3189C90.0029 46.4413 91.3759 50.5497 92.7027 54.6679C93.9125 58.4249 95.594 62.0304 97.4301 65.607C98.9424 68.5539 100.034 71.6211 101.094 74.6958C102.292 78.1724 103.767 81.5821 104.912 85.0705C106.272 89.216 107.453 93.4058 107.543 96.1369V96.1369Z" fill="#FFC1EB"/>
<path d="M81.1926 90.3088C81.3138 91.3782 81.4702 92.4434 81.5502 93.5181C81.9267 98.5662 82.4292 103.595 82.2548 108.714C82.1292 112.409 82.1007 116.095 81.5561 119.815C81.0885 123.014 80.0275 126.209 78.1377 129.318C77.0058 131.181 75.5427 132.987 73.9249 134.737C73.2809 135.434 72.4575 136.042 71.6035 136.64C68.4764 138.828 62.3588 138.761 60.0962 136.983C58.7254 135.906 57.4898 134.756 56.6043 133.433C54.1955 129.836 52.2648 126.087 50.8933 122.176C49.8272 119.137 48.4926 116.17 47.4673 113.122C46.2218 109.42 45.0825 105.691 44.3805 101.875C43.6484 97.8979 43.2049 93.8689 43.2192 89.7875C43.2414 83.4998 43.6788 77.1865 45.8516 70.809C46.653 68.4566 47.489 66.1046 47.9327 63.7396C48.8679 58.7536 49.5804 53.778 50.1186 48.8051C50.527 45.0282 51.1721 41.2383 51.6891 37.4555C51.9975 35.1993 52.1513 32.9493 52.6272 30.6869C52.8465 29.6456 53.4852 28.7242 54.8527 28.0059C56.1545 27.3218 57.1214 27.2747 58.1817 27.9214C59.4809 28.7141 60.1016 29.7969 60.5325 30.9483C61.2835 32.9543 61.7607 35.0221 62.3453 37.0653C63.3896 40.715 64.7762 44.2777 66.2512 47.8188C67.7388 51.3896 69.4968 54.88 71.251 58.372C73.4279 62.7043 75.0463 67.1891 76.6985 71.6644C78.1249 75.5299 79.0341 79.5014 79.9637 83.4726C80.4927 85.7338 80.7283 88.037 81.1926 90.3088V90.3088Z" fill="#F7AB05"/>
<path d="M54.3933 10.1302C52.545 10.413 50.5927 10.9222 48.6553 11.4137C43.7227 12.6643 39.5237 14.755 35.8353 17.3862C34.3989 18.4108 33.1906 19.5354 31.996 20.6676C29.9671 22.5908 28.1482 24.5853 26.9657 26.7475C25.306 29.7805 24.8476 32.8288 24.8388 35.8735C24.829 39.4035 25.5371 42.8216 26.1642 46.254C27.3178 52.5712 27.4995 58.9829 25.689 65.5595C24.2714 70.7106 22.8127 75.863 20.9716 80.9989C18.8463 86.9278 17.7726 92.8252 17.9714 98.6925C17.9993 99.511 17.8013 100.413 18.1894 101.121C18.8778 102.375 18.6403 103.736 18.8051 105.05C18.8451 105.372 18.7622 105.721 18.9695 106.007C19.4065 106.611 19.4459 107.298 19.5594 107.972C19.7433 109.065 19.8964 110.166 20.166 111.241C21.3401 115.928 22.5149 120.615 23.7608 125.287C24.6549 128.639 25.8972 131.9 28.0972 134.883C28.3414 135.215 28.4797 135.593 28.6129 135.963C29.4181 138.193 30.4811 140.347 31.6353 142.475C33.3056 145.553 35.4678 148.447 37.6579 151.329C39.0752 153.195 41.0217 154.718 44.0326 155.529C44.5088 155.657 44.947 155.843 45.3632 156.036C48.8056 157.637 52.6936 158.74 56.7394 159.645C60.1612 160.411 63.8009 160.793 67.5277 160.939C70.1509 161.042 72.6674 160.611 74.9561 159.302C76.3769 158.489 77.8501 157.719 79.218 156.862C82.5196 154.792 85.2273 152.424 87.8662 149.997C92.0506 146.149 95.7931 142.206 98.2686 137.828C100.325 134.192 102.463 130.578 103.473 126.829C104.117 124.437 104.661 122.041 105.376 119.65C107.282 113.276 107.987 106.967 107.73 100.687C107.546 96.1951 107.067 91.7619 105.924 87.4224C104.926 83.6276 103.634 79.9053 102.322 76.1855C101.35 73.4288 100.589 70.6159 99.0262 68.0182C97.6275 65.6938 96.2286 63.3695 94.815 61.0503C94.3194 60.2378 93.8541 59.4198 93.5748 58.5399C92.269 54.4166 90.8995 50.3092 89.5043 46.2067C88.7685 44.0448 87.6174 41.9504 88.009 39.5612C88.0454 39.3365 87.9253 39.1145 87.8634 38.8944C86.8598 35.3381 85.8729 31.7781 84.8447 28.2277C83.9443 25.1178 83.1151 21.9883 81.6854 19.0094C80.6516 16.8524 79.0891 14.9045 76.5309 13.4708C73.5754 11.8136 70.176 10.6777 66.1726 10.0973C62.3639 9.54529 58.522 9.65817 54.3933 10.1302V10.1302ZM110.01 97.0249C110.735 104.592 110.207 111.434 108.703 118.335C107.73 122.798 105.914 127.228 104.032 131.644C100.387 140.196 93.7799 147.895 84.7855 154.904C82.1994 156.918 79.4328 158.802 76.2535 160.396C72.9218 162.066 69.3311 162.912 65.4595 162.821C58.5238 162.658 52.3932 161.245 46.852 159.006C40.746 156.54 36.0835 153.121 32.9853 148.802C30.711 145.632 28.8413 142.313 27.1348 138.94C24.3094 133.359 22.2334 127.576 20.1521 121.796C19.4964 119.975 19.2301 118.058 18.7016 116.203C17.8141 113.089 17.1396 109.934 16.5229 106.766C16.0479 104.327 15.9839 101.832 15.9444 99.3397C15.8763 95.0027 16.2429 90.627 17.4529 86.2306C18.5678 82.1804 19.7119 78.1281 21.1588 74.0869C22.0477 71.6047 22.9383 69.1173 23.595 66.628C24.1987 64.3395 24.5531 62.0459 24.7237 59.7597C24.9663 56.5082 24.837 53.3042 24.2571 50.1557C23.9085 48.2651 23.3949 46.4034 23.0902 44.5059C22.4897 40.7678 22.1208 36.9853 22.7274 33.1215C23.6403 27.3029 26.4262 21.781 32.855 16.9934C36.3948 14.3575 40.5852 12.2714 45.1038 10.5208C47.2972 9.67101 49.5731 8.94269 51.7291 8.02768C53.7397 7.17418 55.8733 6.83116 57.9909 7.15659C60.0511 7.47247 62.1714 7.62507 64.3135 7.73344C69.0956 7.97604 73.0221 9.27954 76.5554 11.0905C80.747 13.239 83.2944 16.1698 84.8266 19.6012C87.1617 24.8295 88.315 30.3215 89.6613 35.7719C90.4445 38.9413 91.4552 42.0592 92.5262 45.1653C93.6714 48.4864 94.5112 51.8833 95.8658 55.153C97.7883 59.7936 99.8266 64.4023 101.775 69.0363C104.946 76.5741 107.574 84.2426 109.347 92.1123C109.77 93.992 109.889 95.9221 110.01 97.0249V97.0249Z" fill="#1A0F7F"/>
<path d="M104.812 97.7083C104.464 94.1487 104.059 90.7443 103.036 87.4531C101.578 82.7643 100.23 78.0521 98.1174 73.5175C96.1371 69.2686 94.5319 64.9109 92.6533 60.6314C90.8401 56.4987 89.4072 52.277 88.1315 48.0115C87.4 45.5669 86.818 43.0869 85.8376 40.6982C84.8075 38.1903 83.9939 35.6323 83.4083 33.0175C83.0528 31.4288 82.6184 29.8554 81.983 28.3215C80.7428 25.3288 79.695 22.2782 77.972 19.4307C76.3197 16.7 73.7096 14.5046 69.5853 13.2767C68.5578 12.9709 67.5177 12.6791 66.4699 12.3992C61.1041 10.9658 55.5057 11.1755 49.6872 13.0686C47.4198 13.806 45.11 14.4796 43.0124 15.4859C39.4409 17.1996 36.608 19.3766 34.0791 21.728C32.8706 22.8514 31.7242 24.0238 31.0962 25.3173C30.0608 27.4491 29.1979 29.5971 28.8729 31.7679C28.6742 33.0946 28.2376 34.4662 28.6155 35.723C29.1341 37.4479 29.5012 39.2023 29.9963 40.9304C30.626 43.1295 31.4727 45.2864 31.4763 47.6072C31.4777 48.5278 31.518 49.4447 31.5123 50.3661C31.4863 54.319 30.9745 58.296 30.2502 62.2898C29.634 65.6892 28.1165 69.0581 27.3857 72.4495C27.0264 74.1163 26.2144 75.7626 25.7652 77.424C25.1181 79.8161 24.6489 82.2149 23.8812 84.6014C22.4715 88.9817 21.9455 93.3268 22.242 97.6071C22.721 104.527 23.7168 111.365 25.855 118.003C26.5479 120.154 26.9594 122.372 27.5485 124.548C28.5135 128.114 29.6889 131.63 31.058 135.099C32.771 139.442 35.0013 143.608 38.3876 147.37C40.0844 149.254 41.9959 151.047 44.5404 152.446C46.9233 153.756 49.4151 154.985 51.9209 156.199C55.0459 157.713 58.6834 158.572 62.7572 158.775C64.7628 158.874 66.8188 158.751 68.8616 158.245C72.2273 157.41 75.0638 156.003 77.5128 154.189C80.0215 152.331 82.4307 150.418 84.7395 148.455C87.0856 146.462 89.1688 144.367 90.9363 142.153C93.7921 138.576 96.0869 134.877 98.5572 131.216C99.3588 130.027 99.8824 128.817 100.293 127.587C101.376 124.336 102.202 121.075 103.432 117.831C103.809 116.839 104.125 115.844 104.27 114.844C104.683 111.991 105.014 109.154 105 106.318C104.985 103.393 104.854 100.483 104.812 97.7083V97.7083ZM107.588 110.466C106.966 115.214 106.082 119.963 104.781 124.714C99.8247 139.387 89.7684 148.033 87.538 150.32C84.4938 153.442 80.4837 155.99 76.4009 158.532C72.1364 161.188 67.1092 162.263 61.9886 161.666C51.6602 160.461 39.0186 155.948 33.6505 147.302C29.7855 141.803 26.765 134.601 24.4263 128.645C22.1569 122.867 16.4731 103.616 17.095 97.8159C17.5003 95.717 17.0293 90.0935 19.337 84.1724C20.2791 81.1529 22.2157 74.128 24.2791 69.0656C26.6251 60.5895 25.9894 51.9747 26.0006 50.364C26.0187 47.5855 25.1671 44.9547 24.7035 42.2579C24.4048 40.5212 23.4136 34.2371 25.1881 29.453C25.7345 27.4833 26.7695 25.5578 27.922 23.6572C32.3508 16.67 41.9319 13.083 46.4174 11.6086C49.5314 10.586 52.7132 9.63883 56.0768 9.44122C60.135 9.20279 74.5162 8.66584 80.5575 17.3049C82.1257 19.548 83.5233 23.4227 85.494 30.13C85.8345 32.0637 88.3985 40.5698 92.113 51.921C93.2389 56.0673 95.4435 59.9108 97.1315 63.8992C98.3041 66.6696 103.033 78.4244 104.088 81.5626C107.921 93.068 108.22 105.641 107.588 110.466V110.466Z" fill="#5C42AA"/>
<path d="M68.7762 107.099C70.7157 106.828 72.1293 107.472 72.2274 108.67C72.3292 109.916 70.8169 111.213 68.9409 111.489C67.2536 111.737 65.7987 110.955 65.659 109.724C65.5132 108.438 66.7713 107.378 68.7762 107.099Z" fill="#34302E"/>
<path d="M69.8468 120.9C69.9879 122.04 68.7579 123.155 67.1054 123.384C65.4112 123.619 63.6896 122.774 63.5784 121.654C63.4678 120.542 64.9067 119.217 66.4801 118.983C68.1703 118.731 69.6852 119.593 69.8468 120.9Z" fill="#34302E"/>
<path d="M61.8898 105.186C61.7292 104.104 63.2169 102.856 65.0408 102.544C66.612 102.274 68.0006 103.072 68.166 104.338C68.3028 105.386 66.8349 106.719 65.2921 106.947C63.7332 107.178 62.0567 106.31 61.8898 105.186V105.186Z" fill="#34302E"/>
<path d="M59.3639 114.619C59.4235 115.103 59.2187 115.568 58.8455 116.015C57.9898 117.04 56.3367 117.427 54.9703 116.935C54.1934 116.655 53.6736 116.226 53.403 115.662C52.8907 114.592 53.6877 113.406 55.2124 112.937C56.8676 112.428 58.6047 112.872 59.1452 113.953C59.251 114.165 59.2925 114.396 59.3639 114.619V114.619Z" fill="#34302E"/>
<path d="M68.0095 85.0081C67.8902 83.7028 69.1168 82.6222 70.9832 82.3892C72.7086 82.1733 74.1618 82.9613 74.2701 84.1714C74.3628 85.2073 72.9683 86.3184 71.2496 86.5779C69.5127 86.8404 68.1152 86.1632 68.0095 85.0081V85.0081Z" fill="#34302E"/>
<path d="M60.4258 105.268C60.4964 106.475 59.1462 107.651 57.4677 107.844C55.6558 108.054 54.4204 107.332 54.3336 106.015C54.261 104.909 55.7759 103.661 57.421 103.471C58.9862 103.289 60.3579 104.11 60.4258 105.268Z" fill="#34302E"/>
<path d="M59.413 92.4838C57.6376 92.6981 56.4306 92.0357 56.3603 90.8085C56.2963 89.6954 57.533 88.7043 59.2458 88.4963C60.7979 88.3077 62.3479 89.1546 62.3808 90.2092C62.4149 91.3022 61.1463 92.2749 59.413 92.4838V92.4838Z" fill="#34302E"/>
<path d="M64.4788 117.961C64.5906 118.944 63.2473 120.065 61.6913 120.289C59.8885 120.548 58.6123 119.935 58.4505 118.733C58.3083 117.678 59.4412 116.641 60.9774 116.421C62.6602 116.179 64.3611 116.927 64.4788 117.961Z" fill="#34302E"/>
<path d="M62.6326 95.3C62.7653 96.457 61.5888 97.4488 59.7716 97.712C58.2392 97.9334 57.0335 97.2619 56.9252 96.1268C56.8195 95.0215 58.0894 93.9042 59.7557 93.6362C61.2628 93.394 62.4957 94.107 62.6326 95.3Z" fill="#34302E"/>
<path d="M58.2308 80.3856C58.3249 81.5205 57.1315 82.7466 55.7348 82.9495C54.2153 83.1697 52.4809 82.404 52.3844 81.4702C52.2725 80.3908 53.6259 79.2356 55.2684 79.0078C56.9161 78.7791 58.1454 79.3507 58.2308 80.3856V80.3856Z" fill="#34302E"/>
<path d="M67.4625 90.0709C67.3292 88.976 68.4161 88.0299 70.1272 87.7516C71.773 87.484 73.0304 88.0603 73.1686 89.1468C73.3217 90.3488 72.2996 91.3051 70.5799 91.5677C68.7619 91.8457 67.6113 91.2932 67.4625 90.0709Z" fill="#34302E"/>
<path d="M58.4632 110.578C58.3303 109.44 59.3867 108.517 61.1034 108.271C62.665 108.046 63.962 108.647 64.085 109.651C64.2176 110.736 62.9995 111.911 61.4921 112.152C59.7652 112.428 58.6094 111.828 58.4632 110.578V110.578Z" fill="#34302E"/>
<path d="M66.5154 98.8434C66.6312 99.9422 65.326 101.113 63.7273 101.345C62.331 101.548 61.1586 100.934 61.0203 99.9267C60.8687 98.8222 62.1633 97.6035 63.7168 97.3888C65.1386 97.1922 66.4114 97.8535 66.5154 98.8434V98.8434Z" fill="#34302E"/>
<path d="M72.8129 99.8638C72.9022 101.21 72.0326 102.037 70.2778 102.275C68.7546 102.481 67.4881 101.767 67.4421 100.677C67.3941 99.5387 68.5209 98.6053 70.2056 98.3889C71.6393 98.2048 72.7441 98.8294 72.8129 99.8638V99.8638Z" fill="#34302E"/>
<path d="M67.596 113.489C67.8057 114.647 66.4107 115.383 64.8364 115.661C63.4445 115.906 62.3141 115.245 62.1937 114.209C62.0809 113.236 63.3526 112.017 64.6944 111.811C66.133 111.59 67.4676 112.362 67.596 113.489V113.489Z" fill="#34302E"/>
<path d="M62.7336 126.856C62.6162 125.811 63.6098 124.915 65.1396 124.684C66.7456 124.442 68.1241 125.075 68.2155 126.096C68.3073 127.126 67.1581 128.254 65.7754 128.387C64.0323 128.554 62.9597 128.115 62.7336 126.856V126.856Z" fill="#34302E"/>
<path d="M69.0989 97.5463C67.5746 97.7783 66.2279 97.1455 66.123 96.1483C66.0094 95.0703 67.0013 94.2347 68.6916 93.9846C70.2929 93.748 71.5181 94.2783 71.6587 95.2693C71.8114 96.3504 70.7499 97.2949 69.0989 97.5463Z" fill="#34302E"/>
<path d="M73.2096 114.288C71.6348 114.534 70.2539 113.915 70.121 112.902C69.9877 111.884 70.9612 111.049 72.5932 110.783C74.2538 110.513 75.4009 110.991 75.5487 112.015C75.7066 113.105 74.7343 114.05 73.2096 114.288V114.288Z" fill="#34302E"/>
<path d="M62.1237 84.4212C62.2165 85.5764 61.2975 86.4078 59.6832 86.6297C58.1431 86.8412 56.9194 86.2069 56.8397 85.1559C56.7571 84.0753 57.731 83.2382 59.3025 83.0383C60.8777 82.8382 62.0425 83.4091 62.1237 84.4212V84.4212Z" fill="#34302E"/>
<path d="M78.5214 107.96C78.5922 108.927 77.2694 109.984 75.7452 110.178C74.5394 110.331 73.5894 109.78 73.5449 108.901C73.489 107.787 74.6111 106.741 76.0477 106.566C77.3498 106.409 78.4535 107.031 78.5214 107.96Z" fill="#34302E"/>
<path d="M65.2767 94.2089C63.791 94.435 62.6783 93.9536 62.5665 93.0361C62.4425 92.0148 63.4617 91.1044 65.0056 90.8578C66.365 90.6408 67.5577 91.1864 67.6977 92.0901C67.8361 92.985 66.6819 93.9949 65.2767 94.2089Z" fill="#34302E"/>
<path d="M67.5781 86.771C67.7382 87.8984 66.8209 88.8112 65.2913 89.0467C63.8332 89.2707 62.7512 88.744 62.6339 87.7531C62.5217 86.8097 63.5041 85.9279 64.9202 85.7005C66.4035 85.4616 67.4517 85.884 67.5781 86.771V86.771Z" fill="#34302E"/>
<path d="M60.7486 79.1165C59.3416 79.3327 58.1546 78.8101 58.0302 77.9192C57.9093 77.0562 59.1029 76.0251 60.4909 75.7932C61.7314 75.5859 63 76.1055 63.0594 76.9126C63.1488 78.1213 62.2279 78.8707 60.7486 79.1165V79.1165Z" fill="#34302E"/>
<path d="M75.7584 118.867C75.874 119.765 75.023 120.573 73.7425 120.778C72.4136 120.992 71.1659 120.369 71.0484 119.434C70.9337 118.523 71.8388 117.63 73.0855 117.423C74.4314 117.199 75.6272 117.845 75.7584 118.867V118.867Z" fill="#34302E"/>
<path d="M71.5006 104.369C71.4152 103.455 72.4247 102.647 73.8753 102.466C75.3016 102.289 76.1641 102.796 76.265 103.871C76.3433 104.712 75.1729 105.678 73.8922 105.83C72.6085 105.982 71.5926 105.361 71.5006 104.369V104.369Z" fill="#34302E"/>
<path d="M56.8709 109.914C56.9979 110.976 56.1292 111.775 54.5813 112.019C53.3181 112.218 52.341 111.699 52.2234 110.767C52.1135 109.896 53.2442 108.838 54.4927 108.643C55.6807 108.458 56.7662 109.038 56.8709 109.914Z" fill="#34302E"/>
<path d="M76.5812 101.926C75.2829 102.09 74.1896 101.57 74.104 100.749C74.0083 99.8322 75.1087 98.8206 76.3836 98.653C77.6517 98.4862 78.7923 99.1421 78.8394 100.066C78.8852 100.972 77.9359 101.754 76.5812 101.926Z" fill="#34302E"/>
<path d="M51.8984 88.5577C51.7976 87.665 52.7539 86.7718 54.0035 86.5906C55.2477 86.41 56.5633 87.0851 56.6876 87.9679C56.7992 88.7592 55.6643 89.6777 54.3663 89.8471C53.0346 90.0206 52.0027 89.4816 51.8984 88.5577Z" fill="#34302E"/>
<path d="M60.1704 121.809C61.3766 121.628 62.7563 122.385 62.8784 123.295C62.9789 124.043 62.0127 124.858 60.8273 125.024C59.4982 125.211 58.1287 124.566 58.0531 123.717C57.9795 122.889 58.9792 121.989 60.1704 121.809V121.809Z" fill="#34302E"/>
<path d="M48.9716 103.359C48.9244 102.39 49.6983 101.773 51.1554 101.616C52.5049 101.471 53.7642 102.088 53.7906 102.906C53.8156 103.694 52.6511 104.542 51.3124 104.712C49.9774 104.881 49.0184 104.327 48.9716 103.359V103.359Z" fill="#34302E"/>
<path d="M52.0256 91.2032C52.0995 92.1413 51.0785 93.0653 49.8049 93.2132C48.6289 93.35 47.541 92.7803 47.4617 91.9872C47.3704 91.073 48.3041 90.2465 49.6312 90.0674C50.9234 89.8928 51.9611 90.3851 52.0256 91.2032Z" fill="#34302E"/>
<path d="M65.6341 81.2971C66.8175 81.1377 67.86 81.6976 67.9279 82.5297C68.0002 83.4158 66.9952 84.2399 65.6414 84.4049C64.4425 84.5511 63.4894 84.0064 63.4008 83.1249C63.32 82.3222 64.3624 81.469 65.6341 81.2971Z" fill="#34302E"/>
<path d="M54.3525 71.5568C54.0932 70.8904 55.2629 69.8901 56.6557 69.6787C57.7832 69.5076 58.7049 69.9443 58.8313 70.7007C58.986 71.6235 57.9708 72.4777 56.4613 72.6946C55.2704 72.8658 54.4676 72.4324 54.3525 71.5568Z" fill="#34302E"/>
<path d="M65.8868 79.4308C64.5821 79.6101 63.6544 79.1672 63.6043 78.3406C63.5537 77.4962 64.6963 76.568 66.0066 76.3898C67.1193 76.2388 67.9919 76.7552 68.0414 77.5943C68.094 78.4881 67.1997 79.2501 65.8868 79.4308Z" fill="#34302E"/>
<path d="M54.6073 84.6948C54.6741 85.5837 53.8419 86.3205 52.5839 86.4851C51.362 86.6451 50.1769 86.0677 50.1073 85.2781C50.0366 84.4823 51.0364 83.6526 52.2369 83.51C53.4287 83.3685 54.5497 83.9287 54.6073 84.6948Z" fill="#34302E"/>
<path d="M60.1319 100.171C60.2587 101.114 59.4992 101.795 58.0956 101.998C56.8998 102.171 55.9991 101.744 55.8662 100.943C55.7219 100.073 56.5933 99.2174 57.8173 99.0256C59.1243 98.8209 60.009 99.2589 60.1319 100.171Z" fill="#34302E"/>
<path d="M59.319 74.7198C59.4415 75.5656 58.6095 76.4419 57.4974 76.6379C56.2299 76.8614 55.1914 76.4348 55.0904 75.6493C54.9644 74.6715 55.8544 73.7851 57.1491 73.5993C58.277 73.4369 59.2023 73.9149 59.319 74.7198V74.7198Z" fill="#34302E"/>
<path d="M77.1797 96.3689C77.2346 97.2162 76.4049 97.9494 75.2043 98.1136C73.9265 98.2886 72.9582 97.7909 72.8855 96.9213C72.814 96.0605 73.6766 95.3521 75.0089 95.1768C76.2653 95.0116 77.1226 95.4819 77.1797 96.3689V96.3689Z" fill="#34302E"/>
<path d="M71.3938 125.07C70.272 125.224 69.2388 124.639 69.1431 123.797C69.0562 123.032 70.0528 122.271 71.3712 122.096C72.4431 121.954 73.4526 122.437 73.5415 123.135C73.6521 124.004 72.6612 124.897 71.3938 125.07Z" fill="#34302E"/>
<path d="M71.6548 116.255C71.7144 117.038 70.6008 117.899 69.3367 118.047C68.3355 118.165 67.4935 117.65 67.4561 116.896C67.4176 116.117 68.3858 115.305 69.5192 115.167C70.5811 115.038 71.602 115.558 71.6548 116.255Z" fill="#34302E"/>
<path d="M54.619 76.9811C54.7012 77.7337 53.7365 78.5708 52.6121 78.722C51.5448 78.8659 50.5169 78.3277 50.4457 77.5872C50.3697 76.8031 51.1669 76.1169 52.3711 75.9293C53.4781 75.7566 54.539 76.2533 54.619 76.9811V76.9811Z" fill="#34302E"/>
<path d="M54.6548 95.3131C53.3869 95.5014 52.3134 95.0493 52.2529 94.3014C52.1933 93.5639 53.1971 92.7379 54.3389 92.5856C55.422 92.4411 56.4406 92.9653 56.5334 93.7151C56.6222 94.4339 55.7867 95.1449 54.6548 95.3131V95.3131Z" fill="#34302E"/>
<path d="M55.7768 98.0278C55.8878 98.8334 55.036 99.6152 53.8458 99.8001C52.7681 99.9675 51.7715 99.448 51.6675 98.6644C51.5718 97.9454 52.4031 97.2285 53.5474 97.0424C54.6533 96.8632 55.6791 97.3164 55.7768 98.0278Z" fill="#34302E"/>
<path d="M65.6386 71.5472C65.5616 70.8362 66.4046 70.1655 67.5978 69.9876C68.6646 69.8289 69.6231 70.2679 69.7085 70.9542C69.8026 71.7095 68.8279 72.5582 67.7049 72.6979C66.7527 72.8164 65.7129 72.2372 65.6386 71.5472Z" fill="#34302E"/>
<path d="M65.8007 68.8547C65.8747 69.5983 65.0629 70.3316 63.9887 70.4913C62.8453 70.6612 61.847 70.2271 61.7697 69.5266C61.6826 68.7343 62.5582 67.9984 63.7943 67.8256C64.8623 67.6765 65.727 68.1203 65.8007 68.8547V68.8547Z" fill="#34302E"/>
<path d="M58.4339 58.1254C58.4834 58.9092 57.5969 59.689 56.5096 59.8182C55.5395 59.9334 54.5847 59.3409 54.5415 58.5972C54.4987 57.853 55.3616 57.1604 56.5008 57.025C57.5803 56.8967 58.3853 57.355 58.4339 58.1254Z" fill="#34302E"/>
<path d="M51.7131 108.728C50.5812 108.886 49.659 108.44 49.5641 107.689C49.4703 106.943 50.3513 106.201 51.5226 106.039C52.6062 105.889 53.4717 106.33 53.5414 107.069C53.6079 107.773 52.7097 108.588 51.7131 108.728V108.728Z" fill="#34302E"/>
<path d="M70.577 81.3256C69.5069 81.4759 68.6849 81.0634 68.6293 80.3482C68.5648 79.5157 69.3028 78.8981 70.5805 78.7152C71.6443 78.5633 72.5192 79.0233 72.57 79.7614C72.619 80.4718 71.739 81.1626 70.577 81.3256V81.3256Z" fill="#34302E"/>
<path d="M61.7802 79.8601C62.9967 79.677 63.9334 80.1167 64.0035 80.9042C64.0611 81.5452 63.1263 82.2691 62.0604 82.4089C61.0285 82.5445 60.1453 82.1191 60.0572 81.444C59.9625 80.7207 60.7258 80.0187 61.7802 79.8601V79.8601Z" fill="#34302E"/>
<path d="M75.7331 92.5339C75.8051 93.2827 74.8809 94.0614 73.7631 94.1948C72.7863 94.3111 71.9597 93.7863 71.9122 93.0186C71.8688 92.3223 72.6256 91.6308 73.5952 91.481C74.6554 91.3168 75.6643 91.8134 75.7331 92.5339V92.5339Z" fill="#34302E"/>
<path d="M70.794 74.3744C70.8654 75.1491 70.0763 75.874 69.0015 76.0198C68.0838 76.1442 67.0677 75.5732 67.0149 74.9029C66.9597 74.2124 67.8401 73.4661 68.8502 73.3468C69.8455 73.2296 70.7304 73.6974 70.794 74.3744Z" fill="#34302E"/>
<path d="M62.9065 67.5441C61.9154 67.6778 61.1418 67.2701 61.0667 66.5744C60.9846 65.8104 61.6992 65.1695 62.8042 65.0164C63.862 64.8695 64.6995 65.3372 64.7466 66.1004C64.7877 66.7693 63.9856 67.3984 62.9065 67.5441V67.5441Z" fill="#34302E"/>
<path d="M51.9092 81.884C51.9783 82.5348 51.1088 83.158 49.8926 83.33C48.9417 83.4641 48.2042 83.0665 48.1482 82.3902C48.0891 81.6727 48.831 80.9869 49.8111 80.8527C50.7851 80.7198 51.8406 81.2386 51.9092 81.884Z" fill="#34302E"/>
<path d="M55.4399 69.3106C54.3427 69.4615 53.4074 69.0441 53.3144 68.3623C53.2189 67.6633 54.029 66.9948 55.1388 66.8563C56.1026 66.7364 56.9293 67.1712 56.9875 67.8282C57.0485 68.5162 56.3494 69.1857 55.4399 69.3106V69.3106Z" fill="#34302E"/>
<path d="M64.2111 61.8848C65.2887 61.7213 66.007 62.051 66.1102 62.7572C66.2186 63.4962 65.4014 64.2192 64.2906 64.3672C63.3863 64.4881 62.6594 64.0719 62.5891 63.3938C62.5121 62.6466 63.1588 62.0451 64.2111 61.8848V61.8848Z" fill="#34302E"/>
<path d="M64.1694 72.8129C65.1067 72.6939 65.9349 73.1069 65.9885 73.7196C66.0532 74.4625 65.2895 75.1325 64.2148 75.2755C63.2326 75.4063 62.3511 74.9283 62.3084 74.2417C62.2674 73.5754 63.0801 72.9512 64.1694 72.8129Z" fill="#34302E"/>
<path d="M56.3211 64.8265C56.4056 65.4139 55.6121 66.1787 54.7471 66.3435C53.8068 66.5226 52.7274 66.028 52.6164 65.3668C52.5191 64.7864 53.3211 64.101 54.303 63.9262C55.3734 63.7351 56.2179 64.112 56.3211 64.8265V64.8265Z" fill="#34302E"/>
<path d="M54.8489 73.2419C54.9181 73.9525 54.1171 74.7139 53.1576 74.8488C52.2143 74.9812 51.3584 74.533 51.3062 73.879C51.2505 73.179 51.9848 72.4974 52.9582 72.3457C53.9929 72.184 54.7826 72.5585 54.8489 73.2419Z" fill="#34302E"/>
<path d="M57.8116 61.4657C57.8739 62.0837 57.0622 62.7457 56.0787 62.8779C55.1633 63.0014 54.3231 62.5658 54.2923 61.9515C54.2608 61.3301 55.0879 60.5895 55.9555 60.4622C56.8348 60.3329 57.7474 60.8264 57.8116 61.4657V61.4657Z" fill="#34302E"/>
<path d="M51.5648 96.0924C51.6472 96.7618 50.9961 97.3772 50.0833 97.4931C49.1129 97.6166 48.1718 97.1495 48.0917 96.5046C48.0199 95.9227 48.8059 95.2372 49.6836 95.1169C50.5621 94.997 51.4895 95.4774 51.5648 96.0924Z" fill="#34302E"/>
<path d="M60.1164 63.3745C59.352 63.4402 58.7241 62.9795 58.7405 62.364C58.7582 61.6877 59.4541 61.1379 60.4052 61.0485C61.3389 60.9606 62.0396 61.4107 62.0078 62.0774C61.9775 62.7216 61.1553 63.2855 60.1164 63.3745V63.3745Z" fill="#34302E"/>
<path d="M74.8625 114.501C75.6751 114.38 76.3024 114.751 76.4024 115.412C76.4958 116.029 75.7594 116.713 74.8774 116.827C74.059 116.934 73.343 116.551 73.2495 115.957C73.1469 115.302 73.8698 114.65 74.8625 114.501Z" fill="#34302E"/>
<path d="M62.2657 71.7547C62.3141 72.3592 61.5643 73.0056 60.6646 73.1351C59.8217 73.2564 59.0198 72.8285 58.9874 72.2402C58.9516 71.5958 59.6683 70.9641 60.5545 70.858C61.3937 70.7574 62.2208 71.1905 62.2657 71.7547Z" fill="#34302E"/>
<path d="M49.1963 86.6713C50.0254 86.5488 50.8088 86.9759 50.8709 87.584C50.9349 88.2136 50.2187 88.8568 49.3177 88.979C48.495 89.0905 47.8231 88.7149 47.739 88.0977C47.6489 87.4386 48.2976 86.8039 49.1963 86.6713V86.6713Z" fill="#34302E"/>
<path d="M60.2497 54.712C61.1899 54.5671 61.9086 54.9111 61.9741 55.5385C62.0329 56.0936 61.3917 56.689 60.5805 56.8325C59.6908 56.9896 58.7976 56.587 58.7021 55.9855C58.6091 55.3968 59.2541 54.8656 60.2497 54.712V54.712Z" fill="#34302E"/>
<path d="M59.5848 69.2469C58.6546 69.3943 57.9405 69.103 57.8375 68.535C57.7205 67.8865 58.343 67.2423 59.2317 67.0922C60.1174 66.9427 60.8783 67.299 60.9861 67.9146C61.0966 68.5438 60.5119 69.0997 59.5848 69.2469Z" fill="#34302E"/>
<path d="M53.7819 55.5059C53.6849 54.9699 54.3428 54.3604 55.1765 54.214C56.0115 54.0672 56.7429 54.4074 56.8633 54.9989C56.9887 55.6155 56.4782 56.2015 55.6822 56.3551C54.8458 56.5165 53.8873 56.088 53.7819 55.5059V55.5059Z" fill="#34302E"/>
<path d="M63.0793 58.819C63.1237 59.3901 62.4437 59.9375 61.5703 60.0345C60.8043 60.1196 60.0391 59.7309 59.983 59.2277C59.9217 58.6836 60.7154 58.0039 61.5406 57.8941C62.3236 57.79 63.0326 58.2162 63.0793 58.819V58.819Z" fill="#34302E"/>
<path d="M59.6311 52.4883C59.7256 53.0732 58.9733 53.7109 58.0193 53.8543C57.2341 53.9724 56.5209 53.6602 56.4538 53.1685C56.3699 52.5578 57.0907 51.9002 57.9913 51.7656C58.8304 51.6401 59.5447 51.955 59.6311 52.4883V52.4883Z" fill="#34302E"/>
<path d="M56.8144 121.396C55.9817 121.529 55.2749 121.191 55.2223 120.633C55.1744 120.125 55.771 119.618 56.5601 119.495C57.3334 119.374 58.0803 119.689 58.1626 120.171C58.2509 120.689 57.615 121.267 56.8144 121.396Z" fill="#34302E"/>
<path d="M58.5518 66.1558C57.8037 66.2493 57.1528 65.8825 57.1253 65.3511C57.0968 64.8088 57.7583 64.282 58.5798 64.192C59.3771 64.1051 60.018 64.4517 60.022 64.9718C60.0259 65.4892 59.3169 66.0601 58.5518 66.1558V66.1558Z" fill="#34302E"/>
<path d="M53.9575 70.4002C54.007 70.9195 53.418 71.4141 52.6257 71.5183C51.9679 71.6044 51.4478 71.2832 51.415 70.7706C51.3829 70.2665 51.9399 69.783 52.6591 69.6914C53.3168 69.6073 53.9131 69.9326 53.9575 70.4002Z" fill="#34302E"/>
<path d="M66.5216 68.0409C66.464 67.5681 67.0283 67.0581 67.7318 66.9479C68.3414 66.8527 68.9864 67.2011 69.0265 67.6483C69.0655 68.0835 68.5294 68.5517 67.8533 68.6731C67.161 68.7972 66.5799 68.5215 66.5216 68.0409Z" fill="#34302E"/>
<path d="M55.2669 50.2009C55.9606 50.1192 56.6382 50.4881 56.6395 50.9479C56.6407 51.33 56.1973 51.6945 55.6343 51.7744C54.9368 51.8728 54.2597 51.5047 54.2738 51.0345C54.2857 50.6351 54.7278 50.2642 55.2669 50.2009V50.2009Z" fill="#34302E"/>
<path d="M57.3165 47.8987C57.9235 47.8021 58.5749 48.094 58.6388 48.4921C58.7006 48.8753 58.2315 49.3474 57.6899 49.4461C57.0545 49.5615 56.3661 49.245 56.3082 48.811C56.2553 48.4133 56.7191 47.9935 57.3165 47.8987V47.8987Z" fill="#34302E"/>
<path d="M61.5381 49.7874C61.5784 50.1876 61.1924 50.5615 60.6444 50.6533C60.0389 50.7539 59.4418 50.4433 59.4146 50.0138C59.3885 49.603 59.8768 49.1821 60.4506 49.1209C61.0042 49.0615 61.4946 49.3622 61.5381 49.7874Z" fill="#34302E"/>
<path d="M56.0507 47.5474C55.5519 47.6411 55.0755 47.4263 55.0004 47.0733C54.929 46.7394 55.2855 46.3207 55.7293 46.2168C56.2186 46.102 56.7552 46.3561 56.8411 46.7436C56.9204 47.0999 56.577 47.4487 56.0507 47.5474V47.5474Z" fill="#34302E"/>
<path d="M57.6476 45.1606C57.0736 45.2578 56.6146 45.0347 56.5511 44.6281C56.4961 44.273 56.7817 43.9647 57.2581 43.8641C57.7877 43.7531 58.3965 44.046 58.4542 44.4404C58.5019 44.7617 58.1499 45.0762 57.6476 45.1606V45.1606Z" fill="#34302E"/>
<path d="M60.1783 46.1741C60.198 46.5419 59.8206 46.8812 59.3133 46.9515C58.8286 47.0188 58.4867 46.8186 58.4555 46.4491C58.4241 46.0742 58.7918 45.7388 59.3028 45.6758C59.7859 45.6167 60.1597 45.8293 60.1783 46.1741V46.1741Z" fill="#34302E"/>
</svg>
