<svg width="93" height="135" viewBox="0 0 93 135" fill="none" xmlns="http://www.w3.org/2000/svg">
<path d="M12.7245 124.799C12.881 125.269 13.1049 125.459 13.3006 125.665C16.5413 129.055 20.4247 131.111 24.8344 132.059C26.181 132.348 27.5345 132.391 28.8698 131.953C30.5287 131.408 31.8768 130.424 32.744 128.764C32.9247 128.419 33.1122 128.077 33.2953 127.735C33.9621 126.479 34.3901 125.165 34.5405 123.7C34.8854 120.343 34.3916 117.089 33.7715 113.824C33.2286 110.972 32.1748 108.313 31.2484 105.601C29.7845 101.315 28.3873 97.003 27.2351 92.6052C27.1971 92.4604 27.1269 92.3199 27.1873 92.1636C27.3281 92.1311 27.3763 92.2546 27.4301 92.3434C30.4743 97.3835 33.8888 102.117 37.5114 106.693C40.9689 111.06 44.5847 115.25 48.5307 119.112C51.0798 121.607 53.8712 123.744 56.8283 125.612C59.9095 127.559 63.1798 129.099 66.6147 130.195C68.4142 130.77 70.263 131.01 72.1397 131.105C73.8099 131.19 75.4802 131.056 77.1473 131.169C77.6546 131.203 78.1628 131.27 78.6641 131.362C80.4953 131.696 82.2171 131.495 83.733 130.223C85.1017 129.925 85.5833 128.514 86.5079 127.658C86.8693 127.324 87.0086 126.825 86.9042 126.32C86.6533 125.103 86.9381 123.978 87.3177 122.85C87.5196 122.25 87.6572 121.626 87.8252 121.012C87.9257 120.645 87.9688 120.236 87.6951 119.977C87.1038 119.417 86.8693 118.614 86.4233 117.954C85.7042 116.892 85.0138 115.794 84.1119 114.922C82.527 113.389 81.3529 111.534 80.2814 109.597C77.8104 105.125 74.8458 101.063 71.6497 97.1733C68.5556 93.4078 65.4866 89.6167 62.6468 85.6193C60.8252 83.0551 58.9448 80.5391 57.3948 77.7619C56.0012 75.2678 54.9388 72.6206 54.1033 69.8631C53.6747 68.4467 53.2203 67.0396 53.0516 65.5421C52.8255 63.5446 53.0319 61.6082 53.5697 59.6927C53.7411 59.0831 55.2995 52.9882 59.2192 49.8802C61.1368 48.6184 63.2477 48.0096 65.4579 47.6485C68.4461 47.1599 71.4418 47.1795 74.445 47.2461C78.2967 47.3323 82.1482 47.4014 86 47.4899C87.8606 47.5323 89.664 47.1615 91.4491 46.6582C91.9179 46.5257 92.3429 46.2713 92.6582 45.851C93.2133 45.1106 93.0937 44.3869 92.2893 43.9878C91.5717 43.6324 90.8496 43.2723 90.0693 43.0828C87.4448 42.4473 84.8218 41.8041 82.1967 41.1708C81.5895 41.0244 80.9817 40.9245 80.3502 41.0586C80.0212 41.1286 79.6727 41.101 79.3326 41.0984C74.3678 41.0586 69.6029 42.1391 64.98 44.038C64.298 44.3178 57.5037 46.5006 53.0516 55.7677C52.483 56.9676 52.1398 58.2554 51.9795 59.5977C51.8826 60.4121 51.7836 61.2309 51.6242 62.0333C51.116 64.578 51.0699 67.1673 50.8892 69.7467C50.6918 72.5547 51.1447 75.3514 50.9512 78.1424C50.8309 79.8682 51.2665 81.4251 51.6951 83.0194C51.7956 83.3918 52.681 86.277 52.6433 86.7347C51.9787 86.3282 50.8196 84.3853 50.2985 83.8379C48.7599 82.2195 47.9638 80.8147 45.5503 77.9163C42.86 75.5293 40.0162 73.3636 37.0478 71.393C35.7759 70.5491 34.3545 70.0776 32.8968 69.8525C31.7489 69.6743 28.6413 69.8004 27.4475 72.3296C26.3383 74.3847 25.7168 76.6067 25.3719 78.9529C24.9023 82.1446 24.922 85.3356 25.3183 88.5135C25.6805 91.4142 26.4313 94.2287 27.2539 97.0196C28.7435 102.071 30.4938 107.022 32.1694 112.002C32.7864 113.835 33.3904 115.68 33.6082 117.628C33.9758 120.902 33.8956 124.131 32.6328 127.222C32.1565 128.386 31.473 129.402 30.6262 130.256C29.585 131.304 28.2489 131.647 26.8562 131.577C24.538 131.459 22.3325 130.751 20.2243 129.765C17.5673 128.522 15.0631 126.977 12.7245 124.799V124.799Z" fill="#FFD100"/>
<path d="M0.9736 67.0648C1.29338 72.4255 2.48506 77.5709 4.3028 82.5608C4.42604 82.8982 4.57349 83.2349 4.76017 83.5356C5.14575 84.1551 5.49125 84.2007 6.02064 83.7446C6.15288 83.6308 6.27764 83.5054 6.39788 83.3764C7.29999 82.4064 8.29941 81.5551 9.25211 80.6472C11.4889 78.5164 13.9824 76.7846 16.5132 75.1051C17.3516 74.549 17.5679 73.8784 17.1482 72.9069C16.6726 71.8028 16.1698 70.7109 15.6557 69.6264C13.9468 66.0194 12.2298 62.4154 10.0393 59.105C9.20302 57.8408 8.39864 56.5482 7.29848 55.5149C6.70564 54.9581 6.02429 54.6239 5.25077 54.4848C4.70637 54.3873 4.27771 54.5465 3.86576 54.9629C2.34295 56.5026 1.25715 59.2716 1.10969 60.9544C0.932012 62.9911 0.829142 65.0209 0.9736 67.0648V67.0648Z" fill="#FFD100"/>
<path d="M50.751 72.1645C50.8923 69.9297 50.8689 63.0959 52.7878 58.8358C54.1278 55.8628 55.9106 53.2744 58.312 51.1842C59.6556 50.0152 63.3773 45.5511 74.3362 43.334C75.9233 43.0137 81.2198 43.4227 81.5928 43.3356C81.0437 42.9088 76.6417 41.8513 75.704 41.8902C73.1863 41.996 70.6647 42.0375 68.1641 42.4594C65.892 42.8431 63.6782 43.4707 61.4665 44.1274C58.0224 45.1502 54.6609 46.4234 51.4125 48.0234C48.8849 49.2681 46.4638 50.7224 44.253 52.554C43.6449 53.058 43.0802 53.6076 42.6372 54.2905C42.3512 54.7304 42.0111 55.1369 41.9974 55.9303C41.4963 54.9221 41.3381 54.0231 41.0826 53.1693C39.7859 48.85 38.75 44.4535 37.7466 40.0473C37.0571 37.0181 35.6742 29.2787 35.8322 22.3666C35.8836 20.1352 35.6016 17.9295 35.808 15.7126C36.0939 12.6444 36.1277 9.56977 36.0469 6.4935C36.0182 5.38689 35.7619 4.33812 35.2468 3.35618C34.4379 1.81401 33.2101 0.984615 31.6259 0.605757C28.8677 -0.0542488 26.5244 0.874229 24.4587 2.74801C23.0493 4.02769 21.9204 5.60973 20.7628 7.15028C20.6025 7.36322 20.4589 7.5909 20.2971 7.80222C18.2903 10.4127 17.5131 13.5614 16.3313 16.6929C14.0652 22.6984 12.944 30.6664 12.7027 32.3549C12.076 36.7514 12.0246 41.1399 12.5537 45.5544C12.6575 46.4948 13.1412 47.6429 13.0739 48.5364C12.4011 48.6396 11.7395 48.8062 11.0674 48.9281C8.74145 49.3517 6.67808 50.3973 4.97159 52.1224C4.03175 53.0728 3.20079 54.1775 2.63281 55.4611C2.56187 55.6197 2.468 55.7847 2.57623 56.0548C2.97618 55.8596 3.15299 55.4418 3.40097 55.1205C4.09904 54.219 4.81878 54.1296 5.85614 54.5393C7.06818 55.0182 7.91348 55.8506 8.56011 57.01C8.84967 57.5294 9.2179 58.0018 9.57691 58.4717C11.8038 61.3846 13.4574 64.677 15.0723 67.9964C15.7809 69.4517 16.3881 70.9565 17.0352 72.4409C17.3029 73.0548 17.6764 73.5581 18.4521 73.6076C17.9932 74.0247 17.5646 74.3165 17.0935 74.523C14.2823 75.7547 11.8203 77.5863 9.4886 79.6382C7.95142 80.9919 6.54949 82.4926 5.26801 84.1322C4.74547 84.8005 4.5307 85.6258 4.06797 86.3201C2.82335 88.1842 1.84193 90.2142 1.08963 92.3572C0.198874 94.8928 -0.174493 97.5033 0.0779879 100.239C0.427346 104.015 1.41028 107.591 2.8778 111.005C4.9118 115.737 7.1642 120.346 10.1168 124.513C11.1315 125.945 15.3325 130.557 21.3096 132.786C23.9415 133.768 26.5214 134.364 29.2677 134.321C29.6637 134.315 29.9565 134.104 30.2641 133.877C35.0102 130.383 33.6546 119.968 30.0669 108.616C29.7182 107.512 27.7107 101.559 27.3916 100.392C26.6734 97.7587 24.2206 86.7029 24.911 83.0786C26.9055 72.6148 30.0047 72.8068 30.3625 72.5482C34.7539 69.372 44.265 78.6782 46.0797 80.5349C47.9307 82.4276 49.6485 84.4477 51.3559 86.4826C51.653 86.8363 52.6374 88.2817 53.0465 88.5737C50.8599 83.9479 50.6799 73.297 50.751 72.1645V72.1645Z" fill="#FFF9DE"/>
<path d="M78.3466 114.571C78.9628 116.334 82.2444 119.668 83.6129 119.942C83.6432 119.626 83.458 119.431 83.2825 119.258C81.7204 117.718 80.1515 116.185 78.5826 114.654C78.5462 114.618 78.4812 114.616 78.3466 114.571V114.571Z" fill="#CDAE1C"/>
<path d="M81.6846 122.112C81.5613 121.764 81.2461 121.658 80.9816 121.506C79.337 120.564 77.6545 119.692 76.1493 118.489C76.0419 118.403 75.9133 118.276 75.7772 118.407C75.6351 118.544 75.7455 118.698 75.8271 118.808C75.986 119.02 76.1514 119.234 76.3443 119.407C77.8028 120.711 79.5306 121.465 81.2825 122.163C81.4117 122.215 81.5547 122.231 81.6846 122.112Z" fill="#CDAE1C"/>
<path d="M80.9111 124.118C78.5582 123.22 76.2505 122.222 73.8507 121.104C74.6302 122.44 79.1472 124.369 80.9111 124.118Z" fill="#CDAE1C"/>
<path d="M81.6206 114.179C81.5925 114.681 81.8064 114.976 81.9858 115.272C82.7561 116.55 83.6795 117.692 84.71 118.733C84.812 118.837 84.9277 118.924 85.0434 119.009C85.1191 119.064 85.2053 119.047 85.2732 118.987C85.3512 118.919 85.3405 118.819 85.3049 118.738C85.246 118.602 85.1817 118.464 85.0979 118.344C84.115 116.938 82.9792 115.669 81.9131 114.338C81.8647 114.277 81.7702 114.259 81.6206 114.179V114.179Z" fill="#CDAE1C"/>
<path d="M76.1785 121.028C77.0011 121.921 78.0339 122.318 79.1592 122.497C78.2965 121.7 77.3166 121.176 76.1785 121.028Z" fill="#CDAE1C"/>
<path d="M72.8914 125.739C73.8094 126.408 74.818 126.683 75.9756 126.745C75.4599 126.173 73.8698 125.644 72.8914 125.739Z" fill="#CDAE1C"/>
<path d="M82.3945 117.359C82.1896 116.486 81.2633 115.466 80.5179 115.223C80.7931 116.098 81.4691 116.885 82.3945 117.359Z" fill="#CDAE1C"/>
<path d="M79.5163 111.263C79.7182 112.245 80.1914 112.774 80.7283 113.254C80.8115 113.329 80.9317 113.367 81.0391 113.294C81.1564 113.213 81.1549 113.072 81.0882 112.979C80.6679 112.394 80.3042 111.746 79.5163 111.263Z" fill="#CDAE1C"/>
<path d="M74.8164 119.933C74.1918 119.428 73.5424 118.994 72.7477 118.71C73.1273 119.49 73.9409 119.981 74.8164 119.933Z" fill="#CDAE1C"/>
<path d="M70.5739 126.39C71.1721 126.898 71.656 127.045 72.3477 126.838C71.8065 126.353 71.3195 126.194 70.5739 126.39Z" fill="#CDAE1C"/>
<path d="M79.6465 113.946C79.5125 113.461 79.2789 113.099 78.7058 112.937C78.8972 113.528 79.2828 113.734 79.6465 113.946Z" fill="#CDAE1C"/>
<path d="M18.948 72.51C18.7545 72.7239 18.5768 72.6978 18.4128 72.7271C17.8245 72.8319 17.7398 72.9246 17.8283 73.3564C17.9597 73.9946 18.1421 74.1264 18.7099 73.9775C19.2648 73.8319 19.7631 73.5491 20.2653 73.262C21.2587 72.6946 22.2144 72.0507 23.316 71.7117C24.7626 71.2679 26.2429 71.0019 27.7098 70.6639C28.4025 70.5044 32.4075 70.9337 36.1405 73.4767C38.8981 75.153 41.6019 76.9277 44.0319 79.1423C45.328 80.3236 46.6723 81.4431 47.8526 82.7666C48.0727 83.0129 48.2692 83.3787 48.6994 83.2365C48.7592 83.2169 48.8839 83.278 48.9187 83.3404C49.3383 84.0917 50.1746 84.4217 50.5489 85.2289C50.6835 85.5193 50.9117 85.7763 51.1408 85.9966C51.3768 86.2233 51.6529 86.086 51.6747 85.7403C51.702 85.3119 51.5832 84.8973 51.5009 84.4802C51.224 83.0812 50.5255 77.3773 50.4295 76.5636C50.4083 76.3838 50.3114 74.9353 50.0642 74.4449C48.2555 70.8517 46.875 67.0454 45.2742 63.3478C43.8635 60.0886 42.519 56.7994 41.4711 53.3848C40.2567 49.4266 39.059 45.4592 38.1503 41.4017C37.9083 40.3237 36.384 31.6037 36.3484 20.5903C36.4671 16.2646 36.3831 11.9427 36.2978 7.61951C36.2841 6.95121 36.2592 6.27391 36.1504 5.61782C35.8274 3.67975 34.948 2.11384 33.3626 1.057C33.1206 0.895228 32.8711 0.701894 32.5921 0.689681C31.4087 0.638521 30.2443 0.257117 29.0466 0.453921C28.2216 0.588733 27.4672 0.892932 26.7715 1.39946C23.6678 3.66016 21.2806 6.61773 19.3428 10.0429C18.4143 11.6835 17.4667 13.3061 16.8302 15.1077C15.6923 18.3245 14.6329 21.5619 14.037 24.9642C13.6499 27.177 13.1576 29.3713 12.9476 31.6134C12.7493 33.7328 12.5815 35.8596 12.5061 37.9871C12.329 42.9934 12.6165 47.9665 13.5276 52.8939C13.842 54.593 14.0008 56.323 14.3199 58.027C15.1901 62.6804 16.6283 67.1216 18.5155 71.4036C18.6243 71.6507 18.7249 71.9037 18.8256 72.1549C18.8693 72.2662 18.9043 72.3817 18.948 72.51V72.51Z" fill="#FFC1EB"/>
<path d="M87.6893 126.196C87.5772 125.556 87.678 124.953 87.891 124.331C88.1943 123.449 88.406 122.531 88.6585 121.629C88.7893 121.16 88.7417 120.749 88.4273 120.356C88.1898 120.06 88.0333 119.692 87.8216 119.37C87.4088 118.741 87.0405 118.68 86.4644 119.127C86.3502 119.216 86.2344 119.31 86.1429 119.423C84.714 121.204 83.4089 123.066 82.692 125.331C82.3261 126.49 82.3444 127.599 82.9546 128.658C83.2373 129.148 83.5071 129.654 83.8429 130.1C84.3563 130.783 84.8773 130.829 85.539 130.317C85.8624 130.066 86.1286 129.751 86.3667 129.407C86.518 129.188 86.6443 128.926 86.8402 128.768C87.6589 128.108 87.9645 127.271 87.6893 126.196Z" fill="#4E3027"/>
<path d="M31.5642 132.55C32.5214 131.703 33.4998 128.664 33.7191 127.773C34.0194 126.553 34.3921 124.447 34.3944 122.855C34.3989 119.656 33.7397 116.572 33.0568 113.493C32.4655 110.826 31.6255 108.244 30.7386 105.672C29.6854 102.621 28.6592 99.5511 27.8034 96.4308C26.1997 90.5825 26.102 84.6712 27.5742 78.7609C27.8072 77.826 28.1141 76.9116 28.8263 76.096C29.1281 76.9293 29.3821 77.6854 29.6732 78.4251C30.9654 81.704 32.2138 85.0063 34.0987 87.9697C34.8979 89.2263 35.7297 90.458 36.5969 91.6612C39.1284 95.1758 41.6607 98.6894 44.4718 101.957C47.3949 105.356 50.3567 108.692 53.7303 111.609C57.5359 114.9 61.4684 117.967 65.704 120.579C66.8837 121.306 68.1245 121.905 69.3629 122.508C71.9436 123.765 74.5505 124.947 77.2635 125.841C78.2972 126.182 79.3511 126.398 80.4225 126.52C80.6735 126.548 80.9344 126.54 81.1832 126.499C81.4147 126.461 81.4342 126.275 81.2966 126.1C81.0848 125.831 80.7695 125.758 80.4763 125.65C76.1801 124.075 72.0381 122.105 68.0057 119.879C65.5347 118.515 63.2429 116.807 60.9815 115.085C57.0723 112.11 53.3524 108.861 49.9385 105.246C47.0948 102.234 44.4596 99.004 41.8958 95.709C39.8399 93.0686 37.8996 90.3345 36.045 87.5307C34.8964 85.7933 33.8453 83.9875 33.1408 81.9722C32.5531 80.2918 31.7888 78.6885 31.2564 76.9823C31.0123 76.2002 30.858 75.3977 30.6539 74.6075C30.5502 74.2084 30.6674 73.9749 30.954 73.7652C31.2376 73.5571 31.528 73.3507 31.875 73.3311C32.641 73.2905 33.3751 73.0004 34.1479 73.0213C34.259 73.0246 34.3769 73.0101 34.4836 72.9734C35.0409 72.7817 35.1883 72.2353 34.7869 71.7832C34.101 71.0118 33.2368 70.624 32.2599 70.7468C29.9561 71.0369 28.1375 72.2067 26.9777 74.4091C25.6605 76.9106 24.977 79.6048 24.7442 82.4778C24.4281 86.3786 24.8077 90.2117 25.5698 94.0003C26.3123 97.692 27.4358 101.268 28.7228 104.787C30.3309 109.187 31.5393 113.725 32.449 118.344C32.8519 120.39 33.2594 122.462 33.1899 124.582C33.1505 125.767 33.0499 126.95 32.7945 128.109C32.5178 129.365 32.303 131.525 31.5642 132.55V132.55Z" fill="#FFE932"/>
<path d="M52.1972 74.4245C52.0914 69.3102 52.762 63.6121 53.4078 61.2341C54.0315 58.9375 54.9501 56.7807 56.0987 54.7442C56.8238 53.4581 57.8847 52.4531 58.9236 51.4728C60.9959 49.5144 63.2674 47.8623 65.8443 46.7396C66.8173 46.316 67.8108 45.9542 68.8194 45.6599C70.9494 45.0382 73.0825 44.4358 75.2699 44.056C77.8014 43.6163 80.2981 43.7951 82.7826 44.348C84.834 44.8047 86.8746 45.3161 88.917 45.8169C89.6663 46.0005 90.4284 46.0609 91.1882 46.1388C91.4401 46.1641 91.6979 46.1404 91.9512 46.1144C92.1176 46.0973 92.3087 46.0558 92.3565 45.8461C92.4191 45.5731 92.2172 45.4608 92.0321 45.3933C91.1475 45.0723 90.2537 44.778 89.3705 44.4535C86.5518 43.4195 83.6952 42.5422 80.7433 42.0813C78.4281 41.7204 76.1092 41.8066 73.809 42.2504C71.3556 42.7245 68.9262 43.3105 66.5572 44.1673C63.848 45.1462 61.3264 46.4803 59.1458 48.5014C58.0298 49.5354 56.95 50.6077 55.9007 51.7198C54.6205 53.076 53.8131 54.7442 53.0387 56.4401C51.4932 59.8229 50.3334 62.4666 49.9652 66.1844C49.5704 73.4343 50.0711 79.9415 50.4007 81.4763C50.5338 82.099 50.8892 87.4558 55.6994 93.9565C57.5255 96.791 59.6381 99.3778 61.7521 101.965C63.9025 104.597 66.0929 107.193 68.374 109.687C70.5336 112.049 72.6772 114.438 75.1057 116.514C76.7027 117.88 78.2731 119.272 79.9858 120.468C80.6503 120.932 81.3112 121.401 81.9765 121.864C82.1664 121.996 82.3591 122.127 82.5634 122.231C82.8499 122.378 83.2143 122.526 83.4155 122.203C83.6528 121.823 83.2756 121.623 83.0405 121.418C79.5342 118.371 76.2119 115.1 72.935 111.777C69.4502 108.242 66.2541 104.414 63.1358 100.503C60.1763 96.7919 57.6526 92.7531 55.1777 88.6702C53.7261 86.2754 53.0826 83.5729 52.6283 80.7951C52.2834 78.6837 52.2167 76.5571 52.1972 74.4245V74.4245Z" fill="#FFE932"/>
<path d="M8.96236 59.4772C9.70116 60.3773 10.2417 61.3033 10.781 62.2244C12.5297 65.2135 14.1162 68.3029 15.6486 71.4248C16.0185 72.1774 16.414 72.9158 16.8714 73.6141C17.1074 73.9749 17.4226 74.6433 17.9276 74.5409C18.8282 74.358 17.8747 73.0255 17.7167 72.536C16.9243 70.085 15.9112 67.7436 14.6998 65.5013C13.62 63.5015 12.5736 61.4821 11.3624 59.5668C10.3697 57.9968 9.22943 56.5726 7.92588 55.2971C7.4835 54.8645 6.99502 54.4963 6.45298 54.2271C5.51164 53.7614 4.57096 53.7669 3.71878 54.44C1.89655 55.8792 1.24477 57.8912 1.28871 60.2593C1.62221 60.2277 1.57527 59.9576 1.64321 59.7804C1.90341 59.1066 2.14987 58.4261 2.41907 57.7562C2.57639 57.3635 2.78129 56.9895 3.06635 56.6913C4.20273 55.501 5.07143 55.5466 6.08243 56.3318C6.22088 56.4392 6.35225 56.5539 6.48771 56.6652C6.82485 56.9441 7.19843 57.2155 7.39497 57.614C7.62409 58.0781 7.19994 58.4505 7.07906 58.8651C6.65104 60.3301 6.48536 61.8413 6.41742 63.36C6.20802 68.0151 6.68811 72.5971 7.77541 77.1065C7.93272 77.7603 8.16249 78.382 8.58065 78.9001C8.70689 79.0552 8.84299 79.2626 9.0721 79.1723C9.27165 79.0944 9.19986 78.8635 9.22708 78.6952C9.31174 78.1668 9.15077 77.6683 9.04489 77.1667C8.80827 76.0384 8.61838 74.9002 8.42334 73.7629C8.11706 71.9825 8.13591 70.1907 8.16848 68.3939C8.21156 66.0242 8.07698 63.6453 8.50886 61.2975C8.61688 60.7114 8.68566 60.1123 8.96236 59.4772V59.4772Z" fill="#FFE932"/>
<path d="M34.3349 4.10652C33.8858 4.37638 33.7028 4.85686 33.5018 5.31384C32.1853 8.3023 31.309 11.4445 30.6883 14.6751C29.9141 18.7034 29.2501 22.7538 29.1519 26.8747C29.0913 29.4299 29.0551 31.9874 29.0566 34.5451C29.0581 37.6311 29.2857 40.6944 29.7446 43.7315C30.5725 49.2128 31.8178 54.5848 33.7498 59.7464C35.1017 63.3593 36.3144 67.0331 37.8683 70.5574C38.6811 72.4028 39.5272 74.2245 40.5155 75.9709C40.7877 76.4514 41.1551 76.7254 41.6193 76.8994C41.7471 76.9473 41.8877 77.027 42.0079 76.8733C42.1146 76.7383 42.0926 76.5758 42.0345 76.4433C41.7312 75.7563 41.4069 75.079 41.1021 74.3921C38.3975 68.2875 35.829 62.1179 33.9056 55.6725C33.1895 53.2719 32.4591 50.8646 31.9646 48.3901C31.5374 46.2478 31.2817 44.0763 31.005 41.9089C30.4456 37.5189 30.4735 33.1076 30.6368 28.6883C30.7661 25.1885 30.9673 21.696 31.3583 18.2206C31.6954 15.2248 32.3238 12.2884 33.0639 9.37941C33.4527 7.8543 33.7793 6.30891 34.3319 4.83565C34.4144 4.61534 34.5179 4.38467 34.3349 4.10652V4.10652Z" fill="#FCE78D"/>
<path d="M29.4121 2.17004C28.9101 2.32537 28.5979 2.6268 28.2779 2.8985C26.219 4.64461 24.6585 6.81774 23.4692 9.32341C22.2949 11.7964 21.2174 14.3288 20.5785 17.01C19.737 20.54 18.8373 24.0593 18.3827 27.6925C17.8415 32.0298 17.6992 36.3604 17.9857 40.7228C18.1825 43.7032 18.429 46.672 18.9914 49.6013C19.5707 52.6132 20.3275 55.5791 21.0134 58.5634C21.7074 61.5895 22.6828 64.5056 23.7913 67.376C24.2705 68.6159 24.8642 69.7955 25.6384 70.8581C26.0043 71.3596 26.359 71.5419 26.5262 71.3158C26.784 70.9662 26.5902 70.6143 26.4286 70.3011C24.7697 67.085 23.6869 63.6266 22.7175 60.121C21.4322 55.4743 20.5423 50.7362 19.7846 45.9583C19.1511 41.9667 19.0775 37.9643 19.16 33.9409C19.2145 31.2599 19.3491 28.586 19.8367 25.9478C20.6323 21.6407 21.6741 17.4011 23.0064 13.2533C24.2328 9.43634 26.1095 6.01786 28.7567 3.11628C28.9849 2.8667 29.2616 2.64569 29.4121 2.17004Z" fill="#FCE78D"/>
<path d="M21.2527 104.579C21.3759 104.231 21.2647 103.919 21.1983 103.608C20.8633 102.037 20.5525 100.46 20.1821 98.8985C19.4221 95.6985 19.3942 92.4556 19.6444 89.197C19.9007 85.8615 20.2576 82.5414 21.09 79.2999C21.4516 77.8903 21.9195 76.5228 22.4156 75.1636C22.6008 74.6564 22.8034 74.1489 22.7459 73.5783C22.6801 72.9229 22.4844 72.7888 21.9021 73.0474C21.3924 73.2725 20.976 73.6369 20.6781 74.136C20.4337 74.5448 20.1699 74.953 20.0027 75.3994C19.0614 77.9163 18.263 80.4934 17.9659 83.1908C17.6725 85.8477 17.6665 88.528 17.7132 91.2093C17.7868 95.3553 18.7317 99.2665 20.2477 103.045C20.4157 103.462 20.6258 103.861 20.824 104.263C20.9025 104.423 21.0114 104.557 21.2527 104.579V104.579Z" fill="#FCE78D"/>
<path d="M13.4642 119.113C13.5593 118.619 13.3523 118.247 13.2003 117.864C11.7137 114.107 10.4419 110.269 9.47419 106.32C7.94752 100.092 7.52422 93.7945 8.48292 87.4133C8.64088 86.3623 8.79134 85.308 8.77934 84.238C8.77548 83.8405 8.77011 83.4452 8.53499 83.103C8.36117 82.8511 8.1805 82.8283 7.97924 83.0609C7.82192 83.2429 7.74025 83.469 7.65109 83.6941C6.84285 85.7331 6.47527 87.8671 6.32952 90.0727C6.01103 94.879 6.32802 99.6341 7.41361 104.299C8.49576 108.946 9.983 113.443 12.3201 117.564C12.6398 118.128 12.9749 118.68 13.4642 119.113V119.113Z" fill="#FCE78D"/>
<path d="M58.1855 48.4184C55.9557 49.3835 54.2159 51.0614 52.5789 52.8833C50.9624 54.6831 49.7534 56.81 48.4151 58.8294C50.2487 54.8668 52.8459 51.5802 56.1395 48.8516C55.9239 48.6834 55.7447 48.8175 55.5883 48.8876C55.0107 49.1478 54.4843 49.5119 53.9913 49.9223C50.6645 52.6955 48.0634 56.0979 46.3048 60.2236C46.0212 60.8878 45.7891 61.5756 45.6159 62.2845C45.566 62.4894 45.513 62.6975 45.4965 62.9072C45.4783 63.1478 45.464 63.4227 45.7066 63.5527C45.9569 63.6861 46.1301 63.4819 46.2979 63.3201C46.3796 63.2413 46.4507 63.1503 46.6284 62.9503C46.5429 63.578 46.2866 63.9827 46.1466 64.4284C46.0757 64.6551 45.9531 64.8738 46.0697 65.1282C46.3659 65.777 46.6578 66.4291 46.9625 67.1046C47.4979 66.846 47.705 66.3722 47.8767 65.8949C48.3469 64.5892 48.7983 63.2754 49.2445 61.96C50.3492 58.7049 51.9121 55.7149 53.7667 52.8939C53.8318 52.7946 53.9566 52.7094 53.9686 52.6061C54.073 51.715 54.7565 51.3142 55.288 50.7948C56.1901 49.9151 57.2101 49.1996 58.1855 48.4184V48.4184Z" fill="#FCE78D"/>
<path d="M23.177 100.541C23.6012 100.285 23.5733 99.9428 23.4726 99.5269C22.7846 96.679 22.5351 93.7659 22.5956 90.8401C22.6554 87.95 22.9676 85.0803 23.574 82.2494C24.287 78.9178 25.5505 75.8547 27.266 72.993C27.2963 72.9418 27.3348 72.8937 27.3575 72.8393C27.4559 72.601 27.7643 72.3726 27.5843 72.1173C27.3507 71.785 26.9968 71.9947 26.7276 72.1205C26.1162 72.4067 25.6564 72.9149 25.2541 73.4686C24.6257 74.3328 24.0723 75.2449 23.6927 76.2783C21.2232 82.9982 20.5744 89.8808 22.0664 96.9578C22.241 97.7877 22.4301 98.6161 22.6455 99.4347C22.7514 99.8334 22.8656 100.25 23.177 100.541V100.541Z" fill="#FCE78D"/>
<path d="M8.04351 113.916C8.07824 112.865 7.93677 111.998 7.79467 111.138C7.45131 109.071 6.93413 107.045 6.37387 105.037C5.31679 101.246 4.9758 97.3487 4.78312 93.4246C4.71282 91.997 4.64553 90.5686 4.56751 89.1419C4.55701 88.9442 4.6273 88.6702 4.39454 88.5849C4.12984 88.4881 3.98839 88.7419 3.85679 88.9297C3.44013 89.5279 3.23674 90.2232 3.12335 90.9491C2.87838 92.5125 2.78621 94.0691 2.94203 95.6652C3.19837 98.3016 3.49777 100.922 4.21449 103.467C4.90249 105.913 5.74181 108.301 6.60685 110.68C6.88505 111.444 7.14203 112.217 7.42495 112.98C7.53383 113.275 7.60564 113.611 8.04351 113.916V113.916Z" fill="#FCE78D"/>
<path d="M12.7496 103.311C12.5629 102.154 12.4079 101.105 12.2234 100.065C11.5581 96.3188 11.568 92.5562 11.9596 88.7824C12.1947 86.5102 12.6197 84.2721 12.9697 82.0201C13.0906 81.2405 13.1806 80.4535 13.2532 79.6659C13.2925 79.2391 13.288 78.7049 12.8426 78.5781C12.3702 78.4447 12.2212 78.9699 12.0268 79.3391C11.1468 81.0145 10.8208 82.873 10.5319 84.7314C10.1214 87.3769 9.86596 90.0361 9.97398 92.7319C10.1146 96.2188 10.854 99.5382 12.206 102.704C12.2952 102.913 12.3269 103.177 12.7496 103.311V103.311Z" fill="#FCE78D"/>
<path d="M14.6946 90.8954C14.7295 92.1498 14.8852 93.3847 15.2551 94.5799C15.388 95.0113 15.5498 95.4381 15.8402 95.7856C15.921 95.8814 16.0322 95.9206 16.1471 95.8863C16.2734 95.8487 16.3083 95.7293 16.3104 95.6028C16.3134 95.4505 16.3188 95.2979 16.3045 95.1463C15.9219 91.1247 16.492 87.1801 17.2784 83.2802C17.8105 80.6398 18.5215 78.0325 19.465 75.5132C19.5173 75.3733 19.5813 75.2302 19.5942 75.0839C19.6253 74.7156 19.3599 74.514 19.0507 74.6889C18.5933 74.9481 18.2212 75.3245 17.9407 75.7937C17.5876 76.3831 17.2344 76.9756 16.9993 77.6326C16.3302 79.5064 15.7783 81.4129 15.3434 83.3729C14.793 85.859 14.613 88.3582 14.6946 90.8954V90.8954Z" fill="#FCE78D"/>
<path d="M14.3414 61.5683C12.6501 59.0156 11.1357 56.288 8.52255 54.64C8.51784 54.9604 8.7356 55.1092 8.90127 55.2871C11.2906 57.8571 13.1317 60.8202 14.467 64.1583C15.0356 65.582 15.6578 66.9817 16.2772 68.3817C16.8971 69.7849 17.4363 71.2206 17.8877 72.6955C18.0208 73.132 18.2219 73.5311 18.404 73.9434C18.5697 74.3181 18.7911 74.1985 19.031 74.0881C19.2721 73.9775 19.3947 73.8173 19.2646 73.5221C18.9371 72.7808 18.64 72.023 18.2877 71.2955C17.4507 69.5688 16.8722 67.7208 16.1032 65.9599C15.6776 64.9844 15.5935 63.8446 15.0523 62.895C15.1355 61.7033 14.6833 60.6082 14.5101 59.4617C14.1661 57.1888 12.2131 54.5336 10.2518 53.5514C9.94463 53.3979 9.69902 53.1165 9.35566 53.0451C9.28772 53.0313 9.17198 53.0695 9.14026 53.1246C9.10704 53.1815 9.12588 53.3076 9.16596 53.3694C9.22876 53.4661 9.32243 53.5449 9.41395 53.615C10.8733 54.741 11.9143 56.2449 12.7566 57.9212C13.3441 59.0902 13.9059 60.2731 14.4799 61.4503C14.4338 61.4894 14.3877 61.5293 14.3414 61.5683V61.5683Z" fill="#FCE78D"/>
<path d="M14.9185 96.4163C14.5871 97.4814 14.6894 98.3633 14.8321 99.224C15.1506 101.139 15.4303 103.064 15.9475 104.935C16.8434 108.176 17.8846 111.356 19.2818 114.392C19.4196 114.69 19.5821 114.976 19.7508 115.256C19.8082 115.351 19.9141 115.44 20.0403 115.399C20.1983 115.346 20.2506 115.199 20.2399 115.042C20.2255 114.83 20.1923 114.619 20.1546 114.411C19.8552 112.765 19.3583 111.178 18.9007 109.58C17.9035 106.092 17.0446 102.561 16.1335 99.0454C15.8999 98.1453 15.6155 97.2657 14.9185 96.4163V96.4163Z" fill="#FCE78D"/>
<path d="M18.0663 121.314C18.2024 120.692 18.0412 120.234 17.9195 119.776C17.4002 117.815 16.6955 115.923 16.0428 114.011C15.0593 111.129 14.0686 108.249 13.0653 105.375C12.8197 104.672 12.5209 103.987 12.0226 103.37C11.7444 103.711 11.8495 104.051 11.876 104.357C11.9691 105.453 12.2685 106.503 12.5437 107.557C13.6567 111.816 15.2082 115.889 17.1106 119.809C17.3192 120.239 17.5543 120.656 17.7866 121.074C17.8258 121.144 17.9113 121.184 18.0663 121.314Z" fill="#FCE78D"/>
<path d="M27.0098 124.506C26.99 123.865 26.792 123.397 26.6143 122.93C25.6957 120.509 24.761 118.095 24.1313 115.565C23.6336 113.568 23.1278 111.577 22.4957 109.624C22.3551 109.19 22.2038 108.765 21.9582 108.39C21.7994 108.149 21.6671 107.864 21.2777 107.786C21.0962 108.264 21.0917 108.752 21.174 109.261C21.5876 111.817 22.3241 114.276 23.1422 116.706C23.9913 119.228 25.0218 121.658 26.4411 123.878C26.5372 124.027 26.634 124.177 26.7382 124.32C26.7701 124.364 26.8291 124.384 27.0098 124.506V124.506Z" fill="#FCE78D"/>
<path d="M29.6309 119.977C29.5773 117.858 26.0659 106.883 24.4031 105.504C24.2338 105.869 24.3495 106.221 24.3993 106.552C24.5536 107.577 24.8114 108.573 25.1471 109.547C26.0507 112.172 26.9172 114.813 28.006 117.359C28.2896 118.021 28.6396 118.651 28.9829 119.281C29.1326 119.554 29.2877 119.856 29.6309 119.977V119.977Z" fill="#FCE78D"/>
<path d="M48.2407 70.6899C49.449 63.3584 51.7748 56.6318 57.0449 51.3151C56.6184 51.393 56.412 51.6484 56.1912 51.8532C54.7001 53.2345 53.4178 54.8108 52.3978 56.6247C50.522 59.9593 49.1964 63.5388 48.3495 67.3216C48.1054 68.4119 47.9224 69.5224 48.2407 70.6899V70.6899Z" fill="#FCE78D"/>
<path d="M36.4639 70.9363C36.4298 70.6182 36.1773 70.5028 35.9745 70.3613C33.3222 68.5168 30.4103 68.1144 27.3452 68.5907C27.2354 68.6078 27.122 68.6444 27.026 68.702C26.9602 68.7412 26.8923 68.8256 26.8779 68.9021C26.8514 69.0362 26.9459 69.1175 27.0509 69.1777C27.2348 69.2816 27.4328 69.2835 27.6309 69.2696C30.5389 69.0655 33.3001 69.7427 35.9853 70.8784C36.0888 70.9224 36.1947 70.9662 36.3035 70.9897C36.3496 71.0003 36.4056 70.9572 36.4639 70.9363V70.9363Z" fill="#FCE78D"/>
<path d="M34.8477 68.0981C34.664 67.7427 34.3697 67.6176 34.096 67.4802C32.0189 66.4379 29.8126 66.1542 27.5512 66.2266C27.1558 66.2397 26.7648 66.3446 26.4003 66.5218C26.2241 66.607 26.014 66.7184 26.0578 66.9746C26.0963 67.1965 26.3156 67.185 26.4759 67.2037C26.7005 67.229 26.9297 67.2403 27.1543 67.2249C29.6071 67.0534 32.0189 67.238 34.3547 68.1386C34.4816 68.1875 34.6269 68.2331 34.8477 68.0981Z" fill="#FCE78D"/>
<path d="M23.5177 58.2083C23.8253 58.4522 24.1421 58.4473 24.4462 58.4132C26.5535 58.1774 28.61 58.5464 30.6622 58.9822C30.9117 59.035 31.1627 59.0764 31.4145 59.1147C31.586 59.1414 31.7842 59.1488 31.828 58.923C31.8719 58.6937 31.6661 58.6351 31.515 58.5692C31.1747 58.422 30.8367 58.2634 30.4867 58.1489C28.4323 57.4767 26.3364 57.3124 24.2049 57.5636C23.8504 57.605 23.641 57.7871 23.5177 58.2083V58.2083Z" fill="#FCE78D"/>
<path d="M34.46 65.6177C34.1393 65.2079 33.8035 65.1169 33.489 65.0038C31.3348 64.2341 29.127 63.7812 26.8519 63.7446C26.4564 63.7381 26.0619 63.7632 25.6761 63.8755C25.4259 63.9478 25.1197 64.0347 25.1499 64.3534C25.1816 64.6924 25.5061 64.6933 25.7571 64.6625C26.833 64.5274 27.8952 64.7348 28.9645 64.7867C30.4676 64.86 31.9262 65.1957 33.3862 65.5405C33.7075 65.6161 34.0236 65.7209 34.46 65.6177Z" fill="#FCE78D"/>
<path d="M32.8125 62.0397C32.6968 61.7349 32.4117 61.639 32.1691 61.5341C29.9295 60.5667 27.6143 60.0853 25.1933 60.3471C24.8741 60.3812 24.4009 60.3268 24.4362 60.8456C24.4733 61.3943 24.9453 61.1869 25.2498 61.182C27.6383 61.1398 30.0005 61.3309 32.3067 62.0568C32.458 62.104 32.6196 62.234 32.8125 62.0397V62.0397Z" fill="#FCE78D"/>
<path d="M23.9708 54.3239C23.6026 54.3442 23.3765 54.3499 23.1512 54.3734C23.0029 54.3889 22.8623 54.476 22.842 54.6352C22.8184 54.8198 22.8842 55.0002 23.0672 55.0807C23.3341 55.1971 23.6191 55.1938 23.9012 55.2164C25.7309 55.3627 27.5737 55.3833 29.3754 55.8239C29.7603 55.9181 30.1429 56.0262 30.5285 56.1172C30.6382 56.1426 30.7675 56.1204 30.8144 55.9953C30.862 55.8693 30.7872 55.766 30.6873 55.6921C30.4286 55.5019 30.1519 55.3531 29.851 55.2572C27.8852 54.6336 25.8717 54.3702 23.9708 54.3239V54.3239Z" fill="#FCE78D"/>
<path d="M29.8096 53.3117C29.625 52.819 29.2887 52.6695 28.9492 52.5427C26.9386 51.7889 24.8624 51.6361 22.7551 51.7783C22.5223 51.7938 22.269 51.8207 22.275 52.1507C22.2804 52.4556 22.5071 52.536 22.7527 52.5475C23.2896 52.572 23.8257 52.61 24.3626 52.6141C25.8959 52.627 27.4082 52.8287 28.9083 53.1548C29.2062 53.2191 29.5087 53.2596 29.8096 53.3117V53.3117Z" fill="#FCE78D"/>
<path d="M20.8983 43.1519C21.1394 43.4096 21.4161 43.4308 21.693 43.4349C23.4773 43.46 25.2436 43.6877 27.0075 43.9553C27.2851 43.9974 27.5693 43.9933 27.8507 43.9942C27.9255 43.9949 28.017 43.9592 28.0269 43.8389C28.0359 43.7382 28.0027 43.6575 27.9247 43.6154C27.7493 43.5186 27.574 43.4163 27.388 43.3478C25.5074 42.6569 23.5727 42.5406 21.6113 42.739C21.3344 42.7675 21.0592 42.8348 20.8983 43.1519V43.1519Z" fill="#FCE78D"/>
<path d="M28.7993 50.9151C28.9678 50.902 29.0874 50.9013 29.1275 50.7581C29.1676 50.6183 29.0829 50.5127 28.9935 50.4517C28.8523 50.3565 28.6941 50.2786 28.5338 50.2256C26.5673 49.5843 24.5552 49.4093 22.5137 49.5981C22.2475 49.6225 21.7954 49.6013 21.8053 49.9274C21.8188 50.3761 22.2968 50.2085 22.5598 50.2249C24.1636 50.3217 25.7711 50.351 27.3612 50.6289C27.8601 50.7167 28.357 50.8264 28.7993 50.9151V50.9151Z" fill="#FCE78D"/>
<path d="M49.46 52.9387C49.0388 53.002 48.8755 53.2198 48.7062 53.4125C47.0858 55.254 45.6901 57.2619 44.7623 59.6132C44.5966 60.0326 44.4386 60.4552 44.4114 60.9163C44.4069 60.9968 44.4446 61.1196 44.4999 61.156C44.6034 61.2235 44.7282 61.1781 44.7903 61.0634C44.9453 60.7748 45.1041 60.487 45.2304 60.1837C46.2602 57.7009 47.6197 55.4409 49.2158 53.3401C49.2846 53.2491 49.3361 53.1435 49.46 52.9387V52.9387Z" fill="#FCE78D"/>
<path d="M28.3633 48.3453C27.0891 47.094 22.5684 46.8029 21.363 47.7761C21.4342 47.8745 21.5144 47.9559 21.64 47.9575C23.8849 47.9851 26.1265 48.0997 28.3633 48.3453Z" fill="#FCE78D"/>
<path d="M20.2318 37.4555C20.7423 37.7465 21.2003 37.7237 21.6343 37.7302C23.4883 37.7587 25.2645 38.2123 27.0194 38.8018C27.2342 38.8741 27.448 38.9506 27.6667 39.0108C27.783 39.0424 27.8889 39.0002 27.9374 38.8661C27.9888 38.7229 27.9056 38.6172 27.8118 38.5644C27.4618 38.3685 27.1109 38.1708 26.7465 38.0115C24.9878 37.2409 23.1338 37.1052 21.2646 37.0898C20.9275 37.0863 20.5886 37.1393 20.2318 37.4555V37.4555Z" fill="#FCE78D"/>
<path d="M21.5873 121.171C21.4255 122.936 22.9573 126.464 24.0566 126.974C24.1021 125.804 22.5771 122.155 21.5873 121.171Z" fill="#FCE78D"/>
<path d="M20.6447 40.0406C23.2079 40.422 25.737 41.0357 28.4258 41.3431C27.5457 40.2162 22.2038 39.3449 20.6447 40.0406Z" fill="#FCE78D"/>
<path d="M21.0612 45.4103C21.1922 45.6454 21.3765 45.6064 21.5392 45.6023C23.4098 45.5599 25.2614 45.7998 27.1148 46.0275C27.3649 46.0583 27.6221 46.0436 27.8746 46.0339C27.9541 46.0307 28.0334 45.9811 28.0469 45.8689C28.0591 45.7641 28.013 45.6885 27.9335 45.6544C27.7256 45.5633 27.5177 45.4624 27.3008 45.4064C25.5555 44.9543 23.7877 44.8112 22.0004 44.9967C21.6564 45.0324 21.2723 45.025 21.0612 45.4103V45.4103Z" fill="#FCE78D"/>
<path d="M27.8242 36.0539C26.6008 34.8288 21.6952 34.0321 20.462 34.8532C22.8663 35.1961 25.2057 35.5547 27.5066 36.1458C27.5769 36.1636 27.6645 36.1018 27.8242 36.0539Z" fill="#FCE78D"/>
<path d="M21.1473 25.3161C23.3431 25.6171 25.4913 26.0536 27.6318 26.8843C27.3785 26.2266 27.0767 25.9664 26.252 25.6145C24.3729 24.8112 22.2943 24.6584 21.1473 25.3161V25.3161Z" fill="#FCE78D"/>
<path d="M41.2364 71.6905C41.2923 72.1581 41.6151 72.1913 41.8678 72.262C43.417 72.6987 44.9359 72.5328 46.4255 71.9459C46.5314 71.9044 46.6396 71.8581 46.7288 71.7882C46.8482 71.6947 46.9155 71.5499 46.8604 71.393C46.8066 71.2409 46.6827 71.1508 46.526 71.1769C46.2487 71.2239 45.9703 71.2718 45.699 71.3483C44.4029 71.7127 43.0933 71.8239 41.7634 71.6207C41.653 71.6036 41.5388 71.6076 41.4269 71.6149C41.374 71.6191 41.3234 71.6548 41.2364 71.6905V71.6905Z" fill="#FCE78D"/>
<path d="M43.6089 70.3866C44.2077 70.3564 44.7907 70.2403 45.3525 70.0175C45.537 69.9444 45.7108 69.8396 45.884 69.737C46.0156 69.6589 46.1078 69.5264 46.0709 69.3646C46.0323 69.198 45.8948 69.1394 45.7381 69.1558C45.5975 69.1696 45.4545 69.1768 45.3169 69.2102C43.8683 69.563 42.4067 69.6402 40.9315 69.4566C40.7917 69.4386 40.6494 69.4411 40.5082 69.4379C40.4188 69.4353 40.329 69.472 40.3206 69.5672C40.3131 69.6467 40.3485 69.7435 40.3939 69.811C40.5005 69.9721 40.679 69.9946 40.8423 70.041C41.7496 70.2972 42.6676 70.4574 43.6089 70.3866V70.3866Z" fill="#FCE78D"/>
<path d="M20.5544 30.286C22.8274 30.5321 24.9724 30.8144 27.1523 31.5387C26.3893 30.0078 22.5522 29.3119 20.5544 30.286Z" fill="#FCE78D"/>
<path d="M20.793 27.8739C23.0167 28.299 25.1626 28.6892 27.3477 29.3907C26.5765 28.0575 22.4157 27.1251 20.793 27.8739Z" fill="#FCE78D"/>
<path d="M43.4366 67.824C43.7899 67.8037 44.1294 67.7883 44.468 67.7632C44.6534 67.7493 44.8152 67.6484 44.8174 67.4419C44.8197 67.1933 44.6472 67.0778 44.4258 67.0573C44.3698 67.0518 44.3115 67.0525 44.2562 67.0615C42.7971 67.2924 41.3838 66.9338 39.9632 66.6752C39.6979 66.6273 39.2857 66.4266 39.21 66.7404C39.1012 67.1972 39.607 67.1753 39.8672 67.2467C41.0421 67.5664 42.2036 68.016 43.4366 67.824V67.824Z" fill="#FCE78D"/>
<path d="M10.9428 51.437C10.7923 51.6972 10.914 51.8484 11.0403 51.9597C11.946 52.7563 12.3998 53.8784 12.9245 54.9514C13.0818 55.2726 13.2179 55.6148 13.5104 55.8294C13.7357 55.9937 13.8954 55.9017 13.9391 55.6376C13.9672 55.4653 13.9627 55.2645 13.9082 55.1009C13.5044 53.889 13.0355 52.7232 11.8886 52.0793C11.559 51.8938 11.3442 51.4866 10.9428 51.437V51.437Z" fill="#FCE78D"/>
<path d="M28.1045 24.1943C26.9998 22.7699 23.4167 21.9668 21.6058 22.7007C23.8878 22.8561 25.8572 23.6926 28.1045 24.1943Z" fill="#FCE78D"/>
<path d="M20.6704 32.7085C23.0559 33.0654 25.2631 33.3777 27.5654 34.0483C26.5416 32.7712 22.5893 32.0176 20.6704 32.7085Z" fill="#FCE78D"/>
<path d="M22.8406 16.8425C24.9231 17.1792 26.8306 17.7498 28.7626 18.4001C28.8442 17.9872 28.6929 17.8035 28.4934 17.7067C26.771 16.8766 25.0054 16.2726 23.0781 16.6254C23.0365 16.6328 23.0033 16.6913 22.8406 16.8425Z" fill="#FCE78D"/>
<path d="M42.3144 73.9742C42.3015 74.3416 42.5579 74.4068 42.8058 74.4702C44.3882 74.8783 45.9451 74.8043 47.4703 74.1701C47.6298 74.1042 47.8113 74.0263 47.7832 73.8035C47.747 73.5214 47.5284 73.5166 47.3259 73.5426C47.158 73.5636 46.9878 73.5945 46.8282 73.6507C45.5353 74.1091 44.2189 74.1074 42.8882 73.918C42.703 73.8922 42.4981 73.8108 42.3144 73.9742V73.9742Z" fill="#FCE78D"/>
<path d="M22.6 19.7344C22.6122 19.8441 22.687 19.8814 22.7726 19.8904C24.4405 20.0718 26.0488 20.5295 27.6357 21.0927C27.8203 21.1579 28.0993 21.4026 28.2331 21.1017C28.3497 20.8367 28.0577 20.6813 27.8732 20.5659C27.5821 20.3831 27.2774 20.2098 26.9591 20.0937C25.6564 19.619 24.3119 19.4782 22.9434 19.5742C22.833 19.5823 22.7248 19.6254 22.6167 19.6586C22.6054 19.6621 22.6054 19.7084 22.6 19.7344V19.7344Z" fill="#FCE78D"/>
<path d="M36.002 57.5066C36.02 57.5668 36.0208 57.6506 36.057 57.6758C37.3184 58.5432 38.6558 59.1504 40.1953 59.04C40.3351 59.0301 40.4819 59.0107 40.6096 58.9554C40.708 58.913 40.7873 58.8123 40.7927 58.675C40.7987 58.5303 40.711 58.4441 40.6111 58.3943C40.5112 58.3441 40.3942 58.327 40.283 58.3139C39.0127 58.162 37.7704 57.8781 36.5494 57.4716C36.377 57.4147 36.1736 57.3204 36.002 57.5066V57.5066Z" fill="#FCE78D"/>
<path d="M42.3807 65.107C42.5697 65.1079 42.6265 65.1096 42.6831 65.1079C42.9409 65.1015 43.2744 65.0884 43.2744 64.7584C43.2751 64.4242 42.9221 64.4339 42.6816 64.4161C41.2994 64.3129 39.9332 64.1096 38.6009 63.6845C38.4957 63.651 38.3748 63.6195 38.2734 63.6446C38.1639 63.6713 38.0793 63.7746 38.1661 63.9161C38.2977 64.1315 38.5116 64.2145 38.7212 64.3081C39.9362 64.8462 41.1958 65.1363 42.3807 65.107V65.107Z" fill="#FCE78D"/>
<path d="M30.1123 13.0581C29.174 11.8851 26.2835 11.2656 24.3243 11.7159C24.4741 12.1225 24.8235 12.0542 25.0903 12.089C26.2638 12.2437 27.4313 12.4312 28.5829 12.7216C29.0372 12.8361 29.4781 13.0378 30.1123 13.0581V13.0581Z" fill="#FCE78D"/>
<path d="M39.6066 56.1629C39.7479 56.1546 39.8349 56.1587 39.9174 56.1426C40.0987 56.1067 40.3596 56.1629 40.3544 55.8499C40.3506 55.6262 40.1577 55.584 39.9839 55.5554C39.788 55.5238 39.5938 55.4734 39.397 55.4547C38.377 55.3611 37.3875 55.1173 36.4165 54.7735C36.2026 54.697 35.987 54.6207 35.7671 54.5638C35.6302 54.5279 35.4456 54.5108 35.3828 54.6587C35.3074 54.8385 35.3965 55.027 35.5697 55.1093C35.9577 55.2939 36.3477 55.4734 36.7462 55.6271C37.6884 55.9905 38.6704 56.1099 39.6066 56.1629V56.1629Z" fill="#FCE78D"/>
<path d="M29.2256 15.711C28.3258 14.458 25.2871 13.7891 23.5375 14.4696C25.5404 14.8353 27.392 15.1849 29.2256 15.711Z" fill="#FCE78D"/>
<path d="M36.8906 60.7569C37.1075 61.1138 37.3986 61.1659 37.6543 61.2625C38.8618 61.7211 40.1056 61.9861 41.3879 62.0252C41.4726 62.0285 41.5581 62.0317 41.6428 62.0227C41.8854 61.996 42.215 62.0504 42.2069 61.6561C42.1985 61.2634 41.8772 61.3178 41.6275 61.3171C40.3195 61.3106 39.0395 61.0772 37.7685 60.7684C37.4993 60.7032 37.2271 60.5773 36.8906 60.7569V60.7569Z" fill="#FCE78D"/>
<path d="M30.6367 10.6771C30.5195 10.2551 30.1725 10.0933 29.842 9.96405C28.4795 9.4324 27.0572 9.25265 25.6169 9.20541C25.4506 9.19988 25.232 9.20542 25.2206 9.43726C25.2092 9.65756 25.4171 9.69237 25.585 9.72417C26.0561 9.81197 26.5257 9.91519 26.9998 9.98432C28.0598 10.1396 29.1154 10.3153 30.1324 10.6916C30.2829 10.7469 30.4483 10.8444 30.6367 10.6771V10.6771Z" fill="#FCE78D"/>
<path d="M33.7343 48.6866C33.6663 48.8136 33.7094 48.9307 33.7971 49.0069C34.8458 49.9297 36.0192 50.542 37.3955 50.5954C37.6865 50.607 38.1462 50.6883 38.1908 50.2947C38.2399 49.8605 37.7628 49.929 37.4906 49.8589C36.2869 49.5492 35.0758 49.2704 33.9619 48.659C33.8832 48.6159 33.8031 48.612 33.7343 48.6866V48.6866Z" fill="#FCE78D"/>
<path d="M46.2061 54.5979C45.9051 54.6002 45.7759 54.8173 45.6254 54.9726C44.7128 55.9149 44.0799 57.0579 43.6082 58.3099C43.4688 58.6789 43.4108 59.0709 43.4305 59.4707C43.4371 59.6147 43.4273 59.7984 43.6148 59.8235C43.7903 59.8463 43.8523 59.6749 43.9022 59.5431C44.0512 59.1497 44.1676 58.7416 44.3204 58.3496C44.749 57.2554 45.2504 56.2018 45.8818 55.2247C46.0027 55.0369 46.1668 54.8693 46.2061 54.5979V54.5979Z" fill="#FCE78D"/>
<path d="M27.0412 6.85347C27.0161 6.85854 26.8989 6.86014 26.8029 6.90876C26.6737 6.97467 26.6805 7.11848 26.7652 7.20628C26.84 7.28532 26.9572 7.34226 27.0622 7.35839C28.4037 7.56487 29.7034 7.96332 31.0085 8.3348C31.1658 8.37951 31.3722 8.49657 31.4667 8.29492C31.5733 8.06494 31.3872 7.8884 31.2209 7.78355C30.9798 7.63237 30.7226 7.49666 30.4572 7.40724C29.3744 7.04544 28.2593 6.88781 27.0412 6.85347V6.85347Z" fill="#FCE78D"/>
<path d="M34.4471 51.741C34.4062 52.0507 34.6541 52.1427 34.8228 52.2646C35.9601 53.0841 37.2409 53.3896 38.5882 53.4417C38.6994 53.4459 38.8152 53.4327 38.9223 53.4035C39.0616 53.3654 39.2007 53.2825 39.2121 53.1182C39.225 52.9345 39.0805 52.8727 38.9337 52.8451C38.8227 52.8248 38.7114 52.8052 38.5989 52.7946C37.3241 52.6769 36.0968 52.3604 34.9263 51.7972C34.7797 51.7256 34.6269 51.6053 34.4471 51.741V51.741Z" fill="#FCE78D"/>
<path d="M33.1457 45.4778C33.201 45.9056 33.4308 46.0835 33.6637 46.2356C34.5393 46.8103 35.4875 47.1859 36.5036 47.3419C36.7237 47.3754 36.9544 47.3445 37.1773 47.3201C37.3436 47.3021 37.5335 47.2657 37.5176 47.0177C37.5054 46.8347 37.3543 46.8006 37.2143 46.7614C36.2882 46.5022 35.3597 46.2503 34.4388 45.9712C34.0167 45.8429 33.6099 45.6567 33.1457 45.4778V45.4778Z" fill="#FCE78D"/>
<path d="M43.3789 76.3456C43.5242 76.6797 43.7812 76.6627 43.9837 76.7106C45.2163 76.9984 46.4541 76.9116 47.691 76.7311C47.7191 76.727 47.7484 76.7244 47.7742 76.7131C48.0155 76.6025 48.4139 76.6196 48.3239 76.1838C48.2309 75.7335 47.8914 75.9245 47.6276 75.9838C46.4314 76.2555 45.2283 76.3954 44.0049 76.2587C43.8114 76.2375 43.6089 76.2237 43.3789 76.3456V76.3456Z" fill="#FCE78D"/>
<path d="M32.8241 42.9072C32.8415 43.1552 33.0275 43.2584 33.19 43.3658C34.1965 44.0309 35.2898 44.3738 36.474 44.36C36.6116 44.3583 36.7543 44.3332 36.8844 44.2844C36.9517 44.2602 37.0274 44.1689 37.0439 44.0933C37.0704 43.9698 37.0055 43.8553 36.8958 43.8006C36.7959 43.7504 36.687 43.7057 36.579 43.6926C35.4017 43.552 34.2464 43.3114 33.1349 42.8576C33.026 42.8129 32.9178 42.8097 32.8241 42.9072V42.9072Z" fill="#FCE78D"/>
<path d="M32.3615 39.7017C32.4099 40.1944 32.7366 40.3449 33.0246 40.5156C33.9486 41.0618 34.9369 41.4001 35.9923 41.4902C36.1035 41.4992 36.2177 41.4976 36.3288 41.4863C36.446 41.4741 36.551 41.4204 36.5632 41.2766C36.5746 41.1441 36.5064 41.0293 36.3976 40.9919C35.9689 40.8447 35.5394 40.6977 35.1032 40.5822C34.1822 40.34 33.2469 40.1538 32.3615 39.7017V39.7017Z" fill="#FCE78D"/>
<path d="M18.1033 63.4748C18.0821 63.726 18.2833 63.8202 18.4383 63.9292C19.2783 64.521 20.2258 64.777 21.2057 64.9201C21.3999 64.9485 21.6254 64.969 21.6987 64.7127C21.775 64.4477 21.583 64.329 21.3864 64.2689C20.3641 63.9569 19.3396 63.652 18.3142 63.3503C18.2325 63.3259 18.1539 63.3697 18.1033 63.4748V63.4748Z" fill="#FCE78D"/>
<path d="M18.6565 66.1469C18.67 66.3266 18.7888 66.4063 18.9075 66.4884C19.4103 66.838 19.9562 67.0769 20.5401 67.2136C21.0079 67.3233 21.4799 67.4111 21.9486 67.5153C22.1808 67.5664 22.4439 67.6127 22.505 67.3005C22.5672 66.9859 22.2806 66.9216 22.0719 66.8525C21.8042 66.7624 21.526 66.7103 21.2553 66.6299C20.5227 66.4119 19.7914 66.186 19.0588 65.9689C18.8878 65.9178 18.7223 65.9201 18.6565 66.1469V66.1469Z" fill="#FCE78D"/>
<path d="M24.2158 70.8141C23.5784 70.4931 22.879 70.6565 22.2174 70.5304C21.8022 70.4507 21.3721 70.4654 20.9486 70.4362C20.7278 70.4207 20.5373 70.4947 20.4843 70.7353C20.423 71.0118 20.6309 71.0946 20.8268 71.1556C21.4604 71.354 22.1055 71.393 22.7603 71.3232C23.1815 71.2785 23.6108 71.2946 24.0124 71.1158C24.1264 71.0653 24.1742 70.9556 24.2158 70.8141V70.8141Z" fill="#FCE78D"/>
<path d="M32.3403 36.8798C32.3048 36.9692 32.3116 37.057 32.3841 37.1156C33.4321 37.9668 34.5784 38.575 35.8993 38.7448C36.0369 38.7628 36.1798 38.758 36.3181 38.7441C36.4383 38.731 36.5283 38.6464 36.5526 38.5188C36.5774 38.3856 36.5086 38.292 36.3931 38.2448C36.3408 38.2238 36.2849 38.21 36.2304 38.1968C34.9382 37.8855 33.7013 37.4002 32.4878 36.836C32.4514 36.819 32.3903 36.8637 32.3403 36.8798V36.8798Z" fill="#FCE78D"/>
<path d="M20.2256 61.9992C20.4155 61.9951 20.5137 61.9391 20.569 61.8243C20.6423 61.6715 20.6067 61.5268 20.4971 61.4123C20.4388 61.3512 20.3611 61.3065 20.286 61.2682C19.4219 60.8212 18.5568 60.3757 17.6911 59.9326C17.5655 59.8683 17.4234 59.783 17.3139 59.9455C17.2383 60.0577 17.2918 60.178 17.375 60.2667C18.1736 61.1203 19.1505 61.6374 20.2097 61.9983C20.2346 62.0073 20.2657 61.9967 20.2256 61.9992V61.9992Z" fill="#FCE78D"/>
<path d="M22.7065 69.7119C22.7624 69.711 22.819 69.7151 22.8743 69.7103C23.1489 69.6875 23.5366 69.7094 23.5495 69.3558C23.5632 68.9565 23.1525 69.0298 22.894 68.9931C22.0888 68.8777 21.2812 68.7776 20.4751 68.6728C20.3375 68.655 20.1834 68.6191 20.1168 68.7989C20.054 68.9703 20.1691 69.0858 20.2771 69.1777C20.5954 69.4469 20.9734 69.572 21.3635 69.6264C21.8083 69.6874 22.2573 69.7013 22.705 69.7354C22.705 69.728 22.7056 69.7199 22.7065 69.7119Z" fill="#FCE78D"/>
<path d="M45.5068 78.7577C45.6838 79.2552 45.9644 79.269 46.1912 79.3407C47.0463 79.6105 47.9144 79.5626 48.7824 79.4031C48.9796 79.3674 49.1626 79.3015 49.2942 79.1227C49.4659 78.8885 49.3872 78.6512 49.1105 78.5869C49.0561 78.5749 48.9978 78.565 48.9434 78.574C47.8387 78.7528 46.7266 78.8245 45.5068 78.7577V78.7577Z" fill="#FCE78D"/>
<path d="M19.3849 58.3456C19.5677 58.3415 19.7334 58.2797 19.7726 58.0732C19.8037 57.9131 19.7038 57.7748 19.5632 57.7211C18.6129 57.3563 17.6602 56.9984 16.7066 56.644C16.5971 56.6034 16.4754 56.6228 16.4179 56.7498C16.3219 56.9579 16.4398 57.0904 16.5864 57.1969C17.3886 57.7757 18.25 58.1961 19.2177 58.3318C19.273 58.3392 19.329 58.3415 19.3849 58.3456Z" fill="#FCE78D"/>
<path d="M31.8165 5.9236C32.0032 5.89664 32.1628 5.92592 32.2006 5.7252C32.2271 5.58532 32.1317 5.50073 32.0426 5.42998C31.7869 5.22765 31.4815 5.15369 31.182 5.0675C30.153 4.77068 29.105 4.96588 28.0661 4.94237C27.9581 4.93984 27.8286 4.97393 27.8211 5.12349C27.8113 5.33412 27.9686 5.34795 28.1101 5.35855C28.4472 5.38298 28.7852 5.40718 29.1232 5.42355C29.8301 5.45857 30.5228 5.58116 31.2056 5.78119C31.4225 5.84456 31.6448 5.88373 31.8165 5.9236V5.9236Z" fill="#FCE78D"/>
<path d="M26.1977 126.907C26.2734 128.099 26.7633 128.881 27.2548 129.655C27.387 129.864 27.6003 129.997 27.8423 129.837C28.0894 129.673 28.0472 129.409 27.9436 129.188C27.5497 128.348 27.0876 127.562 26.1977 126.907V126.907Z" fill="#FCE78D"/>
<path d="M29.3683 3.46356C29.2747 3.49191 29.1589 3.50574 29.0651 3.56105C28.9418 3.63249 28.951 3.76338 29.0387 3.85787C29.0923 3.9164 29.1853 3.9595 29.2633 3.96342C30.3127 4.01388 31.3177 4.30241 32.3179 4.61698C32.4502 4.65846 32.6105 4.70086 32.6787 4.51627C32.7436 4.33997 32.6051 4.2365 32.4963 4.1487C32.1953 3.90811 31.834 3.82928 31.481 3.72282C30.7943 3.51541 30.0799 3.60483 29.3683 3.46356V3.46356Z" fill="#FCE78D"/>
<path d="M15.7802 53.1986C15.738 53.4182 15.8855 53.5328 16.0132 53.6395C16.764 54.2695 17.638 54.5751 18.5629 54.741C18.7026 54.7652 18.8456 54.7481 18.9296 54.5937C19.0035 54.458 18.9189 54.358 18.8387 54.2824C18.5273 53.9872 16.2794 53.1979 15.7802 53.1986V53.1986Z" fill="#FCE78D"/>
<path d="M34.967 35.3579C35.1606 35.3296 35.3323 35.3611 35.3792 35.1807C35.4328 34.9694 35.3203 34.8385 35.1319 34.7783C34.2375 34.4947 33.3452 34.2052 32.5082 33.7491C32.4167 33.6996 32.2866 33.6491 32.2133 33.7971C32.1565 33.9116 32.1741 34.0296 32.2397 34.1386C32.2549 34.1637 32.2701 34.1923 32.292 34.2084C33.1283 34.797 34.0173 35.2386 34.967 35.3579V35.3579Z" fill="#FCE78D"/>
<path d="M15.1529 46.6559C14.9947 46.8495 15.041 47.003 15.1293 47.1194C15.6814 47.8462 16.4155 48.2801 17.2237 48.585C17.3864 48.6461 17.5755 48.6551 17.6655 48.455C17.7561 48.255 17.6314 48.0981 17.4908 47.9948C17.2835 47.8411 17.0619 47.7079 16.8381 47.5819C16.274 47.2657 15.7056 46.9583 15.1529 46.6559V46.6559Z" fill="#FCE78D"/>
<path d="M32.3165 27.039C32.3573 27.1146 32.3922 27.2429 32.4715 27.3146C33.0287 27.8193 33.6079 28.2917 34.3186 28.5265C34.5061 28.5885 34.7299 28.6542 34.8343 28.4079C34.9461 28.1454 34.8004 27.89 34.5955 27.8103C33.9066 27.5413 33.2904 27.1291 32.6477 26.7673C32.4548 26.6592 32.3315 26.765 32.3165 27.039Z" fill="#FCE78D"/>
<path d="M34.5574 31.5866C34.7608 31.5615 34.9136 31.5638 34.943 31.367C34.9636 31.2313 34.8855 31.1329 34.7835 31.0785C34.0561 30.689 33.3256 30.3063 32.5961 29.9226C32.5183 29.8827 32.4252 29.8631 32.3783 29.9557C32.3412 30.0281 32.3344 30.1249 32.3352 30.2102C32.3361 30.2655 32.3594 30.3404 32.3972 30.3719C33.0627 30.9347 33.7787 31.393 34.5574 31.5866Z" fill="#FCE78D"/>
<path d="M48.3051 81.4779C48.7595 81.4657 49.2117 81.4251 49.632 81.2145C49.7878 81.1366 49.9587 81.0537 49.9293 80.8308C49.8991 80.6031 49.7092 80.5455 49.5422 80.5732C48.8427 80.687 48.1456 80.8202 47.4499 80.9585C47.301 80.9877 47.1854 81.1138 47.2172 81.2795C47.248 81.4373 47.3871 81.5226 47.5423 81.5194C47.7963 81.5136 48.0511 81.4927 48.3051 81.4779Z" fill="#FCE78D"/>
<path d="M14.9725 43.7447C14.9893 44.2722 15.303 44.4439 15.5471 44.5844C15.9614 44.8234 16.4235 44.9739 16.8734 45.1341C17.0556 45.199 17.2824 45.2251 17.3748 44.9658C17.4684 44.704 17.2892 44.5665 17.0996 44.4966C16.4206 44.2464 15.7634 43.9194 14.9725 43.7447V43.7447Z" fill="#FCE78D"/>
<path d="M14.6312 37.4734C14.7302 38.2457 15.3012 38.4448 15.7676 38.7204C16.0897 38.9115 16.5782 39.4366 16.8338 38.9594C17.028 38.5978 16.3718 38.3872 16.0618 38.1862C15.615 37.8954 15.1106 37.706 14.6312 37.4734V37.4734Z" fill="#FCE78D"/>
<path d="M32.7254 23.1342C32.5735 23.4121 32.5992 23.6569 32.7754 23.8399C33.236 24.3178 33.7538 24.6739 34.4388 24.5635C34.5417 24.5462 34.6772 24.5667 34.696 24.3943C34.7119 24.2535 34.6416 24.165 34.5348 24.1072C33.9324 23.7813 33.3281 23.4578 32.7254 23.1342V23.1342Z" fill="#FCE78D"/>
<path d="M34.8502 18.1782C34.9638 18.1473 35.1361 18.1848 35.1768 17.9929C35.2169 17.8067 35.0709 17.7205 34.9501 17.658C34.5184 17.4336 34.0805 17.2246 33.6444 17.0116C33.5164 16.9489 33.3758 16.8743 33.2633 17.0238C33.1353 17.1937 33.1936 17.3654 33.3048 17.5172C33.5618 17.871 34.3626 18.2148 34.8502 18.1782Z" fill="#FCE78D"/>
<path d="M14.6296 34.1898C14.5561 34.3573 14.644 34.4873 14.7415 34.5831C15.2216 35.0539 15.7758 35.4003 16.3822 35.6457C16.5183 35.701 16.6711 35.6962 16.7519 35.5425C16.8336 35.3881 16.7528 35.262 16.64 35.1556C16.4139 34.941 15.0053 34.2621 14.6296 34.1898Z" fill="#FCE78D"/>
<path d="M32.9278 20.3343C32.9611 20.3886 33.011 20.496 33.0836 20.5813C33.2757 20.8035 33.5003 20.9887 33.7633 21.0927C34.0402 21.2017 34.4183 21.4628 34.599 21.1196C34.8099 20.718 34.3304 20.6359 34.1126 20.4603C33.8919 20.2806 33.6553 20.113 33.4043 19.9895C33.1584 19.8676 32.9015 20.0441 32.9278 20.3343V20.3343Z" fill="#FCE78D"/>
<path d="M14.9183 40.2383C14.8887 40.926 15.2312 41.1154 15.5013 41.348C15.8294 41.631 16.1839 41.8715 16.6104 41.9365C16.6777 41.9471 16.7759 41.8902 16.8252 41.8317C16.9098 41.7326 16.8931 41.5869 16.8078 41.5106C16.6164 41.339 16.4175 41.1666 16.1982 41.0456C15.8058 40.8292 15.3855 40.6723 14.9183 40.2383V40.2383Z" fill="#FCE78D"/>
<path d="M33.124 3.3488C32.4641 2.43023 31.5356 2.2514 30.5617 2.19356C31.4516 2.49429 32.1698 3.2285 33.124 3.3488Z" fill="#FCE78D"/>
<path d="M59.7593 47.9614C60.1403 47.8437 60.5274 47.6713 60.817 47.3185C60.913 47.2014 60.9426 47.0509 60.8601 46.9007C60.7769 46.747 60.6363 46.7048 60.4987 46.7486C60.0557 46.8917 59.6776 47.1461 59.4515 47.5948C59.3343 47.8282 59.4718 47.9974 59.7593 47.9614Z" fill="#FCE78D"/>
<path d="M14.9468 31.0126C15.2067 31.6793 15.6461 32.1459 16.257 32.4135C16.4068 32.4785 16.5905 32.5736 16.7146 32.3881C16.8459 32.1916 16.6978 32.0549 16.5626 31.9459C16.0741 31.5548 15.5645 31.202 14.9468 31.0126Z" fill="#FCE78D"/>
<path d="M15.9058 24.5185C16.0843 25.3081 16.6242 25.7593 17.2365 26.1349C17.3356 26.1957 17.4665 26.1665 17.5398 26.0552C17.6457 25.895 17.5548 25.7616 17.4468 25.6641C16.9742 25.2357 16.544 24.7446 15.9058 24.5185V24.5185Z" fill="#FCE78D"/>
<path d="M15.459 27.6381C15.6133 28.3965 16.1108 28.8275 16.7013 29.1616C16.7958 29.2151 16.9244 29.2331 17 29.1063C17.0718 28.9876 17.0105 28.8777 16.9426 28.7844C16.5607 28.255 16.0193 27.9502 15.459 27.6381V27.6381Z" fill="#FCE78D"/>
<path d="M16.6718 20.7253C16.8064 21.6439 17.2949 21.9716 17.8348 22.2424C17.9338 22.2926 18.0684 22.2894 18.1349 22.1617C18.1962 22.0456 18.1576 21.9244 18.0774 21.831C17.7152 21.4075 17.3078 21.0496 16.6718 20.7253Z" fill="#FCE78D"/>
<path d="M15.5934 50.3477C16.0295 50.8598 16.6224 51.1036 17.2068 51.3573C17.3127 51.4036 17.436 51.3785 17.4731 51.237C17.5071 51.1087 17.445 50.9882 17.34 50.9363C16.7911 50.6671 16.2376 50.4095 15.6855 50.1477C15.6547 50.2143 15.6244 50.2809 15.5934 50.3477V50.3477Z" fill="#FCE78D"/>
<path d="M33.743 13.8345C33.8784 14.6565 34.3759 14.9427 35.2529 14.7247C34.8826 14.1255 34.2844 14.0898 33.743 13.8345Z" fill="#FCE78D"/>
<path d="M17.5521 17.9083C17.5891 18.6149 17.9194 18.9221 18.2673 19.2131C18.3582 19.2887 18.4692 19.3132 18.5697 19.2212C18.6794 19.123 18.6423 18.9944 18.5885 18.897C18.3716 18.5027 18.0465 18.2351 17.5521 17.9083V17.9083Z" fill="#FCE78D"/>
<path d="M18.4426 15.4451C18.3654 16.0938 18.6708 16.3848 19.0322 16.6337C19.1231 16.6962 19.2401 16.7255 19.334 16.6215C19.4291 16.5158 19.3923 16.3897 19.337 16.2913C19.1366 15.9378 18.9278 15.5866 18.4426 15.4451Z" fill="#FCE78D"/>
<path d="M20.29 13.8833C20.2347 13.2728 20.0041 13.0216 19.6012 12.8004C19.5543 13.3729 19.8183 13.6183 20.29 13.8833Z" fill="#FCE78D"/>
<path d="M35.2236 12.2013C35.0172 11.8257 34.7995 11.6478 34.4675 11.6835C34.4297 11.6883 34.3564 11.8591 34.3798 11.9022C34.5575 12.2306 34.8419 12.2264 35.2236 12.2013Z" fill="#FCE78D"/>
<path d="M34.9708 9.40131C35.0145 9.68592 35.1991 9.80875 35.4395 9.8258C35.5816 9.8364 35.6232 9.6737 35.6127 9.56562C35.5855 9.29162 35.444 9.12179 35.1635 9.15336C35.0306 9.16811 34.9792 9.26812 34.9708 9.40131V9.40131Z" fill="#FCE78D"/>
<path d="M35.3705 7.66419C35.4959 7.62432 35.5563 7.51049 35.5285 7.39665C35.4839 7.2169 35.3681 7.08209 35.1686 7.13071C35.0514 7.15998 34.9688 7.26414 35.0053 7.38927C35.0565 7.56649 35.1707 7.69253 35.3705 7.66419V7.66419Z" fill="#FCE78D"/>
<path d="M20.3239 12.1058C20.3413 12.2728 20.4139 12.3843 20.5841 12.3827C20.6786 12.382 20.7421 12.3151 20.7474 12.2206C20.7558 12.0537 20.6793 11.9218 20.5243 11.8941C20.3972 11.8712 20.3233 11.9599 20.3239 12.1058Z" fill="#FCE78D"/>
<path d="M21.022 10.7532C21.0833 10.8924 21.1596 11.0104 21.3261 10.9949C21.4742 10.982 21.5038 10.8451 21.4946 10.7384C21.4802 10.5721 21.3707 10.4851 21.205 10.5135C21.0788 10.5347 21.0175 10.6146 21.022 10.7532V10.7532Z" fill="#FCE78D"/>
</svg>
