<svg width="84" height="112" viewBox="0 0 84 112" fill="none" xmlns="http://www.w3.org/2000/svg">
<path d="M-30.9762 59.7339C-31.2552 59.4661 -31.3131 59.2464 -31.3919 59.041C-32.6861 55.6443 -32.8222 52.2527 -31.9985 48.8709C-31.7469 47.8382 -31.3193 46.8841 -30.5583 46.1055C-29.6128 45.1382 -28.4621 44.5356 -26.9978 44.4954C-26.6934 44.4867 -26.3892 44.472 -26.0854 44.461C-24.9742 44.423 -23.9028 44.5705 -22.8183 44.962C-20.3341 45.8585 -18.2058 47.3027 -16.1133 48.8378C-14.285 50.18 -12.7666 51.8112 -11.1674 53.372C-8.63988 55.8386 -6.07117 58.2678 -3.35924 60.5559C-3.27001 60.6312 -3.19465 60.7276 -3.06399 60.7385C-2.99342 60.6518 -3.06422 60.5765 -3.10859 60.5091C-5.63327 56.6904 -7.81627 52.7183 -9.81801 48.655C-11.728 44.777 -13.4593 40.8493 -14.8481 36.8031C-15.7451 34.1894 -16.308 31.5283 -16.6248 28.8434C-16.955 26.0458 -16.9347 23.2545 -16.5453 20.4992C-16.3417 19.0556 -15.8853 17.691 -15.3173 16.3561C-14.8117 15.168 -14.1524 14.0537 -13.668 12.8582C-13.5202 12.4946 -13.3952 12.1193 -13.2906 11.7401C-12.9066 10.3558 -12.1817 9.22893 -10.7718 8.60694C-10.0988 7.75751 -8.94043 7.90079 -8.02355 7.54875C-7.66574 7.41091 -7.26638 7.48319 -6.94591 7.72636C-6.17232 8.31251 -5.28225 8.49559 -4.35883 8.61353C-3.86709 8.67653 -3.38023 8.79228 -2.89037 8.88339C-2.59727 8.93793 -2.29483 9.04614 -2.20444 9.32395C-2.00959 9.92394 -1.52232 10.3586 -1.20824 10.8913C-0.70213 11.75 -0.161754 12.6006 0.148398 13.522C0.693385 15.141 1.60384 16.5835 2.60786 17.983C4.92535 21.2114 6.78761 24.6443 8.44916 28.1791C10.0579 31.6011 11.6933 35.0145 13.5516 38.3386C14.7437 40.4708 15.882 42.6275 17.3161 44.6433C18.6037 46.4547 20.1112 48.088 21.7734 49.6012C22.6273 50.378 23.466 51.1696 24.465 51.7935C25.7974 52.6264 27.233 53.1385 28.766 53.4134C29.254 53.5006 34.0801 54.4814 37.5987 52.8124C39.1375 51.9082 40.2813 50.6489 41.284 49.2369C42.6398 47.3279 43.6397 45.2418 44.6091 43.1346C45.8518 40.4317 47.1064 37.7347 48.3475 35.031C48.9472 33.7251 49.819 32.5987 50.7781 31.5299C51.0302 31.2493 51.3534 31.0404 51.7566 30.9638C52.4667 30.829 52.9366 31.1569 52.9459 31.8504C52.9537 32.4687 52.9634 33.0919 52.8329 33.6977C52.393 35.7346 51.959 37.773 51.5173 39.8096C51.415 40.2806 51.2799 40.7364 50.9716 41.1293C50.8109 41.334 50.7124 41.5852 50.5991 41.8222C48.9471 45.282 46.5724 48.224 43.6687 50.7905C43.2406 51.1692 39.4018 55.1469 31.3591 55.1013C30.3203 55.0899 29.2959 54.8923 28.2949 54.5493C27.6877 54.341 27.0767 54.1326 26.4568 53.9718C24.4901 53.4634 22.6482 52.6191 20.7678 51.8717C18.7205 51.0584 16.9012 49.7976 14.8672 48.9875C13.6093 48.4869 12.6586 47.6577 11.6792 46.8206C11.4506 46.6248 9.7152 45.0338 9.37963 44.9051C9.44143 45.5041 10.4195 46.9662 10.6292 47.5131C11.25 49.1289 11.9715 50.1568 13.1989 52.8131C13.9721 55.4883 14.5372 58.1953 14.9225 60.9227C15.0873 62.0912 14.9389 63.2375 14.6044 64.3255C14.3415 65.1827 13.201 67.2972 11.0131 67.27C9.18828 67.3444 7.41077 67.0239 5.63927 66.4693C3.22922 65.7152 0.98524 64.6216 -1.12203 63.2711C-3.04531 62.0381 -4.77631 60.5644 -6.46642 59.0489C-9.52481 56.3056 -12.4245 53.4152 -15.37 50.5667C-16.4543 49.5179 -17.5507 48.4745 -18.8509 47.6641C-21.0364 46.3007 -23.341 45.2636 -25.9478 45.0945C-26.9299 45.0312 -27.8778 45.1618 -28.7668 45.4606C-29.8587 45.8286 -30.5529 46.6399 -30.9744 47.6306C-31.6755 49.2798 -31.9231 51.05 -31.941 52.8472C-31.9635 55.1122 -31.7209 57.3736 -30.9762 59.7339V59.7339Z" fill="#FFD100"/>
<path d="M5.76668 87.429C2.09396 85.3929 -1.13189 82.8244 -4.03616 79.874C-4.23241 79.6743 -4.41997 79.458 -4.56891 79.2266C-4.87532 78.7493 -4.79059 78.494 -4.28978 78.2809C-4.16473 78.2276 -4.03409 78.1834 -3.90238 78.1437C-2.91297 77.8457 -1.97435 77.44 -1.01155 77.0859C1.24821 76.2543 3.3135 75.1095 5.35453 73.9211C6.03047 73.5272 6.57663 73.604 7.11987 74.2241C7.73764 74.9279 8.33759 75.6465 8.92849 76.3704C10.8942 78.7773 12.8551 81.1888 14.4487 83.8296C15.0573 84.8379 15.6968 85.8337 16.0533 86.9471C16.2454 87.547 16.2505 88.1331 16.0869 88.7172C15.9714 89.128 15.714 89.3717 15.2809 89.5168C13.6796 90.0528 11.3592 89.8694 10.1224 89.4023C8.62578 88.8364 7.15933 88.2209 5.76668 87.429V87.429Z" fill="#FFD100"/>
<path d="M19.0149 51.1495C20.6389 51.8078 25.4509 54.1366 29.1049 54.2462C31.6553 54.3221 34.0842 53.9605 36.3711 53.0009C37.6503 52.4639 42.0583 51.3911 47.3307 44.5342C48.0937 43.5408 49.5976 39.7257 49.7852 39.4963C49.9004 40.022 49.1567 43.4355 48.8119 44.0732C47.8852 45.7851 47.0026 47.5215 45.8588 49.1145C44.8193 50.5619 43.6275 51.8863 42.4158 53.1993C40.529 55.2439 38.4934 57.1465 36.2656 58.86C34.5324 60.1933 32.6873 61.3818 30.6473 62.2966C30.086 62.5482 29.5072 62.7542 28.8757 62.8306C28.4687 62.8802 28.0669 62.9788 27.5026 62.7198C28.0441 63.4088 28.6247 63.8229 29.1404 64.2892C31.748 66.651 34.4984 68.8579 37.2665 71.0455C39.1697 72.5493 44.1604 76.1283 49.0889 78.3578C50.6802 79.0772 52.1404 80.0194 53.7738 80.6264C56.0346 81.4662 58.2146 82.4832 60.357 83.5803C61.1278 83.9747 61.7807 84.5076 62.299 85.1974C63.113 86.2808 63.2824 87.4138 63.0136 88.6417C62.5457 90.7797 61.0978 92.0921 59.0772 92.8919C57.6976 93.4372 56.1998 93.6855 54.7215 93.9677C54.517 94.0069 54.3079 94.0296 54.104 94.0704C51.5837 94.58 49.1 94.0539 46.4913 93.8146C41.4887 93.3553 35.4894 91.4371 34.2169 91.0332C30.9039 89.9804 27.7913 88.531 24.8568 86.6698C24.2286 86.2795 23.5825 85.5552 22.9296 85.2996C22.6291 85.7317 22.2877 86.1346 21.9743 86.5599C20.8884 88.0311 19.4527 89.1096 17.6585 89.7104C16.6701 90.0411 15.6097 90.2441 14.5122 90.204C14.3763 90.1996 14.2282 90.2089 14.0743 90.0424C14.3473 89.8308 14.7018 89.8495 15.0123 89.786C15.8844 89.6065 16.191 89.1372 16.2531 88.2784C16.3255 87.275 16.0245 86.4065 15.4256 85.5653C15.1572 85.1885 14.9487 84.7731 14.7387 84.3648C13.4379 81.8333 11.6753 79.5712 9.88062 77.3269C9.09399 76.3425 8.2381 75.4118 7.41017 74.4603C7.06776 74.0667 6.8392 73.6371 7.06675 73.0819C6.61727 73.2592 6.26644 73.4581 5.96138 73.7152C4.14129 75.2498 2.01628 76.339 -0.220019 77.2632C-1.69496 77.8721 -3.22782 78.3375 -4.81794 78.6721C-5.46613 78.8087 -6.12086 78.6785 -6.76718 78.7648C-8.50314 78.9979 -10.267 78.9922 -12.0331 78.7892C-14.1229 78.5495 -16.0905 77.9252 -17.9344 76.8242C-20.4796 75.3038 -22.6694 73.4112 -24.5804 71.2373C-27.2293 68.2241 -29.7183 65.1006 -31.6576 61.6411C-32.3244 60.4521 -34.1557 55.9751 -33.7053 51.0717C-33.5073 48.9123 -33.0546 46.9197 -32.0947 45.0281C-31.9562 44.7552 -31.7084 44.6234 -31.4444 44.4866C-27.3737 42.3745 -20.4868 46.8401 -13.694 53.1723C-13.0335 53.7879 -9.51447 57.1958 -8.79922 57.8123C-7.18496 59.202 -0.21729 64.646 2.57255 65.3933C10.6277 67.5498 11.5411 65.3335 11.8445 65.1727C15.5709 63.1992 12.2258 53.4476 11.5304 51.5595C10.8218 49.6342 9.97838 47.7581 9.12096 45.8843C8.972 45.5584 8.2857 44.3859 8.21822 44.003C10.7409 47.0863 18.1921 50.8157 19.0149 51.1495V51.1495Z" fill="#FFF9DE"/>
<path d="M-1.55476 17.6427C-2.58964 16.6184 -3.83102 13.212 -3.561 12.1694C-3.32794 12.2553 -3.25294 12.4499 -3.19028 12.6303C-2.63282 14.2357 -2.08288 15.8434 -1.53359 17.4508C-1.52073 17.4882 -1.5414 17.5339 -1.55476 17.6427V17.6427Z" fill="#CDAE1C"/>
<path d="M-0.172009 15.5028C-0.535192 15.3526 -0.670839 15.1043 -0.81899 14.8796C-1.45974 13.9123 -1.9528 12.8849 -2.33858 11.8171C-2.37703 11.7113 -2.39963 11.6013 -2.41996 11.4924C-2.43336 11.4212 -2.39234 11.3671 -2.32676 11.3403C-2.25225 11.3093 -2.18599 11.3502 -2.14066 11.4025C-2.06438 11.4895 -1.9891 11.5807 -1.93262 11.6796C-1.27345 12.8378 -0.76318 14.0554 -0.185301 15.2458C-0.15862 15.3001 -0.177458 15.372 -0.172009 15.5028V15.5028Z" fill="#CDAE1C"/>
<path d="M1.17333 17.9506C0.548921 17.478 0.335716 16.9704 0.179168 16.4354C0.154486 16.3523 0.16835 16.256 0.256212 16.2062C0.352775 16.1521 0.451909 16.2009 0.494692 16.2786C0.765301 16.7684 1.09944 17.2403 1.17333 17.9506Z" fill="#CDAE1C"/>
<path d="M-0.674958 16.952C-0.377663 17.2094 -0.202038 17.4938 -0.281236 17.9467C-0.633373 17.6138 -0.648348 17.2764 -0.674958 16.952Z" fill="#CDAE1C"/>
<path d="M8.0088 73.109C7.79247 73.1709 7.7507 73.3031 7.67458 73.407C7.40152 73.7799 7.30754 73.8073 7.0329 73.5997C6.6273 73.2926 6.59605 73.1214 6.89318 72.7776C7.18369 72.4417 7.55176 72.1915 7.92422 71.9401C8.66057 71.4425 9.43813 70.997 10.05 70.347C10.8526 69.4931 11.5411 68.5554 12.276 67.6516C12.6229 67.2247 13.6754 64.2993 13.1451 60.8474C12.896 58.3659 12.5593 55.8885 11.8197 53.4522C11.4251 52.1528 11.0904 50.8408 10.5564 49.5735C10.4571 49.3374 10.2657 49.0772 10.5115 48.8267C10.5456 48.7918 10.5447 48.6846 10.5124 48.6393C10.1246 48.0938 10.1748 47.4016 9.73212 46.8686C9.57287 46.6769 9.4689 46.4315 9.39105 46.1979C9.31097 45.9574 9.50126 45.8122 9.75247 45.914C10.0638 46.0401 10.316 46.2628 10.5824 46.4611C11.4754 47.1268 15.262 49.5419 15.8034 49.8839C15.923 49.9595 16.912 50.5169 17.1742 50.8544C19.0964 53.326 21.3138 55.5723 23.38 57.9349C25.2014 60.0171 27.0663 62.0635 29.12 63.9464C31.5007 66.1289 33.8937 68.3029 36.4479 70.3068C37.1264 70.8396 42.7608 74.8487 50.5166 78.6004C53.6077 79.9819 56.6275 81.5027 59.6478 83.025C60.1145 83.2607 60.5838 83.5071 61.0097 83.8047C62.2674 84.6848 63.0742 85.8252 63.2831 87.2834C63.3153 87.5061 63.3672 87.7447 63.2814 87.9425C62.917 88.7812 62.792 89.7186 62.2479 90.4834C61.8736 91.0104 61.4037 91.4312 60.8111 91.7427C58.1662 93.1322 55.2724 93.7884 52.2008 93.9744C50.7295 94.0638 49.2644 94.1724 47.7783 94.0046C45.1244 93.7059 42.4825 93.3457 39.8812 92.608C38.1895 92.1278 36.4752 91.727 34.8228 91.1141C33.2609 90.5344 31.704 89.9312 30.178 89.2636C26.5871 87.6923 23.1768 85.8099 20.0098 83.5099C18.9178 82.7166 17.7514 82.021 16.6576 81.2228C13.67 79.044 11.0242 76.5427 8.64278 73.7836C8.50539 73.6244 8.36093 73.469 8.21785 73.3141C8.15414 73.2461 8.08454 73.1827 8.0088 73.109V73.109Z" fill="#FFC1EB"/>
<path d="M-30.0684 44.0336C-29.1475 43.6556 -26.6725 44.005 -25.9698 44.1544C-25.0077 44.3588 -23.3963 44.8127 -22.2729 45.3498C-20.015 46.4292 -18.0632 47.9304 -16.1228 49.4463C-14.4417 50.7594 -12.9049 52.2163 -11.3908 53.7024C-9.59524 55.466 -7.77737 57.2172 -5.86624 58.8673C-2.28405 61.9596 1.8521 64.0278 6.51891 65.006C7.25717 65.1607 8.00599 65.2571 8.82223 65.0387C8.33662 64.5472 7.88929 64.115 7.46604 63.6626C5.59076 61.656 3.68409 59.6718 2.23187 57.3606C1.61603 56.3806 1.02878 55.3863 0.473635 54.3772C-1.14855 51.4306 -2.76979 48.4837 -4.1234 45.4264C-5.53148 42.2471 -6.88189 39.0622 -7.79764 35.7333C-8.8308 31.9779 -9.66302 28.2102 -10.0718 24.3862C-10.1859 23.321 -10.188 22.2572 -10.1944 21.1934C-10.2076 18.9766 -10.159 16.767 -9.8717 14.5811C-9.7626 13.748 -9.55778 12.9436 -9.28117 12.1586C-9.21656 11.9747 -9.12242 11.7964 -9.00944 11.6375C-8.90429 11.4897 -8.76653 11.5391 -8.68957 11.6938C-8.57106 11.9321 -8.62672 12.1754 -8.64955 12.4156C-8.99234 15.931 -9.00466 19.4728 -8.79932 23.0253C-8.67332 25.2022 -8.24482 27.3708 -7.79563 29.5233C-7.01985 33.2439 -5.98693 36.9257 -4.59282 40.5187C-3.43065 43.5121 -2.04447 46.4343 -0.588139 49.3291C0.578487 51.6497 1.8502 53.9219 3.20017 56.1581C4.03684 57.5434 4.95479 58.8841 6.13776 60.0551C7.1241 61.0318 7.99623 62.1049 9.01948 63.0518C9.48852 63.486 10.0022 63.8647 10.4905 64.2737C10.7369 64.4808 10.9413 64.4784 11.1861 64.3505C11.4289 64.224 11.6728 64.0923 11.804 63.8581C12.0919 63.3401 12.5449 62.9287 12.7917 62.3851C12.827 62.3069 12.8771 62.23 12.9391 62.1683C13.2629 61.8464 13.6982 61.9289 13.8812 62.3606C14.1931 63.0977 14.1742 63.8288 13.757 64.4654C12.7727 65.9665 11.3323 66.833 9.38642 66.8927C7.1763 66.9606 5.04478 66.5233 2.93966 65.7126C0.0814109 64.612 -2.49361 63.0514 -4.9078 61.2402C-7.26039 59.4755 -9.40245 57.4854 -11.449 55.4011C-14.0076 52.796 -16.7999 50.4212 -19.7494 48.2269C-21.0564 47.2547 -22.3796 46.2708 -23.8984 45.6015C-24.7478 45.2278 -25.6162 44.8972 -26.5202 44.6823C-27.4996 44.4494 -29.0958 43.8675 -30.0684 44.0336V44.0336Z" fill="#FFE932"/>
<path d="M17.9109 49.3808C21.4823 51.185 25.7281 52.6478 27.6239 53.0042C29.4548 53.3485 31.2868 53.4407 33.1119 53.3325C34.2644 53.2645 35.3322 52.8681 36.3752 52.4787C38.4578 51.7029 40.3917 50.6852 42.0556 49.2764C42.6836 48.7443 43.275 48.1771 43.8239 47.5765C44.9832 46.3083 46.13 45.0315 47.1381 43.6416C48.3049 42.0332 49.0237 40.2395 49.4745 38.3278C49.8466 36.7492 50.1765 35.1596 50.5144 33.5725C50.6385 32.9902 50.8538 32.4407 51.056 31.8869C51.1233 31.7035 51.2273 31.5325 51.3314 31.3655C51.3997 31.2558 51.4937 31.1371 51.6578 31.1749C51.8716 31.2239 51.8824 31.402 51.8673 31.5534C51.7944 32.2761 51.6995 32.9961 51.6295 33.719C51.4049 36.0255 51.057 38.3054 50.3831 40.5105C49.8541 42.2397 49.0086 43.8202 47.9172 45.2667C46.7526 46.8094 45.5171 48.2975 44.1111 49.652C42.5038 51.2013 40.7096 52.5002 38.5462 53.33C37.4392 53.7548 36.3175 54.1414 35.178 54.4935C33.7882 54.9232 32.3384 54.9191 30.8802 54.8828C27.9713 54.8109 25.7142 54.7213 22.9674 53.7187C17.7204 51.5393 13.3003 48.9897 12.3293 48.2415C11.9352 47.9384 8.27726 45.8789 5.32008 40.3399C3.93885 38.113 2.82931 35.7711 1.72005 33.4282C0.591586 31.0449 -0.498455 28.6457 -1.48564 26.2182C-2.42049 23.9199 -3.37995 21.6235 -4.02239 19.2351C-4.44532 17.6643 -4.89608 16.103 -5.16005 14.5093C-5.26238 13.8911 -5.36947 13.2736 -5.47071 12.6551C-5.49941 12.4787 -5.52717 12.3004 -5.53119 12.1235C-5.53759 11.875 -5.51864 11.572 -5.22298 11.5414C-4.87483 11.5053 -4.86091 11.835 -4.79598 12.0676C-3.83346 15.5326 -2.65105 18.9456 -1.41637 22.3448C-0.102502 25.9601 1.51597 29.4742 3.21928 32.9624C4.83526 36.2726 6.82982 39.3913 8.87197 42.4909C10.0698 44.3091 11.7581 45.6702 13.5636 46.9257C14.9361 47.8796 16.4134 48.6455 17.9109 49.3808V49.3808Z" fill="#FFE932"/>
<path d="M13.822 84.4512C13.4371 83.6337 12.967 82.9452 12.4998 82.2591C10.9833 80.0337 9.34123 77.8869 7.65794 75.7667C7.25228 75.2552 6.86534 74.7308 6.52764 74.177C6.35296 73.8911 5.98828 73.446 6.23133 73.1301C6.66516 72.5669 7.28226 73.6797 7.57403 73.955C9.03463 75.3345 10.3432 76.8302 11.5147 78.4299C12.5598 79.8562 13.63 81.2659 14.571 82.7548C15.3424 83.9753 15.961 85.2488 16.4195 86.5853C16.5749 87.0388 16.6693 87.5025 16.6757 87.9698C16.6856 88.7809 16.3634 89.432 15.6002 89.7957C13.9685 90.5736 12.3288 90.3452 10.6735 89.5133C10.8086 89.2925 10.9832 89.4165 11.1312 89.4293C11.6945 89.4767 12.2579 89.5359 12.8215 89.5757C13.1517 89.5994 13.4848 89.5837 13.7916 89.4868C15.0157 89.1007 15.2775 88.4823 15.0658 87.5148C15.0369 87.3823 15.0005 87.2523 14.9678 87.1206C14.8852 86.7922 14.8202 86.441 14.6057 86.1698C14.3558 85.8536 13.9497 86.022 13.6163 85.9657C12.4382 85.767 11.3163 85.3706 10.2222 84.9038C6.86804 83.4739 3.79877 81.59 0.986202 79.3092C0.578323 78.9787 0.217569 78.6088 -0.00630547 78.1433C-0.0729718 78.0031 -0.173209 77.8385 -0.0319578 77.71C0.0905066 77.5979 0.229077 77.7258 0.356941 77.7639C0.758288 77.8839 1.05539 78.1643 1.3734 78.4076C2.0891 78.9537 2.82761 79.4707 3.56373 79.9909C4.71584 80.8061 5.98594 81.3993 7.26427 81.9848C8.95021 82.7568 10.5825 83.6553 12.3846 84.15C12.8345 84.2733 13.2804 84.4283 13.822 84.4512V84.4512Z" fill="#FFE932"/>
<path d="M61.461 85.5766C61.1187 85.797 60.7178 85.7615 60.3275 85.7464C57.7742 85.6489 55.2614 85.1939 52.7728 84.5315C49.6697 83.7056 46.5882 82.7959 43.6485 81.4695C41.8258 80.6469 40.0097 79.8065 38.2062 78.9399C36.0302 77.8945 33.9466 76.6999 31.9598 75.3536C28.374 72.9239 25.0065 70.2416 22.0198 67.1537C19.9291 64.9925 17.7483 62.9075 15.7885 60.6362C14.762 59.4475 13.7634 58.2436 12.8662 56.9666C12.6194 56.6151 12.5505 56.2673 12.5849 55.8862C12.5943 55.7813 12.5856 55.6567 12.7347 55.6253C12.8661 55.5969 12.9732 55.6672 13.047 55.7524C13.4289 56.1954 13.7969 56.6497 14.1782 57.0937C17.5686 61.037 21.0508 64.9079 24.9459 68.4242C26.3967 69.7337 27.8474 71.0553 29.4254 72.236C30.7918 73.2575 32.2368 74.1698 33.6719 75.0954C36.5789 76.9693 39.6996 78.4428 42.8718 79.825C45.384 80.9196 47.9154 81.9618 50.4989 82.8666C52.726 83.6463 55.0097 84.2038 57.3118 84.6745C58.5191 84.9207 59.7196 85.217 60.9457 85.332C61.129 85.3493 61.3267 85.3555 61.461 85.5766V85.5766Z" fill="#FCE78D"/>
<path d="M61.1611 89.6489C60.8817 89.9447 60.5634 90.0595 60.2635 90.1897C58.3352 91.028 56.2744 91.3758 54.1047 91.3535C51.9631 91.3318 49.8123 91.2227 47.705 90.7588C44.9305 90.1483 42.1439 89.582 39.4275 88.668C36.1853 87.5759 33.0827 86.2092 30.1028 84.534C28.0673 83.3888 26.0568 82.213 24.1811 80.8313C22.2528 79.4099 20.4171 77.8809 18.5443 76.3948C16.6449 74.8891 14.9182 73.2251 13.2688 71.4842C12.5565 70.732 11.9254 69.9207 11.438 69.0237C11.2081 68.6 11.1996 68.2921 11.4156 68.2525C11.7494 68.1919 11.932 68.4455 12.0982 68.6636C13.8052 70.9036 15.878 72.8255 18.0224 74.6848C20.8648 77.1495 23.9055 79.3707 27.0189 81.5135C29.6198 83.3041 32.4179 84.7096 35.2836 86.0139C37.1929 86.8834 39.1244 87.6948 41.1501 88.2491C44.4572 89.1544 47.8 89.8659 51.1763 90.3448C54.2834 90.7851 57.3296 90.6393 60.2719 89.7836C60.5252 89.7096 60.7747 89.5923 61.1611 89.6489Z" fill="#FCE78D"/>
<path d="M-13.8297 60.6563C-13.5424 60.6885 -13.3595 60.8716 -13.1628 61.0228C-12.1683 61.7869 -11.1613 62.5363 -10.1851 63.3219C-8.18532 64.9324 -5.90752 66.0492 -3.5246 66.9783C-1.08529 67.9291 1.37714 68.805 3.9451 69.324C5.0617 69.5501 6.18453 69.6881 7.31109 69.8036C7.7315 69.8467 8.15795 69.8779 8.54095 70.1108C8.98094 70.3783 9.00932 70.5595 8.62988 70.8762C8.2986 71.1539 7.9007 71.3196 7.44783 71.3575C7.0768 71.3888 6.69966 71.4338 6.32825 71.3988C4.23446 71.2005 2.14663 70.8826 0.143609 70.1759C-1.82958 69.4805 -3.72208 68.5776 -5.59739 67.6378C-8.49671 66.1837 -10.9355 64.2042 -13.0876 61.8731C-13.3251 61.6152 -13.5349 61.3347 -13.7516 61.0609C-13.8382 60.9522 -13.8957 60.8313 -13.8297 60.6563V60.6563Z" fill="#FCE78D"/>
<path d="M38.2793 54.0247C36.844 55.246 35.0718 55.8858 33.2328 56.4056C31.4163 56.9187 29.5071 57.0382 27.6299 57.2838C31.0453 57.3519 34.2423 56.6612 37.2813 55.2983C37.327 55.5049 37.1718 55.5839 37.0694 55.6688C36.6904 55.9817 36.2555 56.2239 35.7992 56.4272C32.7174 57.7981 29.4375 58.4523 25.9324 58.2768C25.368 58.2489 24.8043 58.1773 24.2458 58.0576C24.0844 58.0229 23.9197 57.9892 23.7662 57.9297C23.5903 57.861 23.3915 57.7779 23.382 57.5655C23.3726 57.3466 23.5752 57.2954 23.7461 57.2337C23.8293 57.2037 23.9176 57.1851 24.1188 57.1294C23.6471 56.9764 23.275 57.0174 22.9133 56.9637C22.7293 56.9362 22.5336 56.9473 22.3936 56.7803C22.0363 56.3551 21.6751 55.9318 21.3018 55.4916C21.6654 55.2075 22.0696 55.2241 22.4643 55.2664C23.5444 55.3819 24.6238 55.5132 25.7026 55.6485C28.3722 55.9833 31.01 55.9103 33.6273 55.5775C33.7194 55.5659 33.8217 55.5081 33.8986 55.5347C34.5625 55.7639 35.0764 55.425 35.6227 55.2318C36.5483 54.9033 37.3982 54.4374 38.2793 54.0247V54.0247Z" fill="#FCE78D"/>
<path d="M-10.3302 60.6874C-10.006 60.4796 -9.77411 60.6148 -9.51482 60.8254C-7.73901 62.2668 -5.7688 63.4258 -3.68478 64.3739C-1.62617 65.3105 0.503572 66.0649 2.70537 66.6019C5.29648 67.2344 7.8845 67.3939 10.4834 67.1715C10.5297 67.1679 10.5768 67.1574 10.6228 67.16C10.8242 67.1724 11.0896 67.0356 11.2088 67.2469C11.3641 67.5216 11.0964 67.6962 10.9166 67.8405C10.5078 68.1681 9.99382 68.3153 9.4671 68.4072C8.64492 68.5509 7.81432 68.6264 6.95705 68.5402C1.38176 67.9804 -3.69212 66.1016 -8.17874 62.671C-8.70493 62.2689 -9.22526 61.8573 -9.7297 61.4308C-9.97506 61.2224 -10.2299 61.0022 -10.3302 60.6874V60.6874Z" fill="#FCE78D"/>
<path d="M-15.8125 66.9885C-15.0594 67.5097 -14.3726 67.972 -13.701 68.4522C-11.2841 70.1817 -8.62703 71.4482 -5.83281 72.4534C-4.15063 73.0592 -2.42825 73.5215 -0.721492 74.0407C-0.130721 74.2206 0.454805 74.4244 1.03494 74.6405C1.34924 74.7577 1.72448 74.9416 1.66316 75.2937C1.59741 75.6668 1.17656 75.5924 0.850393 75.6024C-0.629066 75.6464 -2.05024 75.2437 -3.45871 74.8154C-5.46353 74.205 -7.42552 73.4825 -9.29032 72.4952C-11.7021 71.2176 -13.793 69.581 -15.5683 67.5712C-15.6855 67.4386 -15.8611 67.3272 -15.8125 66.9885V66.9885Z" fill="#FCE78D"/>
<path d="M-6.39722 69.8399C-7.27009 69.3911 -8.08846 68.8652 -8.80619 68.204C-9.06549 67.9657 -9.31175 67.709 -9.45858 67.3898C-9.49885 67.3012 -9.48884 67.2108 -9.42575 67.1426C-9.35653 67.0677 -9.2605 67.0839 -9.17055 67.1252C-9.06209 67.1747 -8.95268 67.2226 -8.85059 67.2838C-6.14363 68.9104 -3.16855 69.8495 -0.151815 70.6234C1.89063 71.1475 3.97017 71.5364 6.0663 71.734C6.18266 71.745 6.30528 71.749 6.41284 71.7896C6.68309 71.8926 6.73552 72.145 6.50749 72.3005C6.16985 72.5303 5.77852 72.6612 5.35265 72.6972C4.81742 72.7427 4.28001 72.7874 3.73705 72.7283C2.18902 72.5587 0.657563 72.2966 -0.871981 71.9352C-2.81169 71.476 -4.63532 70.7552 -6.39722 69.8399V69.8399Z" fill="#FCE78D"/>
<path d="M14.1679 80.0096C15.396 82.0475 16.8072 84.0218 17.0852 86.3934C16.8577 86.2883 16.8264 86.0867 16.757 85.9115C15.753 83.3832 14.2861 81.1024 12.3836 79.0459C11.5719 78.1694 10.7952 77.2638 10.0174 76.3601C9.23748 75.4549 8.40737 74.5947 7.51988 73.7823C7.25708 73.5422 7.04361 73.2676 6.81448 73.0016C6.60626 72.7598 6.76554 72.6466 6.92456 72.5174C7.08417 72.3875 7.23862 72.3566 7.4028 72.5468C7.81486 73.025 8.24875 73.4876 8.64264 73.9784C9.57729 75.1438 10.6849 76.1707 11.6666 77.3004C12.2106 77.926 12.9861 78.3701 13.4727 79.0671C14.3414 79.4127 14.9607 80.0972 15.7107 80.6054C17.1974 81.6133 18.4092 83.8676 18.4382 85.5615C18.4426 85.8266 18.5579 86.0923 18.4921 86.3548C18.4788 86.4067 18.4127 86.4741 18.3631 86.4774C18.3117 86.4812 18.2292 86.4255 18.1992 86.3768C18.1522 86.3004 18.1283 86.2087 18.1099 86.1215C17.8096 84.7274 17.1011 83.4959 16.2039 82.3439C15.5781 81.5404 14.934 80.7502 14.298 79.9534C14.2547 79.9721 14.211 79.9906 14.1679 80.0096V80.0096Z" fill="#FCE78D"/>
<path d="M19.205 53.3915C24.7849 55.0337 30.3162 55.6956 35.8496 53.8365C35.6503 54.1062 35.4004 54.1631 35.1812 54.247C33.7023 54.8146 32.1566 55.1713 30.5321 55.2655C27.5454 55.4392 24.5721 55.148 21.6175 54.4557C20.7659 54.2562 19.9207 54.0075 19.205 53.3915V53.3915Z" fill="#FCE78D"/>
<path d="M15.0462 61.4827C15.259 61.6139 15.255 61.8283 15.2862 62.0169C15.6895 64.4823 14.9879 66.6397 13.6147 68.6063C13.5655 68.6767 13.5013 68.743 13.4281 68.7901C13.3782 68.8225 13.2958 68.8412 13.237 68.8252C13.1334 68.7983 13.108 68.7052 13.1011 68.6119C13.09 68.4491 13.1557 68.311 13.2325 68.1782C14.3606 66.2286 14.8174 64.0827 14.9251 61.8345C14.929 61.7477 14.934 61.6594 14.9543 61.5759C14.9624 61.5403 15.0117 61.516 15.0462 61.4827V61.4827Z" fill="#FCE78D"/>
<path d="M16.5007 63.5654C16.6891 63.8132 16.6778 64.0598 16.6821 64.2963C16.7143 66.0908 16.1677 67.7184 15.3514 69.2636C15.2083 69.5337 15.0021 69.7696 14.7537 69.9627C14.634 70.0561 14.4844 70.1643 14.3184 70.0472C14.175 69.9453 14.2573 69.797 14.2984 69.6794C14.3565 69.5149 14.4261 69.352 14.513 69.2014C15.464 67.5567 16.15 65.8201 16.3052 63.8939C16.3137 63.7893 16.3307 63.6729 16.5007 63.5654Z" fill="#FCE78D"/>
<path d="M19.6425 74.7766C19.5747 74.4806 19.6853 74.2624 19.8123 74.0628C20.6917 72.6797 21.1274 71.1274 21.5145 69.5553C21.5617 69.3643 21.6174 69.176 21.6756 68.9882C21.7148 68.8602 21.7767 68.7201 21.9508 68.7661C22.1274 68.8132 22.099 68.9759 22.0944 69.1031C22.0831 69.3892 22.0805 69.6774 22.0428 69.9592C21.8217 71.6127 21.2283 73.1232 20.3298 74.5178C20.1806 74.7499 19.9814 74.8336 19.6425 74.7766V74.7766Z" fill="#FCE78D"/>
<path d="M18.1196 64.674C18.3001 65.0353 18.2507 65.2992 18.2241 65.5558C18.0379 67.3116 17.6102 68.9975 16.8661 70.5892C16.7368 70.8658 16.5856 71.1312 16.3759 71.3611C16.2402 71.5102 16.0753 71.6934 15.8607 71.5646C15.6323 71.4278 15.7415 71.2023 15.8482 71.0385C16.3076 70.3373 16.5208 69.5298 16.846 68.77C17.303 67.7018 17.5598 66.5757 17.8107 65.4455C17.8661 65.1969 17.8991 64.942 18.1196 64.674Z" fill="#FCE78D"/>
<path d="M20.0855 67.0281C20.2613 67.2116 20.2325 67.442 20.2243 67.6459C20.1488 69.5278 19.7048 71.2979 18.7009 72.8899C18.5688 73.0999 18.447 73.4468 18.0931 73.2467C17.7187 73.0353 18.0247 72.7779 18.1311 72.5681C18.9692 70.9244 19.6338 69.22 19.9022 67.3735C19.9201 67.2524 19.8832 67.0963 20.0855 67.0281V67.0281Z" fill="#FCE78D"/>
<path d="M22.5355 75.7763C22.3966 76.025 22.3161 76.1801 22.2232 76.3285C22.1622 76.4262 22.0531 76.4943 21.9339 76.4546C21.7958 76.4085 21.6908 76.3017 21.696 76.1475C21.7042 75.9228 21.8029 75.7261 21.8825 75.5226C22.3985 74.203 23.0076 72.9168 23.3065 71.5171C23.3703 71.2179 23.4236 70.9158 23.4899 70.6173C23.5091 70.5326 23.5685 70.4504 23.6726 70.4601C23.7776 70.4698 23.8251 70.5566 23.8435 70.651C23.89 70.8949 23.9014 71.1374 23.8672 71.3787C23.6417 72.9543 23.1462 74.4411 22.5355 75.7763V75.7763Z" fill="#FCE78D"/>
<path d="M25.2256 72.066C25.5107 72.3608 25.5023 72.6449 25.4768 72.9234C25.3281 74.5742 24.7332 76.0672 23.9198 77.4819C23.8302 77.6382 23.7254 77.8049 23.4947 77.6891C23.2815 77.5822 23.3015 77.3976 23.3765 77.2232C23.5409 76.8422 23.6955 76.4573 23.8743 76.0832C24.3841 75.0144 24.7537 73.8964 25.0313 72.7447C25.0868 72.5162 25.1605 72.2925 25.2256 72.066V72.066Z" fill="#FCE78D"/>
<path d="M29.3752 81.6904C29.275 81.4358 29.3537 81.2366 29.4445 81.043C30.0306 79.7959 30.4678 78.4927 30.876 77.1777C30.9402 76.9708 31.0393 76.7749 31.1339 76.5792C31.1587 76.5271 31.2149 76.4756 31.303 76.5095C31.3771 76.5373 31.4228 76.5877 31.4261 76.6561C31.435 76.8106 31.4479 76.9669 31.4332 77.1192C31.2841 78.6584 30.7114 80.0408 29.9077 81.3352C29.7939 81.5177 29.6533 81.686 29.3752 81.6904V81.6904Z" fill="#FCE78D"/>
<path d="M26.5739 73.5781C26.6402 73.4656 26.6812 73.3829 26.7957 73.4035C26.9079 73.423 26.9537 73.5175 26.9665 73.6002C26.9859 73.7304 26.9873 73.8666 26.9704 73.9958C26.7573 75.5779 26.1997 77.0338 25.3757 78.3871C25.2684 78.5636 25.1304 78.8846 24.9037 78.7674C24.5918 78.6062 24.8717 78.3311 24.9492 78.143C25.4237 76.9969 25.947 75.8712 26.2891 74.6733C26.3961 74.2972 26.4868 73.9152 26.5739 73.5781V73.5781Z" fill="#FCE78D"/>
<path d="M32.1387 58.5519C31.9514 58.8228 31.7426 58.8625 31.5494 58.9149C29.7022 59.4165 27.8137 59.7058 25.8414 59.5542C25.4895 59.5273 25.1379 59.4939 24.8035 59.3567C24.7452 59.3326 24.6714 59.2649 24.6644 59.2142C24.6518 59.1195 24.726 59.0482 24.828 59.0439C25.084 59.034 25.3407 59.0212 25.5973 59.0362C27.697 59.1615 29.7511 58.9826 31.7729 58.5855C31.8604 58.5686 31.9523 58.5686 32.1387 58.5519V58.5519Z" fill="#FCE78D"/>
<path d="M28.2389 74.7511C28.6903 76.059 27.3657 79.2956 26.2714 79.803C26.2261 79.7203 26.1959 79.6371 26.2372 79.5494C26.9774 77.9817 27.6552 76.3869 28.2389 74.7511Z" fill="#FCE78D"/>
<path d="M33.168 84.0802C33.1355 83.6273 33.3066 83.3171 33.4489 83.0137C34.0562 81.717 34.3374 80.3306 34.5155 78.9129C34.5371 78.7394 34.5555 78.565 34.5871 78.3929C34.6042 78.3014 34.6698 78.2422 34.7808 78.2539C34.8991 78.2667 34.9456 78.3602 34.951 78.4432C34.9708 78.7525 34.9915 79.0629 34.9805 79.3697C34.9288 80.8514 34.3972 82.1843 33.7755 83.487C33.6638 83.7222 33.5118 83.9395 33.168 84.0802V84.0802Z" fill="#FCE78D"/>
<path d="M31.4845 82.9191C32.0829 81.0108 32.506 79.0475 33.199 77.077C33.696 78.0692 32.5028 82.0723 31.4845 82.9191Z" fill="#FCE78D"/>
<path d="M27.8386 80.8125C27.7172 80.642 27.807 80.5273 27.865 80.4157C28.5279 79.1315 28.9854 77.7651 29.4519 76.4015C29.5148 76.2174 29.6123 76.0439 29.7045 75.8719C29.7337 75.8178 29.7955 75.7795 29.8792 75.8081C29.9573 75.8351 29.995 75.8927 29.9922 75.9594C29.986 76.1345 29.9868 76.313 29.9529 76.4825C29.6812 77.847 29.1839 79.1226 28.4482 80.3005C28.3066 80.5272 28.1818 80.7963 27.8386 80.8125V80.8125Z" fill="#FCE78D"/>
<path d="M36.7252 79.2848C37.1753 80.5486 36.0771 84.2235 35.0806 84.8017C35.6524 83.0167 36.1912 81.2714 36.5529 79.4742C36.5642 79.4194 36.6374 79.3794 36.7252 79.2848Z" fill="#FCE78D"/>
<path d="M42.0396 87.5533C42.5704 85.9272 42.9896 84.2882 43.128 82.5212C43.5061 82.9196 43.5875 83.2172 43.5566 83.9088C43.4873 85.485 42.8917 86.9796 42.0396 87.5533V87.5533Z" fill="#FCE78D"/>
<path d="M16.13 57.9144C15.8192 57.7173 15.905 57.4821 15.9406 57.2827C16.1569 56.0595 16.7879 55.0613 17.706 54.2259C17.7711 54.1664 17.8404 54.107 17.9198 54.0687C18.0262 54.0175 18.151 54.0198 18.2431 54.1111C18.3321 54.1999 18.3538 54.3164 18.2824 54.4164C18.1554 54.593 18.0273 54.77 17.8816 54.9325C17.186 55.7088 16.6643 56.5802 16.3576 57.5722C16.3323 57.6546 16.2909 57.7326 16.2478 57.8077C16.227 57.8431 16.1847 57.8661 16.13 57.9144V57.9144Z" fill="#FCE78D"/>
<path d="M17.8527 56.7089C18.0766 56.3034 18.3558 55.9381 18.7031 55.6235C18.8171 55.5201 18.9499 55.435 19.0808 55.3495C19.1804 55.2845 19.3051 55.2654 19.4067 55.3457C19.5112 55.4289 19.5059 55.5442 19.4413 55.6475C19.384 55.7404 19.3306 55.8372 19.2604 55.9214C18.5213 56.8076 17.9723 57.796 17.6026 58.8822C17.568 58.9853 17.5181 59.0833 17.4725 59.1824C17.4441 59.2453 17.3878 59.2952 17.3179 59.2688C17.2593 59.2471 17.203 59.1898 17.1707 59.1354C17.0931 59.007 17.1376 58.8754 17.1602 58.7464C17.2865 58.0298 17.4842 57.3384 17.8527 56.7089V56.7089Z" fill="#FCE78D"/>
<path d="M38.333 86.2831C38.9286 84.622 39.4554 83.0375 39.6822 81.2792C40.5037 82.3269 39.6961 85.226 38.333 86.2831Z" fill="#FCE78D"/>
<path d="M40.1154 86.9338C40.568 85.2463 41.0191 83.6247 41.2638 81.8705C41.9431 82.8569 41.1926 86.0607 40.1154 86.9338Z" fill="#FCE78D"/>
<path d="M19.6018 57.6952C19.7357 57.4569 19.8615 57.2264 19.9938 56.9999C20.0663 56.8759 20.1922 56.7977 20.3386 56.8661C20.5148 56.9486 20.5378 57.1074 20.4773 57.2681C20.4623 57.3088 20.4421 57.349 20.417 57.3843C19.7604 58.3191 19.535 59.4215 19.2366 60.4951C19.1807 60.6955 19.1827 61.0496 18.9358 60.9959C18.5768 60.9169 18.7634 60.5732 18.8011 60.3684C18.9732 59.4446 19.0492 58.4862 19.6018 57.6952V57.6952Z" fill="#FCE78D"/>
<path d="M20.1629 85.7973C19.9285 85.8137 19.863 85.6781 19.8272 85.5528C19.5719 84.6544 18.934 83.9597 18.3548 83.2324C18.1815 83.0145 17.9862 82.8042 17.9338 82.5285C17.8942 82.3166 18.0131 82.2368 18.2141 82.2959C18.3452 82.3347 18.4853 82.4057 18.5823 82.4989C19.3004 83.1893 19.964 83.9094 20.03 84.9234C20.0493 85.215 20.2638 85.5019 20.1629 85.7973V85.7973Z" fill="#FCE78D"/>
<path d="M45.1849 83.1038C45.8157 84.3527 45.1696 87.1117 44.0391 88.1204C44.7018 86.4838 44.7783 84.8336 45.1849 83.1038Z" fill="#FCE78D"/>
<path d="M36.6644 85.3825C37.2199 83.6058 37.7466 81.9679 38.0527 80.1428C38.607 81.2857 37.801 84.2843 36.6644 85.3825Z" fill="#FCE78D"/>
<path d="M48.5889 89.2452C49.0562 87.6857 49.2993 86.1685 49.4944 84.6073C49.8133 84.6903 49.8916 84.8575 49.8924 85.0288C49.895 86.5053 49.7234 87.9354 48.8224 89.1538C48.8031 89.1802 48.7506 89.1834 48.5889 89.2452Z" fill="#FCE78D"/>
<path d="M14.8836 56.3931C14.6202 56.2777 14.6609 56.0777 14.7002 55.8841C14.9478 54.6475 15.5269 53.5918 16.4903 52.7477C16.5908 52.6593 16.7071 52.5597 16.8548 52.6546C17.0415 52.7752 16.9709 52.9286 16.884 53.0604C16.8124 53.1698 16.733 53.2774 16.6393 53.3693C15.8785 54.1116 15.4342 55.0259 15.1175 56.0138C15.073 56.1511 15.061 56.3209 14.8836 56.3931V56.3931Z" fill="#FCE78D"/>
<path d="M46.4682 88.4334C46.395 88.3878 46.394 88.3233 46.4166 88.2609C46.8531 87.0417 47.0746 85.7704 47.2144 84.4782C47.2308 84.328 47.1526 84.0515 47.4102 84.0605C47.6366 84.0692 47.6473 84.3244 47.6663 84.4916C47.6967 84.7555 47.7158 85.0257 47.69 85.286C47.584 86.3509 47.2283 87.3318 46.6974 88.2493C46.6544 88.3232 46.5873 88.3837 46.5274 88.4475C46.5211 88.4542 46.4884 88.4385 46.4682 88.4334V88.4334Z" fill="#FCE78D"/>
<path d="M24.3626 66.3477C24.3263 66.3149 24.2674 66.2859 24.262 66.2523C24.077 65.0831 24.1013 63.9493 24.7002 62.9179C24.7545 62.8243 24.8178 62.7289 24.9 62.6589C24.9632 62.605 25.0611 62.584 25.1598 62.6268C25.2639 62.6716 25.295 62.7616 25.2963 62.8478C25.298 62.9341 25.2704 63.0211 25.242 63.1028C24.9192 64.036 24.6991 64.9944 24.5726 65.9796C24.5544 66.1185 24.5521 66.2916 24.3626 66.3477V66.3477Z" fill="#FCE78D"/>
<path d="M21.1607 59.3477C21.224 59.2162 21.2421 59.1762 21.2624 59.1375C21.3542 58.9607 21.4763 58.7336 21.709 58.8453C21.9449 58.9579 21.8187 59.1997 21.7498 59.3726C21.3549 60.3671 21.0359 61.3842 20.8849 62.4529C20.8729 62.5372 20.8542 62.6318 20.8022 62.6937C20.7463 62.7607 20.6448 62.7845 20.5744 62.6764C20.467 62.5121 20.4808 62.3355 20.4858 62.1584C20.5174 61.1328 20.7391 60.1603 21.1607 59.3477V59.3477Z" fill="#FCE78D"/>
<path d="M53.719 85.478C54.2287 86.5263 53.6875 88.7424 52.7069 89.95C52.4709 89.7084 52.6372 89.489 52.703 89.292C52.991 88.4251 53.2538 87.5512 53.4387 86.6535C53.5117 86.2994 53.5186 85.9251 53.719 85.478V85.478Z" fill="#FCE78D"/>
<path d="M26.5293 64.3008C26.583 64.2056 26.6095 64.1438 26.6488 64.092C26.7355 63.9783 26.7841 63.7782 27.0031 63.8877C27.1596 63.9661 27.1241 64.1142 27.0854 64.2446C27.0414 64.3912 27.0113 64.5431 26.9579 64.686C26.6787 65.4257 26.5158 66.1951 26.4297 66.9855C26.4113 67.1598 26.3921 67.3353 26.3578 67.5072C26.3368 67.6145 26.2864 67.7484 26.1608 67.7419C26.0085 67.7334 25.9057 67.6077 25.9063 67.4597C25.9074 67.1279 25.9128 66.7964 25.9392 66.4678C26.0017 65.6908 26.2499 64.9687 26.5293 64.3008V64.3008Z" fill="#FCE78D"/>
<path d="M51.5474 85.1958C52.1266 86.2444 51.5701 88.5802 50.4981 89.5644C50.9179 88.0503 51.298 86.6467 51.5474 85.1958Z" fill="#FCE78D"/>
<path d="M22.371 64.6314C22.1926 64.36 22.2544 64.1403 22.2728 63.9302C22.358 62.9368 22.592 61.9837 22.9983 61.0803C23.0247 61.0204 23.0514 60.96 23.0864 60.9043C23.1873 60.7449 23.2605 60.4976 23.5359 60.6367C23.81 60.7754 23.6629 60.98 23.5789 61.1536C23.1408 62.0638 22.8723 63.0313 22.66 64.0181C22.6149 64.227 22.6115 64.4586 22.371 64.6314V64.6314Z" fill="#FCE78D"/>
<path d="M55.5765 85.9199C55.8344 86.1441 55.8311 86.4397 55.8104 86.7129C55.7243 87.8386 55.3698 88.8867 54.9157 89.9025C54.8633 90.0199 54.7854 90.1697 54.618 90.0992C54.4588 90.0325 54.5046 89.8764 54.539 89.7491C54.6365 89.3924 54.7226 89.0315 54.8343 88.679C55.0835 87.8906 55.3168 87.0984 55.3956 86.2651C55.4075 86.1419 55.3947 85.9941 55.5765 85.9199V85.9199Z" fill="#FCE78D"/>
<path d="M29.8157 70.9067C29.7031 70.9109 29.6351 70.8414 29.611 70.7547C29.3151 69.7145 29.2803 68.6927 29.7083 67.7193C29.7987 67.5133 29.8969 67.1667 30.1896 67.2689C30.5124 67.3818 30.3027 67.6898 30.26 67.9025C30.0711 68.8428 29.8579 69.7779 29.9122 70.758C29.916 70.8272 29.8916 70.8842 29.8157 70.9067V70.9067Z" fill="#FCE78D"/>
<path d="M29.8672 60.2494C29.7637 60.4575 29.5669 60.4737 29.4064 60.5256C28.433 60.8402 27.4126 60.8928 26.3699 60.7965C26.0625 60.7684 25.7664 60.6761 25.4911 60.5271C25.3917 60.4737 25.2588 60.4184 25.3046 60.2797C25.3479 60.1502 25.4898 60.1652 25.5997 60.1751C25.9275 60.2048 26.2548 60.2622 26.583 60.2887C27.4997 60.3615 28.4125 60.37 29.3153 60.2624C29.4887 60.242 29.6624 60.1847 29.8672 60.2494V60.2494Z" fill="#FCE78D"/>
<path d="M57.0562 89.7096C57.0442 89.7253 57.0034 89.8061 56.9366 89.8563C56.8463 89.9237 56.7472 89.8703 56.714 89.7818C56.6835 89.7032 56.683 89.6025 56.7072 89.5241C57.0156 88.5231 57.1744 87.486 57.354 86.4544C57.3757 86.33 57.363 86.1472 57.5372 86.1498C57.7354 86.1537 57.797 86.3425 57.8147 86.4935C57.8397 86.712 57.8484 86.9365 57.8217 87.1509C57.7104 88.025 57.4442 88.8525 57.0562 89.7096V89.7096Z" fill="#FCE78D"/>
<path d="M27.9023 69.3787C27.67 69.3023 27.6891 69.099 27.6602 68.9407C27.467 67.8739 27.685 66.8814 28.1042 65.9285C28.1389 65.8499 28.1873 65.774 28.2442 65.7095C28.3182 65.6257 28.4238 65.5572 28.5435 65.6049C28.6774 65.6582 28.6721 65.7793 28.6419 65.8906C28.6186 65.9745 28.5948 66.0584 28.5642 66.1401C28.2158 67.0649 28.0237 68.0239 28.0248 69.027C28.0258 69.153 28.0589 69.2998 27.9023 69.3787V69.3787Z" fill="#FCE78D"/>
<path d="M31.8796 72.4016C31.5966 72.2184 31.5489 71.9987 31.5204 71.7855C31.4114 70.9833 31.4673 70.198 31.7012 69.4398C31.7521 69.2757 31.8519 69.126 31.9446 68.9796C32.0135 68.8702 32.1035 68.7507 32.273 68.8456C32.3979 68.916 32.3708 69.0325 32.3511 69.1429C32.2205 69.8735 32.084 70.6032 31.9691 71.337C31.9169 71.6734 31.9105 72.0188 31.8796 72.4016V72.4016Z" fill="#FCE78D"/>
<path d="M13.5711 54.8519C13.3846 54.6379 13.4836 54.4653 13.5183 54.3085C13.7324 53.3555 14.2126 52.5257 14.7584 51.7281C14.7709 51.71 14.7826 51.6905 14.7993 51.6765C14.9589 51.5464 15.0817 51.264 15.3586 51.474C15.6448 51.6909 15.3951 51.862 15.2641 52.0251C14.6677 52.7635 14.1619 53.5512 13.8442 54.4467C13.7937 54.5882 13.7349 54.7335 13.5711 54.8519V54.8519Z" fill="#FCE78D"/>
<path d="M33.5842 73.4946C33.4152 73.3987 33.4053 73.2346 33.3846 73.0855C33.2561 72.1618 33.3842 71.2868 33.7947 70.4694C33.8424 70.3745 33.9084 70.2839 33.9869 70.2101C34.0268 70.1716 34.1167 70.1499 34.1756 70.1641C34.2717 70.1874 34.3305 70.2713 34.3319 70.3659C34.3336 70.4523 34.3282 70.543 34.3009 70.6224C34.0017 71.4872 33.7804 72.3706 33.7243 73.2957C33.719 73.3864 33.6846 73.4626 33.5842 73.4946V73.4946Z" fill="#FCE78D"/>
<path d="M35.688 74.9005C35.3569 74.7002 35.3613 74.4225 35.3384 74.1647C35.2658 73.3385 35.3617 72.538 35.6553 71.7749C35.6866 71.6947 35.7264 71.6159 35.7719 71.5427C35.8202 71.4654 35.8936 71.4107 35.9991 71.4509C36.0964 71.4878 36.1543 71.574 36.1438 71.6622C36.1026 72.0096 36.061 72.3575 35.9948 72.6993C35.854 73.4206 35.6688 74.1329 35.688 74.9005V74.9005Z" fill="#FCE78D"/>
<path d="M14.0952 76.7533C13.9109 76.683 13.9125 76.5114 13.8881 76.367C13.7549 75.5836 13.895 74.8392 14.1257 74.1106C14.1714 73.9662 14.2332 73.8027 14.4388 73.8386C14.6515 73.8753 14.6702 74.0488 14.6461 74.2056C14.5202 75.0208 14.3886 75.8352 14.2544 76.649C14.244 76.714 14.1864 76.7538 14.0952 76.7533V76.7533Z" fill="#FCE78D"/>
<path d="M12.3987 75.4647C12.2765 75.3945 12.2605 75.2851 12.2428 75.1749C12.1664 74.7075 12.1826 74.2477 12.2838 73.7962C12.3647 73.4343 12.4625 73.077 12.5477 72.7163C12.5902 72.5379 12.6466 72.3395 12.8875 72.4028C13.1304 72.4661 13.0787 72.6868 13.0568 72.8551C13.0298 73.0714 12.9724 73.2821 12.9375 73.4973C12.8434 74.0796 12.7552 74.6636 12.6604 75.2456C12.6386 75.3817 12.5809 75.4957 12.3987 75.4647V75.4647Z" fill="#FCE78D"/>
<path d="M10.9879 70.0262C10.9986 70.5773 10.6467 71.0075 10.5117 71.5095C10.4275 71.8246 10.2715 72.1182 10.1488 72.4221C10.085 72.5806 9.96834 72.6878 9.78074 72.6432C9.56495 72.5921 9.57695 72.4198 9.60017 72.2632C9.67463 71.7562 9.86548 71.2952 10.1363 70.8643C10.3104 70.5871 10.4443 70.2836 10.7063 70.0653C10.7805 70.0033 10.8741 70.0072 10.9879 70.0262V70.0262Z" fill="#FCE78D"/>
<path d="M37.6711 75.87C37.596 75.8644 37.5364 75.83 37.5196 75.7599C37.2739 74.7442 37.2328 73.7428 37.5601 72.7684C37.594 72.6668 37.6457 72.5692 37.7023 72.4779C37.7522 72.3989 37.8423 72.365 37.9406 72.3914C38.0429 72.4192 38.0857 72.4986 38.0799 72.5948C38.077 72.6382 38.0678 72.6817 38.0586 72.7239C37.8409 73.7263 37.7647 74.7491 37.7519 75.7825C37.7516 75.8135 37.6994 75.8408 37.6711 75.87V75.87Z" fill="#FCE78D"/>
<path d="M15.8553 75.7789C15.9225 75.6485 15.9952 75.5993 16.0949 75.5998C16.2274 75.6006 16.3175 75.6743 16.3612 75.7891C16.3845 75.8502 16.3897 75.9193 16.3913 75.9843C16.4142 76.7355 16.4356 77.4867 16.4553 78.2376C16.4581 78.3466 16.4702 78.4741 16.3185 78.4951C16.2137 78.5097 16.147 78.4318 16.1126 78.344C15.7808 77.5008 15.7467 76.6476 15.8506 75.7902C15.8527 75.7699 15.8707 75.752 15.8553 75.7789V75.7789Z" fill="#FCE78D"/>
<path d="M11.2541 71.4471C11.2737 71.4086 11.2899 71.3679 11.3121 71.3312C11.4211 71.1483 11.5368 70.8718 11.7905 70.9825C12.0768 71.1081 11.8862 71.3684 11.8245 71.5602C11.6335 72.1582 11.4307 72.7527 11.2319 73.3477C11.1978 73.4492 11.171 73.5684 11.0217 73.5538C10.8795 73.5394 10.837 73.4204 10.8087 73.3143C10.7266 73.0023 10.7663 72.6975 10.86 72.4083C10.9674 72.0789 11.1096 71.7625 11.237 71.4402C11.2422 71.4427 11.2482 71.445 11.2541 71.4471Z" fill="#FCE78D"/>
<path d="M12.5898 52.5588C12.2988 52.2675 12.384 52.0681 12.4102 51.8864C12.5093 51.2015 12.8369 50.6151 13.2431 50.0665C13.335 49.9417 13.4434 49.837 13.6141 49.8062C13.8373 49.7662 13.9781 49.9012 13.9298 50.115C13.9199 50.1568 13.9071 50.2006 13.8824 50.2354C13.3824 50.9417 12.9555 51.6895 12.5898 52.5588V52.5588Z" fill="#FCE78D"/>
<path d="M18.1464 77.5996C18.2112 77.474 18.3109 77.3799 18.4698 77.4226C18.5932 77.4552 18.657 77.5713 18.6472 77.6871C18.5829 78.4702 18.513 79.2527 18.4402 80.0346C18.4318 80.1243 18.3769 80.2023 18.2679 80.1992C18.0887 80.1954 18.0351 80.0687 18.0096 79.9309C17.8728 79.1782 17.8679 78.438 18.0996 77.7203C18.1131 77.6794 18.1304 77.6398 18.1464 77.5996Z" fill="#FCE78D"/>
<path d="M59.3278 86.7099C59.41 86.5894 59.4434 86.4686 59.5978 86.5104C59.7054 86.5393 59.7328 86.6341 59.7525 86.7199C59.8087 86.9659 59.7575 87.203 59.717 87.44C59.5781 88.2547 59.0857 88.9162 58.7508 89.6453C58.716 89.7211 58.6481 89.7994 58.5401 89.754C58.3882 89.6896 58.4317 89.5757 58.4721 89.4739C58.569 89.2316 58.6663 88.9888 58.7691 88.7487C58.9836 88.2461 59.1316 87.7238 59.2216 87.1821C59.2503 87.0101 59.2979 86.8425 59.3278 86.7099V86.7099Z" fill="#FCE78D"/>
<path d="M60.2345 89.2417C60.1828 89.2971 60.1339 89.3727 60.0631 89.4192C59.971 89.4806 59.8818 89.4299 59.8448 89.3371C59.8217 89.28 59.8227 89.2009 59.8464 89.1454C60.1659 88.3999 60.3025 87.6046 60.4191 86.8038C60.4346 86.698 60.459 86.5724 60.6122 86.5875C60.7586 86.6021 60.7847 86.7332 60.8098 86.8385C60.8776 87.1288 60.8109 87.4063 60.7666 87.6874C60.6804 88.2343 60.3756 88.6999 60.2345 89.2417V89.2417Z" fill="#FCE78D"/>
<path d="M20.5574 81.8435C20.3882 81.7985 20.3574 81.6574 20.3253 81.5326C20.135 80.7982 20.2153 80.0881 20.4112 79.39C20.4415 79.2848 20.5019 79.1913 20.6392 79.1852C20.76 79.1798 20.8019 79.2724 20.828 79.3537C20.9309 79.6697 20.7268 81.4973 20.5574 81.8435V81.8435Z" fill="#FCE78D"/>
<path d="M39.6332 74.5621C39.7187 74.4374 39.7546 74.3075 39.8977 74.336C40.0649 74.3703 40.1191 74.4927 40.0978 74.6439C39.9952 75.3607 39.8974 76.078 39.9358 76.8134C39.9398 76.8937 39.9314 77.001 39.8022 77.0019C39.7022 77.0025 39.625 76.9504 39.5703 76.868C39.5577 76.8489 39.5427 76.8287 39.5387 76.808C39.4066 76.0283 39.3961 75.2618 39.6332 74.5621V74.5621Z" fill="#FCE78D"/>
<path d="M24.9606 84.4924C24.7705 84.5366 24.6779 84.4526 24.6257 84.3519C24.2999 83.7227 24.2423 83.0662 24.3008 82.402C24.3128 82.2684 24.3704 82.1342 24.5419 82.1394C24.7137 82.1441 24.7822 82.2838 24.8074 82.4164C24.8457 82.6123 24.8646 82.8112 24.8778 83.0092C24.9099 83.5077 24.9344 84.0063 24.9606 84.4924V84.4924Z" fill="#FCE78D"/>
<path d="M44.6042 79.2169C44.5647 79.1631 44.486 79.0954 44.4623 79.0161C44.2949 78.4585 44.1577 77.8966 44.2326 77.3238C44.2523 77.1726 44.2817 76.995 44.4908 77.0059C44.7138 77.0171 44.8445 77.2047 44.8314 77.3739C44.788 77.9431 44.8702 78.5104 44.9079 79.079C44.9189 79.2495 44.8025 79.2992 44.6042 79.2169Z" fill="#FCE78D"/>
<path d="M42.1547 76.1223C42.2412 75.9896 42.2913 75.8827 42.4401 75.9289C42.5428 75.9606 42.5858 76.048 42.5896 76.1373C42.6181 76.774 42.6409 77.4106 42.6646 78.0469C42.6664 78.1144 42.6487 78.1856 42.5675 78.1868C42.5039 78.1881 42.4333 78.1601 42.3735 78.1306C42.3348 78.1113 42.2899 78.0698 42.2804 78.0329C42.1087 77.3805 42.0277 76.7283 42.1547 76.1223Z" fill="#FCE78D"/>
<path d="M11.6181 49.6961C11.7805 49.3848 11.9621 49.0846 12.2529 48.8641C12.3606 48.7823 12.4769 48.6918 12.6242 48.7876C12.7745 48.8856 12.7509 49.0369 12.6749 49.1435C12.3579 49.5906 12.028 50.0293 11.6951 50.4655C11.624 50.559 11.496 50.5965 11.3899 50.5184C11.289 50.4436 11.2759 50.3182 11.3307 50.2115C11.4207 50.0372 11.5218 49.8674 11.6181 49.6961Z" fill="#FCE78D"/>
<path d="M26.9528 85.6029C26.5864 85.4128 26.5715 85.1368 26.555 84.9198C26.5266 84.5513 26.5769 84.1797 26.6161 83.8132C26.632 83.6647 26.6903 83.4985 26.9044 83.5221C27.1208 83.5457 27.1572 83.7166 27.1423 83.8719C27.089 84.4279 27.0972 84.9948 26.9528 85.6029V85.6029Z" fill="#FCE78D"/>
<path d="M31.2602 87.9624C30.7491 87.6323 30.8019 87.1686 30.7653 86.7516C30.7396 86.4633 30.5345 85.9465 30.9576 85.9305C31.2783 85.9181 31.2048 86.4449 31.2417 86.7281C31.2956 87.1367 31.2585 87.5509 31.2602 87.9624V87.9624Z" fill="#FCE78D"/>
<path d="M47.4964 80.2547C47.249 80.2661 47.0851 80.1654 47.0157 79.9812C46.8344 79.4998 46.7585 79.0198 47.0682 78.5817C47.1152 78.5161 47.1466 78.4151 47.2745 78.4604C47.3792 78.497 47.4178 78.5757 47.4225 78.6694C47.4485 79.1979 47.4722 79.7268 47.4964 80.2547V80.2547Z" fill="#FCE78D"/>
<path d="M51.7106 80.457C51.7709 80.3886 51.8027 80.2563 51.9519 80.293C52.0968 80.3282 52.1082 80.4586 52.1113 80.5637C52.1235 80.9393 52.1228 81.314 52.1253 81.6888C52.1263 81.7988 52.1313 81.9217 51.9878 81.9492C51.8247 81.9806 51.7233 81.882 51.6538 81.7534C51.4913 81.4553 51.5198 80.7831 51.7106 80.457Z" fill="#FCE78D"/>
<path d="M33.5752 89.0745C33.4322 89.0689 33.3702 88.9639 33.3356 88.8638C33.166 88.3712 33.1093 87.8692 33.1414 87.3653C33.1485 87.2521 33.2036 87.1476 33.3393 87.1436C33.4759 87.1391 33.5374 87.2379 33.5744 87.3521C33.6492 87.5817 33.6513 88.7892 33.5752 89.0745Z" fill="#FCE78D"/>
<path d="M49.5396 81.0614C49.5124 81.0199 49.4536 80.9489 49.418 80.8696C49.3263 80.6611 49.2717 80.4425 49.2874 80.2248C49.3042 79.9957 49.248 79.6449 49.5512 79.6356C49.9058 79.6251 49.8014 79.9857 49.8516 80.1963C49.9037 80.4103 49.9418 80.6313 49.944 80.8473C49.9467 81.0592 49.7353 81.1779 49.5396 81.0614V81.0614Z" fill="#FCE78D"/>
<path d="M29.4071 86.827C28.9121 86.6148 28.8944 86.313 28.8218 86.0468C28.7332 85.7233 28.6835 85.3958 28.782 85.0777C28.7973 85.0274 28.8707 84.9785 28.9286 84.9641C29.0272 84.9389 29.1243 84.9998 29.1492 85.0848C29.2055 85.2758 29.2598 85.4722 29.2709 85.6653C29.2907 86.011 29.2592 86.3558 29.4071 86.827V86.827Z" fill="#FCE78D"/>
<path d="M61.5856 86.6738C62.0101 87.4427 61.8221 88.1477 61.5333 88.8434C61.6223 88.1239 61.3475 87.3768 61.5856 86.6738Z" fill="#FCE78D"/>
<path d="M39.1348 53.0867C39.3469 52.862 39.5994 52.6517 39.9463 52.5701C40.0613 52.543 40.1775 52.5734 40.2555 52.6816C40.3358 52.7913 40.318 52.9032 40.2405 52.9839C39.9897 53.243 39.6823 53.4193 39.2893 53.4244C39.085 53.4268 39.0122 53.2741 39.1348 53.0867Z" fill="#FCE78D"/>
<path d="M35.9235 89.9295C35.5413 89.5234 35.3608 89.0605 35.3789 88.5459C35.3837 88.4199 35.3788 88.2602 35.5516 88.2368C35.7347 88.2121 35.781 88.3612 35.8121 88.492C35.9226 88.9634 35.999 89.4366 35.9235 89.9295Z" fill="#FCE78D"/>
<path d="M40.8276 91.4618C40.3311 91.0707 40.1956 90.5432 40.1379 89.991C40.1285 89.9017 40.1934 89.8207 40.2968 89.8075C40.4455 89.7882 40.5089 89.8964 40.5411 90.0044C40.6833 90.4774 40.8841 90.9422 40.8276 91.4618V91.4618Z" fill="#FCE78D"/>
<path d="M38.4774 90.7157C37.9947 90.352 37.8591 89.8608 37.8232 89.3378C37.8175 89.2541 37.8484 89.1588 37.9634 89.1491C38.0714 89.1395 38.1281 89.2192 38.171 89.298C38.4151 89.7422 38.4469 90.2212 38.4774 90.7157V90.7157Z" fill="#FCE78D"/>
<path d="M43.7632 92.2135C43.1609 91.8092 43.0951 91.3592 43.0868 90.8928C43.0849 90.8071 43.1327 90.7147 43.2452 90.7118C43.3479 90.7086 43.4204 90.7764 43.4591 90.8636C43.6352 91.2584 43.7498 91.6623 43.7632 92.2135Z" fill="#FCE78D"/>
<path d="M22.5048 82.9373C22.2912 82.4613 22.3199 81.9673 22.3387 81.4757C22.3419 81.3865 22.4013 81.3094 22.5137 81.3316C22.6157 81.3514 22.6797 81.4353 22.6807 81.5257C22.6848 81.9979 22.6793 82.4692 22.6771 82.9411C22.6197 82.9399 22.5624 82.9384 22.5048 82.9373V82.9373Z" fill="#FCE78D"/>
<path d="M54.4001 82.6951C53.8662 82.3229 53.8327 81.8807 54.2833 81.3457C54.5805 81.8055 54.4033 82.2328 54.4001 82.6951Z" fill="#FCE78D"/>
<path d="M46.0476 92.5559C45.5618 92.291 45.4569 91.9578 45.3694 91.6178C45.3468 91.5292 45.3672 91.4439 45.466 91.4052C45.5724 91.3622 45.6506 91.4315 45.7011 91.5018C45.9058 91.7858 45.9845 92.1021 46.0476 92.5559V92.5559Z" fill="#FCE78D"/>
<path d="M48.0867 92.7709C47.6031 92.6049 47.5011 92.2944 47.4479 91.9593C47.4346 91.8751 47.4535 91.784 47.5586 91.754C47.6654 91.7237 47.7419 91.7919 47.7926 91.8636C47.9741 92.1224 48.1511 92.3861 48.0867 92.7709Z" fill="#FCE78D"/>
<path d="M49.8131 92.0173C50.2251 92.2624 50.3241 92.5078 50.3437 92.8629C49.9239 92.7017 49.8402 92.435 49.8131 92.0173Z" fill="#FCE78D"/>
<path d="M56.0525 82.2202C56.2476 82.4906 56.2994 82.7019 56.1618 82.9203C56.1457 82.9448 56.0004 82.9379 55.9779 82.9071C55.8064 82.6727 55.9056 82.4766 56.0525 82.2202Z" fill="#FCE78D"/>
<path d="M57.9422 83.3437C57.7562 83.217 57.7321 83.0471 57.8016 82.8741C57.8422 82.7717 57.9711 82.7979 58.0438 82.8418C58.2279 82.9535 58.2998 83.1093 58.1824 83.2937C58.127 83.3811 58.039 83.383 57.9422 83.3437V83.3437Z" fill="#FCE78D"/>
<path d="M59.3029 83.6536C59.3735 83.58 59.4743 83.5765 59.5452 83.6344C59.6569 83.7262 59.7128 83.8523 59.6109 83.9746C59.5505 84.0462 59.449 84.0683 59.3731 84.0006C59.2654 83.905 59.2152 83.7829 59.3029 83.6536V83.6536Z" fill="#FCE78D"/>
<path d="M51.0777 92.5957C50.966 92.5272 50.9121 92.439 50.9709 92.3212C51.0034 92.2557 51.0721 92.2343 51.1404 92.2624C51.2608 92.313 51.3277 92.4108 51.2947 92.5279C51.2677 92.624 51.1802 92.6454 51.0777 92.5957Z" fill="#FCE78D"/>
<path d="M52.2683 92.5691C52.1911 92.4794 52.1339 92.3865 52.2012 92.2759C52.2605 92.1773 52.367 92.203 52.4389 92.2455C52.5511 92.3116 52.5753 92.4172 52.4992 92.5228C52.4414 92.6034 52.3644 92.619 52.2683 92.5691V92.5691Z" fill="#FCE78D"/>
</svg>
