<svg width="393" height="260" viewBox="0 0 393 260" fill="none" xmlns="http://www.w3.org/2000/svg">
<path d="M74.9674 87.2787C82.0383 84.0556 82.398 77.5269 80.2963 71.4674C77.2635 62.7216 71.2834 54.0394 64.5945 47.7636C56.7576 40.411 48.631 33.0773 38.9301 28.1678C34.1197 25.7333 29.2889 23.7115 24.652 21.0068C22.5986 19.8093 19.6965 19.6374 17.3444 19.2557C16.192 19.0689 14.5672 18.3266 13.3682 18.4719C11.9741 18.6408 12.4266 19.6389 12.7194 20.7688C13.4466 23.5747 14.0464 26.4193 14.7892 29.2146C15.8788 33.3138 18.1306 36.9102 19.9386 40.6647C24.0251 49.1498 29.6446 57.6164 35.0197 65.295C37.9175 69.4343 41.1269 73.2494 44.9207 76.5887C49.3424 80.4814 53.439 84.5464 59.153 86.4205C60.6943 86.9259 62.1912 87.2548 63.7122 87.8132C64.9048 88.2507 66.1548 88.1408 67.3649 88.5194C69.703 89.2505 72.7069 88.3092 74.9674 87.2787Z" fill="#FFBB45"/>
<path d="M66.4221 74.7573L66.3395 74.8069L66.2456 74.8053C66.1037 74.8027 51.9692 74.4717 42.3556 68.3865C42.2122 68.2955 42.1773 68.1008 42.2782 67.9514C42.3766 67.8022 42.5763 67.7546 42.7202 67.8457C51.2224 73.2275 63.342 74.0421 65.8341 74.1545C60.9498 69.4892 56.0108 64.5927 51.2706 59.7858C50.0086 59.8726 40.1828 60.4008 33.6125 56.4459C33.4664 56.358 33.4275 56.1643 33.5247 56.0127C33.6237 55.8632 33.8193 55.8099 33.9654 55.8977C39.764 59.3883 48.2022 59.2983 50.68 59.1864C46.5345 54.9742 42.5535 50.8435 38.9065 47.0091C37.9945 47.0516 32.8177 47.0995 26.2683 43.2795C26.1211 43.1938 26.0796 43.0007 26.1751 42.8481C26.2708 42.6979 26.4674 42.6416 26.6147 42.7274C32.0553 45.9005 36.5977 46.3355 38.3043 46.3761C27.6379 35.1449 19.9878 26.6241 19.8309 26.4487C19.7175 26.3226 19.7352 26.1223 19.8691 26.0008C20.003 25.8799 20.2032 25.8838 20.3163 26.0099C20.4737 26.1853 28.1414 34.7266 38.8255 45.975C39.9377 37.5929 34.8579 30.8681 34.8048 30.8009C34.6994 30.6678 34.729 30.4701 34.869 30.3543C35.0094 30.2411 35.2082 30.2569 35.3137 30.3899C35.3691 30.4606 40.8193 37.6728 39.3775 46.5552C43.0433 50.4093 47.047 54.5632 51.2158 58.7984C53.2947 48.463 48.2426 38.4578 48.1902 38.3561C48.1125 38.2044 48.1765 38.0101 48.3342 37.9233C48.4911 37.8357 48.6816 37.8873 48.7595 38.0388C48.8136 38.1438 54.1107 48.6198 51.7448 59.3348C56.4807 64.138 61.4151 69.0294 66.294 73.6896C66.6652 71.2323 65.398 61.357 63.7765 52.1502C63.7467 51.9801 63.8626 51.8087 64.0353 51.7684C64.2084 51.7275 64.3726 51.832 64.4029 52.0022C64.4124 52.0558 65.3567 57.4353 66.0941 62.8623C67.1523 70.651 67.0828 73.2471 66.8128 74.1843C70.605 77.7967 74.3583 81.2623 77.951 84.4275C78.0781 84.5396 78.0832 84.7395 77.9625 84.8736L77.9616 84.8748C77.8406 85.0081 77.6404 85.0258 77.5134 84.9139C73.9438 81.7688 70.2157 78.3273 66.4482 74.7405L66.4221 74.7573Z" fill="white"/>
<path d="M94.8113 102.93C102.717 95.1388 101.924 87.9017 98.2569 82.6751C92.9646 75.1312 84.1369 69.4592 74.9079 66.8072C64.095 63.7004 52.9368 60.7913 40.3389 61.4511C34.0919 61.7781 27.898 62.5613 21.8091 62.4919C19.1129 62.4614 15.5876 64.0525 12.6848 65.0816C11.2627 65.5861 9.16777 65.7825 7.75193 66.6723C6.10567 67.707 6.83759 68.5029 7.40213 69.5381C8.80426 72.1089 10.0602 74.7992 11.479 77.349C13.5601 81.088 16.9455 83.5753 19.8265 86.5043C26.3381 93.1232 34.6912 98.7842 42.6023 103.748C46.8672 106.423 51.4464 108.56 56.6396 109.827C62.6925 111.305 68.3863 113.167 75.6156 111.685C77.5656 111.285 79.429 110.722 81.3645 110.392C82.8822 110.132 84.366 109.249 85.8937 108.916C88.8451 108.271 92.2839 105.421 94.8113 102.93Z" fill="#FFBB45"/>
<path d="M82.1754 94.7014L82.0853 94.8052L81.972 94.861C81.8007 94.9451 64.726 103.239 52.0125 102.581C51.8227 102.571 51.7442 102.384 51.8376 102.161C51.9281 101.941 52.1596 101.767 52.3498 101.777C63.5935 102.359 78.3339 95.8176 81.3545 94.4133C74.5998 92.388 67.7359 90.1478 61.1281 87.882C59.6254 88.7476 47.8981 95.3282 39.2474 95.0981C39.0551 95.0931 38.9719 94.9087 39.0604 94.6863C39.1516 94.465 39.377 94.288 39.5693 94.2929C47.204 94.4962 57.3434 89.2358 60.3047 87.5993C54.5244 85.6088 48.9572 83.6055 43.8478 81.716C42.7581 82.3197 36.5362 85.5391 27.9361 85.4413C27.7428 85.4392 27.6566 85.2571 27.7429 85.0347C27.8299 84.8146 28.0559 84.6339 28.2493 84.6359C35.3934 84.717 40.9424 82.4048 43.0041 81.4042C28.0574 75.8602 17.25 71.3835 17.0282 71.2911C16.8681 71.2249 16.8517 70.9988 16.9901 70.7863C17.1286 70.5745 17.3702 70.4562 17.5301 70.5224C17.7524 70.6147 28.5849 75.1025 43.5562 80.6541C43.3213 70.9645 35.9446 66.8454 35.868 66.8056C35.7162 66.7271 35.7147 66.4964 35.8615 66.2863C36.0093 66.0787 36.2515 65.9741 36.4035 66.0524C36.4834 66.0945 44.3973 70.511 44.3295 80.9399C49.4653 82.839 55.0641 84.8535 60.8767 86.8544C61.4387 74.4738 53.4796 66.8119 53.3974 66.7347C53.2754 66.6193 53.316 66.3712 53.4895 66.1815C53.6618 65.9913 53.9008 65.9302 54.023 66.0453C54.1078 66.1251 62.4502 74.1431 61.6142 87.1072C68.2161 89.3715 75.0735 91.6091 81.8207 93.6322C81.8062 90.764 78.427 80.9256 74.747 72.0225C74.6792 71.8579 74.7865 71.6028 74.9868 71.4538C75.1875 71.3039 75.4047 71.3158 75.4731 71.4802C75.4947 71.5319 77.6412 76.7358 79.5474 82.1175C82.2833 89.8412 82.6871 92.674 82.5381 93.8464C87.7806 95.4085 92.9488 96.8364 97.8672 98.0398C98.0412 98.0825 98.0849 98.2942 97.9648 98.5122L97.964 98.514C97.8433 98.7313 97.6057 98.8729 97.4318 98.8304C92.5449 97.6344 87.4116 96.217 82.2037 94.6674L82.1754 94.7014Z" fill="white"/>
<path d="M69.7958 80.6101C75.846 84.1414 79.8952 82.2393 82.2222 78.8945C85.581 74.0674 87.1704 67.3497 86.9286 60.9595C86.6452 53.4726 86.1803 45.804 83.3651 37.9074C81.9692 33.9917 80.3187 30.1978 79.1835 26.3062C78.6807 24.583 77.0762 22.6448 75.9183 20.9946C75.3508 20.1862 74.8323 18.8898 74.0423 18.1598C73.1237 17.311 72.8028 17.9308 72.3107 18.4902C71.0886 19.8796 69.7689 21.1989 68.5622 22.5948C66.7929 24.6421 66.0021 27.2786 64.8576 29.6791C62.2712 35.1043 60.5967 41.5175 59.2418 47.5146C58.5115 50.7476 58.155 54.0766 58.4215 57.629C58.7318 61.7696 58.7498 65.7557 61.0062 70.0741C61.6148 71.2388 62.3013 72.3171 62.8669 73.4861C63.3106 74.4026 64.1098 75.1773 64.5984 76.0858C65.5428 77.8412 67.8615 79.4813 69.7958 80.6101Z" fill="#FFBB45"/>
<path d="M72.1342 70.9734L72.0566 70.9361L72.0023 70.8747C71.9204 70.7818 63.8082 61.5076 61.7355 53.283C61.7047 53.1602 61.7987 53.0739 61.9458 53.0905C62.0914 53.1056 62.2367 53.2195 62.2677 53.3426C64.1007 60.6163 70.7445 68.7421 72.1431 70.395C72.0151 65.7017 71.9908 60.8974 72.0308 56.2513C71.2381 55.4613 65.153 49.2622 63.6166 43.7079C63.5823 43.5845 63.6733 43.4959 63.8196 43.5093C63.9657 43.5246 64.112 43.6341 64.1462 43.7575C65.5021 48.6595 70.5141 54.1021 72.036 55.6722C72.0759 51.6063 72.1645 47.6737 72.2752 44.0546C71.7143 43.4771 68.6438 40.1356 67.0403 34.6391C67.0042 34.5156 67.0932 34.4255 67.2391 34.4375C67.3837 34.4505 67.5322 34.5595 67.5684 34.6831C68.9005 39.2491 71.3144 42.337 72.2934 43.457C72.6271 32.8667 73.1402 25.1189 73.151 24.9598C73.1585 24.845 73.2866 24.7909 73.4368 24.8381C73.5865 24.8854 73.7019 25.0164 73.6942 25.131C73.6836 25.2905 73.1689 33.0564 72.8355 43.6638C78.4166 41.6436 79.3844 36.15 79.3927 36.0935C79.4089 35.9817 79.5426 35.9362 79.693 35.9891C79.842 36.0432 79.9496 36.1773 79.9334 36.2892C79.9244 36.3482 78.8877 42.2414 72.8189 44.2115C72.7076 47.8493 72.6187 51.8043 72.579 55.8928C79.8765 53.8606 82.789 47.3121 82.8179 47.2448C82.8614 47.1449 83.0133 47.1228 83.157 47.1967C83.3007 47.2697 83.3823 47.4101 83.339 47.5102C83.3091 47.5796 80.2638 54.441 72.5746 56.4113C72.5343 61.0534 72.5588 65.8531 72.6866 70.5411C74.3493 69.9782 79.4098 65.9265 83.8691 61.8639C83.9515 61.7889 84.1204 61.808 84.2456 61.9068C84.3714 62.0057 84.4064 62.1464 84.3242 62.2217C84.2983 62.2454 81.6909 64.6172 78.934 66.8703C74.9772 70.1039 73.4103 70.908 72.7007 71.0394C72.8058 74.6801 72.9744 78.2475 73.2251 81.6125C73.2339 81.7316 73.1194 81.8003 72.9696 81.7659L72.9684 81.7657C72.8189 81.7308 72.6909 81.6068 72.682 81.4878C72.433 78.1443 72.2651 74.6011 72.1595 70.9849L72.1342 70.9734Z" fill="white"/>
<path d="M-1.52422 171C-1.42901 171.064 -1.33184 171.129 -1.23326 171.194C-0.52655 171.664 0.27417 172.196 1.0231 172.984C2.46525 174.501 3.50121 176.339 4.50311 178.117C4.71497 178.492 4.92574 178.866 5.13835 179.234C6.4335 181.47 7.418 183.037 9.2264 184.39C10.8325 185.591 11.7265 186.957 12.6724 188.402C13.0342 188.955 13.4074 189.526 13.8322 190.101C16.5901 193.833 20.7704 195.989 24.8128 198.074C25.381 198.367 25.9482 198.66 26.5101 198.955C28.3598 199.929 30.1399 201.19 31.8615 202.408C34.3972 204.203 37.0192 206.059 39.7936 206.924C40.9907 207.297 42.1428 207.792 43.2564 208.27L43.5624 208.401C44.22 208.683 44.4062 208.909 45 209.227C45 209.227 69.2818 219.428 69.5 219.541L66.9995 221.684C66.9994 222.219 45.9453 212.217 45.8714 212.182C45.3605 211.944 44.8725 211.682 44.4002 211.428C43.8234 211.118 43.2785 210.825 42.7108 210.582L42.4024 210.45C41.3402 209.993 40.2415 209.521 39.1522 209.182C36.0466 208.214 33.2785 206.255 30.6017 204.36C28.8626 203.129 27.2197 201.966 25.4995 201.06C24.9434 200.767 24.3818 200.478 23.8188 200.187C19.5472 197.984 15.1297 195.706 12.0535 191.543C11.5891 190.914 11.1962 190.314 10.8169 189.734C9.95063 188.41 9.20192 187.266 7.91918 186.307C5.76553 184.696 4.61127 182.866 3.21559 180.456C2.99765 180.08 2.78231 179.699 2.56578 179.315C1.63493 177.662 0.67186 175.953 -0.57106 174.647C-1.14307 174.045 -1.7722 173.626 -2.43887 173.183C-3.3064 172.606 -4.19928 172.007 -5 171H-1.52422Z" fill="#72BDCA"/>
<path d="M269.833 194.144C269.869 194.205 269.922 194.302 269.833 194.144V194.144ZM337.823 179.612C337.104 181.797 336.405 183.539 335.199 185.484C334.709 186.275 334.48 186.606 333.813 187.375C333.294 187.974 332.728 188.52 332.331 188.838C331.127 189.802 330.037 190.375 328.731 190.794C328.081 191.002 327.413 191.158 326.738 191.271C326.102 191.377 325.216 191.463 324.804 191.479C318.528 191.733 312.415 189.648 306.137 189.739C302.73 189.788 299.44 190.44 296.425 192.038C294.269 193.181 292.391 194.759 290.252 195.943C288.102 197.133 285.813 198.087 283.402 198.639C279.897 199.44 276.091 199.271 273.063 197.388C271.741 196.566 270.876 195.685 269.968 194.354C269.918 194.281 269.871 194.205 269.825 194.13L269.805 194.095C269.713 193.932 269.624 193.768 269.54 193.602C269.37 193.266 269.218 192.923 269.082 192.573C269.028 192.432 268.978 192.289 268.929 192.146C268.916 192.098 268.836 191.841 268.817 191.771C268.712 191.375 268.626 190.974 268.561 190.57C268.553 190.52 268.516 190.238 268.502 190.139C268.495 190.014 268.465 189.598 268.463 189.494C268.444 188.823 268.443 188.652 268.598 187.991C268.518 188.334 268.713 187.668 268.739 187.599C268.751 187.565 268.803 187.456 268.812 187.434C268.831 187.397 268.851 187.361 268.873 187.327C269.103 186.954 269.121 186.874 269.563 186.465C269.446 186.573 269.791 186.288 269.878 186.227C270.051 186.108 270.231 185.999 270.416 185.898C270.732 185.724 271.07 185.605 271.499 185.488C272.336 185.259 273.173 185.181 274.029 185.227C275.687 185.317 277.275 185.725 278.626 186.632C279.148 186.982 279.349 187.237 279.676 187.762C279.51 187.862 279.33 187.969 279.174 188.017C278.717 188.159 278.248 188.277 277.77 188.32C276.211 188.462 275.951 192.267 277.836 192.096C279.654 191.931 281.479 190.965 282.125 189.218C283.021 186.796 281.777 184.222 279.636 182.907C276.315 180.867 271.255 180.687 268.31 183.449C264.954 186.597 265.47 192.401 267.428 196.154C269.139 199.433 272.159 201.748 275.832 202.577C280.528 203.637 285.432 202.211 289.614 200.136C291.009 199.443 292.353 198.653 293.648 197.795C294.676 197.113 295.649 196.357 296.727 195.748C298.181 194.925 299.752 194.355 301.494 193.99C308.132 192.599 314.954 194.889 321.701 195.262C324.962 195.443 328.232 195.118 331.142 193.574C334.698 191.69 337.02 188.211 338.61 184.683C339.154 183.476 339.625 182.245 340.038 180.989C340.281 180.251 340.351 178.981 339.553 178.513C338.758 178.048 338.036 178.964 337.823 179.612V179.612Z" fill="#9572FF"/>
<path d="M70.1608 218.558C70.1608 218.558 81.1271 233.853 69.6439 241.883C69.6439 241.883 58.7244 231.347 69.044 218.507L70.1608 218.558Z" fill="#72BDCA"/>
<path d="M100.408 226.459C100.408 226.459 79.0445 235.98 69.0442 218.507C69.0442 218.507 84.0278 208.99 100.408 226.459Z" fill="#72BDCA"/>
<path d="M315.988 126.494C315.988 126.494 315.892 107.213 330.006 106.936C330.006 106.936 331.923 121.604 315.988 126.494Z" fill="#72BDCA"/>
<path d="M48.0898 225.036C48.0898 225.036 48.1863 205.755 34.0725 205.478C34.0725 205.478 32.155 220.146 48.0898 225.036Z" fill="#72BDCA"/>
<path d="M307.415 83.5067C307.415 83.5067 330.624 87.372 328.774 107.314C328.774 107.314 310.831 106.97 307.415 83.5067V83.5067Z" fill="#72BDCA"/>
<path d="M55.7812 183.176C55.7812 183.176 32.572 187.041 34.4223 206.982C34.4223 206.982 52.3654 206.639 55.7812 183.176V183.176Z" fill="#72BDCA"/>
<path d="M325.148 85.1461C325.148 85.1461 342.249 69.3232 357.443 82.7477C357.443 82.7477 346.385 96.5694 325.148 85.1461V85.1461Z" fill="#72BDCA"/>
<path d="M38.0479 184.815C38.0479 184.815 20.9474 168.992 5.75338 182.417C5.75338 182.417 16.8115 196.238 38.0479 184.815V184.815Z" fill="#72BDCA"/>
<path d="M13.7409 207.938C13.7409 207.938 20.2929 190.476 5.25296 183.734C5.25296 183.734 -1.70867 196.172 13.7409 207.938V207.938Z" fill="#72BDCA"/>
<path d="M389.327 6.02329C398.343 5.55419 401.96 12.2413 402.761 19.78C403.918 30.6604 401.952 43.0858 398.049 53.3616C393.475 65.4007 388.588 77.5783 380.847 88.0609C377.009 93.259 372.944 98.033 369.422 103.421C367.862 105.807 364.902 107.575 362.624 109.264C361.508 110.092 360.172 111.763 358.842 112.266C357.296 112.85 357.275 111.55 357.022 110.199C356.393 106.842 355.611 103.515 355.003 100.161C354.112 95.2431 354.69 90.2195 354.724 85.2717C354.802 74.0899 356.497 62.0891 358.326 51.0528C359.312 45.1033 360.786 39.3253 363.11 33.7292C365.817 27.2062 368.098 20.6794 373.162 15.578C374.528 14.2021 375.936 13.0366 377.254 11.6159C378.288 10.5023 379.654 9.93442 380.736 8.87333C382.826 6.82361 386.444 6.1731 389.327 6.02329Z" fill="#72BDCA"/>
<path d="M386.521 23.7158L386.41 23.7087L386.313 23.762C386.165 23.8427 371.532 31.9659 364.48 43.7028C364.375 43.8781 364.435 44.1037 364.614 44.2066C364.791 44.3105 365.024 44.2512 365.129 44.0755C371.366 33.6955 383.651 26.1676 386.204 24.6782C383.4 32.3093 380.654 40.2155 378.071 47.9176C376.707 48.5196 366.159 53.3626 361.239 61.1679C361.129 61.3413 361.184 61.568 361.361 61.6754C361.539 61.7793 361.77 61.7282 361.879 61.5549C366.222 54.6662 375.1 50.1216 377.75 48.8777C375.495 55.6223 373.373 62.19 371.453 68.26C370.477 68.7165 365.034 71.5124 360.069 79.163C359.957 79.3348 360.009 79.5623 360.185 79.6716C360.359 79.7782 360.593 79.7298 360.705 79.5578C364.829 73.2026 369.37 70.2437 371.136 69.2622C365.53 87.0328 361.74 100.272 361.662 100.544C361.606 100.74 361.724 100.943 361.924 100.998C362.124 101.052 362.332 100.938 362.388 100.742C362.465 100.47 366.264 87.1994 371.88 69.4007C377.195 77.6744 375.206 87.5962 375.184 87.6967C375.139 87.8957 375.268 88.089 375.472 88.1348C375.675 88.1775 375.875 88.0515 375.92 87.8525C375.943 87.7471 378.078 77.105 372.171 68.4822C374.1 62.381 376.235 55.7761 378.503 48.9944C385.796 58.807 385.461 72.191 385.456 72.3276C385.45 72.531 385.613 72.7019 385.821 72.7071C386.029 72.7138 386.203 72.5543 386.209 72.3509C386.214 72.2098 386.573 58.1922 378.791 48.1348C381.371 40.4392 384.115 32.5408 386.916 24.9181C388.521 27.3187 392.084 38.4837 394.944 49.1347C394.997 49.3315 395.204 49.4494 395.404 49.3971C395.606 49.3453 395.726 49.1442 395.673 48.9472C395.657 48.8851 393.982 42.6635 392.067 36.5053C389.319 27.667 387.961 24.9533 387.214 24.1084C389.395 18.1938 391.609 12.4563 393.803 7.12562C393.881 6.93687 393.787 6.72217 393.594 6.64631L393.593 6.64556C393.4 6.57087 393.182 6.66216 393.104 6.85059C390.924 12.1474 388.725 17.8455 386.557 23.7192L386.521 23.7158Z" fill="white"/>
<path d="M413.313 185.926C411.194 185.823 408.798 186.931 407.217 188.25C406.778 188.616 406.474 189.174 406.098 189.5C405.641 189.896 404.918 190.118 404.354 190.313C401.479 191.311 396.455 191.762 396.422 187.586C396.393 183.873 396.49 180.163 395.926 176.477C395.468 173.491 394.561 169.251 391.282 168.032C389.266 167.283 386.972 168.083 385.048 168.719C383.056 169.377 381.278 170.334 379.442 171.311C378.277 171.932 377.539 171.557 376.653 170.639C375.831 169.79 375.078 168.794 374.857 167.621C374.662 166.594 374.819 165.525 374.878 164.494C374.975 162.799 374.892 161.113 374.611 159.437C374.406 158.221 374.115 157.019 373.773 155.833C373.559 155.094 373.323 154.361 373.072 153.633C372.772 152.768 372.517 151.795 372.079 150.987C371.879 150.619 371.632 150.311 371.506 149.899C371.159 148.764 371.654 147.755 372.705 147.187C373.878 146.553 375.276 146.271 376.551 145.899C378.232 145.408 379.908 144.887 381.529 144.227C385.168 142.745 388.659 140.514 390.647 137.091C391.818 135.074 392.261 132.843 392.364 130.549C392.501 127.528 392.696 124.497 393.162 121.506C393.68 118.185 394.619 112.523 398.747 111.736C399.866 111.523 401.016 111.698 402.146 111.58C403.315 111.458 404.469 111.16 405.514 110.625C406.929 109.9 408.294 108.681 408.622 107.09C408.877 105.857 408.333 104.625 406.949 104.498C405.879 104.4 404.759 104.709 403.739 104.985C402.262 105.386 400.81 105.874 399.339 106.297C397.738 106.759 396.135 107.104 394.486 107.349C393.336 107.52 392.172 107.682 391.05 107.991C389.308 108.47 387.748 109.39 386.794 110.93C385.824 112.495 385.467 114.337 385.234 116.127C384.966 118.189 384.806 120.262 384.552 122.325C384.273 124.586 383.93 126.872 383.214 129.045C382.679 130.67 381.862 132.74 380.231 133.601C378.933 134.286 377.4 134.694 376.018 135.194C374.551 135.723 373.079 136.241 371.604 136.749C370.089 137.272 368.572 137.787 367.048 138.286C365.979 135.078 363.803 131.737 360.778 130.036C355.59 127.118 349.139 130.649 345.939 134.848C345.181 135.844 344.476 136.954 343.972 138.119C340.942 136.926 339.273 133.481 339.004 130.478C338.873 129.023 339.04 127.57 338.808 126.12C338.66 125.199 338.398 124.3 338.053 123.431C337.431 121.864 336.574 120.387 336.431 118.679C336.194 115.862 337.495 113.055 338.742 110.597C339.754 108.604 339.774 106.16 339.525 103.976C339.441 103.235 339.301 102.499 339.091 101.783C338.836 100.914 338.338 100.136 338.098 99.2696C337.734 97.9558 338.167 96.549 339.2 95.6373C340.079 94.8604 341.431 94.4625 342.591 94.7797C343.243 94.9584 343.754 95.4036 344.315 95.754C344.915 96.1294 345.546 96.492 346.221 96.7225C347.736 97.2386 349.441 96.3367 348.92 94.6382C348.283 92.5603 346.212 90.7962 344.191 90.0549C342.025 89.3447 339.356 89.8938 337.286 90.6663C334.959 91.5349 333.245 93.1436 332.508 95.5083C332.07 96.9124 331.995 98.4363 331.821 99.8881C331.624 101.537 331.43 103.185 331.207 104.83C330.729 108.336 330.124 111.842 329.093 115.237C328.494 117.212 327.792 119.085 327.552 121.144C327.32 123.134 327.403 125.151 327.713 127.128C328.566 132.574 330.984 137.713 333.759 142.458C335.222 144.959 337.168 147.318 338.191 150.04C338.736 151.489 338.927 153.077 338.294 154.529C337.737 155.809 336.7 156.814 335.699 157.77C334.527 158.892 333.332 159.991 332.307 161.249C329.261 164.986 328.512 169.765 329.38 174.404C329.688 176.052 330.19 177.665 330.87 179.203C331.492 180.612 332.298 181.932 332.927 183.339C333.536 184.701 334.071 186.134 334.274 187.613C334.443 188.846 334.256 189.837 333.765 190.963C333.168 192.329 333.011 193.91 332.851 195.371C332.612 197.561 332.505 199.764 332.416 201.963C332.232 206.5 332.258 211.07 331.787 215.59C331.71 216.333 331.616 217.076 331.463 217.808C331.313 218.526 331.135 219.262 331.444 219.968C332.031 221.307 333.968 221.363 335.224 221.379C337.044 221.402 338.899 221.109 340.712 221.334C341.618 221.447 342.153 221.9 342.972 222.213C343.868 222.554 344.782 222.319 345.513 221.738C346.076 221.29 346.531 220.586 346.428 219.85C346.301 218.95 345.384 218.723 344.601 218.564C343.441 218.329 342.236 218.271 341.104 217.916C340.529 217.735 339.882 217.48 339.728 216.864C339.463 215.803 339.666 214.524 339.772 213.458C339.953 211.626 340.266 209.805 340.675 208.009C341.131 206.004 341.71 204.017 342.508 202.116C343.166 200.547 343.972 198.895 345.228 197.693C346.97 196.028 349.835 196.753 351.986 197.066C355.106 197.52 358.242 197.96 361.404 197.725C365.2 197.442 368.829 196.177 371.938 194.024C373.915 192.655 375.657 190.994 377.187 189.161C378.127 188.035 378.985 186.845 379.775 185.613C380.169 184.998 380.549 184.374 380.913 183.741C381.336 183.008 381.925 182.195 382.182 181.39C382.231 181.235 382.283 181.035 382.229 181.106C382.267 181.056 382.337 181.027 382.382 180.984C382.532 180.839 382.813 180.683 383.025 180.561C383.81 180.112 384.762 179.804 385.674 180.013C387.808 180.502 388.454 183.328 389.128 185.066C389.963 187.219 390.79 189.385 391.878 191.431C392.829 193.218 394.021 195.081 395.816 196.161C397.785 197.345 400.147 196.85 402.203 196.136C404.886 195.203 407.271 193.656 409.723 192.274C410.738 191.702 411.8 191.084 412.95 190.813C413.995 190.568 414.96 190.61 415.779 189.806C417.367 188.246 415.009 186.01 413.313 185.926V185.926Z" fill="#9572FF"/>
<path d="M362.774 142.949C362.667 142.79 362.555 142.65 362.471 142.479C362.419 142.374 362.391 142.251 362.338 142.149C362.31 142.074 362.296 141.997 362.295 141.916C362.113 141.915 362.12 141.896 362.319 141.861C362.553 141.654 362.97 141.544 363.235 141.335C363.613 141.037 363.939 140.672 364.215 140.282C364.814 139.432 365.193 138.361 365.046 137.321C364.662 134.612 361.07 132.574 358.52 133.789C357.405 134.321 356.525 135.312 355.952 136.416C355.744 136.212 355.536 136.008 355.328 135.805L355.263 135.742L355.184 135.692C353.114 134.322 350.425 134.457 348.616 136.184C346.667 138.046 346.059 141.218 348.924 142.558C350.437 143.267 352.065 143.221 353.696 143.2C354.293 143.193 354.51 143.173 354.177 143.742C353.986 144.067 353.784 144.386 353.604 144.717C352.636 146.502 351.78 148.708 352.402 150.736C353.164 153.224 356.263 154.458 358.73 154.174C361.358 153.871 363.558 151.904 364.175 149.399C364.518 148.006 364.401 146.566 363.935 145.213C363.656 144.407 363.254 143.658 362.774 142.949V142.949Z" fill="#FFC1EB"/>
<path d="M355.229 140.16C355.229 141.367 354.228 142.345 352.993 142.345C351.759 142.345 350.758 141.367 350.758 140.16C350.758 138.952 351.759 137.974 352.993 137.974C354.228 137.974 355.229 138.952 355.229 140.16Z" fill="white"/>
<path d="M358.461 146.474C358.586 146.662 358.757 146.77 358.843 146.715C358.93 146.66 358.899 146.463 358.774 146.276C358.649 146.088 358.478 145.98 358.391 146.035C358.305 146.09 358.337 146.286 358.461 146.474V146.474Z" fill="#1D0104"/>
<path d="M359.493 146.315C359.419 146.527 359.437 146.725 359.534 146.758C359.631 146.791 359.77 146.646 359.845 146.434C359.92 146.223 359.902 146.025 359.805 145.991C359.707 145.959 359.568 146.104 359.493 146.315V146.315Z" fill="#1D0104"/>
<path d="M363.381 138.617C363.381 139.824 362.38 140.803 361.145 140.803C359.911 140.803 358.91 139.824 358.91 138.617C358.91 137.41 359.911 136.431 361.145 136.431C362.38 136.431 363.381 137.41 363.381 138.617Z" fill="white"/>
<path d="M353.519 140.812C353.364 140.911 353.421 141.264 353.644 141.601C353.869 141.939 354.177 142.133 354.331 142.034C354.486 141.936 354.43 141.583 354.205 141.245C353.981 140.908 353.674 140.714 353.519 140.812Z" fill="#1D0104"/>
<path d="M353.633 140.983C353.619 141.051 353.648 141.249 353.812 141.496C353.976 141.743 354.149 141.849 354.219 141.864C354.233 141.796 354.204 141.597 354.04 141.351C353.876 141.104 353.703 140.998 353.633 140.983ZM354.237 142.254C354.149 142.254 354.039 142.227 353.908 142.145C353.755 142.048 353.603 141.893 353.479 141.707C353.182 141.259 353.153 140.814 353.412 140.65C353.671 140.485 354.075 140.691 354.373 141.139C354.671 141.588 354.7 142.032 354.44 142.197C354.397 142.224 354.33 142.254 354.237 142.254V142.254Z" fill="#1D0104"/>
<path d="M361.855 139.74C361.679 139.377 361.4 139.145 361.233 139.223C361.066 139.3 361.075 139.658 361.252 140.021C361.429 140.384 361.707 140.616 361.874 140.538C362.041 140.461 362.032 140.103 361.855 139.74Z" fill="#1D0104"/>
<path d="M361.321 139.406C361.298 139.472 361.3 139.672 361.429 139.937C361.559 140.203 361.716 140.33 361.783 140.355C361.806 140.288 361.804 140.089 361.674 139.823C361.545 139.557 361.388 139.43 361.321 139.406ZM361.8 140.748C361.704 140.748 361.58 140.712 361.436 140.593C361.298 140.478 361.168 140.304 361.071 140.104C360.973 139.905 360.918 139.696 360.913 139.519C360.906 139.206 361.056 139.089 361.146 139.047C361.237 139.006 361.424 138.965 361.668 139.168C361.806 139.283 361.935 139.456 362.033 139.656C362.268 140.139 362.236 140.584 361.958 140.713C361.921 140.731 361.867 140.748 361.8 140.748V140.748Z" fill="#1D0104"/>
<path d="M357.655 151.787C358.213 152.222 358.965 152.244 359.828 151.08C360.516 150.152 359.786 148.855 358.614 148.898C357.123 149.015 356.485 150.874 357.655 151.787Z" fill="white"/>
<path d="M366.932 138.102L366.406 141.188C366.406 141.188 369.036 144.017 370.614 141.188C372.192 138.36 369.562 135.531 366.932 138.102Z" fill="#FFC1EB"/>
<path d="M366.548 141.146C366.779 141.378 367.906 142.436 369.015 142.306C369.602 142.237 370.102 141.84 370.5 141.127C371.347 139.608 370.932 138.187 370.086 137.567C369.078 136.83 367.866 137.387 367.056 138.165L366.548 141.146V141.146ZM368.822 142.574C367.533 142.574 366.362 141.331 366.31 141.275L366.267 141.229L366.81 138.041L366.84 138.011C368.194 136.687 369.486 136.808 370.243 137.361C371.18 138.047 371.649 139.603 370.73 141.25C370.289 142.041 369.722 142.482 369.046 142.561C368.97 142.57 368.896 142.574 368.822 142.574V142.574Z" fill="#B9A88D"/>
<path d="M344.791 138.617L345.317 141.703C345.317 141.703 342.687 144.532 341.109 141.703C339.531 138.874 342.161 136.045 344.791 138.617Z" fill="#FFC1EB"/>
<path d="M342.681 137.736C342.326 137.736 341.971 137.838 341.639 138.082C340.792 138.701 340.378 140.123 341.224 141.641C341.623 142.354 342.122 142.751 342.709 142.82C343.816 142.952 344.945 141.892 345.176 141.66L344.668 138.679C344.125 138.158 343.402 137.736 342.681 137.736ZM342.903 143.089C342.828 143.089 342.753 143.085 342.679 143.076C342.001 142.997 341.435 142.555 340.994 141.764C340.075 140.118 340.544 138.562 341.481 137.875C342.238 137.321 343.53 137.202 344.884 138.526L344.914 138.555L345.457 141.743L345.415 141.789C345.363 141.845 344.191 143.089 342.903 143.089V143.089Z" fill="#B9A88D"/>
<path d="M344.074 140.208C343.539 140.008 342.813 139.849 342.251 140.069C342.235 139.621 342.318 139.172 342.522 138.758C342.609 138.581 342.226 138.602 342.162 138.732C341.916 139.23 341.833 139.769 341.878 140.3L341.88 140.335C341.934 140.889 342.128 141.432 342.429 141.909C342.507 142.033 342.875 141.904 342.78 141.753C342.498 141.306 342.314 140.788 342.263 140.26C342.63 139.977 343.376 140.224 343.765 140.369C343.862 140.405 344.209 140.258 344.074 140.208V140.208Z" fill="#1D0104"/>
<path d="M369.611 139.189C369.655 138.672 369.574 138.146 369.337 137.667C369.285 137.561 368.916 137.685 368.956 137.767C369.146 138.15 369.234 138.561 369.239 138.974C368.695 138.793 367.982 138.988 367.491 139.172C367.244 139.264 367.466 139.415 367.647 139.348C368.092 139.182 368.817 138.984 369.224 139.312C369.173 139.847 368.984 140.373 368.695 140.832C368.655 140.896 369.01 140.873 369.073 140.773C369.357 140.323 369.544 139.806 369.603 139.278L369.611 139.189V139.189Z" fill="#1D0104"/>
<path d="M362.72 76.4739C362.625 76.534 362.528 76.594 362.429 76.6552C361.723 77.094 360.922 77.5909 360.173 78.3262C358.731 79.7424 357.695 81.4584 356.693 83.1185C356.481 83.4691 356.27 83.8182 356.058 84.1616C354.762 86.2494 353.778 87.7124 351.97 88.975C350.363 90.0966 349.469 91.3716 348.524 92.7213C348.162 93.2375 347.789 93.7704 347.364 94.3072C344.606 97.7919 340.426 99.8045 336.383 101.751C335.815 102.025 335.248 102.298 334.686 102.574C332.836 103.484 331.056 104.66 329.334 105.798C326.799 107.474 324.177 109.206 321.402 110.014C320.205 110.363 319.053 110.824 317.94 111.271L317.634 111.393C316.976 111.657 316.362 111.965 315.769 112.262C315.544 112.375 315.325 112.485 315.106 112.591V115.009C315.179 114.983 315.251 114.956 315.325 114.924C315.835 114.701 316.323 114.456 316.796 114.219C317.373 113.93 317.917 113.656 318.485 113.429L318.794 113.306C319.856 112.88 320.954 112.439 322.044 112.122C325.149 111.218 327.917 109.389 330.594 107.62C332.333 106.471 333.976 105.385 335.696 104.539C336.253 104.266 336.814 103.996 337.377 103.725C341.649 101.668 346.066 99.5402 349.143 95.6535C349.607 95.0665 350 94.5065 350.379 93.9649C351.245 92.7285 351.994 91.6607 353.277 90.7655C355.43 89.2614 356.585 87.5529 357.98 85.3023C358.198 84.9518 358.414 84.5952 358.63 84.2368C359.561 82.6937 360.524 81.0981 361.767 79.8787C362.339 79.3168 362.968 78.926 363.635 78.5123C364.502 77.9737 365.395 77.4141 366.196 76.4739H362.72V76.4739Z" fill="#72BDCA"/>
</svg>
