<svg width="158" height="29" viewBox="0 0 158 29" fill="none" xmlns="http://www.w3.org/2000/svg">
<path fill-rule="evenodd" clip-rule="evenodd" d="M39.1745 19.575C39.1745 21.6976 39.169 23.6908 39.169 25.8133C33.7874 26.6633 32.8987 19.575 39.1745 19.575ZM125.794 19.575C125.794 21.6976 125.789 23.6908 125.789 25.8133C120.407 26.6633 119.519 19.575 125.794 19.575ZM133.741 25.0479C133.735 21.7423 133.735 18.4417 133.741 15.136C133.752 8.01292 122.977 7.59041 117.502 10.1702C111.444 13.0235 115.785 18.3522 120 16.4732C122.917 15.1709 123.056 11.6963 119.938 10.2299C124.939 9.7328 125.856 12.6507 125.811 15.3249C125.789 16.4683 125.811 17.5171 125.794 18.3075C112.069 15.9812 109.98 27.4139 118.429 28.8207C122.207 29.273 124.392 28.1943 125.789 27.0064V28.6766H132.74H133.741H136.692L133.741 26.6087V26.5838V25.0479ZM137.24 11.6316L140.185 13.6995L140.19 26.6038L137.24 28.6716H148.12H151.071L148.12 26.6038V26.5938V25.0479V23.7207V12.1287L150.177 11.7062C148.561 14.4203 150.981 16.7863 153.697 16.7566C158.722 16.6969 159.644 9.43954 154.435 8.76848C151.769 8.47522 149.708 9.93167 148.126 10.8612V8.94246L137.24 11.6316ZM50.6251 11.6316L53.5702 13.6995L53.5758 26.6038L50.6251 28.6716H61.5057H64.4564L61.5057 26.6038V26.5938V25.361V25.0479V23.7207V12.1287L63.5622 11.7062C61.9472 14.4203 64.367 16.7863 67.0828 16.7566C72.1068 16.6969 73.0289 9.43954 67.8205 8.76848C65.1549 8.47522 63.0928 9.93167 61.5057 10.8612V8.94246L50.6251 11.6316ZM10.875 27.4089V15.2902C19.3581 15.2902 20.1293 27.2449 10.875 27.4089ZM10.875 2.98745C17.894 2.98745 17.6817 14.1569 10.875 14.1569V2.98745ZM2.95066 3.78278V26.5987L0 28.6815H7.82372H13.6748H15.5749C29.6631 28.1247 28.5789 14.5048 17.3743 14.6887C26.4498 14.4452 26.7013 1.60059 13.63 1.72487L0.00559383 1.7199L2.95066 3.78278ZM97.3384 0V9.867C98.6069 9.37989 102.999 7.73953 107.029 9.61846C110.404 11.1942 111.929 14.296 112.086 17.4972C112.344 22.7811 109.549 28.5921 102.803 28.9003C100.831 28.9897 98.864 28.4628 97.3384 27.0859V28.6766H86.4577L89.4084 26.6087L89.4029 4.77694L86.4577 2.70908L97.3384 0ZM97.3384 25.7587C105.408 27.5283 106.19 10.3691 97.3384 11.1496V25.7587ZM79.0252 0C81.188 0 82.9427 1.56083 82.9427 3.48452C82.9427 5.40823 81.188 6.96907 79.0252 6.96907C76.8626 6.96907 75.1078 5.40823 75.1078 3.48452C75.1022 1.56083 76.857 0 79.0252 0ZM82.993 25.0528V25.709V26.6087L85.9436 28.6766H82.993H72.1124L75.0631 26.6087L75.0575 13.6647L72.1124 11.597L82.9986 8.88776L82.993 25.0528ZM47.1212 25.0479C47.1156 21.7423 47.1156 18.4417 47.1212 15.136C47.1324 8.01292 36.3579 7.59041 30.8813 10.1702C24.8235 13.0235 29.1658 18.3522 33.3794 16.4732C36.2965 15.1709 36.4362 11.6963 33.3179 10.2299C38.3195 9.7328 39.236 12.6507 39.1912 15.3249C39.169 16.4683 39.1912 17.5171 39.1745 18.3075C25.4495 15.9812 23.3594 27.4139 31.809 28.8207C35.5868 29.273 37.7719 28.1943 39.169 27.0064V28.6766H46.1208H47.1212H50.0719L47.1212 26.6087V26.5838V25.0479Z" fill="white"/>
<path fill-rule="evenodd" clip-rule="evenodd" d="M39.885 0.9058C40.0504 0.723297 40.2486 0.563599 40.4855 0.422158C41.7193 -0.303298 43.4214 -0.0706054 44.2863 0.942299C45.1566 1.9552 44.8591 3.36505 43.6308 4.09051C43.3829 4.23651 43.1185 4.34145 42.8486 4.40988L35.3572 6.19844L39.885 0.9058Z" fill="#F92525"/>
</svg>
