<svg width="27" height="27" viewBox="0 0 27 27" fill="none" xmlns="http://www.w3.org/2000/svg">
<circle cx="13.5" cy="13.5" r="13.5" fill="white"/>
<path d="M16.24 14C16.24 14.443 16.1086 14.8761 15.8625 15.2445C15.6164 15.6128 15.2665 15.9 14.8572 16.0695C14.4479 16.239 13.9975 16.2834 13.563 16.197C13.1285 16.1105 12.7294 15.8972 12.4161 15.5839C12.1028 15.2706 11.8895 14.8715 11.803 14.437C11.7166 14.0025 11.761 13.5521 11.9305 13.1428C12.1 12.7335 12.3872 12.3836 12.7555 12.1375C13.1239 11.8914 13.557 11.76 14 11.76C14.5935 11.7618 15.1622 11.9984 15.5819 12.4181C16.0016 12.8378 16.2382 13.4065 16.24 14ZM21 10.92V17.08C21 18.1196 20.587 19.1167 19.8519 19.8519C19.1167 20.587 18.1196 21 17.08 21H10.92C9.88035 21 8.88328 20.587 8.14814 19.8519C7.413 19.1167 7 18.1196 7 17.08V10.92C7 9.88035 7.413 8.88328 8.14814 8.14814C8.88328 7.413 9.88035 7 10.92 7H17.08C18.1196 7 19.1167 7.413 19.8519 8.14814C20.587 8.88328 21 9.88035 21 10.92ZM17.36 14C17.36 13.3355 17.1629 12.6858 16.7937 12.1333C16.4245 11.5807 15.8998 11.1501 15.2858 10.8958C14.6719 10.6415 13.9963 10.5749 13.3445 10.7046C12.6927 10.8342 12.094 11.1542 11.6241 11.6241C11.1542 12.094 10.8342 12.6927 10.7046 13.3445C10.5749 13.9963 10.6415 14.6719 10.8958 15.2858C11.1501 15.8998 11.5807 16.4245 12.1333 16.7937C12.6858 17.1629 13.3355 17.36 14 17.36C14.8911 17.36 15.7458 17.006 16.3759 16.3759C17.006 15.7458 17.36 14.8911 17.36 14ZM18.48 10.36C18.48 10.1939 18.4307 10.0315 18.3384 9.89332C18.2461 9.75518 18.1149 9.64752 17.9615 9.58394C17.808 9.52036 17.6391 9.50373 17.4761 9.53614C17.3132 9.56855 17.1635 9.64855 17.046 9.76603C16.9286 9.88351 16.8486 10.0332 16.8161 10.1961C16.7837 10.3591 16.8004 10.528 16.8639 10.6815C16.9275 10.8349 17.0352 10.9661 17.1733 11.0584C17.3115 11.1507 17.4739 11.2 17.64 11.2C17.8628 11.2 18.0764 11.1115 18.234 10.954C18.3915 10.7964 18.48 10.5828 18.48 10.36Z" fill="black"/>
</svg>
