<svg width="526" height="506" viewBox="0 0 526 506" fill="none" xmlns="http://www.w3.org/2000/svg">
<path d="M35.6035 335.571H502.352V95.1912H35.6035V335.571Z" fill="#5C42AA"/>
<path fill-rule="evenodd" clip-rule="evenodd" d="M513.996 81.1823H34.6033C31.3286 81.1823 28.2119 83.6277 28.2119 86.9765V94.249C28.2119 95.8687 29.0755 97.42 30.1996 98.556C31.3233 99.6966 32.9614 100.326 34.5437 100.313L513.663 95.6908C516.916 95.6588 519.26 92.9533 519.26 89.6273V86.9765C519.26 83.6277 517.273 81.1823 513.996 81.1823Z" fill="#5C42AA"/>
<path fill-rule="evenodd" clip-rule="evenodd" d="M513.895 332.621H25.2144C21.8763 332.621 18.6992 335.459 18.6992 338.808V346.08C18.6992 347.698 19.5795 349.25 20.7255 350.388C21.8711 351.526 23.5406 352.158 25.1534 352.143L513.552 347.523C516.872 347.49 519.258 344.786 519.258 341.459V338.808C519.258 335.459 517.234 332.621 513.895 332.621Z" fill="#5C42AA"/>
<path d="M484.445 109.072L49.6319 106.531C47.8089 106.522 45.7955 107.238 44.5028 108.529C43.21 109.816 42.2217 111.568 42.2217 113.398V321.286C42.2217 325.079 45.7717 328.196 49.5532 328.196H484.33C488.108 328.196 491.328 325.079 491.328 321.286V115.943C491.328 112.166 488.212 109.095 484.445 109.072Z" fill="#BDD0FB"/>
<path fill-rule="evenodd" clip-rule="evenodd" d="M219.254 214.698C198.788 195.842 198.829 163.694 219.367 143.331C239.742 123.125 272.489 122.313 292.348 141.225C312.034 159.975 311.947 191.386 292.171 211.534C272.239 231.839 239.541 233.388 219.254 214.698ZM311.141 122.335C281.064 93.446 231.165 94.395 199.95 125.123C168.36 156.223 168.328 205.476 199.82 234.234C227.69 259.687 270.648 260.166 300.965 237.635L337.378 271.604L320.696 288.945L339.111 305.988L355.665 288.661L379.666 311.052L397.747 291.956L373.931 269.544L389.807 252.926L371.783 235.836L355.785 252.468L319.577 218.398C340.143 188.505 337.613 147.762 311.141 122.335Z" fill="#FFC1EB"/>
<path fill-rule="evenodd" clip-rule="evenodd" d="M348.668 87.524C369.24 104.838 371.385 135.774 353.505 156.764C335.503 177.897 303.71 181.337 282.572 164.155C261.234 146.811 258.94 115.168 277.514 93.9023C295.963 72.7827 327.905 70.0452 348.668 87.524ZM264.806 184.752C297.158 210.803 345.623 205.162 372.87 172.97C399.83 141.115 396.472 94.4452 365.433 68.0879C337.239 44.1442 295.106 44.9244 266.285 68.4575L220.41 30.3428L231.369 28.4768L231.848 28.3946L240.824 26.8617L239.589 19.7032L239.523 19.3245L238.58 13.877L238.545 13.6762L236.326 0.842041L225.353 2.62598L225.177 2.65333L217.654 3.87607L217.177 3.9491L193.495 7.78151L176.311 10.5555L176.309 10.592L176.343 10.6467L175.845 28.7551L176.01 28.8692L175.458 50.4404L175.451 50.9149L175.242 58.8718L175.238 58.9767L175.18 59.109L175.234 59.1273L174.963 69.4248L188.106 69.5525H188.322L194.715 69.6164L195.118 69.6209L202.718 69.694L202.957 60.82L202.972 60.35L203.217 51.2434L248.665 88.66C229.587 120.132 235.588 161.225 264.806 184.752Z" fill="#72BDCA"/>
<path fill-rule="evenodd" clip-rule="evenodd" d="M279.998 232.275C279.382 231.702 279.41 230.745 280.059 230.206L356.714 164.695C356.93 164.511 357.24 164.469 357.499 164.588C357.955 164.798 358.045 165.38 357.674 165.708L282.013 232.302C281.441 232.806 280.555 232.795 279.998 232.275Z" fill="#0A015F"/>
<path fill-rule="evenodd" clip-rule="evenodd" d="M248.269 235.395C248.269 235.395 270.971 243.268 281.624 239.538C282.1 239.371 282.556 239.183 282.98 238.967C292.912 233.944 294.126 220.357 294.126 220.357L298.585 221.204C298.585 221.204 300.04 243.053 284.407 252.441C276.716 257.061 264.887 258.665 246.708 253.159L248.269 235.395Z" fill="#FFBB45"/>
<path fill-rule="evenodd" clip-rule="evenodd" d="M294.354 221.541L294.128 220.357C294.128 220.357 293.197 217.464 295.657 214.617C299.213 210.5 301.816 212.014 301.816 212.014C301.816 212.014 301.632 212.894 301.643 213.675C301.654 214.305 302.441 214.624 302.927 214.198L308.728 209.089C308.728 209.089 310.354 217.202 297.91 222.777L294.354 221.541Z" fill="#FFBB45"/>
<path fill-rule="evenodd" clip-rule="evenodd" d="M187.558 413.664L186.825 419.428C186.685 420.521 185.787 421.386 184.644 421.51C182.715 421.721 179.621 421.937 176.592 421.631C175.262 421.496 174.398 420.207 174.803 418.986C175.541 416.762 176.893 413.421 178.841 411.456H185.516C186.749 411.456 187.706 412.489 187.558 413.664Z" fill="#5C42AA"/>
<path fill-rule="evenodd" clip-rule="evenodd" d="M239.84 346.143L240.966 352.491C240.966 352.491 237.194 389.098 236.524 403.742C236.418 406.036 237.038 408.306 238.296 410.261L244.856 420.467L228.181 411.043L227.85 409.094L230.579 405.499L227.004 364.49C226.795 362.08 227.313 359.664 228.5 357.53L231.949 351.324L239.84 346.143Z" fill="#FFBB45"/>
<path fill-rule="evenodd" clip-rule="evenodd" d="M245.953 421.944H240.633C239.636 421.944 238.697 421.508 238.09 420.752C236.431 418.686 232.995 414.658 231.351 414.553C229.138 414.413 229.422 421.944 229.422 421.944H228.181L226.61 412.585C226.216 410.229 227.439 407.896 229.646 406.792C229.646 406.792 230.153 410.375 232.894 411.959C235.636 413.543 244.053 419.219 244.053 419.219C244.053 419.219 245.084 419.078 246.215 419.273C247.893 419.563 247.66 421.944 245.953 421.944Z" fill="#5C42AA"/>
<path fill-rule="evenodd" clip-rule="evenodd" d="M217.002 349.158C217.002 349.158 194.899 389.32 191.385 398.488C187.872 407.658 186.64 415.308 186.593 416.033C186.52 417.164 185.051 418.25 180.999 418.25C178.909 418.25 177.884 417.447 177.383 416.669C176.956 416.007 176.933 415.178 177.292 414.478C178.572 412.001 182.629 404.079 184.131 400.487C185.927 396.197 189.786 376.76 191.903 370C194.02 363.242 196.412 355.91 205.629 349.158C205.629 349.158 211.956 343.222 217.002 349.158Z" fill="#FFBB45"/>
<path fill-rule="evenodd" clip-rule="evenodd" d="M230.965 283.35C236.666 260.209 222.222 247.119 222.222 247.119C229.547 240.386 241.706 236.601 246.202 235.375C247.304 235.074 248.485 235.306 249.376 235.995C253.233 238.979 263.438 247.643 261.909 254.709C260.807 259.798 250.77 285.2 250.77 285.2C250.77 285.2 241.49 289.407 230.965 283.35Z" fill="#9572FF"/>
<path fill-rule="evenodd" clip-rule="evenodd" d="M218.324 294.808C220.645 288.113 230.966 283.35 230.966 283.35C241.491 289.407 250.771 285.2 250.771 285.2C250.771 285.2 252.852 292.818 251.417 299.901C249.98 306.982 240.967 352.491 240.967 352.491C226.768 355.246 204.927 349.719 204.927 349.719C213.973 334.337 216.004 301.505 218.324 294.808Z" fill="#9572FF"/>
<path fill-rule="evenodd" clip-rule="evenodd" d="M237.584 219.634L232.948 239.578C232.504 241.335 234.176 241.048 236.03 240.713C239.068 240.164 242.982 239.035 244.289 236.771C244.422 236.542 244.488 236.28 244.526 236.021L246.518 222.191C246.677 221.094 246.057 220.027 245 219.578L241.157 217.947C239.676 217.318 237.964 218.126 237.584 219.634Z" fill="#FFBB45"/>
<path fill-rule="evenodd" clip-rule="evenodd" d="M246.462 201.453C246.462 201.453 251.398 204.651 253.519 212.8C255.638 220.949 252.193 223.874 248.659 223.693C245.126 223.514 240.005 222.468 235.568 216.621C231.13 210.776 239.996 197.541 246.462 201.453Z" fill="#FFBB45"/>
<path fill-rule="evenodd" clip-rule="evenodd" d="M240.044 213.336C240.044 213.336 238.236 201.658 248.358 203.444L250.403 205.485C250.403 205.485 255.357 200.141 249.876 196.102C244.393 192.062 236.785 193.096 232.576 200.451C228.366 207.805 226.839 212.974 230.366 217.543C233.894 222.113 236.548 218.193 236.548 218.193C236.548 218.193 234.93 214.238 236.273 212.541C237.616 210.843 239.347 213.527 239.347 213.527L240.044 213.336Z" fill="#0A015F"/>
<path fill-rule="evenodd" clip-rule="evenodd" d="M238.658 214.335C238.658 214.335 237.767 208.328 234.563 210.046C231.36 211.763 235.718 215.656 237.464 216.982L238.658 214.335Z" fill="#FFBB45"/>
<path fill-rule="evenodd" clip-rule="evenodd" d="M222.156 247.46C222.156 247.46 212.317 262.54 210.348 273.85C208.38 285.16 227.077 289.872 233.964 283.274L232.981 278.562C232.981 278.562 222.156 280.448 221.173 274.792C220.188 269.138 230.029 257.828 230.029 257.828C230.029 257.828 227.077 249.345 222.156 247.46Z" fill="#FFBB45"/>
<path fill-rule="evenodd" clip-rule="evenodd" d="M230.377 292.957L241.563 255.542C241.689 255.117 242.068 254.806 242.527 254.756C244.553 254.529 250.424 253.894 257.205 253.345C265.372 252.683 274.857 252.147 280.524 252.602C281.331 252.667 281.816 253.484 281.458 254.178C278.236 260.424 264.978 285.829 258.341 294.151C258.12 294.427 257.78 294.588 257.418 294.584L231.465 294.353C230.71 294.346 230.169 293.653 230.377 292.957Z" fill="#5C42AA"/>
<path fill-rule="evenodd" clip-rule="evenodd" d="M233.08 283.917C233.08 283.917 231.522 277.781 232.152 275.603C232.779 273.426 233.997 270.626 238.056 271.249C242.115 271.871 246.903 273.509 246.903 273.509C246.903 273.509 246.662 276.345 243.577 275.431L245.49 276.847C245.49 276.847 245.215 279.118 242.61 277.906L244.39 279.785C244.39 279.785 243.27 281.651 241.352 280.455C239.437 279.258 238.518 284.656 233.08 283.917Z" fill="#FFBB45"/>
<path d="M8.45268 416.747C7.04752 418.739 1.46262 463.833 0.588573 480.488C0.529524 481.614 1.47025 482.554 2.64723 482.554C3.66276 482.554 4.52682 481.845 4.68352 480.883L14.8983 418.181L8.45268 416.747Z" fill="#77C8D6"/>
<path d="M53.3568 416.747C54.7619 418.739 60.3469 463.833 61.2214 480.488C61.2804 481.614 60.3397 482.554 59.1622 482.554C58.1472 482.554 57.2831 481.845 57.1264 480.883L46.9111 418.181L53.3568 416.747Z" fill="#77C8D6"/>
<path d="M0.00502261 413.228L0.000267579 413.72C-0.0335816 417.258 3.14829 420.159 7.13273 420.224L54.3499 420.994C58.2768 421.057 61.5501 418.338 61.7406 414.856L61.7654 414.406C61.964 410.774 58.7436 407.714 54.6486 407.644L7.41095 406.832C3.36789 406.763 0.0388184 409.637 0.00502261 413.228Z" fill="#91B3FA"/>
<path fill-rule="evenodd" clip-rule="evenodd" d="M112.281 478.147C112.234 477.981 112.163 477.815 112.039 477.663C109.776 474.898 105.234 470.554 99.053 470.637C89.998 470.759 86.8409 471.699 79.8047 470.689L78.1452 475.96C77.9761 476.496 77.9727 477.034 78.0942 477.532C79.7551 478.161 83.4686 478.851 91.8624 478.851C101.708 478.851 108.897 478.408 112.281 478.147Z" fill="#5C42AA"/>
<path fill-rule="evenodd" clip-rule="evenodd" d="M81.8439 465.01L79.8066 471.649C79.8066 471.649 84.3203 473.617 88.2905 472.036L89.0702 466.285L81.8439 465.01Z" fill="#FFBB45"/>
<path fill-rule="evenodd" clip-rule="evenodd" d="M158.846 461.874C158.701 461.773 158.538 461.688 158.342 461.645C154.778 460.855 148.41 460.211 143.645 463.983C136.667 469.511 134.819 472.135 128.675 475.572L130.811 480.658C131.029 481.176 131.376 481.594 131.796 481.906C133.499 481.399 136.843 479.705 143.387 474.67C151.062 468.764 156.379 464.107 158.846 461.874Z" fill="#5C42AA"/>
<path fill-rule="evenodd" clip-rule="evenodd" d="M38.2557 389.385C38.2557 389.385 88.508 393.314 98.8172 397.963C109.126 402.61 90.4043 467.761 90.4043 467.761C90.4043 467.761 87.5978 469.054 81.3527 467.194C81.3527 467.194 87.7569 419.118 82.9917 408.692L28.5811 400.167L38.2557 389.385Z" fill="#5C42AA"/>
<path fill-rule="evenodd" clip-rule="evenodd" d="M123.683 466.42C124.149 466.828 128.675 475.572 128.675 475.572C128.675 475.572 133.716 474.528 134.742 471.473L130.209 463.581L123.683 466.42Z" fill="#FFBB45"/>
<path fill-rule="evenodd" clip-rule="evenodd" d="M7.98849 388.982C7.98849 388.982 6.35086 392.757 6.41803 397.772C6.51044 404.708 12.3321 410.337 19.5656 410.683L78.9724 413.278C80.2271 413.334 81.2888 414.164 81.6031 415.329C82.9988 420.501 89.8226 436.385 123.176 468.076C124.066 468.919 125.448 469.064 126.504 468.425L131.253 465.55C131.75 465.249 131.91 464.623 131.613 464.136L97.0223 407.559C95.2051 404.687 92.2848 402.612 88.8881 401.78L38.2556 389.385L7.98849 388.982Z" fill="#5C42AA"/>
<path fill-rule="evenodd" clip-rule="evenodd" d="M76.9054 301.873C76.9054 301.873 60.1687 311.382 53.6797 316.603L67.0911 323.771C67.0911 323.771 74.3384 315.752 81.2427 312.411L76.9054 301.873Z" fill="#FFBB45"/>
<path fill-rule="evenodd" clip-rule="evenodd" d="M6.90918 389.385C6.90918 389.385 22.9471 393.128 38.2552 389.385C38.2552 389.385 59.6751 361.804 67.9622 354.295C67.9622 354.295 81.1807 374.276 110.604 377.108L112.244 373.595C112.244 373.595 88.8205 363.253 81.6099 347.36C74.3988 331.47 71.5028 324.692 64.9423 320.547C60.8569 317.965 58.4104 316.201 57.1463 315.238C56.4542 314.711 55.4987 314.649 54.7437 315.091C47.7817 319.154 15.0225 340.646 6.90918 389.385Z" fill="#FFC1EB"/>
<path fill-rule="evenodd" clip-rule="evenodd" d="M108.833 371.761L112.146 370.914L122.2 368.685C123.411 368.416 124.682 368.622 125.735 369.255L134.381 374.465L110.504 374.427L108.833 371.761Z" fill="#FFBB45"/>
<path fill-rule="evenodd" clip-rule="evenodd" d="M93.1959 294.388C93.2464 294.721 88.6093 316.486 88.6093 316.486L75.6914 313.686L76.8865 292.432C76.8865 292.432 92.3576 288.822 93.1959 294.388Z" fill="#FFBB45"/>
<path fill-rule="evenodd" clip-rule="evenodd" d="M79.7921 297.168L78.2484 308.31C78.2288 308.452 78.2288 308.593 78.2503 308.735C78.3803 309.609 79.0586 312.582 82.1918 311.732C85.0351 310.96 87.642 310.298 89.4424 310.825C90.2508 311.061 90.739 311.846 90.5699 312.64C90.1479 314.617 89.1114 319.056 87.5962 322.78C87.289 323.536 86.425 323.933 85.6119 323.706C83.1617 323.022 78.0364 321.442 74.2248 319.244C73.708 318.946 73.4003 318.407 73.4255 317.832C73.5499 315.019 73.8933 306.468 73.6042 304.072C73.3327 301.822 70.4504 300.475 69.1982 299.991C68.7876 299.832 68.466 299.524 68.3017 299.129C67.7221 297.738 66.9223 294.516 71.1602 293.197C72.0471 292.921 72.5148 292.005 72.1995 291.164C71.5717 289.49 71.3069 286.935 74.5854 285.528C77.9178 284.097 80.4061 285.8 81.7498 287.182C82.2933 287.741 83.165 287.826 83.839 287.418C84.2229 287.186 84.7173 287.11 85.3147 287.467C86.1196 287.947 87.1856 287.619 87.601 286.803C88.3993 285.234 90.025 283.554 93.2874 284.088C99.0762 285.039 99.7321 291.182 98.205 294.783C96.6778 298.384 90.4628 297.012 87.3452 295.198C84.9745 293.818 81.8994 295.265 80.5618 296.036C80.1379 296.28 79.8574 296.698 79.7921 297.168Z" fill="#5C42AA"/>
<path fill-rule="evenodd" clip-rule="evenodd" d="M73.084 308.133C73.084 308.133 75.4642 301.75 73.0192 300.188C70.5738 298.624 66.9528 299.435 67.7501 304.059C68.7418 309.812 73.084 308.133 73.084 308.133Z" fill="#FFBB45"/>
<path fill-rule="evenodd" clip-rule="evenodd" d="M99.6101 378.952C99.6487 378.953 99.6882 378.955 99.7273 378.955L150.734 378.906C151.995 378.905 153.016 377.927 153.014 376.722C153.012 375.515 151.986 374.519 150.728 374.541L99.7221 374.59C98.4607 374.59 97.44 375.569 97.4414 376.774C97.4433 377.942 98.4035 378.894 99.6101 378.952Z" fill="#5C42AA"/>
<path fill-rule="evenodd" clip-rule="evenodd" d="M170.487 331.106C170.468 331.141 170.451 331.173 170.435 331.207L148.974 375.528C148.443 376.624 148.938 377.923 150.08 378.431C151.223 378.938 152.598 378.465 153.108 377.365L174.571 333.044C175.1 331.949 174.604 330.65 173.463 330.141C172.358 329.65 171.051 330.083 170.487 331.106Z" fill="white"/>
<path d="M122.32 381.403C122.097 382.288 100.814 458.744 95.4183 478.127C94.7962 480.361 96.5329 482.554 98.9202 482.554C100.584 482.554 102.034 481.456 102.438 479.89L126.064 388.14L122.32 381.403Z" fill="#7D97F4"/>
<path d="M133.976 381.403C134.198 382.288 155.481 458.744 160.877 478.127C161.499 480.361 159.762 482.554 157.376 482.554C155.711 482.554 154.261 481.456 153.858 479.89L130.231 388.14L133.976 381.403Z" fill="#7D97F4"/>
<path d="M89.016 376.455H163.029C164.063 376.455 164.967 377.133 165.225 378.104L166.257 381.986C166.63 383.383 165.538 384.743 164.048 384.734L88.1043 384.31C86.632 384.302 85.5579 382.959 85.9175 381.575L86.8164 378.116C87.0702 377.14 87.9767 376.455 89.016 376.455Z" fill="#7D97F4"/>
<path d="M459.293 494.385H464.597V439.455H459.293V494.385Z" fill="#91B3FA"/>
<path d="M485.168 495.445H438.722V492.579C438.722 492.336 438.926 492.138 439.179 492.138H484.706C484.959 492.138 485.168 492.336 485.168 492.579V495.445Z" fill="#91B3FA"/>
<path d="M492.06 437.548C492.06 440.554 489.492 443.01 486.358 443.01H439.364C436.23 443.01 433.662 440.554 433.662 437.548V432.61C433.662 429.605 436.23 427.147 439.364 427.147H486.358C489.492 427.147 492.06 429.605 492.06 432.61V437.548Z" fill="#91B3FA"/>
<path fill-rule="evenodd" clip-rule="evenodd" d="M422.792 402.829C422.792 402.829 414.913 403.999 406.054 409.671C404.663 410.564 403.896 412.121 404.105 413.714C405.163 421.764 409.526 447.817 423.911 473.261C424.668 474.604 424.888 476.164 424.554 477.656L422.053 488.794L417.419 492.957H429.356L437.301 472.356L433.904 471.327C431.27 470.528 429.46 468.208 429.413 465.561L429.017 443.462C429.355 433.617 422.716 426.823 422.716 426.823L441.778 425.935L422.792 402.829Z" fill="#FFBB45"/>
<path fill-rule="evenodd" clip-rule="evenodd" d="M412.761 494.967C411.675 496.33 424.46 498.127 430.919 495.147C430.919 495.147 439.874 480.224 439.874 472.538C439.874 472.538 439.164 470.972 433.905 471.328C433.905 471.328 430.9 488.998 427.723 490.978C424.55 492.957 418.844 491.178 418.844 491.178C418.844 491.178 414.362 492.957 412.761 494.967Z" fill="#FFC1EB"/>
<path fill-rule="evenodd" clip-rule="evenodd" d="M439.364 427.147C439.264 426.979 418.844 424.795 418.844 424.795C418.844 424.795 419.511 430.743 417.419 438.93C415.333 447.119 385.346 482.592 385.346 482.592L388.491 492.138C378.769 495.381 369.208 495.901 359.799 493.792L379.283 482.592C379.283 482.592 397.519 423.069 408.688 412.449L429.161 405.666L439.364 427.147Z" fill="#FFBB45"/>
<path fill-rule="evenodd" clip-rule="evenodd" d="M485.168 392.513C485.168 392.513 496.934 409.276 497.896 416.924C498.863 424.569 494.676 427.676 482.33 428.189C469.983 428.701 437.026 428.694 437.026 428.694L408.895 405.667C408.895 405.667 429.396 398.66 434.726 396.679C440.056 394.698 485.168 392.513 485.168 392.513Z" fill="#FFC1EB"/>
<path fill-rule="evenodd" clip-rule="evenodd" d="M387.303 488.923C387.303 488.923 390.688 492.063 388.402 495.558C388.402 495.558 361.588 500.11 354.307 498.044C354.307 498.044 355.819 494.739 364.016 490.977L363.412 491.423C362.647 491.986 363.095 493.158 364.059 493.105C369.461 492.811 380.639 491.861 387.303 488.923Z" fill="#FFC1EB"/>
<path fill-rule="evenodd" clip-rule="evenodd" d="M453.343 390.294C453.343 390.294 439.644 377.797 432.899 369.52C429.251 365.044 428.108 359.156 429.794 353.713C432.871 343.776 438.344 333.484 438.844 331.884C439.611 329.428 454.972 329.529 454.972 329.529C454.972 329.529 485.205 348.324 497.084 380.159L483.742 384.137C483.742 384.137 475.85 371.452 468.047 363.388C468.047 363.388 481.546 380.464 482.018 387.454L453.343 390.294Z" fill="#FFC1EB"/>
<path fill-rule="evenodd" clip-rule="evenodd" d="M436.987 318.16C437.149 318.67 441.16 331.404 441.47 331.669C441.784 331.932 450.262 332.369 454.259 329.756L447.486 316.177L436.987 318.16Z" fill="#FFBB45"/>
<path fill-rule="evenodd" clip-rule="evenodd" d="M443.575 291.417C443.575 291.417 436.335 294.344 431.414 304.364C426.489 314.384 430.166 319.01 434.782 319.644C439.402 320.28 446.304 320.184 453.611 313.711C460.913 307.238 452.982 287.945 443.575 291.417Z" fill="#FFBB45"/>
<path fill-rule="evenodd" clip-rule="evenodd" d="M448.7 308.362C448.7 308.362 454.163 293.702 440.593 293.529L437.396 295.667C437.396 295.667 432.419 287.539 440.593 283.659C448.762 279.78 460.956 283.233 464.433 293.778C467.91 304.323 465.876 311.133 460.089 316.177C454.306 321.224 451.92 315.503 451.92 315.503C451.92 315.503 455.068 310.783 453.787 308.259C452.505 305.735 449.548 308.781 449.548 308.781L448.7 308.362Z" fill="#150A80"/>
<path fill-rule="evenodd" clip-rule="evenodd" d="M450.219 309.995C450.219 309.995 452.981 302.443 456.663 305.45C460.35 308.458 453.672 312.426 451.057 313.711L450.219 309.995Z" fill="#FFBB45"/>
<path fill-rule="evenodd" clip-rule="evenodd" d="M425.431 391.221L435.495 381.928L449.423 387.563C449.423 387.563 463.284 389.619 471.22 387.563C479.155 385.506 479.155 385.506 479.155 385.506L497.084 380.159L499.899 387.783C500.614 389.717 499.895 391.865 498.146 393.054C496.598 394.111 494.779 395.271 493.621 395.756C491.259 396.745 435.414 395.071 435.414 395.071L425.431 391.221Z" fill="#FFBB45"/>
<path fill-rule="evenodd" clip-rule="evenodd" d="M463.528 395.603C463.485 395.605 463.437 395.607 463.394 395.607L404.997 395.546C403.554 395.544 402.382 394.422 402.382 393.04C402.387 391.656 403.563 390.514 405.002 390.538L463.399 390.599C464.842 390.601 466.009 391.723 466.009 393.105C466.009 394.445 464.909 395.538 463.528 395.603Z" fill="#5C42AA"/>
<path fill-rule="evenodd" clip-rule="evenodd" d="M352.498 344.817H401.134C404.72 344.817 407.983 346.801 409.517 349.908L431.999 395.574H371.56C369.248 395.574 367.17 394.219 366.321 392.161L348.887 349.904C347.879 347.463 349.757 344.817 352.498 344.817Z" fill="#D9D9D9"/>
<path d="M525.637 397.647C525.741 397.012 525.598 396.357 525.26 395.858C524.917 395.36 524.408 395.071 523.869 395.071H341.876C341.17 395.071 340.513 395.504 340.132 396.221C339.751 396.936 339.7 397.835 339.996 398.607L341.968 403.738C342.42 404.914 343.398 405.667 344.475 405.667H522.621C523.622 405.667 524.484 404.812 524.674 403.63L525.637 397.647Z" fill="#7D97F4"/>
<path d="M356.238 505.805C355.955 505.805 355.669 505.751 355.394 505.634C354.309 505.177 353.808 503.945 354.273 502.881L399.125 400.7C399.592 399.637 400.849 399.146 401.935 399.603C403.021 400.061 403.521 401.293 403.054 402.356L358.202 504.537C357.856 505.331 357.067 505.805 356.238 505.805Z" fill="#7D97F4"/>
<path d="M406.764 505.805C405.935 505.805 405.145 505.331 404.797 504.537L359.947 402.356C359.48 401.293 359.981 400.061 361.066 399.603C362.151 399.146 363.409 399.637 363.876 400.7L408.726 502.881C409.193 503.945 408.693 505.177 407.607 505.634C407.331 505.751 407.045 505.805 406.764 505.805Z" fill="#7D97F4"/>
<path d="M464.024 505.805C463.743 505.805 463.457 505.751 463.181 505.634C462.095 505.177 461.595 503.945 462.062 502.881L506.912 400.7C507.379 399.637 508.637 399.146 509.723 399.603C510.809 400.061 511.309 401.293 510.842 402.356L465.991 504.537C465.643 505.331 464.853 505.805 464.024 505.805Z" fill="#7D97F4"/>
<path d="M514.552 505.805C513.724 505.805 512.933 505.331 512.585 504.537L467.734 402.356C467.268 401.293 467.768 400.061 468.854 399.603C469.935 399.146 471.197 399.637 471.664 400.7L516.515 502.881C516.982 503.945 516.482 505.177 515.396 505.634C515.119 505.751 514.833 505.805 514.552 505.805Z" fill="#7D97F4"/>
<path fill-rule="evenodd" clip-rule="evenodd" d="M226.816 186.02C231.809 186.02 235.857 190.745 235.857 196.574C235.857 202.403 231.809 207.128 226.816 207.128C221.823 207.128 217.775 202.403 217.775 196.574C217.775 190.745 221.823 186.02 226.816 186.02Z" fill="#0A015F"/>
<path fill-rule="evenodd" clip-rule="evenodd" d="M214.245 184.397C218.692 184.397 222.297 187.668 222.297 191.703C222.297 195.738 218.692 199.01 214.245 199.01C209.798 199.01 206.193 195.738 206.193 191.703C206.193 187.668 209.798 184.397 214.245 184.397Z" fill="#0A015F"/>
<path fill-rule="evenodd" clip-rule="evenodd" d="M201.912 188.997C205.009 188.997 207.52 190.992 207.52 193.453C207.52 195.914 205.009 197.909 201.912 197.909C198.815 197.909 196.304 195.914 196.304 193.453C196.304 190.992 198.815 188.997 201.912 188.997Z" fill="#0A015F"/>
<path fill-rule="evenodd" clip-rule="evenodd" d="M462.3 274.916C466.63 274.916 470.14 278.611 470.14 283.17C470.14 287.728 466.63 291.423 462.3 291.423C457.97 291.423 454.46 287.728 454.46 283.17C454.46 278.611 457.97 274.916 462.3 274.916Z" fill="#150A80"/>
</svg>
