<svg width="31" height="32" viewBox="0 0 31 32" fill="none" xmlns="http://www.w3.org/2000/svg">
<path opacity="0.5" d="M25.8331 26.3333L20.6019 21.1021M20.6019 21.1021C21.4415 20.2624 22.1076 19.2656 22.562 18.1686C23.0164 17.0716 23.2503 15.8958 23.2503 14.7083C23.2503 13.5209 23.0164 12.3451 22.562 11.2481C22.1076 10.151 21.4415 9.15422 20.6019 8.31458C19.7623 7.47494 18.7655 6.8089 17.6684 6.35449C16.5714 5.90008 15.3956 5.6662 14.2081 5.6662C13.0207 5.6662 11.8449 5.90008 10.7479 6.35449C9.65083 6.8089 8.65403 7.47494 7.81439 8.31458C6.11867 10.0103 5.16602 12.3102 5.16602 14.7083C5.16602 17.1064 6.11867 19.4063 7.81439 21.1021C9.51012 22.7978 11.81 23.7505 14.2081 23.7505C16.6063 23.7505 18.9062 22.7978 20.6019 21.1021V21.1021Z" stroke="white" stroke-width="2" stroke-linecap="round" stroke-linejoin="round"/>
</svg>
