<svg width="26" height="27" viewBox="0 0 26 27" fill="none" xmlns="http://www.w3.org/2000/svg">
<path d="M13 0.5C5.824 0.5 0 6.324 0 13.5C0 20.676 5.824 26.5 13 26.5C20.176 26.5 26 20.676 26 13.5C26 6.324 20.176 0.5 13 0.5ZM19.032 9.34C18.837 11.394 17.992 16.386 17.563 18.687C17.381 19.662 17.017 19.987 16.679 20.026C15.925 20.091 15.353 19.532 14.625 19.051C13.481 18.297 12.831 17.829 11.726 17.101C10.439 16.256 11.271 15.788 12.012 15.034C12.207 14.839 15.535 11.81 15.6 11.537C15.609 11.4957 15.6078 11.4527 15.5965 11.4119C15.5852 11.3712 15.5641 11.3338 15.535 11.303C15.457 11.238 15.353 11.264 15.262 11.277C15.145 11.303 13.325 12.512 9.776 14.904C9.256 15.255 8.788 15.437 8.372 15.424C7.904 15.411 7.02 15.164 6.357 14.943C5.538 14.683 4.901 14.54 4.953 14.085C4.979 13.851 5.304 13.617 5.915 13.37C9.711 11.719 12.233 10.627 13.494 10.107C17.108 8.599 17.849 8.339 18.343 8.339C18.447 8.339 18.694 8.365 18.85 8.495C18.98 8.599 19.019 8.742 19.032 8.846C19.019 8.924 19.045 9.158 19.032 9.34V9.34Z" fill="white"/>
</svg>
