<svg width="25" height="25" viewBox="0 0 25 25" fill="none" xmlns="http://www.w3.org/2000/svg">
<path d="M12.5 0.5C5.59635 0.5 0 5.8725 0 12.5C0 19.1275 5.59635 24.5 12.5 24.5C19.4036 24.5 25 19.1275 25 12.5C25 5.8725 19.4036 0.5 12.5 0.5ZM17.3073 14.0388C17.3073 14.0388 18.4128 15.0863 18.6849 15.5725C18.6927 15.5825 18.6966 15.5925 18.6992 15.5975C18.8099 15.7763 18.8359 15.915 18.7812 16.0187C18.6901 16.1912 18.3776 16.2763 18.2708 16.2838H16.3177C16.1823 16.2838 15.8984 16.25 15.5547 16.0225C15.2904 15.845 15.0299 15.5537 14.776 15.27C14.3971 14.8475 14.069 14.4825 13.7383 14.4825C13.6963 14.4824 13.6545 14.4888 13.6146 14.5013C13.3646 14.5788 13.0443 14.9213 13.0443 15.8338C13.0443 16.1188 12.8099 16.2825 12.6445 16.2825H11.75C11.4453 16.2825 9.85807 16.18 8.45182 14.7563C6.73047 13.0125 5.18099 9.515 5.16797 9.4825C5.07031 9.25625 5.27214 9.135 5.49219 9.135H7.46484C7.72786 9.135 7.8138 9.28875 7.8737 9.425C7.94401 9.58375 8.20182 10.215 8.625 10.925C9.3112 12.0825 9.73177 12.5525 10.069 12.5525C10.1322 12.5518 10.1944 12.5363 10.25 12.5075C10.6901 12.2725 10.6081 10.7662 10.5885 10.4537C10.5885 10.395 10.5872 9.78 10.362 9.485C10.2005 9.27125 9.92578 9.19 9.75911 9.16C9.82657 9.07064 9.91545 8.99818 10.0182 8.94875C10.3203 8.80375 10.8646 8.7825 11.4049 8.7825H11.7057C12.2917 8.79 12.4427 8.82625 12.6549 8.8775C13.0846 8.97625 13.0937 9.2425 13.056 10.1538C13.0443 10.4125 13.0326 10.705 13.0326 11.05C13.0326 11.125 13.0286 11.205 13.0286 11.29C13.0156 11.7537 13 12.28 13.3411 12.4963C13.3856 12.523 13.4371 12.5373 13.4896 12.5375C13.6081 12.5375 13.9648 12.5375 14.931 10.9463C15.229 10.4341 15.4879 9.90185 15.7057 9.35375C15.7253 9.32125 15.7826 9.22125 15.8503 9.1825C15.9002 9.15805 15.9556 9.1456 16.0117 9.14625H18.3307C18.5833 9.14625 18.7565 9.1825 18.7891 9.27625C18.8464 9.425 18.7786 9.87875 17.7201 11.255L17.2474 11.8538C16.2878 13.0613 16.2878 13.1225 17.3073 14.0388V14.0388Z" fill="white"/>
</svg>
