<svg width="25" height="25" viewBox="0 0 25 25" fill="none" xmlns="http://www.w3.org/2000/svg">
<path d="M14.5872 12.2913L11.6628 10.9813C11.4076 10.8675 11.1979 10.995 11.1979 11.2662V13.7338C11.1979 14.005 11.4076 14.1325 11.6628 14.0188L14.5859 12.7088C14.8424 12.5938 14.8424 12.4063 14.5872 12.2913ZM12.5 0.5C5.59635 0.5 0 5.8725 0 12.5C0 19.1275 5.59635 24.5 12.5 24.5C19.4036 24.5 25 19.1275 25 12.5C25 5.8725 19.4036 0.5 12.5 0.5ZM12.5 17.375C6.10156 17.375 5.98958 16.8213 5.98958 12.5C5.98958 8.17875 6.10156 7.625 12.5 7.625C18.8984 7.625 19.0104 8.17875 19.0104 12.5C19.0104 16.8213 18.8984 17.375 12.5 17.375Z" fill="white"/>
</svg>
